G04 Layer_Physical_Order=1*
G04 Layer_Color=255*
%FSLAX25Y25*%
%MOIN*%
G70*
G01*
G75*
%ADD10C,0.00500*%
%ADD11R,0.03150X0.01772*%
%ADD12R,0.11457X0.00866*%
%ADD13C,0.00591*%
%ADD14R,0.07874X0.09843*%
%ADD15R,0.02800X0.08000*%
%ADD16R,0.07874X0.08300*%
%ADD17R,0.07874X0.06700*%
%ADD18R,0.02362X0.09449*%
%ADD19R,0.02362X0.08858*%
%ADD20C,0.01000*%
%ADD21C,0.00300*%
%ADD22C,0.00394*%
%ADD23C,0.00118*%
%ADD24R,0.43307X0.59055*%
%ADD25R,1.18110X1.18110*%
%ADD26R,0.98425X1.39764*%
%ADD27C,0.00197*%
%ADD28C,0.05512*%
%ADD29C,0.04724*%
%ADD30R,0.04724X0.04724*%
%ADD31R,0.04724X0.04724*%
%ADD32C,0.05906*%
%ADD33R,0.05906X0.05906*%
%ADD34C,0.06693*%
%ADD35R,0.06693X0.06693*%
%ADD36R,0.05906X0.05906*%
%ADD37C,0.02362*%
%ADD38C,0.05000*%
G36*
X547200Y283400D02*
X547300Y283359D01*
Y600D01*
X354Y0D01*
X0Y354D01*
Y10339D01*
X3766D01*
Y16260D01*
Y22182D01*
X0D01*
Y49311D01*
X3766D01*
Y53661D01*
Y58011D01*
X0D01*
Y283400D01*
X547200D01*
D02*
G37*
%LPC*%
G36*
X152772Y270094D02*
X149319D01*
Y266642D01*
X152772D01*
Y270094D01*
D02*
G37*
G36*
X148319D02*
X144866D01*
Y266642D01*
X148319D01*
Y270094D01*
D02*
G37*
G36*
X152772Y265642D02*
X149319D01*
Y262189D01*
X152772D01*
Y265642D01*
D02*
G37*
G36*
X148319D02*
X144866D01*
Y262189D01*
X148319D01*
Y265642D01*
D02*
G37*
G36*
X23347Y263976D02*
X20787Y261417D01*
X18425D01*
X15866Y263976D01*
X18141Y261701D01*
X18425Y261319D01*
X18425Y260917D01*
Y252461D01*
X18790D01*
Y251794D01*
X18790Y251794D01*
X18853Y251482D01*
X19029Y251217D01*
X25548Y244699D01*
X25548Y244699D01*
X25812Y244522D01*
X26124Y244460D01*
X26125Y244460D01*
X44642D01*
X44754Y244188D01*
X45203Y243603D01*
X45788Y243154D01*
X46469Y242872D01*
X47200Y242776D01*
X47931Y242872D01*
X48612Y243154D01*
X49197Y243603D01*
X49646Y244188D01*
X49758Y244460D01*
X71653D01*
X71654Y244460D01*
X71966Y244522D01*
X72230Y244699D01*
X85417Y257885D01*
X88762D01*
X89063Y257160D01*
X89553Y256521D01*
X90191Y256031D01*
X90934Y255724D01*
X91732Y255619D01*
X92530Y255724D01*
X93273Y256031D01*
X93912Y256521D01*
X94402Y257160D01*
X94709Y257903D01*
X94814Y258701D01*
X94709Y259499D01*
X94402Y260242D01*
X93912Y260880D01*
X93273Y261370D01*
X92530Y261678D01*
X91732Y261783D01*
X90934Y261678D01*
X90191Y261370D01*
X89553Y260880D01*
X89063Y260242D01*
X88762Y259517D01*
X85079D01*
X85079Y259517D01*
X84767Y259454D01*
X84502Y259278D01*
X71316Y246091D01*
X49959D01*
X49928Y246331D01*
X49646Y247012D01*
X49197Y247597D01*
X48612Y248046D01*
X47931Y248328D01*
X47200Y248424D01*
X46469Y248328D01*
X45788Y248046D01*
X45203Y247597D01*
X44754Y247012D01*
X44472Y246331D01*
X44440Y246091D01*
X26462D01*
X20593Y251961D01*
X20787Y252461D01*
X20787D01*
Y260917D01*
X20787Y261319D01*
X21071Y261701D01*
X23347Y263976D01*
D02*
G37*
G36*
X359449Y263358D02*
X358651Y263253D01*
X357908Y262945D01*
X357269Y262455D01*
X356780Y261817D01*
X356472Y261073D01*
X356366Y260276D01*
X356472Y259478D01*
X356780Y258734D01*
X357269Y258096D01*
X357908Y257606D01*
X358651Y257298D01*
X359449Y257193D01*
X360246Y257298D01*
X360990Y257606D01*
X361628Y258096D01*
X362118Y258734D01*
X362426Y259478D01*
X362531Y260276D01*
X362426Y261073D01*
X362118Y261817D01*
X361628Y262455D01*
X360990Y262945D01*
X360246Y263253D01*
X359449Y263358D01*
D02*
G37*
G36*
X147874Y276012D02*
X147562Y275950D01*
X147297Y275774D01*
X147297Y275774D01*
X140486Y268962D01*
X140459Y268983D01*
X139668Y269311D01*
X138819Y269422D01*
X137970Y269311D01*
X137178Y268983D01*
X136499Y268461D01*
X135977Y267782D01*
X135650Y266991D01*
X135538Y266142D01*
X135650Y265293D01*
X135977Y264501D01*
X136499Y263822D01*
X137178Y263300D01*
X137970Y262973D01*
X138819Y262861D01*
X139668Y262973D01*
X140459Y263300D01*
X141139Y263822D01*
X141660Y264501D01*
X141988Y265293D01*
X142100Y266142D01*
X141988Y266991D01*
X141660Y267782D01*
X141639Y267809D01*
X148212Y274381D01*
X205877D01*
Y215709D01*
X205877Y215709D01*
X205939Y215397D01*
X206116Y215132D01*
X220921Y200328D01*
Y196157D01*
X226245D01*
Y201481D01*
X222074D01*
X207509Y216047D01*
Y274381D01*
X230287D01*
Y250816D01*
X225147D01*
Y252559D01*
X225512D01*
Y262008D01*
X223150D01*
Y252559D01*
X223515D01*
Y250000D01*
X223577Y249688D01*
X223754Y249423D01*
X224019Y249246D01*
X224331Y249184D01*
X231102D01*
X231415Y249246D01*
X231679Y249423D01*
X231856Y249688D01*
X231918Y250000D01*
Y275197D01*
X231856Y275509D01*
X231679Y275774D01*
X231415Y275950D01*
X231102Y276012D01*
X147874D01*
X147874Y276012D01*
D02*
G37*
G36*
X32677Y275265D02*
X31946Y275169D01*
X31265Y274887D01*
X30680Y274438D01*
X30231Y273853D01*
X29984Y273257D01*
X8268D01*
X7956Y273195D01*
X7691Y273018D01*
X7514Y272753D01*
X7452Y272441D01*
Y246932D01*
X7452Y246932D01*
X7514Y246620D01*
X7691Y246355D01*
X23948Y230098D01*
Y205024D01*
X22102D01*
Y199700D01*
X27426D01*
Y205024D01*
X25580D01*
Y230436D01*
X25580Y230436D01*
X25517Y230748D01*
X25341Y231013D01*
X25341Y231013D01*
X9083Y247270D01*
Y271625D01*
X29984D01*
X30231Y271029D01*
X30680Y270444D01*
X31265Y269995D01*
X31861Y269748D01*
Y248847D01*
X29472D01*
X26327Y251992D01*
Y252559D01*
X26693D01*
Y262008D01*
X24331D01*
Y252559D01*
X24696D01*
Y251654D01*
X24696Y251654D01*
X24758Y251341D01*
X24935Y251077D01*
X28557Y247455D01*
X28557Y247455D01*
X28822Y247278D01*
X29134Y247216D01*
X32677D01*
X32989Y247278D01*
X33254Y247455D01*
X33431Y247720D01*
X33493Y248032D01*
Y269748D01*
X34089Y269995D01*
X34674Y270444D01*
X35123Y271029D01*
X35405Y271710D01*
X35501Y272441D01*
X35405Y273172D01*
X35123Y273853D01*
X34674Y274438D01*
X34089Y274887D01*
X33408Y275169D01*
X32677Y275265D01*
D02*
G37*
G36*
X278346Y264933D02*
X277549Y264828D01*
X276805Y264520D01*
X276167Y264030D01*
X275677Y263391D01*
X275369Y262648D01*
X275365Y262613D01*
X275318Y262604D01*
X275053Y262427D01*
X275053Y262427D01*
X259859Y247233D01*
X219241D01*
Y252461D01*
X219606D01*
Y260917D01*
X219606Y261319D01*
X219890Y261701D01*
X219606Y261417D01*
X217244D01*
X214685Y263976D01*
X216960Y261701D01*
X217244Y261319D01*
X217244Y260917D01*
Y252461D01*
X217610D01*
Y246417D01*
X217672Y246105D01*
X217848Y245841D01*
X218113Y245664D01*
X218425Y245602D01*
X260197D01*
X260197Y245602D01*
X260509Y245664D01*
X260774Y245841D01*
X275208Y260275D01*
X275795Y260155D01*
X276167Y259671D01*
X276805Y259181D01*
X277549Y258873D01*
X278346Y258768D01*
X279144Y258873D01*
X279888Y259181D01*
X280526Y259671D01*
X281016Y260309D01*
X281324Y261053D01*
X281429Y261850D01*
X281324Y262648D01*
X281016Y263391D01*
X280526Y264030D01*
X279888Y264520D01*
X279144Y264828D01*
X278346Y264933D01*
D02*
G37*
G36*
X213701Y262008D02*
X211339D01*
Y252559D01*
X211704D01*
Y242400D01*
X211704Y242400D01*
X211766Y242088D01*
X211943Y241823D01*
X222493Y231274D01*
X222493Y231274D01*
X222757Y231097D01*
X223069Y231035D01*
X223070Y231035D01*
X275377D01*
X275677Y230309D01*
X276167Y229671D01*
X276805Y229181D01*
X277549Y228873D01*
X278346Y228768D01*
X279144Y228873D01*
X279888Y229181D01*
X280526Y229671D01*
X281016Y230309D01*
X281324Y231053D01*
X281429Y231850D01*
X281324Y232648D01*
X281016Y233391D01*
X280526Y234030D01*
X279888Y234520D01*
X279144Y234828D01*
X278346Y234933D01*
X277549Y234828D01*
X276805Y234520D01*
X276167Y234030D01*
X275677Y233391D01*
X275377Y232666D01*
X223407D01*
X213335Y242738D01*
Y252559D01*
X213701D01*
Y262008D01*
D02*
G37*
G36*
X525213Y230724D02*
X521760D01*
Y227272D01*
X525213D01*
Y230724D01*
D02*
G37*
G36*
X520760D02*
X517307D01*
Y227272D01*
X520760D01*
Y230724D01*
D02*
G37*
G36*
X359449Y233358D02*
X358651Y233253D01*
X357908Y232945D01*
X357269Y232455D01*
X356780Y231817D01*
X356472Y231073D01*
X356366Y230276D01*
X356472Y229478D01*
X356772Y228752D01*
X342913Y214893D01*
X342736Y214629D01*
X342674Y214317D01*
X342674Y214317D01*
Y127928D01*
X321423Y106677D01*
X321246Y106412D01*
X321184Y106100D01*
X321184Y106100D01*
Y63238D01*
X309746Y51800D01*
X308084D01*
Y53043D01*
X305509D01*
X302935D01*
Y51657D01*
X303635D01*
Y49798D01*
X307384D01*
Y50169D01*
X310084D01*
X310084Y50169D01*
X310396Y50231D01*
X310661Y50407D01*
X322577Y62323D01*
X322577Y62323D01*
X322754Y62588D01*
X322816Y62900D01*
X322816Y62900D01*
Y105762D01*
X344067Y127013D01*
X344067Y127013D01*
X344243Y127278D01*
X344305Y127590D01*
X344305Y127590D01*
Y213979D01*
X357926Y227599D01*
X358651Y227298D01*
X359449Y227193D01*
X360246Y227298D01*
X360990Y227606D01*
X361628Y228096D01*
X362118Y228734D01*
X362426Y229478D01*
X362531Y230276D01*
X362426Y231073D01*
X362118Y231817D01*
X361628Y232455D01*
X360990Y232945D01*
X360246Y233253D01*
X359449Y233358D01*
D02*
G37*
G36*
X14882Y262008D02*
X12520D01*
Y252559D01*
X12885D01*
Y251117D01*
X12885Y251117D01*
X12947Y250804D01*
X13124Y250540D01*
X27626Y236037D01*
X27891Y235861D01*
X28203Y235799D01*
X28203Y235799D01*
X61867D01*
X69541Y228124D01*
X69541Y228124D01*
X69806Y227947D01*
X70118Y227885D01*
X70118Y227885D01*
X88762D01*
X89063Y227160D01*
X89553Y226521D01*
X90191Y226031D01*
X90934Y225724D01*
X91732Y225619D01*
X92530Y225724D01*
X93273Y226031D01*
X93912Y226521D01*
X94402Y227160D01*
X94709Y227903D01*
X94814Y228701D01*
X94709Y229499D01*
X94402Y230242D01*
X93912Y230880D01*
X93273Y231370D01*
X92530Y231678D01*
X91732Y231783D01*
X90934Y231678D01*
X90191Y231370D01*
X89553Y230880D01*
X89063Y230242D01*
X88762Y229517D01*
X70456D01*
X62782Y237191D01*
X62517Y237368D01*
X62205Y237430D01*
X62205Y237430D01*
X28541D01*
X14516Y251454D01*
Y252559D01*
X14882D01*
Y262008D01*
D02*
G37*
G36*
X479287Y236487D02*
X478022Y236362D01*
X476805Y235993D01*
X475684Y235394D01*
X474701Y234587D01*
X473894Y233604D01*
X473294Y232482D01*
X472925Y231265D01*
X472801Y230000D01*
X472925Y228734D01*
X473294Y227518D01*
X473894Y226396D01*
X474701Y225413D01*
X475684Y224606D01*
X476805Y224007D01*
X478022Y223638D01*
X479287Y223513D01*
X480553Y223638D01*
X481770Y224007D01*
X482891Y224606D01*
X483874Y225413D01*
X484681Y226396D01*
X485280Y227518D01*
X485649Y228734D01*
X485774Y230000D01*
X485649Y231265D01*
X485280Y232482D01*
X484681Y233604D01*
X483874Y234587D01*
X482891Y235394D01*
X481770Y235993D01*
X480553Y236362D01*
X479287Y236487D01*
D02*
G37*
G36*
X109587D02*
X108322Y236362D01*
X107105Y235993D01*
X105983Y235394D01*
X105001Y234587D01*
X104194Y233604D01*
X103594Y232482D01*
X103225Y231265D01*
X103101Y230000D01*
X103225Y228734D01*
X103594Y227518D01*
X104194Y226396D01*
X105001Y225413D01*
X105983Y224606D01*
X107105Y224007D01*
X108322Y223638D01*
X109587Y223513D01*
X110853Y223638D01*
X112070Y224007D01*
X113191Y224606D01*
X114174Y225413D01*
X114981Y226396D01*
X115580Y227518D01*
X115949Y228734D01*
X116074Y230000D01*
X115949Y231265D01*
X115580Y232482D01*
X114981Y233604D01*
X114174Y234587D01*
X113191Y235394D01*
X112070Y235993D01*
X110853Y236362D01*
X109587Y236487D01*
D02*
G37*
G36*
X525213Y226272D02*
X521760D01*
Y222819D01*
X525213D01*
Y226272D01*
D02*
G37*
G36*
X520760D02*
X517307D01*
Y222819D01*
X520760D01*
Y226272D01*
D02*
G37*
G36*
X521260Y220052D02*
X520411Y219941D01*
X519620Y219613D01*
X518940Y219092D01*
X518419Y218412D01*
X518091Y217621D01*
X518087Y217587D01*
X514728D01*
X514728Y217587D01*
X514416Y217525D01*
X514152Y217348D01*
X457319Y160516D01*
X420900D01*
X420900Y160516D01*
X420588Y160454D01*
X420323Y160277D01*
X420323Y160277D01*
X410123Y150077D01*
X409946Y149812D01*
X409884Y149500D01*
X409884Y149500D01*
Y51338D01*
X387962Y29416D01*
X296238D01*
X273416Y52238D01*
Y86300D01*
X273416Y86300D01*
X273354Y86612D01*
X273177Y86877D01*
X265228Y94826D01*
X264963Y95002D01*
X264651Y95065D01*
X264651Y95065D01*
X261912D01*
X261456Y95169D01*
X261456Y95565D01*
X261456Y96636D01*
X261456Y97136D01*
X261456Y98289D01*
X261456Y98789D01*
X261456Y99943D01*
X261913Y100047D01*
X266099D01*
X274884Y91262D01*
Y68300D01*
X274884Y68300D01*
X274946Y67988D01*
X275123Y67723D01*
X277223Y65623D01*
X277223Y65623D01*
X277488Y65446D01*
X277800Y65384D01*
X277800Y65384D01*
X280900D01*
X280900Y65384D01*
X281212Y65446D01*
X281477Y65623D01*
X283830Y67977D01*
X283830Y67977D01*
X284007Y68241D01*
X284069Y68554D01*
Y69154D01*
X284666Y69401D01*
X285251Y69849D01*
X285699Y70434D01*
X285981Y71115D01*
X286078Y71846D01*
X285981Y72577D01*
X285699Y73259D01*
X285251Y73843D01*
X284666Y74292D01*
X283984Y74574D01*
X283254Y74671D01*
X282523Y74574D01*
X281841Y74292D01*
X281257Y73843D01*
X280808Y73259D01*
X280526Y72577D01*
X280429Y71846D01*
X280526Y71115D01*
X280808Y70434D01*
X281257Y69849D01*
X281841Y69401D01*
X282151Y69273D01*
X282241Y68694D01*
X280562Y67016D01*
X278138D01*
X276516Y68638D01*
Y91600D01*
X276516Y91600D01*
X276454Y91912D01*
X276277Y92177D01*
X267014Y101440D01*
X266749Y101617D01*
X266437Y101679D01*
X266437Y101679D01*
X261912D01*
X261456Y101784D01*
X261456Y102179D01*
X261456Y103250D01*
X261456Y103750D01*
X261456Y104903D01*
X261456Y105403D01*
X261456Y106557D01*
X261456Y107057D01*
X261456Y108210D01*
X261456Y108710D01*
X261456Y109864D01*
X261456Y110364D01*
X261456Y111518D01*
X261456Y112018D01*
X261456Y113171D01*
X261456Y113671D01*
X261456Y114824D01*
X261456Y115324D01*
Y115965D01*
X262156D01*
Y116898D01*
X255428D01*
Y117898D01*
X262156D01*
Y118552D01*
X255428D01*
Y119552D01*
X262156D01*
Y120206D01*
X255428D01*
Y121206D01*
X262156D01*
Y121859D01*
X255428D01*
Y122859D01*
X262156D01*
Y123792D01*
X262156D01*
Y124233D01*
X262156D01*
Y125166D01*
X255428D01*
Y126166D01*
X262156D01*
Y127099D01*
X262156D01*
Y127540D01*
X262156D01*
Y128473D01*
X255428D01*
Y128973D01*
X254928D01*
Y130406D01*
X248699D01*
Y129870D01*
X248267Y129706D01*
X248199Y129706D01*
X242581D01*
X242551Y129727D01*
X242239Y129789D01*
X216365D01*
X193681Y152473D01*
X193928Y153069D01*
X194024Y153800D01*
X193928Y154531D01*
X193646Y155212D01*
X193197Y155797D01*
X192612Y156246D01*
X191931Y156528D01*
X191200Y156624D01*
X190469Y156528D01*
X189873Y156281D01*
X183281Y162873D01*
X183528Y163469D01*
X183624Y164200D01*
X183528Y164931D01*
X183246Y165612D01*
X182797Y166197D01*
X182212Y166646D01*
X181531Y166928D01*
X180800Y167024D01*
X180069Y166928D01*
X179388Y166646D01*
X178803Y166197D01*
X178354Y165612D01*
X178072Y164931D01*
X177976Y164200D01*
X178072Y163469D01*
X178354Y162788D01*
X178803Y162203D01*
X179388Y161754D01*
X180069Y161472D01*
X180800Y161376D01*
X181531Y161472D01*
X182127Y161719D01*
X188719Y155127D01*
X188472Y154531D01*
X188376Y153800D01*
X188472Y153069D01*
X188754Y152388D01*
X189203Y151803D01*
X189788Y151354D01*
X190469Y151072D01*
X191200Y150976D01*
X191931Y151072D01*
X192527Y151319D01*
X215450Y128396D01*
X215450Y128396D01*
X217104Y126743D01*
X217104Y126743D01*
X218757Y125090D01*
X218757Y125089D01*
X219022Y124913D01*
X219334Y124850D01*
X235754D01*
X236210Y124746D01*
X236210Y124351D01*
X236210Y123280D01*
X235754Y123175D01*
X153159D01*
X153159Y123175D01*
X152847Y123113D01*
X152582Y122936D01*
X152582Y122936D01*
X146123Y116477D01*
X145398Y116777D01*
X144600Y116882D01*
X143802Y116777D01*
X143059Y116469D01*
X142420Y115980D01*
X141931Y115341D01*
X141623Y114598D01*
X141518Y113800D01*
X141623Y113002D01*
X141931Y112259D01*
X142420Y111620D01*
X143059Y111131D01*
X143802Y110823D01*
X144600Y110718D01*
X145398Y110823D01*
X146141Y111131D01*
X146780Y111620D01*
X147269Y112259D01*
X147577Y113002D01*
X147682Y113800D01*
X147577Y114598D01*
X147277Y115323D01*
X153497Y121544D01*
X161683D01*
X161890Y121044D01*
X149662Y108816D01*
X132638D01*
X129077Y112377D01*
X129377Y113102D01*
X129482Y113900D01*
X129377Y114698D01*
X129069Y115441D01*
X128579Y116079D01*
X127941Y116569D01*
X127198Y116877D01*
X126400Y116982D01*
X125602Y116877D01*
X124859Y116569D01*
X124221Y116079D01*
X123731Y115441D01*
X123423Y114698D01*
X123318Y113900D01*
X123423Y113102D01*
X123731Y112359D01*
X124221Y111721D01*
X124859Y111231D01*
X125602Y110923D01*
X126400Y110818D01*
X127198Y110923D01*
X127923Y111223D01*
X131723Y107423D01*
X131988Y107246D01*
X132300Y107184D01*
X132300Y107184D01*
X150000D01*
X150000Y107184D01*
X150312Y107246D01*
X150577Y107423D01*
X163043Y119890D01*
X176129D01*
X176336Y119390D01*
X159862Y102916D01*
X157893D01*
X157646Y103512D01*
X157197Y104097D01*
X156612Y104546D01*
X155931Y104828D01*
X155200Y104924D01*
X154469Y104828D01*
X153788Y104546D01*
X153203Y104097D01*
X152754Y103512D01*
X152472Y102831D01*
X152376Y102100D01*
X152472Y101369D01*
X152754Y100688D01*
X153203Y100103D01*
X153788Y99654D01*
X154469Y99372D01*
X155200Y99276D01*
X155931Y99372D01*
X156612Y99654D01*
X157197Y100103D01*
X157646Y100688D01*
X157893Y101284D01*
X160200D01*
X160200Y101284D01*
X160512Y101346D01*
X160777Y101523D01*
X177490Y118236D01*
X235754D01*
X236210Y118131D01*
X236210Y117736D01*
X236210Y116665D01*
X236210Y116165D01*
X236210Y115012D01*
X236210Y114512D01*
X236210Y113358D01*
X236210Y112858D01*
X236210Y111705D01*
X236210Y111205D01*
X236210Y110051D01*
X236210Y109551D01*
X236210Y108398D01*
X236210Y107898D01*
X236210Y106744D01*
X236210Y106244D01*
X236210Y105090D01*
X236210Y104590D01*
X236210Y103437D01*
X236210Y102937D01*
X236210Y101784D01*
X236210Y101284D01*
X236210Y100130D01*
X236210Y99630D01*
X236210Y98476D01*
X236210Y97976D01*
X236210Y96823D01*
X236210Y96323D01*
X236210Y95169D01*
X235754Y95065D01*
X112849D01*
X112537Y95002D01*
X112272Y94826D01*
X112272Y94826D01*
X90627Y73181D01*
X90031Y73428D01*
X89300Y73524D01*
X88569Y73428D01*
X87888Y73146D01*
X87303Y72697D01*
X86854Y72112D01*
X86572Y71431D01*
X86476Y70700D01*
X86572Y69969D01*
X86854Y69288D01*
X87303Y68703D01*
X87888Y68254D01*
X88569Y67972D01*
X89300Y67876D01*
X90031Y67972D01*
X90712Y68254D01*
X91297Y68703D01*
X91746Y69288D01*
X92028Y69969D01*
X92124Y70700D01*
X92028Y71431D01*
X91781Y72027D01*
X113187Y93433D01*
X235754D01*
X236210Y93328D01*
X236210Y92933D01*
X236210Y91862D01*
X236210Y91362D01*
X236210Y90209D01*
X236210Y89709D01*
X236210Y88555D01*
X236210Y88055D01*
X236210Y86902D01*
X236210Y86402D01*
X236210Y85248D01*
X236210Y84748D01*
X236210Y83595D01*
X235754Y83490D01*
X234264D01*
X231655Y86099D01*
X231655Y86099D01*
X226477Y91277D01*
X226212Y91454D01*
X225900Y91516D01*
X225900Y91516D01*
X116300D01*
X116300Y91516D01*
X115988Y91454D01*
X115723Y91277D01*
X115723Y91277D01*
X89754Y65308D01*
X89165Y65425D01*
X89046Y65712D01*
X88597Y66297D01*
X88012Y66746D01*
X87331Y67028D01*
X86600Y67124D01*
X85869Y67028D01*
X85188Y66746D01*
X84603Y66297D01*
X84154Y65712D01*
X83872Y65031D01*
X83776Y64300D01*
X83872Y63569D01*
X84154Y62888D01*
X84603Y62303D01*
X85188Y61854D01*
X85869Y61572D01*
X86600Y61476D01*
X87331Y61572D01*
X88012Y61854D01*
X88597Y62303D01*
X89046Y62888D01*
X89182Y63216D01*
X89573Y63535D01*
X89821Y63500D01*
X89900Y63484D01*
X90212Y63546D01*
X90477Y63723D01*
X116638Y89884D01*
X225562D01*
X230501Y84945D01*
X230501Y84945D01*
X233110Y82336D01*
X232903Y81836D01*
X231217D01*
X226277Y86777D01*
X226012Y86954D01*
X225700Y87016D01*
X225700Y87016D01*
X117000D01*
X117000Y87016D01*
X116688Y86954D01*
X116423Y86777D01*
X89362Y59716D01*
X79338D01*
X64716Y74338D01*
Y99641D01*
X64797Y99703D01*
X65246Y100288D01*
X65528Y100969D01*
X65624Y101700D01*
X65528Y102431D01*
X65246Y103112D01*
X64797Y103697D01*
X64212Y104146D01*
X63531Y104428D01*
X62800Y104524D01*
X62069Y104428D01*
X61388Y104146D01*
X60803Y103697D01*
X60354Y103112D01*
X60072Y102431D01*
X59976Y101700D01*
X60072Y100969D01*
X60354Y100288D01*
X60803Y99703D01*
X61388Y99254D01*
X62069Y98972D01*
X62800Y98876D01*
X63084Y98627D01*
Y74000D01*
X63084Y74000D01*
X63146Y73688D01*
X63323Y73423D01*
X78423Y58323D01*
X78423Y58323D01*
X78688Y58146D01*
X79000Y58084D01*
X89700D01*
X89700Y58084D01*
X90012Y58146D01*
X90277Y58323D01*
X117338Y85384D01*
X225362D01*
X230064Y80683D01*
X229857Y80183D01*
X170367D01*
X170055Y80121D01*
X169790Y79944D01*
X169790Y79944D01*
X158927Y69081D01*
X158331Y69328D01*
X157600Y69424D01*
X156869Y69328D01*
X156188Y69046D01*
X155603Y68597D01*
X155154Y68012D01*
X154872Y67331D01*
X154776Y66600D01*
X154872Y65869D01*
X155154Y65188D01*
X155603Y64603D01*
X156188Y64154D01*
X156869Y63872D01*
X157600Y63776D01*
X158331Y63872D01*
X159012Y64154D01*
X159597Y64603D01*
X160046Y65188D01*
X160328Y65869D01*
X160424Y66600D01*
X160328Y67331D01*
X160081Y67927D01*
X170705Y78551D01*
X189291D01*
X189498Y78051D01*
X174062Y62616D01*
X154738D01*
X145981Y71373D01*
X146228Y71969D01*
X146324Y72700D01*
X146228Y73431D01*
X145946Y74112D01*
X145497Y74697D01*
X144912Y75146D01*
X144231Y75428D01*
X143500Y75524D01*
X142769Y75428D01*
X142088Y75146D01*
X141503Y74697D01*
X141054Y74112D01*
X140772Y73431D01*
X140676Y72700D01*
X140772Y71969D01*
X141054Y71288D01*
X141503Y70703D01*
X142088Y70254D01*
X142769Y69972D01*
X143500Y69876D01*
X144231Y69972D01*
X144827Y70219D01*
X153823Y61223D01*
X153823Y61223D01*
X154088Y61046D01*
X154400Y60984D01*
X154400Y60984D01*
X174400D01*
X174400Y60984D01*
X174712Y61046D01*
X174977Y61223D01*
X190329Y76576D01*
X190401Y76561D01*
X190565Y76019D01*
X173762Y59216D01*
X150238D01*
X133581Y75873D01*
X133828Y76469D01*
X133924Y77200D01*
X133828Y77931D01*
X133546Y78612D01*
X133097Y79197D01*
X132512Y79646D01*
X131831Y79928D01*
X131100Y80024D01*
X130369Y79928D01*
X129688Y79646D01*
X129103Y79197D01*
X128654Y78612D01*
X128372Y77931D01*
X128276Y77200D01*
X128372Y76469D01*
X128654Y75788D01*
X129103Y75203D01*
X129688Y74754D01*
X130369Y74472D01*
X131100Y74376D01*
X131831Y74472D01*
X132427Y74719D01*
X149323Y57823D01*
X149323Y57823D01*
X149588Y57646D01*
X149900Y57584D01*
X174100D01*
X174100Y57584D01*
X174412Y57646D01*
X174677Y57823D01*
X191846Y74993D01*
X192001Y74962D01*
X192166Y74419D01*
X173562Y55816D01*
X146238D01*
X121781Y80273D01*
X122028Y80869D01*
X122124Y81600D01*
X122028Y82331D01*
X121746Y83012D01*
X121297Y83597D01*
X120712Y84046D01*
X120031Y84328D01*
X119300Y84424D01*
X118569Y84328D01*
X117888Y84046D01*
X117303Y83597D01*
X116854Y83012D01*
X116572Y82331D01*
X116476Y81600D01*
X116572Y80869D01*
X116854Y80188D01*
X117303Y79603D01*
X117888Y79154D01*
X118569Y78872D01*
X119300Y78776D01*
X120031Y78872D01*
X120627Y79119D01*
X145323Y54423D01*
X145588Y54246D01*
X145900Y54184D01*
X145900Y54184D01*
X173900D01*
X173900Y54184D01*
X174212Y54246D01*
X174477Y54423D01*
X193644Y73591D01*
X204930D01*
X205137Y73091D01*
X183762Y51716D01*
X134093D01*
X133846Y52312D01*
X133397Y52897D01*
X132812Y53346D01*
X132131Y53628D01*
X131400Y53724D01*
X130669Y53628D01*
X129988Y53346D01*
X129403Y52897D01*
X128954Y52312D01*
X128672Y51631D01*
X128576Y50900D01*
X128672Y50169D01*
X128954Y49488D01*
X129403Y48903D01*
X129988Y48454D01*
X130669Y48172D01*
X131400Y48076D01*
X132131Y48172D01*
X132812Y48454D01*
X133397Y48903D01*
X133846Y49488D01*
X134093Y50084D01*
X184100D01*
X184100Y50084D01*
X184412Y50146D01*
X184677Y50323D01*
X206291Y71937D01*
X242239D01*
X242551Y71999D01*
X242581Y72020D01*
X248267D01*
X248267Y73486D01*
X248267Y73986D01*
X248267Y75139D01*
X248267Y75639D01*
X248267Y76793D01*
X248267Y77293D01*
X248267Y78447D01*
X248267Y78947D01*
X248267Y80100D01*
X248267Y80600D01*
X248267Y81754D01*
X248267Y82254D01*
X248267Y83407D01*
X248267Y83907D01*
X248267Y85061D01*
X248267Y85561D01*
X248267Y86714D01*
X248267Y87214D01*
X248267Y88368D01*
X248267Y88868D01*
X248267Y90021D01*
X248267Y90521D01*
X248267Y91675D01*
X248267Y92175D01*
X248267Y93328D01*
X248267Y93828D01*
X248267Y94982D01*
X248267Y95482D01*
X248267Y96636D01*
X248267Y97136D01*
X248267Y98289D01*
X248267Y98789D01*
X248267Y99943D01*
X248267Y100443D01*
X248267Y101596D01*
X248267Y102096D01*
X248267Y103250D01*
X248267Y103750D01*
X248267Y104903D01*
X248267Y105403D01*
X248267Y106557D01*
X248267Y107057D01*
X248267Y108210D01*
X248267Y108710D01*
X248267Y109864D01*
X248267Y110364D01*
X248267Y111518D01*
X248267Y112018D01*
X248267Y113171D01*
X248267Y113671D01*
X248267Y114824D01*
X248267Y115802D01*
X248699Y115965D01*
X248767Y115965D01*
X249046D01*
X249399Y115612D01*
X249399Y115012D01*
X249399Y114512D01*
X249399Y113358D01*
X249399Y112858D01*
X249399Y111705D01*
X249399Y111205D01*
X249399Y110051D01*
X249399Y109551D01*
X249399Y108398D01*
X249399Y107898D01*
X249399Y106744D01*
X249399Y106244D01*
X249399Y105090D01*
X249399Y104590D01*
X249399Y103437D01*
X249399Y102937D01*
X249399Y101784D01*
X249399Y101284D01*
X249399Y100130D01*
X249399Y99630D01*
X249399Y98476D01*
X249399Y97976D01*
X249399Y96823D01*
X249399Y96323D01*
X249399Y95169D01*
X249399Y94669D01*
X249399Y93516D01*
X249399Y93016D01*
X249399Y91862D01*
X249399Y91362D01*
X249399Y90209D01*
X249399Y89709D01*
X249399Y88555D01*
X249399Y88055D01*
X249399Y86902D01*
X249399Y86402D01*
X249399Y85248D01*
X249399Y84748D01*
X249399Y83595D01*
X249399Y83095D01*
X249399Y81941D01*
X249399Y81441D01*
X249399Y80287D01*
X249399Y79787D01*
X249399Y78634D01*
X249399Y78134D01*
X249399Y76980D01*
X249399Y76480D01*
X249399Y75327D01*
X249399Y74827D01*
X249399Y73673D01*
X249399Y73173D01*
Y72020D01*
X261456D01*
X261456Y73486D01*
X261456Y73986D01*
X261456Y75139D01*
X261456Y75639D01*
X261456Y76793D01*
X261912Y76898D01*
X262649D01*
X263384Y76162D01*
Y30800D01*
X263384Y30800D01*
X263446Y30488D01*
X263623Y30223D01*
X274723Y19123D01*
X274988Y18946D01*
X275300Y18884D01*
X275300Y18884D01*
X281107D01*
X281354Y18288D01*
X281803Y17703D01*
X282388Y17254D01*
X283069Y16972D01*
X283800Y16876D01*
X284531Y16972D01*
X285212Y17254D01*
X285797Y17703D01*
X286246Y18288D01*
X286528Y18969D01*
X286624Y19700D01*
X286528Y20431D01*
X286246Y21112D01*
X285797Y21697D01*
X285212Y22146D01*
X284531Y22428D01*
X283800Y22524D01*
X283069Y22428D01*
X282388Y22146D01*
X281803Y21697D01*
X281354Y21112D01*
X281107Y20516D01*
X275638D01*
X265016Y31138D01*
Y76500D01*
X265016Y76500D01*
X264960Y76779D01*
X264982Y76810D01*
X265474Y76972D01*
X266384Y76062D01*
Y34100D01*
X266384Y34100D01*
X266446Y33788D01*
X266623Y33523D01*
X273623Y26523D01*
X273623Y26523D01*
X273888Y26346D01*
X274200Y26284D01*
X280307D01*
X280554Y25688D01*
X281003Y25103D01*
X281588Y24654D01*
X282269Y24372D01*
X283000Y24276D01*
X283731Y24372D01*
X284412Y24654D01*
X284997Y25103D01*
X285446Y25688D01*
X285728Y26369D01*
X285824Y27100D01*
X285728Y27831D01*
X285446Y28512D01*
X284997Y29097D01*
X284412Y29546D01*
X283731Y29828D01*
X283000Y29924D01*
X282269Y29828D01*
X281588Y29546D01*
X281003Y29097D01*
X280554Y28512D01*
X280307Y27916D01*
X274538D01*
X268016Y34438D01*
Y76400D01*
X267954Y76712D01*
X267777Y76977D01*
X267777Y76977D01*
X264810Y79944D01*
X264545Y80121D01*
X264233Y80183D01*
X264233Y80183D01*
X261912D01*
X261456Y80287D01*
X261456Y80683D01*
X261456Y81754D01*
X261456Y82254D01*
X261456Y83407D01*
X261456Y83907D01*
X261456Y85061D01*
X261456Y85561D01*
X261456Y86714D01*
X261456Y87214D01*
X261456Y88368D01*
X261456Y88868D01*
X261456Y90021D01*
X261456Y90521D01*
X261456Y91675D01*
X261912Y91780D01*
X262567D01*
X268984Y85362D01*
Y48300D01*
X268984Y48300D01*
X269046Y47988D01*
X269223Y47723D01*
X292923Y24023D01*
X292923Y24023D01*
X293188Y23846D01*
X293500Y23784D01*
X394000D01*
X394000Y23784D01*
X394312Y23846D01*
X394577Y24023D01*
X416777Y46223D01*
X416954Y46488D01*
X417016Y46800D01*
X417016Y46800D01*
Y146262D01*
X423938Y153184D01*
X459100D01*
X459100Y153184D01*
X459412Y153246D01*
X459677Y153423D01*
X512210Y205956D01*
X518087D01*
X518091Y205923D01*
X518419Y205131D01*
X518940Y204452D01*
X519620Y203930D01*
X520411Y203603D01*
X521260Y203491D01*
X522109Y203603D01*
X522900Y203930D01*
X523580Y204452D01*
X524101Y205131D01*
X524429Y205923D01*
X524541Y206772D01*
X524429Y207621D01*
X524101Y208412D01*
X523580Y209091D01*
X522900Y209613D01*
X522109Y209941D01*
X521260Y210052D01*
X520411Y209941D01*
X519620Y209613D01*
X518940Y209091D01*
X518419Y208412D01*
X518091Y207621D01*
X518087Y207587D01*
X511872D01*
X511559Y207525D01*
X511295Y207348D01*
X511295Y207348D01*
X458762Y154816D01*
X423600D01*
X423600Y154816D01*
X423288Y154754D01*
X423023Y154577D01*
X415623Y147177D01*
X415446Y146912D01*
X415384Y146600D01*
X415384Y146600D01*
Y47138D01*
X393662Y25416D01*
X293838D01*
X270616Y48638D01*
Y85700D01*
X270616Y85700D01*
X270554Y86012D01*
X270377Y86277D01*
X270377Y86277D01*
X263825Y92828D01*
X264012Y93312D01*
X264389Y93357D01*
X271784Y85962D01*
Y51900D01*
X271784Y51900D01*
X271846Y51588D01*
X272023Y51323D01*
X295323Y28023D01*
X295323Y28023D01*
X295588Y27846D01*
X295900Y27784D01*
X295900Y27784D01*
X388300D01*
X388300Y27784D01*
X388612Y27846D01*
X388877Y28023D01*
X411277Y50423D01*
X411277Y50423D01*
X411454Y50688D01*
X411516Y51000D01*
Y149162D01*
X421238Y158884D01*
X457657D01*
X457657Y158884D01*
X457969Y158946D01*
X458234Y159123D01*
X515066Y215956D01*
X518087D01*
X518091Y215922D01*
X518419Y215131D01*
X518940Y214452D01*
X519620Y213930D01*
X520411Y213603D01*
X521260Y213491D01*
X522109Y213603D01*
X522900Y213930D01*
X523580Y214452D01*
X524101Y215131D01*
X524429Y215922D01*
X524541Y216772D01*
X524429Y217621D01*
X524101Y218412D01*
X523580Y219092D01*
X522900Y219613D01*
X522109Y219941D01*
X521260Y220052D01*
D02*
G37*
G36*
X91732Y221625D02*
X90935Y221520D01*
X90191Y221213D01*
X89553Y220723D01*
X89063Y220084D01*
X88755Y219341D01*
X88650Y218543D01*
X88755Y217745D01*
X89063Y217002D01*
X89553Y216364D01*
X90191Y215874D01*
X90935Y215566D01*
X91732Y215461D01*
X92530Y215566D01*
X93274Y215874D01*
X93912Y216364D01*
X94402Y217002D01*
X94710Y217745D01*
X94815Y218543D01*
X94710Y219341D01*
X94402Y220084D01*
X93912Y220723D01*
X93274Y221213D01*
X92530Y221520D01*
X91732Y221625D01*
D02*
G37*
G36*
X402862Y215569D02*
Y212744D01*
X405687D01*
X405638Y213122D01*
X405299Y213940D01*
X404760Y214642D01*
X404058Y215181D01*
X403240Y215520D01*
X402862Y215569D01*
D02*
G37*
G36*
X401862D02*
X401484Y215520D01*
X400666Y215181D01*
X399964Y214642D01*
X399425Y213940D01*
X399086Y213122D01*
X399037Y212744D01*
X401862D01*
Y215569D01*
D02*
G37*
G36*
X151481Y218056D02*
X146157D01*
Y212732D01*
X151481D01*
Y218056D01*
D02*
G37*
G36*
X278347Y218476D02*
X277549Y218371D01*
X276805Y218063D01*
X276167Y217573D01*
X275677Y216935D01*
X275369Y216192D01*
X275264Y215394D01*
X275369Y214596D01*
X275677Y213853D01*
X276167Y213214D01*
X276805Y212724D01*
X277549Y212417D01*
X278347Y212312D01*
X279144Y212417D01*
X279888Y212724D01*
X280526Y213214D01*
X281016Y213853D01*
X281324Y214596D01*
X281429Y215394D01*
X281324Y216192D01*
X281016Y216935D01*
X280526Y217573D01*
X279888Y218063D01*
X279144Y218371D01*
X278347Y218476D01*
D02*
G37*
G36*
X405687Y211744D02*
X402862D01*
Y208919D01*
X403240Y208968D01*
X404058Y209307D01*
X404760Y209846D01*
X405299Y210548D01*
X405638Y211366D01*
X405687Y211744D01*
D02*
G37*
G36*
X401862D02*
X399037D01*
X399086Y211366D01*
X399425Y210548D01*
X399964Y209846D01*
X400666Y209307D01*
X401484Y208968D01*
X401862Y208919D01*
Y211744D01*
D02*
G37*
G36*
X54764Y205047D02*
X54069Y204956D01*
X53421Y204688D01*
X52865Y204261D01*
X52438Y203705D01*
X52170Y203057D01*
X52079Y202362D01*
X52170Y201667D01*
X52438Y201020D01*
X52865Y200464D01*
X53421Y200037D01*
X54069Y199768D01*
X54764Y199677D01*
X55459Y199768D01*
X56106Y200037D01*
X56662Y200464D01*
X57089Y201020D01*
X57358Y201667D01*
X57449Y202362D01*
X57358Y203057D01*
X57089Y203705D01*
X56662Y204261D01*
X56106Y204688D01*
X55459Y204956D01*
X54764Y205047D01*
D02*
G37*
G36*
X253583Y201504D02*
X252888Y201413D01*
X252240Y201144D01*
X251684Y200718D01*
X251257Y200162D01*
X250989Y199514D01*
X250898Y198819D01*
X250989Y198124D01*
X251257Y197476D01*
X251684Y196920D01*
X252240Y196494D01*
X252888Y196225D01*
X253583Y196134D01*
X254278Y196225D01*
X254925Y196494D01*
X255482Y196920D01*
X255908Y197476D01*
X256176Y198124D01*
X256268Y198819D01*
X256176Y199514D01*
X255908Y200162D01*
X255482Y200718D01*
X254925Y201144D01*
X254278Y201413D01*
X253583Y201504D01*
D02*
G37*
G36*
X521260Y200052D02*
X520411Y199941D01*
X519620Y199613D01*
X518940Y199091D01*
X518419Y198412D01*
X518091Y197621D01*
X517979Y196772D01*
X518091Y195923D01*
X518419Y195131D01*
X518940Y194452D01*
X519620Y193930D01*
X520411Y193603D01*
X521260Y193491D01*
X522109Y193603D01*
X522900Y193930D01*
X523580Y194452D01*
X524101Y195131D01*
X524429Y195923D01*
X524541Y196772D01*
X524429Y197621D01*
X524101Y198412D01*
X523580Y199091D01*
X522900Y199613D01*
X522109Y199941D01*
X521260Y200052D01*
D02*
G37*
G36*
X91732Y191625D02*
X90935Y191520D01*
X90191Y191212D01*
X89553Y190723D01*
X89063Y190084D01*
X88755Y189341D01*
X88650Y188543D01*
X88755Y187745D01*
X89063Y187002D01*
X89553Y186364D01*
X90191Y185874D01*
X90935Y185566D01*
X91732Y185461D01*
X92530Y185566D01*
X93274Y185874D01*
X93912Y186364D01*
X94402Y187002D01*
X94710Y187745D01*
X94815Y188543D01*
X94710Y189341D01*
X94402Y190084D01*
X93912Y190723D01*
X93274Y191212D01*
X92530Y191520D01*
X91732Y191625D01*
D02*
G37*
G36*
X521260Y190052D02*
X520411Y189941D01*
X519620Y189613D01*
X518940Y189092D01*
X518419Y188412D01*
X518091Y187621D01*
X517979Y186772D01*
X518091Y185923D01*
X518419Y185131D01*
X518940Y184452D01*
X519620Y183930D01*
X520411Y183603D01*
X521260Y183491D01*
X522109Y183603D01*
X522900Y183930D01*
X523580Y184452D01*
X524101Y185131D01*
X524429Y185923D01*
X524541Y186772D01*
X524429Y187621D01*
X524101Y188412D01*
X523580Y189092D01*
X522900Y189613D01*
X522109Y189941D01*
X521260Y190052D01*
D02*
G37*
G36*
X148819Y188079D02*
X148124Y187987D01*
X147476Y187719D01*
X146920Y187293D01*
X146493Y186736D01*
X146225Y186089D01*
X146134Y185394D01*
X146225Y184699D01*
X146493Y184051D01*
X146920Y183495D01*
X147476Y183068D01*
X148124Y182800D01*
X148819Y182709D01*
X149514Y182800D01*
X150161Y183068D01*
X150717Y183495D01*
X151144Y184051D01*
X151412Y184699D01*
X151504Y185394D01*
X151412Y186089D01*
X151144Y186736D01*
X150717Y187293D01*
X150161Y187719D01*
X149514Y187987D01*
X148819Y188079D01*
D02*
G37*
G36*
X278347Y188476D02*
X277549Y188371D01*
X276805Y188063D01*
X276167Y187573D01*
X275677Y186935D01*
X275369Y186192D01*
X275264Y185394D01*
X275369Y184596D01*
X275677Y183853D01*
X276167Y183214D01*
X276805Y182724D01*
X277549Y182417D01*
X278347Y182311D01*
X279144Y182417D01*
X279888Y182724D01*
X280526Y183214D01*
X281016Y183853D01*
X281324Y184596D01*
X281429Y185394D01*
X281324Y186192D01*
X281016Y186935D01*
X280526Y187573D01*
X279888Y188063D01*
X279144Y188371D01*
X278347Y188476D01*
D02*
G37*
G36*
X365000Y266416D02*
X365000Y266416D01*
X352300D01*
X351988Y266354D01*
X351723Y266177D01*
X351723Y266177D01*
X323833Y238286D01*
X323656Y238022D01*
X323594Y237710D01*
X323594Y237709D01*
Y214119D01*
X321747D01*
Y208795D01*
X325918D01*
X331684Y203028D01*
Y135805D01*
X327888Y132009D01*
X327292Y132255D01*
X326561Y132352D01*
X325830Y132255D01*
X325149Y131973D01*
X324564Y131525D01*
X324115Y130940D01*
X323833Y130259D01*
X323736Y129528D01*
X323833Y128797D01*
X324115Y128115D01*
X324564Y127531D01*
X325149Y127082D01*
X325830Y126800D01*
X326561Y126703D01*
X327292Y126800D01*
X327973Y127082D01*
X328558Y127531D01*
X329006Y128115D01*
X329289Y128797D01*
X329385Y129528D01*
X329289Y130259D01*
X329042Y130855D01*
X333077Y134890D01*
X333254Y135155D01*
X333316Y135467D01*
X333316Y135467D01*
Y203366D01*
X333254Y203678D01*
X333077Y203943D01*
X333077Y203943D01*
X327072Y209948D01*
Y214119D01*
X325225D01*
Y237372D01*
X352638Y264784D01*
X364662D01*
X368784Y260662D01*
Y196500D01*
X368784Y196500D01*
X368846Y196188D01*
X369023Y195923D01*
X383323Y181623D01*
X383323Y181623D01*
X383588Y181446D01*
X383900Y181384D01*
X399700D01*
Y179582D01*
X405024D01*
Y184906D01*
X399700D01*
Y183016D01*
X384238D01*
X370416Y196838D01*
Y261000D01*
X370354Y261312D01*
X370177Y261577D01*
X370177Y261577D01*
X365577Y266177D01*
X365312Y266354D01*
X365000Y266416D01*
D02*
G37*
G36*
X324410Y184142D02*
X323715Y184051D01*
X323067Y183782D01*
X322511Y183355D01*
X322084Y182799D01*
X321816Y182152D01*
X321724Y181457D01*
X321816Y180762D01*
X322084Y180114D01*
X322511Y179558D01*
X323067Y179131D01*
X323715Y178863D01*
X324410Y178772D01*
X325105Y178863D01*
X325752Y179131D01*
X326308Y179558D01*
X326735Y180114D01*
X327003Y180762D01*
X327095Y181457D01*
X327003Y182152D01*
X326735Y182799D01*
X326308Y183355D01*
X325752Y183782D01*
X325105Y184051D01*
X324410Y184142D01*
D02*
G37*
G36*
X521260Y180052D02*
X520411Y179941D01*
X519620Y179613D01*
X518940Y179092D01*
X518419Y178412D01*
X518091Y177621D01*
X517979Y176772D01*
X518091Y175923D01*
X518419Y175131D01*
X518940Y174452D01*
X519620Y173930D01*
X520411Y173603D01*
X521260Y173491D01*
X522109Y173603D01*
X522900Y173930D01*
X523580Y174452D01*
X524101Y175131D01*
X524429Y175923D01*
X524541Y176772D01*
X524429Y177621D01*
X524101Y178412D01*
X523580Y179092D01*
X522900Y179613D01*
X522109Y179941D01*
X521260Y180052D01*
D02*
G37*
G36*
X187700Y170516D02*
X187700Y170516D01*
X175700D01*
X175700Y170516D01*
X175388Y170454D01*
X175123Y170277D01*
X175123Y170277D01*
X149462Y144616D01*
X147570D01*
X147269Y145341D01*
X146780Y145979D01*
X146141Y146469D01*
X145398Y146777D01*
X144600Y146882D01*
X143802Y146777D01*
X143059Y146469D01*
X142420Y145979D01*
X141931Y145341D01*
X141623Y144598D01*
X141518Y143800D01*
X141623Y143002D01*
X141931Y142259D01*
X142420Y141621D01*
X143059Y141131D01*
X143802Y140823D01*
X144600Y140718D01*
X145398Y140823D01*
X146141Y141131D01*
X146780Y141621D01*
X147269Y142259D01*
X147570Y142984D01*
X149800D01*
X149800Y142984D01*
X150112Y143046D01*
X150377Y143223D01*
X176038Y168884D01*
X187362D01*
X194323Y161923D01*
X194323Y161923D01*
X194588Y161746D01*
X194900Y161684D01*
X194900Y161684D01*
X274762D01*
X308905Y127542D01*
Y105095D01*
X307384D01*
Y105465D01*
X303635D01*
Y103606D01*
X302935D01*
Y102220D01*
X305509D01*
X308084D01*
Y103464D01*
X309383D01*
X312384Y100462D01*
Y67693D01*
X311788Y67446D01*
X311203Y66997D01*
X310754Y66412D01*
X310472Y65731D01*
X310376Y65000D01*
X310472Y64269D01*
X310754Y63588D01*
X311203Y63003D01*
X311788Y62554D01*
X312384Y62307D01*
Y59938D01*
X309365Y56918D01*
X307384D01*
Y57288D01*
X303635D01*
Y55429D01*
X302935D01*
Y54043D01*
X305509D01*
X308084D01*
Y55287D01*
X309702D01*
X309702Y55287D01*
X310015Y55349D01*
X310279Y55526D01*
X313777Y59023D01*
X313777Y59023D01*
X313954Y59288D01*
X314016Y59600D01*
Y62307D01*
X314612Y62554D01*
X315197Y63003D01*
X315646Y63588D01*
X315928Y64269D01*
X316024Y65000D01*
X315928Y65731D01*
X315646Y66412D01*
X315197Y66997D01*
X314612Y67446D01*
X314016Y67693D01*
Y100800D01*
X314016Y100800D01*
X313954Y101112D01*
X313777Y101377D01*
X313777Y101377D01*
X310536Y104618D01*
Y127880D01*
X310536Y127880D01*
X310474Y128192D01*
X310297Y128456D01*
X275677Y163077D01*
X275412Y163254D01*
X275100Y163316D01*
X275100Y163316D01*
X195238D01*
X188277Y170277D01*
X188012Y170454D01*
X187700Y170516D01*
D02*
G37*
G36*
X47200Y164982D02*
X46402Y164877D01*
X45659Y164569D01*
X45020Y164079D01*
X44531Y163441D01*
X44223Y162698D01*
X44118Y161900D01*
X44223Y161102D01*
X44531Y160359D01*
X45020Y159721D01*
X45659Y159231D01*
X46402Y158923D01*
X47200Y158818D01*
X47998Y158923D01*
X48741Y159231D01*
X49380Y159721D01*
X49869Y160359D01*
X50177Y161102D01*
X50282Y161900D01*
X50177Y162698D01*
X49869Y163441D01*
X49380Y164079D01*
X48741Y164569D01*
X47998Y164877D01*
X47200Y164982D01*
D02*
G37*
G36*
X24900Y155425D02*
Y152600D01*
X27725D01*
X27676Y152978D01*
X27337Y153796D01*
X26798Y154498D01*
X26096Y155037D01*
X25278Y155376D01*
X24900Y155425D01*
D02*
G37*
G36*
X23900D02*
X23522Y155376D01*
X22704Y155037D01*
X22002Y154498D01*
X21463Y153796D01*
X21124Y152978D01*
X21075Y152600D01*
X23900D01*
Y155425D01*
D02*
G37*
G36*
X27725Y151600D02*
X24900D01*
Y148775D01*
X25278Y148824D01*
X26096Y149163D01*
X26798Y149702D01*
X27337Y150404D01*
X27676Y151222D01*
X27725Y151600D01*
D02*
G37*
G36*
X23900D02*
X21075D01*
X21124Y151222D01*
X21463Y150404D01*
X22002Y149702D01*
X22704Y149163D01*
X23522Y148824D01*
X23900Y148775D01*
Y151600D01*
D02*
G37*
G36*
X66500Y168716D02*
X66500Y168716D01*
X19000D01*
X18688Y168654D01*
X18423Y168477D01*
X18423Y168477D01*
X9423Y159477D01*
X9246Y159212D01*
X9184Y158900D01*
X9184Y158900D01*
Y147070D01*
X8459Y146769D01*
X7820Y146280D01*
X7331Y145641D01*
X7023Y144898D01*
X6918Y144100D01*
X7023Y143302D01*
X7331Y142559D01*
X7820Y141920D01*
X8459Y141431D01*
X9202Y141123D01*
X10000Y141018D01*
X10798Y141123D01*
X11541Y141431D01*
X12179Y141920D01*
X12669Y142559D01*
X12977Y143302D01*
X13082Y144100D01*
X12977Y144898D01*
X12669Y145641D01*
X12179Y146280D01*
X11541Y146769D01*
X10816Y147070D01*
Y158562D01*
X19338Y167084D01*
X63477D01*
X63669Y166622D01*
X57823Y160777D01*
X57646Y160512D01*
X57584Y160200D01*
X57584Y160200D01*
Y137038D01*
X20023Y99477D01*
X19488Y99576D01*
X19387Y99660D01*
Y102763D01*
X19477Y102823D01*
X24977Y108323D01*
X24977Y108323D01*
X25154Y108588D01*
X25216Y108900D01*
Y119556D01*
X25743Y119775D01*
X26299Y120201D01*
X26725Y120757D01*
X26994Y121405D01*
X27085Y122100D01*
X27071Y122208D01*
X27401Y122584D01*
X38700D01*
X38700Y122584D01*
X39012Y122646D01*
X39277Y122823D01*
X45677Y129223D01*
X46402Y128923D01*
X47200Y128818D01*
X47998Y128923D01*
X48741Y129231D01*
X49380Y129720D01*
X49869Y130359D01*
X50177Y131102D01*
X50282Y131900D01*
X50177Y132698D01*
X49869Y133441D01*
X49380Y134080D01*
X48741Y134569D01*
X47998Y134877D01*
X47200Y134982D01*
X46402Y134877D01*
X45659Y134569D01*
X45020Y134080D01*
X44531Y133441D01*
X44223Y132698D01*
X44118Y131900D01*
X44223Y131102D01*
X44523Y130377D01*
X38362Y124216D01*
X26016D01*
X25743Y124425D01*
X25095Y124694D01*
X24400Y124785D01*
X23705Y124694D01*
X23057Y124425D01*
X22501Y123999D01*
X22075Y123443D01*
X21806Y122795D01*
X21715Y122100D01*
X21806Y121405D01*
X22075Y120757D01*
X22501Y120201D01*
X23057Y119775D01*
X23584Y119556D01*
Y109238D01*
X18323Y103977D01*
X18146Y103712D01*
X18084Y103400D01*
X18146Y103088D01*
X18323Y102823D01*
X18413Y102763D01*
Y92174D01*
X18556Y91830D01*
X23688Y86698D01*
X23637Y86087D01*
X23622Y86077D01*
X23242Y85920D01*
X21369D01*
X16196Y91093D01*
X16346Y91288D01*
X16628Y91969D01*
X16724Y92700D01*
X16628Y93431D01*
X16346Y94112D01*
X15897Y94697D01*
X15312Y95146D01*
X14631Y95428D01*
X13900Y95524D01*
X13169Y95428D01*
X12488Y95146D01*
X11903Y94697D01*
X11454Y94112D01*
X11172Y93431D01*
X11076Y92700D01*
X11172Y91969D01*
X11454Y91288D01*
X11903Y90703D01*
X12488Y90254D01*
X13169Y89972D01*
X13900Y89876D01*
X14631Y89972D01*
X15312Y90254D01*
X15507Y90404D01*
X20823Y85089D01*
X21167Y84946D01*
X23242D01*
X23314Y84916D01*
Y84375D01*
X23173Y84316D01*
X23166Y84314D01*
X22978Y83858D01*
X22980Y83852D01*
X23166Y83403D01*
X23000Y82930D01*
X22839Y82771D01*
X22218D01*
X20944Y84044D01*
X20600Y84187D01*
X18560D01*
X18528Y84431D01*
X18246Y85112D01*
X17797Y85697D01*
X17212Y86146D01*
X16531Y86428D01*
X15800Y86524D01*
X15069Y86428D01*
X14388Y86146D01*
X13803Y85697D01*
X13354Y85112D01*
X13072Y84431D01*
X12976Y83700D01*
X13072Y82969D01*
X13354Y82288D01*
X13803Y81703D01*
X14388Y81254D01*
X15069Y80972D01*
X15293Y80943D01*
X15452Y80417D01*
X15417Y80387D01*
X12402D01*
X8387Y84402D01*
Y97698D01*
X12444Y101756D01*
X12587Y102100D01*
X12587Y102100D01*
Y104040D01*
X12831Y104072D01*
X13512Y104354D01*
X14097Y104803D01*
X14546Y105388D01*
X14828Y106069D01*
X14924Y106800D01*
X14828Y107531D01*
X14546Y108212D01*
X14097Y108797D01*
X13512Y109246D01*
X12831Y109528D01*
X12100Y109624D01*
X11369Y109528D01*
X10688Y109246D01*
X10103Y108797D01*
X9654Y108212D01*
X9372Y107531D01*
X9276Y106800D01*
X9372Y106069D01*
X9654Y105388D01*
X10103Y104803D01*
X10688Y104354D01*
X11369Y104072D01*
X11613Y104040D01*
Y102302D01*
X7556Y98244D01*
X7413Y97900D01*
Y84200D01*
X7556Y83856D01*
X11624Y79787D01*
X11417Y79287D01*
X10302D01*
X6587Y83002D01*
Y100140D01*
X6831Y100172D01*
X7512Y100454D01*
X8097Y100903D01*
X8546Y101488D01*
X8828Y102169D01*
X8924Y102900D01*
X8828Y103631D01*
X8546Y104312D01*
X8097Y104897D01*
X7512Y105346D01*
X6831Y105628D01*
X6100Y105724D01*
X5369Y105628D01*
X4688Y105346D01*
X4103Y104897D01*
X3654Y104312D01*
X3372Y103631D01*
X3276Y102900D01*
X3372Y102169D01*
X3654Y101488D01*
X4103Y100903D01*
X4688Y100454D01*
X5369Y100172D01*
X5613Y100140D01*
Y82800D01*
X5756Y82456D01*
X7741Y80470D01*
X7411Y80093D01*
X7212Y80246D01*
X6531Y80528D01*
X5800Y80624D01*
X5069Y80528D01*
X4388Y80246D01*
X3803Y79797D01*
X3354Y79212D01*
X3072Y78531D01*
X2976Y77800D01*
X3072Y77069D01*
X3354Y76388D01*
X3803Y75803D01*
X4388Y75354D01*
X5069Y75072D01*
X5800Y74976D01*
X6531Y75072D01*
X7212Y75354D01*
X7797Y75803D01*
X8246Y76388D01*
X8528Y77069D01*
X8560Y77313D01*
X11953D01*
X12083Y76964D01*
X12097Y76813D01*
X8454Y73170D01*
X7831Y73428D01*
X7100Y73524D01*
X6369Y73428D01*
X5688Y73146D01*
X5103Y72697D01*
X4654Y72112D01*
X4372Y71431D01*
X4276Y70700D01*
X4372Y69969D01*
X4654Y69288D01*
X5103Y68703D01*
X5688Y68254D01*
X6369Y67972D01*
X7100Y67876D01*
X7831Y67972D01*
X8512Y68254D01*
X9097Y68703D01*
X9546Y69288D01*
X9828Y69969D01*
X9924Y70700D01*
X9828Y71431D01*
X9546Y72112D01*
X9210Y72549D01*
X12674Y76013D01*
X18317D01*
X18524Y75513D01*
X17136Y74125D01*
X16472Y74168D01*
X16297Y74397D01*
X15712Y74846D01*
X15031Y75128D01*
X14300Y75224D01*
X13569Y75128D01*
X12888Y74846D01*
X12303Y74397D01*
X11854Y73812D01*
X11572Y73131D01*
X11476Y72400D01*
X11572Y71669D01*
X11854Y70988D01*
X12303Y70403D01*
X12888Y69954D01*
X13569Y69672D01*
X14300Y69576D01*
X15031Y69672D01*
X15712Y69954D01*
X16297Y70403D01*
X16746Y70988D01*
X17028Y71669D01*
X17124Y72400D01*
X17085Y72696D01*
X19402Y75013D01*
X21217D01*
X21424Y74513D01*
X19995Y73084D01*
X19569Y73028D01*
X18888Y72746D01*
X18303Y72297D01*
X17854Y71712D01*
X17572Y71031D01*
X17476Y70300D01*
X17572Y69569D01*
X17854Y68888D01*
X18303Y68303D01*
X18888Y67854D01*
X19569Y67572D01*
X20300Y67476D01*
X21031Y67572D01*
X21712Y67854D01*
X22297Y68303D01*
X22746Y68888D01*
X23028Y69569D01*
X23124Y70300D01*
X23028Y71031D01*
X22746Y71712D01*
X22297Y72297D01*
X21729Y72733D01*
X21655Y72805D01*
X21591Y73303D01*
X22202Y73913D01*
X23300D01*
X23644Y74056D01*
X23651Y74062D01*
X23885Y73980D01*
X24113Y73817D01*
Y67002D01*
X23798Y66687D01*
X17200D01*
X16856Y66544D01*
X15554Y65243D01*
X15411Y64898D01*
Y62361D01*
X14198D01*
Y53761D01*
X17598D01*
Y62361D01*
X16385D01*
Y64696D01*
X17402Y65713D01*
X24000D01*
X24344Y65856D01*
X24944Y66456D01*
X25087Y66800D01*
Y73698D01*
X28691Y77302D01*
X28833Y77646D01*
Y78754D01*
X28988Y79126D01*
X29453Y79317D01*
X30811Y77958D01*
X28556Y75703D01*
X28457Y75466D01*
X28169Y75428D01*
X27488Y75146D01*
X26903Y74697D01*
X26454Y74112D01*
X26172Y73431D01*
X26076Y72700D01*
X26172Y71969D01*
X26454Y71288D01*
X26903Y70703D01*
X27488Y70254D01*
X28169Y69972D01*
X28900Y69876D01*
X29631Y69972D01*
X30312Y70254D01*
X30511Y70407D01*
X30841Y70030D01*
X25398Y64587D01*
X20200D01*
X19856Y64444D01*
X19713Y64100D01*
X19741Y64032D01*
Y62361D01*
X18528D01*
Y53761D01*
X21928Y53761D01*
X22159Y53357D01*
Y53061D01*
X24059D01*
Y58061D01*
Y63061D01*
X22159D01*
Y62766D01*
X21928Y62361D01*
X21659Y62361D01*
X20715D01*
Y63613D01*
X25600D01*
X25944Y63756D01*
X32844Y70656D01*
X32987Y71000D01*
Y74764D01*
X32844Y75108D01*
X31571Y76382D01*
X33144Y77956D01*
X33287Y78300D01*
X33144Y78644D01*
X30736Y81053D01*
X30391Y81196D01*
X29239D01*
X29038Y81696D01*
X29142Y81796D01*
X32515D01*
X36756Y77556D01*
X36756Y77556D01*
X37100Y77413D01*
X37998D01*
X40556Y74856D01*
X40900Y74713D01*
X41283Y74443D01*
X41554Y73788D01*
X42003Y73203D01*
X42588Y72754D01*
X43269Y72472D01*
X44000Y72376D01*
X44731Y72472D01*
X45412Y72754D01*
X45997Y73203D01*
X46446Y73788D01*
X46728Y74469D01*
X46824Y75200D01*
X46728Y75931D01*
X46446Y76612D01*
X45997Y77197D01*
X45412Y77646D01*
X44731Y77928D01*
X44000Y78024D01*
X43269Y77928D01*
X42588Y77646D01*
X42003Y77197D01*
X41554Y76612D01*
X41358Y76138D01*
X40863Y75994D01*
X40782Y76007D01*
X38544Y78244D01*
X38379Y78313D01*
X38478Y78813D01*
X49913D01*
Y75702D01*
X42298Y68087D01*
X37500D01*
X37500Y68087D01*
X37156Y67944D01*
X32877Y63666D01*
X32734Y63321D01*
Y62361D01*
X31521D01*
Y53761D01*
X34921D01*
Y62361D01*
X33708D01*
Y63119D01*
X37702Y67113D01*
X39838D01*
X40024Y66613D01*
X37556Y64144D01*
X37413Y63800D01*
Y62361D01*
X35851D01*
Y53761D01*
X39251D01*
Y62361D01*
X38387D01*
Y63598D01*
X40702Y65913D01*
X43422D01*
X43521Y65413D01*
X43356Y65344D01*
X41538Y63527D01*
X41395Y63182D01*
Y62361D01*
X40182D01*
Y53761D01*
X43582D01*
Y62361D01*
X42369D01*
Y62980D01*
X43902Y64513D01*
X46000D01*
X46200Y64596D01*
X46483Y64172D01*
X45869Y63558D01*
X45726Y63213D01*
Y62361D01*
X44513D01*
Y53761D01*
X47913D01*
Y62361D01*
X46700D01*
Y63011D01*
X59244Y75556D01*
X59244Y75556D01*
X59387Y75900D01*
Y93240D01*
X59631Y93272D01*
X60312Y93554D01*
X60897Y94003D01*
X61346Y94588D01*
X61628Y95269D01*
X61724Y96000D01*
X61628Y96731D01*
X61346Y97412D01*
X60897Y97997D01*
X60312Y98446D01*
X59631Y98728D01*
X58900Y98824D01*
X58169Y98728D01*
X57488Y98446D01*
X56903Y97997D01*
X56454Y97412D01*
X56172Y96731D01*
X56076Y96000D01*
X56172Y95269D01*
X56454Y94588D01*
X56903Y94003D01*
X57488Y93554D01*
X58169Y93272D01*
X58413Y93240D01*
Y76102D01*
X57828Y75517D01*
X57404Y75800D01*
X57487Y76000D01*
Y85900D01*
X57487Y85900D01*
X57344Y86244D01*
X53906Y89683D01*
X53939Y90182D01*
X54097Y90303D01*
X54546Y90888D01*
X54828Y91569D01*
X54924Y92300D01*
X54828Y93031D01*
X54546Y93712D01*
X54097Y94297D01*
X53512Y94746D01*
X52831Y95028D01*
X52100Y95124D01*
X51369Y95028D01*
X50688Y94746D01*
X50103Y94297D01*
X49654Y93712D01*
X49372Y93031D01*
X49276Y92300D01*
X49372Y91569D01*
X49654Y90888D01*
X50103Y90303D01*
X50688Y89854D01*
X51369Y89572D01*
X52100Y89476D01*
X52661Y89550D01*
X56513Y85698D01*
Y81620D01*
X56044Y81444D01*
X55700Y81587D01*
X44502D01*
X42544Y83544D01*
X42200Y83687D01*
X41860D01*
X41828Y83931D01*
X41546Y84612D01*
X41097Y85197D01*
X40512Y85646D01*
X39831Y85928D01*
X39100Y86024D01*
X38369Y85928D01*
X37688Y85646D01*
X37103Y85197D01*
X36654Y84612D01*
X36372Y83931D01*
X36276Y83200D01*
X36372Y82469D01*
X36654Y81788D01*
X37103Y81203D01*
X37688Y80754D01*
X38369Y80472D01*
X39100Y80376D01*
X39831Y80472D01*
X40512Y80754D01*
X41097Y81203D01*
X41546Y81788D01*
X41742Y82262D01*
X42237Y82406D01*
X42318Y82393D01*
X43956Y80756D01*
X44300Y80613D01*
X55213D01*
Y78002D01*
X44098Y66887D01*
X43162D01*
X42976Y67387D01*
X50744Y75156D01*
X50887Y75500D01*
X50887Y75500D01*
Y79300D01*
X50744Y79644D01*
X50400Y79787D01*
X37402D01*
X33744Y83444D01*
X33400Y83587D01*
X33029D01*
X32838Y84049D01*
X51294Y102505D01*
X51400Y102484D01*
X51712Y102546D01*
X51977Y102723D01*
X52154Y102988D01*
X52216Y103300D01*
Y123362D01*
X70278Y141425D01*
X70805Y141206D01*
X71500Y141115D01*
X72195Y141206D01*
X72843Y141475D01*
X73399Y141901D01*
X73825Y142457D01*
X74094Y143105D01*
X74185Y143800D01*
X74094Y144495D01*
X73825Y145143D01*
X73399Y145699D01*
X72843Y146125D01*
X72195Y146394D01*
X71500Y146485D01*
X70805Y146394D01*
X70157Y146125D01*
X69601Y145699D01*
X69175Y145143D01*
X68906Y144495D01*
X68815Y143800D01*
X68906Y143105D01*
X69125Y142578D01*
X50823Y124277D01*
X50646Y124012D01*
X50584Y123700D01*
X50584Y123700D01*
Y103300D01*
X50605Y103194D01*
X30998Y83587D01*
X29172D01*
X28991Y83858D01*
X28802Y84314D01*
X28968Y84786D01*
X29130Y84946D01*
X30803D01*
X31148Y85089D01*
X36944Y90885D01*
X37087Y91230D01*
Y93540D01*
X37331Y93572D01*
X38012Y93854D01*
X38597Y94303D01*
X39046Y94888D01*
X39328Y95569D01*
X39424Y96300D01*
X39328Y97031D01*
X39046Y97712D01*
X38597Y98297D01*
X38012Y98746D01*
X37331Y99028D01*
X36600Y99124D01*
X35869Y99028D01*
X35188Y98746D01*
X34603Y98297D01*
X34154Y97712D01*
X33872Y97031D01*
X33776Y96300D01*
X33872Y95569D01*
X34154Y94888D01*
X34603Y94303D01*
X35188Y93854D01*
X35869Y93572D01*
X36113Y93540D01*
Y91431D01*
X30602Y85920D01*
X29130D01*
X29116Y85930D01*
X28837Y86420D01*
X28887Y86541D01*
X28787Y86782D01*
Y94240D01*
X29031Y94272D01*
X29712Y94554D01*
X30297Y95003D01*
X30746Y95588D01*
X31028Y96269D01*
X31124Y97000D01*
X31028Y97731D01*
X30746Y98412D01*
X30297Y98997D01*
X29712Y99446D01*
X29031Y99728D01*
X28300Y99824D01*
X27569Y99728D01*
X26888Y99446D01*
X26303Y98997D01*
X25854Y98412D01*
X25687Y98009D01*
X25187Y98108D01*
Y98998D01*
X27202Y101013D01*
X40012D01*
X40403Y100503D01*
X40988Y100054D01*
X41669Y99772D01*
X42400Y99676D01*
X43131Y99772D01*
X43812Y100054D01*
X44397Y100503D01*
X44846Y101088D01*
X45128Y101769D01*
X45224Y102500D01*
X45128Y103231D01*
X44846Y103912D01*
X44397Y104497D01*
X43812Y104946D01*
X43131Y105228D01*
X42400Y105324D01*
X41669Y105228D01*
X40988Y104946D01*
X40403Y104497D01*
X39954Y103912D01*
X39672Y103231D01*
X39576Y102500D01*
X39594Y102363D01*
X39264Y101987D01*
X27000D01*
X26656Y101844D01*
X24356Y99544D01*
X24213Y99200D01*
Y91200D01*
X24356Y90856D01*
X26285Y88927D01*
Y86326D01*
X25785Y86124D01*
X25684Y86229D01*
Y87085D01*
X25684Y87085D01*
X25541Y87429D01*
X21087Y91883D01*
Y98263D01*
X21177Y98323D01*
X58977Y136123D01*
X58977Y136123D01*
X59154Y136388D01*
X59216Y136700D01*
Y159862D01*
X66300Y166946D01*
X87223Y146023D01*
X86923Y145298D01*
X86818Y144500D01*
X86923Y143702D01*
X87231Y142959D01*
X87721Y142321D01*
X88359Y141831D01*
X89102Y141523D01*
X89900Y141418D01*
X90698Y141523D01*
X91441Y141831D01*
X92080Y142321D01*
X92569Y142959D01*
X92877Y143702D01*
X92982Y144500D01*
X92877Y145298D01*
X92569Y146041D01*
X92080Y146679D01*
X91441Y147169D01*
X90698Y147477D01*
X89900Y147582D01*
X89102Y147477D01*
X88377Y147177D01*
X67077Y168477D01*
X66812Y168654D01*
X66500Y168716D01*
D02*
G37*
G36*
X109600Y146585D02*
X108905Y146494D01*
X108257Y146225D01*
X107701Y145799D01*
X107275Y145243D01*
X107006Y144595D01*
X106915Y143900D01*
X107006Y143205D01*
X107275Y142557D01*
X107701Y142001D01*
X108257Y141575D01*
X108905Y141306D01*
X109600Y141215D01*
X110295Y141306D01*
X110943Y141575D01*
X111499Y142001D01*
X111925Y142557D01*
X112194Y143205D01*
X112285Y143900D01*
X112194Y144595D01*
X111925Y145243D01*
X111499Y145799D01*
X110943Y146225D01*
X110295Y146494D01*
X109600Y146585D01*
D02*
G37*
G36*
X126400Y146982D02*
X125602Y146877D01*
X124859Y146569D01*
X124221Y146080D01*
X123731Y145441D01*
X123423Y144698D01*
X123318Y143900D01*
X123423Y143102D01*
X123731Y142359D01*
X124221Y141720D01*
X124859Y141231D01*
X125602Y140923D01*
X126400Y140818D01*
X127198Y140923D01*
X127941Y141231D01*
X128579Y141720D01*
X129069Y142359D01*
X129377Y143102D01*
X129482Y143900D01*
X129377Y144698D01*
X129069Y145441D01*
X128579Y146080D01*
X127941Y146569D01*
X127198Y146877D01*
X126400Y146982D01*
D02*
G37*
G36*
X250290Y148255D02*
X249024Y148131D01*
X247807Y147761D01*
X246686Y147162D01*
X245703Y146355D01*
X244896Y145372D01*
X244297Y144251D01*
X243928Y143034D01*
X243803Y141769D01*
X243928Y140503D01*
X244297Y139286D01*
X244896Y138165D01*
X245703Y137182D01*
X246686Y136375D01*
X247807Y135775D01*
X249024Y135406D01*
X250290Y135282D01*
X251555Y135406D01*
X252772Y135775D01*
X253894Y136375D01*
X254877Y137182D01*
X255683Y138165D01*
X256283Y139286D01*
X256652Y140503D01*
X256776Y141769D01*
X256652Y143034D01*
X256283Y144251D01*
X255683Y145372D01*
X254877Y146355D01*
X253894Y147162D01*
X252772Y147761D01*
X251555Y148131D01*
X250290Y148255D01*
D02*
G37*
G36*
X262156Y130406D02*
X255928D01*
Y129473D01*
X262156D01*
Y130406D01*
D02*
G37*
G36*
X353379Y132649D02*
X352582Y132544D01*
X351838Y132236D01*
X351200Y131746D01*
X350710Y131108D01*
X350402Y130365D01*
X350297Y129567D01*
X350402Y128769D01*
X350710Y128026D01*
X351200Y127387D01*
X351838Y126898D01*
X352582Y126590D01*
X353379Y126485D01*
X354177Y126590D01*
X354921Y126898D01*
X355559Y127387D01*
X356049Y128026D01*
X356357Y128769D01*
X356462Y129567D01*
X356357Y130365D01*
X356049Y131108D01*
X355559Y131746D01*
X354921Y132236D01*
X354177Y132544D01*
X353379Y132649D01*
D02*
G37*
G36*
X110100Y117225D02*
Y114400D01*
X112925D01*
X112876Y114778D01*
X112537Y115596D01*
X111998Y116298D01*
X111296Y116837D01*
X110478Y117176D01*
X110100Y117225D01*
D02*
G37*
G36*
X109100D02*
X108722Y117176D01*
X107904Y116837D01*
X107202Y116298D01*
X106663Y115596D01*
X106324Y114778D01*
X106275Y114400D01*
X109100D01*
Y117225D01*
D02*
G37*
G36*
X72000Y117125D02*
Y114300D01*
X74825D01*
X74776Y114678D01*
X74437Y115496D01*
X73898Y116198D01*
X73196Y116737D01*
X72378Y117076D01*
X72000Y117125D01*
D02*
G37*
G36*
X71000D02*
X70622Y117076D01*
X69804Y116737D01*
X69102Y116198D01*
X68563Y115496D01*
X68224Y114678D01*
X68175Y114300D01*
X71000D01*
Y117125D01*
D02*
G37*
G36*
X10000Y117182D02*
X9202Y117077D01*
X8459Y116769D01*
X7820Y116279D01*
X7331Y115641D01*
X7023Y114898D01*
X6918Y114100D01*
X7023Y113302D01*
X7331Y112559D01*
X7521Y112310D01*
X1506Y106294D01*
X1363Y105950D01*
Y67550D01*
X1506Y67206D01*
X4956Y63756D01*
X5300Y63613D01*
X5300Y63613D01*
X11080D01*
Y62361D01*
X9867D01*
Y53761D01*
X13267D01*
Y62361D01*
X12054D01*
Y64100D01*
X11912Y64444D01*
X11567Y64587D01*
X5502D01*
X2337Y67752D01*
Y105748D01*
X8210Y111621D01*
X8459Y111431D01*
X9202Y111123D01*
X10000Y111018D01*
X10798Y111123D01*
X11541Y111431D01*
X12179Y111920D01*
X12669Y112559D01*
X12977Y113302D01*
X13082Y114100D01*
X12977Y114898D01*
X12669Y115641D01*
X12179Y116279D01*
X11541Y116769D01*
X10798Y117077D01*
X10000Y117182D01*
D02*
G37*
G36*
X112925Y113400D02*
X110100D01*
Y110575D01*
X110478Y110624D01*
X111296Y110963D01*
X111998Y111502D01*
X112537Y112204D01*
X112876Y113022D01*
X112925Y113400D01*
D02*
G37*
G36*
X109100D02*
X106275D01*
X106324Y113022D01*
X106663Y112204D01*
X107202Y111502D01*
X107904Y110963D01*
X108722Y110624D01*
X109100Y110575D01*
Y113400D01*
D02*
G37*
G36*
X74825Y113300D02*
X72000D01*
Y110475D01*
X72378Y110524D01*
X73196Y110863D01*
X73898Y111402D01*
X74437Y112104D01*
X74776Y112922D01*
X74825Y113300D01*
D02*
G37*
G36*
X71000D02*
X68175D01*
X68224Y112922D01*
X68563Y112104D01*
X69102Y111402D01*
X69804Y110863D01*
X70622Y110524D01*
X71000Y110475D01*
Y113300D01*
D02*
G37*
G36*
X394383Y109433D02*
Y106012D01*
X397804D01*
X397734Y106544D01*
X397336Y107505D01*
X396703Y108331D01*
X395877Y108965D01*
X394915Y109363D01*
X394383Y109433D01*
D02*
G37*
G36*
X393383D02*
X392851Y109363D01*
X391890Y108965D01*
X391064Y108331D01*
X390431Y107505D01*
X390032Y106544D01*
X389962Y106012D01*
X393383D01*
Y109433D01*
D02*
G37*
G36*
X283254Y119264D02*
X282456Y119158D01*
X281713Y118851D01*
X281074Y118361D01*
X280584Y117722D01*
X280276Y116979D01*
X280171Y116181D01*
X280276Y115383D01*
X280577Y114658D01*
X277796Y111877D01*
X277619Y111612D01*
X277557Y111300D01*
X277557Y111300D01*
Y84128D01*
X277557Y84128D01*
X277619Y83815D01*
X277796Y83551D01*
X294794Y66552D01*
X284921Y56679D01*
X284744Y56415D01*
X284682Y56102D01*
X284682Y56102D01*
Y48802D01*
X284682Y48802D01*
X284744Y48490D01*
X284921Y48226D01*
X288123Y45023D01*
X288123Y45023D01*
X288388Y44846D01*
X288700Y44784D01*
X288700Y44784D01*
X309000D01*
X309000Y44784D01*
X309312Y44846D01*
X309577Y45023D01*
X319840Y55287D01*
X328415D01*
Y54043D01*
X330990D01*
X333565D01*
Y55429D01*
X332865D01*
Y57288D01*
X329115D01*
Y56918D01*
X319502D01*
X319502Y56918D01*
X319190Y56856D01*
X318926Y56679D01*
X318926Y56679D01*
X308662Y46416D01*
X289038D01*
X286313Y49140D01*
Y55287D01*
X294470D01*
Y54043D01*
X297045D01*
X299620D01*
Y55429D01*
X298920D01*
Y57288D01*
X295170D01*
Y56918D01*
X288120D01*
X287929Y57380D01*
X296524Y65976D01*
X296524Y65976D01*
X296701Y66240D01*
X296763Y66552D01*
X296701Y66865D01*
X296524Y67129D01*
X279188Y84465D01*
Y110962D01*
X281730Y113504D01*
X282456Y113204D01*
X283254Y113099D01*
X284051Y113204D01*
X284795Y113512D01*
X285433Y114002D01*
X285538Y114009D01*
X287684Y111862D01*
Y108100D01*
X287684Y108100D01*
X287746Y107788D01*
X287923Y107523D01*
X291744Y103703D01*
X291744Y103703D01*
X292008Y103526D01*
X292320Y103464D01*
X294470D01*
Y102220D01*
X297045D01*
X299620D01*
Y103606D01*
X298920D01*
Y105465D01*
X295170D01*
Y105095D01*
X292658D01*
X289316Y108438D01*
Y112200D01*
X289316Y112200D01*
X289254Y112512D01*
X289077Y112777D01*
X289077Y112777D01*
X286259Y115595D01*
X286336Y116181D01*
X286231Y116979D01*
X285923Y117722D01*
X285433Y118361D01*
X284795Y118851D01*
X284051Y119158D01*
X283254Y119264D01*
D02*
G37*
G36*
X397804Y105012D02*
X394383D01*
Y101591D01*
X394915Y101661D01*
X395877Y102059D01*
X396703Y102693D01*
X397336Y103518D01*
X397734Y104480D01*
X397804Y105012D01*
D02*
G37*
G36*
X393383D02*
X389962D01*
X390032Y104480D01*
X390431Y103518D01*
X391064Y102693D01*
X391890Y102059D01*
X392851Y101661D01*
X393383Y101591D01*
Y105012D01*
D02*
G37*
G36*
X353379Y102649D02*
X352582Y102544D01*
X351838Y102236D01*
X351200Y101746D01*
X350710Y101108D01*
X350402Y100365D01*
X350297Y99567D01*
X350402Y98769D01*
X350710Y98026D01*
X351200Y97387D01*
X351838Y96898D01*
X352582Y96590D01*
X353379Y96485D01*
X354177Y96590D01*
X354921Y96898D01*
X355559Y97387D01*
X356049Y98026D01*
X356357Y98769D01*
X356462Y99567D01*
X356357Y100365D01*
X356049Y101108D01*
X355559Y101746D01*
X354921Y102236D01*
X354177Y102544D01*
X353379Y102649D01*
D02*
G37*
G36*
X308084Y101220D02*
X305509D01*
X302935D01*
Y99835D01*
X303635D01*
Y97976D01*
X307384D01*
Y98346D01*
X308765D01*
Y95271D01*
X306526Y93032D01*
X305929Y93279D01*
X305198Y93375D01*
X304468Y93279D01*
X303786Y92997D01*
X303201Y92548D01*
X302753Y91963D01*
X302470Y91282D01*
X302374Y90551D01*
X302470Y89820D01*
X302753Y89139D01*
X303201Y88554D01*
X303786Y88105D01*
X304468Y87823D01*
X305198Y87727D01*
X305929Y87823D01*
X306610Y88105D01*
X307195Y88554D01*
X307644Y89139D01*
X307926Y89820D01*
X308023Y90551D01*
X307926Y91282D01*
X307679Y91878D01*
X310157Y94356D01*
X310157Y94356D01*
X310334Y94621D01*
X310396Y94933D01*
Y99161D01*
X310334Y99474D01*
X310157Y99738D01*
X309893Y99915D01*
X309580Y99977D01*
X308084D01*
Y101220D01*
D02*
G37*
G36*
X393883Y98793D02*
X393034Y98681D01*
X392243Y98353D01*
X391564Y97832D01*
X391042Y97152D01*
X390714Y96361D01*
X390603Y95512D01*
X390714Y94663D01*
X391042Y93871D01*
X391564Y93192D01*
X392243Y92671D01*
X393034Y92343D01*
X393883Y92231D01*
X394732Y92343D01*
X395524Y92671D01*
X396203Y93192D01*
X396725Y93871D01*
X397052Y94663D01*
X397164Y95512D01*
X397052Y96361D01*
X396725Y97152D01*
X396203Y97832D01*
X395524Y98353D01*
X394732Y98681D01*
X393883Y98793D01*
D02*
G37*
G36*
X299620Y101220D02*
X297045D01*
X294470D01*
Y99835D01*
X295170D01*
Y97976D01*
X296229D01*
Y95083D01*
X294327Y93181D01*
X294150Y92916D01*
X294088Y92604D01*
X294088Y92604D01*
Y86997D01*
X286223D01*
X285923Y87722D01*
X285433Y88361D01*
X284795Y88850D01*
X284051Y89158D01*
X283254Y89263D01*
X282456Y89158D01*
X281713Y88850D01*
X281074Y88361D01*
X280584Y87722D01*
X280276Y86979D01*
X280171Y86181D01*
X280276Y85383D01*
X280584Y84640D01*
X281074Y84002D01*
X281713Y83512D01*
X282456Y83204D01*
X283254Y83099D01*
X284051Y83204D01*
X284795Y83512D01*
X285433Y84002D01*
X285923Y84640D01*
X286223Y85365D01*
X294904D01*
X295216Y85428D01*
X295481Y85604D01*
X295658Y85869D01*
X295720Y86181D01*
Y92266D01*
X297621Y94168D01*
X297622Y94168D01*
X297798Y94433D01*
X297861Y94745D01*
X297861Y94745D01*
Y97976D01*
X298920D01*
Y99835D01*
X299620D01*
Y101220D01*
D02*
G37*
G36*
X393883Y88793D02*
X393034Y88681D01*
X392243Y88353D01*
X391564Y87832D01*
X391042Y87152D01*
X390714Y86361D01*
X390603Y85512D01*
X390714Y84663D01*
X391042Y83871D01*
X391564Y83192D01*
X392243Y82670D01*
X393034Y82343D01*
X393883Y82231D01*
X394732Y82343D01*
X395524Y82670D01*
X396203Y83192D01*
X396725Y83871D01*
X397052Y84663D01*
X397164Y85512D01*
X397052Y86361D01*
X396725Y87152D01*
X396203Y87832D01*
X395524Y88353D01*
X394732Y88681D01*
X393883Y88793D01*
D02*
G37*
G36*
Y78793D02*
X393034Y78681D01*
X392243Y78353D01*
X391564Y77832D01*
X391042Y77152D01*
X390714Y76361D01*
X390710Y76328D01*
X387412D01*
X387412Y76328D01*
X387100Y76265D01*
X386835Y76089D01*
X377023Y66277D01*
X376846Y66012D01*
X376784Y65700D01*
X376784Y65700D01*
Y34138D01*
X375262Y32616D01*
X355238D01*
X348816Y39038D01*
Y47800D01*
X348816Y47800D01*
X348754Y48112D01*
X348577Y48377D01*
X348577Y48377D01*
X345393Y51561D01*
X345128Y51738D01*
X344816Y51800D01*
X344816Y51800D01*
X342029D01*
Y53043D01*
X339454D01*
X336880D01*
Y51658D01*
X337580D01*
Y49798D01*
X341329D01*
Y50169D01*
X344478D01*
X347184Y47462D01*
Y38700D01*
X347184Y38700D01*
X347246Y38388D01*
X347423Y38123D01*
X354323Y31223D01*
X354323Y31223D01*
X354588Y31046D01*
X354900Y30984D01*
X375600D01*
X375600Y30984D01*
X375912Y31046D01*
X376177Y31223D01*
X378177Y33223D01*
X378177Y33223D01*
X378354Y33488D01*
X378416Y33800D01*
X378416Y33800D01*
Y65362D01*
X387750Y74696D01*
X390710D01*
X390714Y74663D01*
X391042Y73871D01*
X391564Y73192D01*
X392243Y72671D01*
X393034Y72343D01*
X393883Y72231D01*
X394732Y72343D01*
X395524Y72671D01*
X396203Y73192D01*
X396725Y73871D01*
X397052Y74663D01*
X397164Y75512D01*
X397052Y76361D01*
X396725Y77152D01*
X396203Y77832D01*
X395524Y78353D01*
X394732Y78681D01*
X393883Y78793D01*
D02*
G37*
G36*
X89900Y117582D02*
X89102Y117477D01*
X88359Y117169D01*
X87721Y116680D01*
X87231Y116041D01*
X86923Y115298D01*
X86818Y114500D01*
X86923Y113702D01*
X87231Y112959D01*
X87721Y112320D01*
X88359Y111831D01*
X89084Y111530D01*
Y83538D01*
X79527Y73981D01*
X78931Y74228D01*
X78200Y74324D01*
X77469Y74228D01*
X76788Y73946D01*
X76203Y73497D01*
X75754Y72912D01*
X75472Y72231D01*
X75376Y71500D01*
X75472Y70769D01*
X75754Y70088D01*
X76203Y69503D01*
X76788Y69054D01*
X77469Y68772D01*
X78200Y68676D01*
X78931Y68772D01*
X79612Y69054D01*
X80197Y69503D01*
X80646Y70088D01*
X80928Y70769D01*
X81024Y71500D01*
X80928Y72231D01*
X80681Y72827D01*
X90477Y82623D01*
X90477Y82623D01*
X90654Y82888D01*
X90716Y83200D01*
X90716Y83200D01*
Y111530D01*
X91441Y111831D01*
X92080Y112320D01*
X92569Y112959D01*
X92877Y113702D01*
X92982Y114500D01*
X92877Y115298D01*
X92569Y116041D01*
X92080Y116680D01*
X91441Y117169D01*
X90698Y117477D01*
X89900Y117582D01*
D02*
G37*
G36*
X38400Y74824D02*
X37669Y74728D01*
X36988Y74446D01*
X36403Y73997D01*
X35954Y73412D01*
X35672Y72731D01*
X35576Y72000D01*
X35672Y71269D01*
X35954Y70588D01*
X36104Y70393D01*
X35498Y69787D01*
X33600D01*
X33256Y69644D01*
X28546Y64935D01*
X28403Y64590D01*
Y62715D01*
X28050Y62361D01*
X27190Y62361D01*
X26959Y62766D01*
Y63061D01*
X25059D01*
Y58061D01*
Y53061D01*
X26959D01*
Y53357D01*
X27190Y53761D01*
X27459Y53761D01*
X30590D01*
Y62361D01*
X29377D01*
Y64388D01*
X33802Y68813D01*
X35700D01*
X36044Y68956D01*
X36793Y69704D01*
X36988Y69554D01*
X37669Y69272D01*
X38400Y69176D01*
X39131Y69272D01*
X39812Y69554D01*
X40397Y70003D01*
X40846Y70588D01*
X41128Y71269D01*
X41224Y72000D01*
X41128Y72731D01*
X40846Y73412D01*
X40397Y73997D01*
X39812Y74446D01*
X39131Y74728D01*
X38400Y74824D01*
D02*
G37*
G36*
X394383Y69433D02*
Y66012D01*
X397804D01*
X397734Y66544D01*
X397336Y67505D01*
X396703Y68331D01*
X395877Y68964D01*
X394915Y69363D01*
X394383Y69433D01*
D02*
G37*
G36*
X393383D02*
X392851Y69363D01*
X391890Y68964D01*
X391064Y68331D01*
X390431Y67505D01*
X390032Y66544D01*
X389962Y66012D01*
X393383D01*
Y69433D01*
D02*
G37*
G36*
X366428Y69946D02*
X359135D01*
Y62653D01*
X366428D01*
Y69946D01*
D02*
G37*
G36*
X397804Y65012D02*
X394383D01*
Y61591D01*
X394915Y61661D01*
X395877Y62059D01*
X396703Y62693D01*
X397336Y63518D01*
X397734Y64480D01*
X397804Y65012D01*
D02*
G37*
G36*
X393383D02*
X389962D01*
X390032Y64480D01*
X390431Y63518D01*
X391064Y62693D01*
X391890Y62059D01*
X392851Y61661D01*
X393383Y61591D01*
Y65012D01*
D02*
G37*
G36*
X343700Y67324D02*
X342969Y67228D01*
X342288Y66946D01*
X341703Y66497D01*
X341254Y65912D01*
X340972Y65231D01*
X340876Y64500D01*
X340972Y63769D01*
X341254Y63088D01*
X341703Y62503D01*
X342288Y62054D01*
X342969Y61772D01*
X343700Y61676D01*
X344431Y61772D01*
X345027Y62019D01*
X345484Y61562D01*
Y58738D01*
X343665Y56918D01*
X341329D01*
Y57288D01*
X337580D01*
Y55429D01*
X336880D01*
Y54043D01*
X339454D01*
X342029D01*
Y55287D01*
X344002D01*
X344002Y55287D01*
X344315Y55349D01*
X344579Y55526D01*
X346877Y57823D01*
X346877Y57823D01*
X347054Y58088D01*
X347116Y58400D01*
X347116Y58400D01*
Y61900D01*
X347116Y61900D01*
X347054Y62212D01*
X346877Y62477D01*
X346877Y62477D01*
X346181Y63173D01*
X346428Y63769D01*
X346524Y64500D01*
X346428Y65231D01*
X346146Y65912D01*
X345697Y66497D01*
X345112Y66946D01*
X344431Y67228D01*
X343700Y67324D01*
D02*
G37*
G36*
X9203Y58011D02*
X4766D01*
Y54161D01*
X9203D01*
Y58011D01*
D02*
G37*
G36*
X69783Y58811D02*
X65346D01*
Y54161D01*
X69783D01*
Y58811D01*
D02*
G37*
G36*
X64346D02*
X59909D01*
Y54161D01*
X64346D01*
Y58811D01*
D02*
G37*
G36*
X397136Y58764D02*
X390631D01*
Y52259D01*
X397136D01*
Y58764D01*
D02*
G37*
G36*
X333565Y53043D02*
X330990D01*
X328415D01*
Y51800D01*
X327184D01*
X326872Y51738D01*
X326607Y51561D01*
X326607Y51561D01*
X324327Y49281D01*
X323731Y49528D01*
X323000Y49624D01*
X322269Y49528D01*
X321588Y49246D01*
X321003Y48797D01*
X320554Y48212D01*
X320272Y47531D01*
X320176Y46800D01*
X320272Y46069D01*
X320554Y45388D01*
X321003Y44803D01*
X321588Y44354D01*
X322269Y44072D01*
X323000Y43976D01*
X323731Y44072D01*
X324412Y44354D01*
X324997Y44803D01*
X325446Y45388D01*
X325728Y46069D01*
X325824Y46800D01*
X325728Y47531D01*
X325481Y48127D01*
X327522Y50169D01*
X329115D01*
Y49798D01*
X332865D01*
Y51658D01*
X333565D01*
Y53043D01*
D02*
G37*
G36*
X290000Y54324D02*
X289269Y54228D01*
X288588Y53946D01*
X288003Y53497D01*
X287554Y52912D01*
X287272Y52231D01*
X287176Y51500D01*
X287272Y50769D01*
X287554Y50088D01*
X288003Y49503D01*
X288588Y49054D01*
X289269Y48772D01*
X290000Y48676D01*
X290731Y48772D01*
X291412Y49054D01*
X291997Y49503D01*
X292446Y50088D01*
X292479Y50169D01*
X295170D01*
Y49798D01*
X298920D01*
Y51657D01*
X299620D01*
Y53043D01*
X297045D01*
X294470D01*
Y51800D01*
X292785D01*
X292728Y52231D01*
X292446Y52912D01*
X291997Y53497D01*
X291412Y53946D01*
X290731Y54228D01*
X290000Y54324D01*
D02*
G37*
G36*
X9203Y53161D02*
X4766D01*
Y49311D01*
X9203D01*
Y53161D01*
D02*
G37*
G36*
X69783D02*
X65346D01*
Y48511D01*
X69783D01*
Y53161D01*
D02*
G37*
G36*
X64346D02*
X59909D01*
Y48511D01*
X64346D01*
Y53161D01*
D02*
G37*
G36*
X363281Y50617D02*
Y46799D01*
X367099D01*
X367016Y47434D01*
X366578Y48491D01*
X365881Y49399D01*
X364973Y50096D01*
X363916Y50534D01*
X363281Y50617D01*
D02*
G37*
G36*
X362281D02*
X361647Y50534D01*
X360589Y50096D01*
X359681Y49399D01*
X358985Y48491D01*
X358547Y47434D01*
X358463Y46799D01*
X362281D01*
Y50617D01*
D02*
G37*
G36*
X367099Y45799D02*
X363281D01*
Y41981D01*
X363916Y42065D01*
X364973Y42503D01*
X365881Y43199D01*
X366578Y44107D01*
X367016Y45165D01*
X367099Y45799D01*
D02*
G37*
G36*
X362281D02*
X358463D01*
X358547Y45165D01*
X358985Y44107D01*
X359681Y43199D01*
X360589Y42503D01*
X361647Y42065D01*
X362281Y41981D01*
Y45799D01*
D02*
G37*
G36*
X169187Y35302D02*
X167922Y35178D01*
X166705Y34809D01*
X165584Y34209D01*
X164601Y33403D01*
X163794Y32420D01*
X163194Y31298D01*
X162825Y30081D01*
X162701Y28816D01*
X162825Y27550D01*
X163194Y26333D01*
X163794Y25212D01*
X164601Y24229D01*
X165584Y23422D01*
X166705Y22823D01*
X167922Y22454D01*
X169187Y22329D01*
X170453Y22454D01*
X171670Y22823D01*
X172791Y23422D01*
X173774Y24229D01*
X174581Y25212D01*
X175180Y26333D01*
X175549Y27550D01*
X175674Y28816D01*
X175549Y30081D01*
X175180Y31298D01*
X174581Y32420D01*
X173774Y33403D01*
X172791Y34209D01*
X171670Y34809D01*
X170453Y35178D01*
X169187Y35302D01*
D02*
G37*
G36*
X9203Y22182D02*
X4766D01*
Y16760D01*
X9203D01*
Y22182D01*
D02*
G37*
G36*
X74303D02*
X69866D01*
Y16760D01*
X74303D01*
Y22182D01*
D02*
G37*
G36*
X68866D02*
X64429D01*
Y16760D01*
X68866D01*
Y22182D01*
D02*
G37*
G36*
X49862Y17406D02*
X48965Y17228D01*
X48204Y16720D01*
X47696Y15959D01*
X47517Y15061D01*
X47696Y14164D01*
X48204Y13403D01*
X48965Y12895D01*
X49862Y12716D01*
X50760Y12895D01*
X51520Y13403D01*
X52029Y14164D01*
X52207Y15061D01*
X52029Y15959D01*
X51520Y16720D01*
X50760Y17228D01*
X49862Y17406D01*
D02*
G37*
G36*
X18366Y17318D02*
X17469Y17139D01*
X16708Y16631D01*
X16200Y15870D01*
X16021Y14972D01*
X16200Y14075D01*
X16708Y13314D01*
X17469Y12806D01*
X18366Y12627D01*
X19264Y12806D01*
X20024Y13314D01*
X20533Y14075D01*
X20711Y14972D01*
X20533Y15870D01*
X20024Y16631D01*
X19264Y17139D01*
X18366Y17318D01*
D02*
G37*
G36*
X74303Y15760D02*
X69866D01*
Y10339D01*
X74303D01*
Y15760D01*
D02*
G37*
G36*
X68866D02*
X64429D01*
Y10339D01*
X68866D01*
Y15760D01*
D02*
G37*
G36*
X9203D02*
X4766D01*
Y10339D01*
X9203D01*
Y15760D01*
D02*
G37*
G36*
X479287Y19602D02*
X478022Y19478D01*
X476805Y19109D01*
X475684Y18509D01*
X474701Y17703D01*
X473894Y16720D01*
X473294Y15598D01*
X472925Y14381D01*
X472801Y13116D01*
X472925Y11850D01*
X473294Y10633D01*
X473894Y9512D01*
X474701Y8529D01*
X475684Y7722D01*
X476805Y7123D01*
X478022Y6754D01*
X479287Y6629D01*
X480553Y6754D01*
X481770Y7123D01*
X482891Y7722D01*
X483874Y8529D01*
X484681Y9512D01*
X485280Y10633D01*
X485649Y11850D01*
X485774Y13116D01*
X485649Y14381D01*
X485280Y15598D01*
X484681Y16720D01*
X483874Y17703D01*
X482891Y18509D01*
X481770Y19109D01*
X480553Y19478D01*
X479287Y19602D01*
D02*
G37*
G36*
X109587D02*
X108322Y19478D01*
X107105Y19109D01*
X105983Y18509D01*
X105001Y17703D01*
X104194Y16720D01*
X103594Y15598D01*
X103225Y14381D01*
X103101Y13116D01*
X103225Y11850D01*
X103594Y10633D01*
X104194Y9512D01*
X105001Y8529D01*
X105983Y7722D01*
X107105Y7123D01*
X108322Y6754D01*
X109587Y6629D01*
X110853Y6754D01*
X112070Y7123D01*
X113191Y7722D01*
X114174Y8529D01*
X114981Y9512D01*
X115580Y10633D01*
X115949Y11850D01*
X116074Y13116D01*
X115949Y14381D01*
X115580Y15598D01*
X114981Y16720D01*
X114174Y17703D01*
X113191Y18509D01*
X112070Y19109D01*
X110853Y19478D01*
X109587Y19602D01*
D02*
G37*
%LPD*%
D10*
X485193Y230000D02*
G03*
X485193Y230000I-5906J0D01*
G01*
Y13116D02*
G03*
X485193Y13116I-5906J0D01*
G01*
X115493Y230000D02*
G03*
X115493Y230000I-5906J0D01*
G01*
Y13116D02*
G03*
X115493Y13116I-5906J0D01*
G01*
X175093Y28816D02*
G03*
X175093Y28816I-5906J0D01*
G01*
X256195Y141769D02*
G03*
X256195Y141769I-5906J0D01*
G01*
D11*
X330990Y56102D02*
D03*
Y53543D02*
D03*
Y50984D02*
D03*
X339454D02*
D03*
Y53543D02*
D03*
Y56102D02*
D03*
X297045D02*
D03*
Y53543D02*
D03*
Y50984D02*
D03*
X305509D02*
D03*
Y53543D02*
D03*
Y56102D02*
D03*
X297045Y104280D02*
D03*
Y101720D02*
D03*
Y99161D02*
D03*
X305509D02*
D03*
Y101720D02*
D03*
Y104280D02*
D03*
D12*
X255428Y72753D02*
D03*
Y74406D02*
D03*
Y76060D02*
D03*
Y77713D02*
D03*
Y79367D02*
D03*
Y81021D02*
D03*
Y82674D02*
D03*
Y84328D02*
D03*
Y85981D02*
D03*
Y87635D02*
D03*
Y89288D02*
D03*
Y90942D02*
D03*
Y92595D02*
D03*
Y94249D02*
D03*
Y95902D02*
D03*
Y97556D02*
D03*
Y99210D02*
D03*
Y100863D02*
D03*
Y102517D02*
D03*
Y104170D02*
D03*
Y105824D02*
D03*
Y107477D02*
D03*
Y109131D02*
D03*
Y110784D02*
D03*
Y112438D02*
D03*
Y114091D02*
D03*
Y115745D02*
D03*
Y117398D02*
D03*
Y119052D02*
D03*
Y120706D02*
D03*
Y122359D02*
D03*
Y124013D02*
D03*
Y125666D02*
D03*
Y127320D02*
D03*
Y128973D02*
D03*
X242239Y72753D02*
D03*
Y74406D02*
D03*
Y76060D02*
D03*
Y77713D02*
D03*
Y79367D02*
D03*
Y81021D02*
D03*
Y82674D02*
D03*
Y84328D02*
D03*
Y85981D02*
D03*
Y87635D02*
D03*
Y89288D02*
D03*
Y90942D02*
D03*
Y92595D02*
D03*
Y94249D02*
D03*
Y95902D02*
D03*
Y97556D02*
D03*
Y99210D02*
D03*
Y100863D02*
D03*
Y102517D02*
D03*
Y104170D02*
D03*
Y105824D02*
D03*
Y107477D02*
D03*
Y109131D02*
D03*
Y110784D02*
D03*
Y112438D02*
D03*
Y114091D02*
D03*
Y115745D02*
D03*
Y117398D02*
D03*
Y119052D02*
D03*
Y120706D02*
D03*
Y122359D02*
D03*
Y124013D02*
D03*
Y125666D02*
D03*
Y127320D02*
D03*
Y128973D02*
D03*
D13*
X23622Y85433D02*
D03*
X25197D02*
D03*
X26772D02*
D03*
X28346D02*
D03*
X23622Y83858D02*
D03*
X25197D02*
D03*
X26772D02*
D03*
X28346D02*
D03*
X23622Y82283D02*
D03*
X25197D02*
D03*
X26772D02*
D03*
X28346D02*
D03*
X23622Y80709D02*
D03*
X25197D02*
D03*
X26772D02*
D03*
X28346D02*
D03*
X23622Y79134D02*
D03*
X25197D02*
D03*
X26772D02*
D03*
X28346D02*
D03*
D14*
X4266Y16260D02*
D03*
X69366D02*
D03*
D15*
X11567Y58061D02*
D03*
X15898D02*
D03*
X20228D02*
D03*
X24559D02*
D03*
X28890D02*
D03*
X46213D02*
D03*
X41882D02*
D03*
X37551D02*
D03*
X33221D02*
D03*
D16*
X64846Y53661D02*
D03*
D17*
X4266D02*
D03*
D18*
X212520Y257283D02*
D03*
X224331D02*
D03*
X25512D02*
D03*
X13701D02*
D03*
D19*
X218425Y256890D02*
D03*
X19606D02*
D03*
D20*
X255428Y94249D02*
X264651D01*
X272600Y86300D01*
X58400Y136700D02*
Y160200D01*
X20600Y98900D02*
X58400Y136700D01*
X24400Y108900D02*
Y122100D01*
X18900Y103400D02*
X24400Y108900D01*
X383900Y182200D02*
X402318D01*
X369600Y196500D02*
X383900Y182200D01*
X369600Y196500D02*
Y261000D01*
X365000Y265600D02*
X369600Y261000D01*
X352300Y265600D02*
X365000D01*
X324410Y237710D02*
X352300Y265600D01*
X324410Y211457D02*
Y237710D01*
X313200Y65000D02*
Y100800D01*
Y59600D02*
Y65000D01*
X322000Y106100D02*
X343490Y127590D01*
X322000Y62900D02*
Y106100D01*
X310084Y50984D02*
X322000Y62900D01*
X343700Y64500D02*
X346300Y61900D01*
Y58400D02*
Y61900D01*
X344002Y56102D02*
X346300Y58400D01*
X255428Y100863D02*
X266437D01*
X275700Y91600D01*
Y68300D02*
Y91600D01*
Y68300D02*
X277800Y66200D01*
X280900D01*
X283254Y68554D01*
Y71846D01*
X272600Y51900D02*
X295900Y28600D01*
X272600Y51900D02*
Y86300D01*
X295900Y28600D02*
X388300D01*
X394000Y24600D02*
X416200Y46800D01*
X293500Y24600D02*
X394000D01*
X269800Y48300D02*
X293500Y24600D01*
X388300Y28600D02*
X410700Y51000D01*
X262905Y92595D02*
X269800Y85700D01*
Y48300D02*
Y85700D01*
X410700Y51000D02*
Y149500D01*
X420900Y159700D01*
X457657D01*
X514728Y216772D01*
X521260D01*
X255428Y92595D02*
X262905D01*
X416200Y46800D02*
Y146600D01*
X423600Y154000D01*
X459100D01*
X511872Y206772D01*
X521260D01*
X339454Y50984D02*
X344816D01*
X348000Y47800D01*
Y38700D02*
Y47800D01*
Y38700D02*
X354900Y31800D01*
X375600D01*
X377600Y33800D01*
Y65700D01*
X387412Y75512D01*
X393883D01*
X274200Y27100D02*
X283000D01*
X275300Y19700D02*
X283800D01*
X264200Y30800D02*
X275300Y19700D01*
X326561Y129528D02*
X332500Y135467D01*
Y203366D01*
X324410Y211457D02*
X332500Y203366D01*
X343490Y214317D02*
X359449Y230276D01*
X343490Y127590D02*
Y214317D01*
X255428Y79367D02*
X264233D01*
X267200Y76400D01*
Y34100D02*
Y76400D01*
Y34100D02*
X274200Y27100D01*
X264200Y30800D02*
Y76500D01*
X262987Y77713D02*
X264200Y76500D01*
X255428Y77713D02*
X262987D01*
X278372Y84128D02*
X295948Y66552D01*
X285498Y56102D02*
X295948Y66552D01*
X305509Y50984D02*
X310084D01*
X309720Y104280D02*
X313200Y100800D01*
X309702Y56102D02*
X313200Y59600D01*
X305509Y56102D02*
X309702D01*
X305509Y104280D02*
X309720D01*
X323000Y46800D02*
X327184Y50984D01*
X330990D01*
X339454Y56102D02*
X344002D01*
X278372Y84128D02*
Y111300D01*
X288700Y45600D02*
X309000D01*
X285498Y48802D02*
X288700Y45600D01*
X285498Y48802D02*
Y56102D01*
X290516Y50984D02*
X297045D01*
X290000Y51500D02*
X290516Y50984D01*
X285498Y56102D02*
X297045D01*
X319502D02*
X330990D01*
X309000Y45600D02*
X319502Y56102D01*
X278372Y111300D02*
X283254Y116181D01*
X284519D02*
X288500Y112200D01*
Y108100D02*
Y112200D01*
Y108100D02*
X292320Y104280D01*
X283254Y116181D02*
X284519D01*
X292320Y104280D02*
X297045D01*
X205953Y72753D02*
X242239D01*
X184100Y50900D02*
X205953Y72753D01*
X131400Y50900D02*
X184100D01*
X173900Y55000D02*
X193306Y74406D01*
X145900Y55000D02*
X173900D01*
X119300Y81600D02*
X145900Y55000D01*
X162706Y120706D02*
X242239D01*
X150000Y108000D02*
X162706Y120706D01*
X132300Y108000D02*
X150000D01*
X126400Y113900D02*
X132300Y108000D01*
X153159Y122359D02*
X242239D01*
X144600Y113800D02*
X153159Y122359D01*
X62800Y101700D02*
X63900Y100600D01*
X89900Y64300D02*
X116300Y90700D01*
X89700Y58900D02*
X117000Y86200D01*
X170367Y79367D02*
X242239D01*
X157600Y66600D02*
X170367Y79367D01*
X154400Y61800D02*
X174400D01*
X143500Y72700D02*
X154400Y61800D01*
X149900Y58400D02*
X174100D01*
X131100Y77200D02*
X149900Y58400D01*
X112849Y94249D02*
X242239D01*
X89300Y70700D02*
X112849Y94249D01*
X193306Y74406D02*
X242239D01*
X191760Y76060D02*
X242239D01*
X174100Y58400D02*
X191760Y76060D01*
X190313Y77713D02*
X242239D01*
X174400Y61800D02*
X190313Y77713D01*
X89900Y83200D02*
Y114500D01*
X78200Y71500D02*
X89900Y83200D01*
X330990Y50984D02*
X331000D01*
X223069Y231850D02*
X278346D01*
X212520Y242400D02*
X223069Y231850D01*
X212520Y242400D02*
Y257283D01*
X70118Y228701D02*
X91732D01*
X62205Y236614D02*
X70118Y228701D01*
X28203Y236614D02*
X62205D01*
X13701Y251117D02*
X28203Y236614D01*
X13701Y251117D02*
Y257283D01*
X297045Y94745D02*
Y99161D01*
X294904Y92604D02*
X297045Y94745D01*
X294904Y86181D02*
Y92604D01*
X283254Y86181D02*
X294904D01*
X305198Y90551D02*
X309580Y94933D01*
Y99161D01*
X305509D02*
X309580D01*
X85079Y258701D02*
X91732D01*
X71654Y245276D02*
X85079Y258701D01*
X19606Y251794D02*
X26124Y245276D01*
X19606Y251794D02*
Y256890D01*
X224331Y250000D02*
X231102D01*
Y275197D01*
X206693Y215709D02*
Y275197D01*
Y215709D02*
X223583Y198819D01*
X224331Y250000D02*
Y257283D01*
X138819Y266142D02*
X147874Y275197D01*
X32677Y248032D02*
Y272441D01*
X29134Y248032D02*
X32677D01*
X25512Y251654D02*
X29134Y248032D01*
X25512Y251654D02*
Y257283D01*
X8268Y272441D02*
X32677D01*
X8268Y246932D02*
Y272441D01*
Y246932D02*
X24764Y230436D01*
Y202362D02*
Y230436D01*
X218425Y246417D02*
Y256890D01*
Y246417D02*
X260197D01*
X275630Y261850D01*
X278346D01*
X147874Y275197D02*
X206693D01*
X231102D01*
X10000Y144100D02*
Y158900D01*
X24400Y122100D02*
X25700Y123400D01*
X10000Y158900D02*
X19000Y167900D01*
X58400Y160200D02*
X66100Y167900D01*
X19000D02*
X66500D01*
X89900Y144500D01*
X25700Y123400D02*
X38700D01*
X47200Y131900D01*
X26124Y245276D02*
X71654D01*
X219334Y125666D02*
X242239D01*
X216027Y128973D02*
X242239D01*
X217680Y127320D02*
X242239D01*
X217680Y127320D02*
X217680Y127320D01*
X216027Y128973D02*
X217680Y127320D01*
X219334Y125666D01*
X144600Y143800D02*
X149800D01*
X175700Y169700D01*
X187700D01*
X309720Y104280D02*
Y127880D01*
X79000Y58900D02*
X89700D01*
X63900Y74000D02*
Y100600D01*
Y74000D02*
X79000Y58900D01*
X117000Y86200D02*
X225700D01*
X230879Y81021D01*
X242239D01*
X231078Y85522D02*
X233926Y82674D01*
X242239D01*
X116300Y90700D02*
X225900D01*
X231078Y85522D01*
X51400Y103300D02*
Y123700D01*
X71500Y143800D01*
X191200Y153800D02*
X216027Y128973D01*
X187700Y169700D02*
X194900Y162500D01*
X275100D01*
X309720Y127880D01*
X180800Y164200D02*
X191200Y153800D01*
X155200Y102100D02*
X160200D01*
X177152Y119052D01*
X242239D01*
D21*
X24000Y66200D02*
X24600Y66800D01*
X17200Y66200D02*
X24000D01*
X15898Y64898D02*
X17200Y66200D01*
X20600Y91682D02*
Y98900D01*
X18900Y92174D02*
Y103400D01*
X22900Y91000D02*
X25942Y87958D01*
Y83549D02*
Y87958D01*
X31600Y81500D02*
X34500Y78600D01*
X27555Y81500D02*
X31600D01*
X26772Y82283D02*
X27555Y81500D01*
X37100Y77900D02*
X38200D01*
X32717Y82283D02*
X37100Y77900D01*
X28346Y82283D02*
X32717D01*
X28346Y80709D02*
X30391D01*
X22900Y91000D02*
Y93900D01*
X25197Y82804D02*
X25942Y83549D01*
X25197Y82283D02*
Y82804D01*
X24700Y99200D02*
X27000Y101500D01*
X24700Y91200D02*
Y99200D01*
Y91200D02*
X26772Y89128D01*
X20600Y91682D02*
X25197Y87085D01*
X18900Y92174D02*
X24400Y86674D01*
X31200Y83100D02*
X51400Y103300D01*
X33400Y83100D02*
X37200Y79300D01*
X27530Y83100D02*
X33400D01*
X42200Y101500D02*
X42400Y101300D01*
Y102500D02*
X43200D01*
X42400Y101300D02*
Y102500D01*
X86600Y64300D02*
X89900D01*
X28890Y58061D02*
Y64590D01*
X33600Y69300D01*
X35700D01*
X38400Y72000D01*
X24600Y73900D02*
X28346Y77646D01*
X24600Y66800D02*
Y73900D01*
X28900Y72700D02*
Y75358D01*
X31500Y77958D01*
X29579Y79879D02*
X31500Y77958D01*
X40900Y75200D02*
X44000D01*
X38200Y77900D02*
X40900Y75200D01*
X37500Y67600D02*
X42500D01*
X33221Y63321D02*
X37500Y67600D01*
X33221Y58061D02*
Y63321D01*
X50400Y75500D02*
Y79300D01*
X42500Y67600D02*
X50400Y75500D01*
X37200Y79300D02*
X50400D01*
X37900Y63800D02*
X40500Y66400D01*
X44300D01*
X55700Y77800D01*
X44300Y81100D02*
X55700D01*
Y77800D02*
Y81100D01*
X37900Y58410D02*
Y63800D01*
X42200Y83200D02*
X44300Y81100D01*
X41882Y63182D02*
X43700Y65000D01*
X46000D01*
X57000Y76000D01*
X41882Y58061D02*
Y63182D01*
X57000Y76000D02*
Y85900D01*
X52100Y90800D02*
X57000Y85900D01*
X52100Y90800D02*
Y92300D01*
X58900Y75900D02*
Y96000D01*
X46213Y63213D02*
X58900Y75900D01*
X46213Y58061D02*
Y63213D01*
X20200Y64100D02*
X25600D01*
X20228Y58061D02*
Y64072D01*
X20200Y64100D02*
X20228Y64072D01*
X15898Y58061D02*
Y64898D01*
X28346Y77646D02*
Y79134D01*
X27601Y79879D02*
X29579D01*
X26772Y80709D02*
X27601Y79879D01*
X39100Y83200D02*
X42200D01*
X5300Y64100D02*
X11567D01*
X1850Y67550D02*
X5300Y64100D01*
X1850Y67550D02*
Y105950D01*
X22200Y76500D02*
X24452Y78751D01*
X12472Y76500D02*
X22200D01*
X7100Y71127D02*
X12472Y76500D01*
X22444Y77800D02*
X23622Y78978D01*
X5800Y77800D02*
X22444D01*
X21600Y79900D02*
X23200Y81500D01*
X12200Y79900D02*
X21600D01*
X7900Y84200D02*
X12200Y79900D01*
X22020Y78800D02*
X23622Y80401D01*
X10100Y78800D02*
X22020D01*
X6100Y82800D02*
X10100Y78800D01*
X1850Y105950D02*
X10000Y114100D01*
X13900Y92700D02*
X21167Y85433D01*
X23622D01*
X13900Y92700D02*
X14289D01*
X28300Y86641D02*
Y97000D01*
Y86641D02*
X28400Y86541D01*
X26772Y85433D02*
Y89128D01*
X19200Y75500D02*
X22600D01*
X16100Y72400D02*
X19200Y75500D01*
X14300Y72400D02*
X16100D01*
X20300Y70300D02*
Y72700D01*
X22000Y74400D01*
X23300D01*
X7900Y97900D02*
X12100Y102100D01*
X7900Y84200D02*
Y97900D01*
X12100Y102100D02*
Y106800D01*
X15800Y83700D02*
X20600D01*
X22017Y82283D01*
X23622D01*
X6100Y82800D02*
Y102900D01*
X30803Y85433D02*
X36600Y91230D01*
Y96300D01*
X27601Y85742D02*
X28400Y86541D01*
X27601Y84606D02*
Y85742D01*
X27600Y84605D02*
X27601Y84606D01*
X28346Y85433D02*
X30803D01*
X23300Y74400D02*
X26772Y77872D01*
X7100Y70700D02*
Y71127D01*
X89900Y114500D02*
X90100Y114300D01*
X11567Y58061D02*
Y64100D01*
X22600Y75500D02*
X25197Y78097D01*
Y79134D01*
X24452Y78751D02*
Y79963D01*
X25197Y82283D02*
X25213Y82300D01*
X26772Y83858D02*
X27530Y83100D01*
X27600Y84605D02*
X28346Y83858D01*
X25197Y85433D02*
Y87085D01*
X24400Y84655D02*
Y86674D01*
Y84655D02*
X25197Y83858D01*
X23622D02*
X24400Y83080D01*
Y81900D02*
Y83080D01*
X24000Y81500D02*
X24400Y81900D01*
X23200Y81500D02*
X24000D01*
X26772Y77872D02*
Y79134D01*
X24452Y79963D02*
X25197Y80709D01*
X23622Y80401D02*
Y80709D01*
Y78978D02*
Y79134D01*
X27000Y101500D02*
X42200D01*
X30391Y80709D02*
X32800Y78300D01*
X31000Y76500D02*
X32800Y78300D01*
X31000Y76264D02*
Y76500D01*
Y76264D02*
X32500Y74764D01*
Y71000D02*
Y74764D01*
X25600Y64100D02*
X32500Y71000D01*
D22*
X6778Y361D02*
X66766D01*
X249660Y130391D02*
G03*
X249660Y130391I-1969J0D01*
G01*
X215079Y262795D02*
G03*
X215079Y262795I-1969J0D01*
G01*
X16260Y262795D02*
G03*
X16260Y262795I-1969J0D01*
G01*
X332565Y49213D02*
Y57874D01*
X337880Y49213D02*
Y57874D01*
X332565D02*
X337880D01*
X332565Y49213D02*
X337880D01*
X298620D02*
Y57874D01*
X303935Y49213D02*
Y57874D01*
X298620D02*
X303935D01*
X298620Y49213D02*
X303935D01*
X298620Y97390D02*
Y106051D01*
X303935Y97390D02*
Y106051D01*
X298620D02*
X303935D01*
X298620Y97390D02*
X303935D01*
X244148Y67792D02*
X253518D01*
X244148Y133934D02*
X253518D01*
Y67792D02*
Y133934D01*
X244148Y67792D02*
Y133934D01*
X22913Y78425D02*
Y86142D01*
X29055Y78425D02*
Y86142D01*
X22913D02*
X29055D01*
X22913Y78425D02*
X29055D01*
X209370Y259055D02*
X227480D01*
X209370Y269291D02*
X227480D01*
X209370Y259055D02*
Y269291D01*
X227480Y259055D02*
Y269291D01*
X28661Y259055D02*
Y269291D01*
X10551Y259055D02*
Y269291D01*
X28661D01*
X10551Y259055D02*
X28661D01*
X333254Y53543D02*
X337191D01*
X335222Y51575D02*
Y55512D01*
X299309Y53543D02*
X303246D01*
X301277Y51575D02*
Y55512D01*
X299309Y101720D02*
X303246D01*
X301277Y99752D02*
Y103689D01*
X248833Y98895D02*
Y102832D01*
X246865Y100863D02*
X250802D01*
X24016Y82283D02*
X27953D01*
X25984Y80315D02*
Y84252D01*
X218425Y262205D02*
Y266142D01*
X216457Y264173D02*
X220394D01*
X17638D02*
X21575D01*
X19606Y262205D02*
Y266142D01*
D23*
X58366Y1061D02*
Y2045D01*
X58858D01*
X59022Y1881D01*
Y1553D01*
X58858Y1389D01*
X58366D01*
X60006Y1881D02*
X59842Y2045D01*
X59514D01*
X59350Y1881D01*
Y1225D01*
X59514Y1061D01*
X59842D01*
X60006Y1225D01*
X60334Y2045D02*
Y1061D01*
X60826D01*
X60990Y1225D01*
Y1389D01*
X60826Y1553D01*
X60334D01*
X60826D01*
X60990Y1717D01*
Y1881D01*
X60826Y2045D01*
X60334D01*
X62958D02*
X62302D01*
Y1061D01*
X62958D01*
X62302Y1553D02*
X62630D01*
X63942Y2045D02*
Y1061D01*
X63450D01*
X63286Y1225D01*
Y1553D01*
X63450Y1717D01*
X63942D01*
X64598Y733D02*
X64762D01*
X64926Y897D01*
Y1717D01*
X64434D01*
X64270Y1553D01*
Y1225D01*
X64434Y1061D01*
X64926D01*
X65746D02*
X65418D01*
X65254Y1225D01*
Y1553D01*
X65418Y1717D01*
X65746D01*
X65910Y1553D01*
Y1389D01*
X65254D01*
D24*
X28740Y30709D02*
D03*
D25*
X479921Y85433D02*
D03*
D26*
X212613Y79682D02*
D03*
D27*
X328431Y48228D02*
Y58858D01*
X342013Y48228D02*
Y58858D01*
X328431D02*
X342013D01*
X328431Y48228D02*
X342013D01*
X294486D02*
Y58858D01*
X308069Y48228D02*
Y58858D01*
X294486D02*
X308069D01*
X294486Y48228D02*
X308069D01*
X294486Y96406D02*
Y107035D01*
X308069Y96406D02*
Y107035D01*
X294486D02*
X308069D01*
X294486Y96406D02*
X308069D01*
X236038Y65824D02*
X261628D01*
X236038Y135902D02*
X261628D01*
Y65824D02*
Y135902D01*
X236038Y65824D02*
Y135902D01*
X21850Y77362D02*
Y87205D01*
X30118Y77362D02*
Y87205D01*
X21850D02*
X30118D01*
X21850Y77362D02*
X30118D01*
X208386Y251575D02*
X228465D01*
X208386Y271260D02*
X228465D01*
X208386Y251575D02*
Y271260D01*
X228465Y251575D02*
Y271260D01*
X29646Y251575D02*
Y271260D01*
X9567Y251575D02*
Y271260D01*
X29646D01*
X9567Y251575D02*
X29646D01*
D28*
X278347Y215394D02*
D03*
Y185394D02*
D03*
X278346Y261850D02*
D03*
Y231850D02*
D03*
X91732Y218543D02*
D03*
Y188543D02*
D03*
X91732Y258701D02*
D03*
Y228701D02*
D03*
X89900Y114500D02*
D03*
Y144500D02*
D03*
X47200Y131900D02*
D03*
Y161900D02*
D03*
X353379Y129567D02*
D03*
Y99567D02*
D03*
X359449Y230276D02*
D03*
Y260276D02*
D03*
X144600Y113800D02*
D03*
Y143800D02*
D03*
X126400Y113900D02*
D03*
Y143900D02*
D03*
X283254Y86181D02*
D03*
Y116181D02*
D03*
X10000Y114100D02*
D03*
Y144100D02*
D03*
D29*
X324410Y181457D02*
D03*
X253583Y198819D02*
D03*
X71500Y113800D02*
D03*
Y143800D02*
D03*
X54764Y202362D02*
D03*
X148819Y185394D02*
D03*
X109600Y113900D02*
D03*
Y143900D02*
D03*
X402362Y212244D02*
D03*
X24400Y122100D02*
D03*
Y152100D02*
D03*
D30*
X324410Y211457D02*
D03*
X148819Y215394D02*
D03*
X402362Y182244D02*
D03*
D31*
X223583Y198819D02*
D03*
X24764Y202362D02*
D03*
D32*
X138819Y266142D02*
D03*
X393883Y105512D02*
D03*
Y95512D02*
D03*
Y85512D02*
D03*
Y75512D02*
D03*
Y65512D02*
D03*
X521260Y176772D02*
D03*
Y186772D02*
D03*
Y196772D02*
D03*
Y206772D02*
D03*
Y216772D02*
D03*
D33*
X148819Y266142D02*
D03*
D34*
X362781Y46299D02*
D03*
D35*
Y66299D02*
D03*
D36*
X393883Y55512D02*
D03*
X521260Y226772D02*
D03*
D37*
X49862Y15061D02*
D03*
X18366Y14972D02*
D03*
D38*
X313200Y65000D02*
D03*
X343700Y64500D02*
D03*
X283000Y27100D02*
D03*
X283800Y19700D02*
D03*
X283254Y71846D02*
D03*
X323000Y46800D02*
D03*
X290000Y51500D02*
D03*
X131400Y50900D02*
D03*
X62800Y101700D02*
D03*
X47200Y245600D02*
D03*
X42400Y102500D02*
D03*
X86600Y64300D02*
D03*
X157600Y66600D02*
D03*
X143500Y72700D02*
D03*
X131100Y77200D02*
D03*
X119300Y81600D02*
D03*
X78200Y71500D02*
D03*
X89300Y70700D02*
D03*
X38400Y72000D02*
D03*
X28900Y72700D02*
D03*
X44000Y75200D02*
D03*
X52100Y92300D02*
D03*
X58900Y96000D02*
D03*
X39100Y83200D02*
D03*
X5800Y77800D02*
D03*
X13900Y92700D02*
D03*
X28300Y97000D02*
D03*
X6100Y102900D02*
D03*
X36600Y96300D02*
D03*
X12100Y106800D02*
D03*
X20300Y70300D02*
D03*
X14300Y72400D02*
D03*
X7100Y70700D02*
D03*
X305198Y90551D02*
D03*
X32677Y272441D02*
D03*
X326561Y129528D02*
D03*
X15800Y83700D02*
D03*
X180800Y164200D02*
D03*
X191200Y153800D02*
D03*
X155200Y102100D02*
D03*
M02*
