G04 Layer_Color=8421504*
%FSLAX25Y25*%
%MOIN*%
G70*
G01*
G75*
%ADD11R,0.03150X0.01772*%
%ADD12R,0.11457X0.00866*%
%ADD13C,0.00591*%
%ADD14R,0.07874X0.09843*%
%ADD15R,0.02800X0.08000*%
%ADD16R,0.07874X0.08300*%
%ADD17R,0.07874X0.06700*%
%ADD18R,0.02362X0.09449*%
%ADD19R,0.02362X0.08858*%
%ADD22C,0.00394*%
%ADD23C,0.00118*%
%ADD24R,0.43307X0.59055*%
%ADD25R,1.18110X1.18110*%
%ADD26R,0.98425X1.39764*%
%ADD27C,0.00197*%
G36*
X16606Y270417D02*
X17606Y270417D01*
X23347D01*
Y267717D01*
Y263976D01*
X20787Y261417D01*
X18425D01*
X15866Y263976D01*
Y267717D01*
Y269917D01*
X15866Y270417D01*
X16606Y270417D01*
D02*
G37*
G36*
X215425Y270417D02*
X216425Y270417D01*
X222165D01*
Y267717D01*
Y263976D01*
X219606Y261417D01*
X217244D01*
X214685Y263976D01*
Y267717D01*
Y269917D01*
X214685Y270417D01*
X215425Y270417D01*
D02*
G37*
D11*
X330990Y56102D02*
D03*
Y53543D02*
D03*
Y50984D02*
D03*
X339454D02*
D03*
Y53543D02*
D03*
Y56102D02*
D03*
X297045D02*
D03*
Y53543D02*
D03*
Y50984D02*
D03*
X305509D02*
D03*
Y53543D02*
D03*
Y56102D02*
D03*
X297045Y104280D02*
D03*
Y101720D02*
D03*
Y99161D02*
D03*
X305509D02*
D03*
Y101720D02*
D03*
Y104280D02*
D03*
D12*
X255428Y72753D02*
D03*
Y74406D02*
D03*
Y76060D02*
D03*
Y77713D02*
D03*
Y79367D02*
D03*
Y81021D02*
D03*
Y82674D02*
D03*
Y84328D02*
D03*
Y85981D02*
D03*
Y87635D02*
D03*
Y89288D02*
D03*
Y90942D02*
D03*
Y92595D02*
D03*
Y94249D02*
D03*
Y95902D02*
D03*
Y97556D02*
D03*
Y99210D02*
D03*
Y100863D02*
D03*
Y102517D02*
D03*
Y104170D02*
D03*
Y105824D02*
D03*
Y107477D02*
D03*
Y109131D02*
D03*
Y110784D02*
D03*
Y112438D02*
D03*
Y114091D02*
D03*
Y115745D02*
D03*
Y117398D02*
D03*
Y119052D02*
D03*
Y120706D02*
D03*
Y122359D02*
D03*
Y124013D02*
D03*
Y125666D02*
D03*
Y127320D02*
D03*
Y128973D02*
D03*
X242239Y72753D02*
D03*
Y74406D02*
D03*
Y76060D02*
D03*
Y77713D02*
D03*
Y79367D02*
D03*
Y81021D02*
D03*
Y82674D02*
D03*
Y84328D02*
D03*
Y85981D02*
D03*
Y87635D02*
D03*
Y89288D02*
D03*
Y90942D02*
D03*
Y92595D02*
D03*
Y94249D02*
D03*
Y95902D02*
D03*
Y97556D02*
D03*
Y99210D02*
D03*
Y100863D02*
D03*
Y102517D02*
D03*
Y104170D02*
D03*
Y105824D02*
D03*
Y107477D02*
D03*
Y109131D02*
D03*
Y110784D02*
D03*
Y112438D02*
D03*
Y114091D02*
D03*
Y115745D02*
D03*
Y117398D02*
D03*
Y119052D02*
D03*
Y120706D02*
D03*
Y122359D02*
D03*
Y124013D02*
D03*
Y125666D02*
D03*
Y127320D02*
D03*
Y128973D02*
D03*
D13*
X23622Y85433D02*
D03*
X25197D02*
D03*
X26772D02*
D03*
X28346D02*
D03*
X23622Y83858D02*
D03*
X25197D02*
D03*
X26772D02*
D03*
X28346D02*
D03*
X23622Y82283D02*
D03*
X25197D02*
D03*
X26772D02*
D03*
X28346D02*
D03*
X23622Y80709D02*
D03*
X25197D02*
D03*
X26772D02*
D03*
X28346D02*
D03*
X23622Y79134D02*
D03*
X25197D02*
D03*
X26772D02*
D03*
X28346D02*
D03*
D14*
X4266Y16260D02*
D03*
X69366D02*
D03*
D15*
X11567Y58061D02*
D03*
X15898D02*
D03*
X20228D02*
D03*
X24559D02*
D03*
X28890D02*
D03*
X46213D02*
D03*
X41882D02*
D03*
X37551D02*
D03*
X33221D02*
D03*
D16*
X64846Y53661D02*
D03*
D17*
X4266D02*
D03*
D18*
X212520Y257283D02*
D03*
X224331D02*
D03*
X25512D02*
D03*
X13701D02*
D03*
D19*
X218425Y256890D02*
D03*
X19606D02*
D03*
D22*
X6778Y361D02*
X66766D01*
X249660Y130391D02*
G03*
X249660Y130391I-1969J0D01*
G01*
X215079Y262795D02*
G03*
X215079Y262795I-1969J0D01*
G01*
X16260Y262795D02*
G03*
X16260Y262795I-1969J0D01*
G01*
X332565Y49213D02*
Y57874D01*
X337880Y49213D02*
Y57874D01*
X332565D02*
X337880D01*
X332565Y49213D02*
X337880D01*
X298620D02*
Y57874D01*
X303935Y49213D02*
Y57874D01*
X298620D02*
X303935D01*
X298620Y49213D02*
X303935D01*
X298620Y97390D02*
Y106051D01*
X303935Y97390D02*
Y106051D01*
X298620D02*
X303935D01*
X298620Y97390D02*
X303935D01*
X244148Y67792D02*
X253518D01*
X244148Y133934D02*
X253518D01*
Y67792D02*
Y133934D01*
X244148Y67792D02*
Y133934D01*
X22913Y78425D02*
Y86142D01*
X29055Y78425D02*
Y86142D01*
X22913D02*
X29055D01*
X22913Y78425D02*
X29055D01*
X209370Y259055D02*
X227480D01*
X209370Y269291D02*
X227480D01*
X209370Y259055D02*
Y269291D01*
X227480Y259055D02*
Y269291D01*
X28661Y259055D02*
Y269291D01*
X10551Y259055D02*
Y269291D01*
X28661D01*
X10551Y259055D02*
X28661D01*
X333254Y53543D02*
X337191D01*
X335222Y51575D02*
Y55512D01*
X299309Y53543D02*
X303246D01*
X301277Y51575D02*
Y55512D01*
X299309Y101720D02*
X303246D01*
X301277Y99752D02*
Y103689D01*
X248833Y98895D02*
Y102832D01*
X246865Y100863D02*
X250802D01*
X24016Y82283D02*
X27953D01*
X25984Y80315D02*
Y84252D01*
X218425Y262205D02*
Y266142D01*
X216457Y264173D02*
X220394D01*
X17638D02*
X21575D01*
X19606Y262205D02*
Y266142D01*
D23*
X58366Y1061D02*
Y2045D01*
X58858D01*
X59022Y1881D01*
Y1553D01*
X58858Y1389D01*
X58366D01*
X60006Y1881D02*
X59842Y2045D01*
X59514D01*
X59350Y1881D01*
Y1225D01*
X59514Y1061D01*
X59842D01*
X60006Y1225D01*
X60334Y2045D02*
Y1061D01*
X60826D01*
X60990Y1225D01*
Y1389D01*
X60826Y1553D01*
X60334D01*
X60826D01*
X60990Y1717D01*
Y1881D01*
X60826Y2045D01*
X60334D01*
X62958D02*
X62302D01*
Y1061D01*
X62958D01*
X62302Y1553D02*
X62630D01*
X63942Y2045D02*
Y1061D01*
X63450D01*
X63286Y1225D01*
Y1553D01*
X63450Y1717D01*
X63942D01*
X64598Y733D02*
X64762D01*
X64926Y897D01*
Y1717D01*
X64434D01*
X64270Y1553D01*
Y1225D01*
X64434Y1061D01*
X64926D01*
X65746D02*
X65418D01*
X65254Y1225D01*
Y1553D01*
X65418Y1717D01*
X65746D01*
X65910Y1553D01*
Y1389D01*
X65254D01*
D24*
X28740Y30709D02*
D03*
D25*
X479921Y85433D02*
D03*
D26*
X212613Y79682D02*
D03*
D27*
X328431Y48228D02*
Y58858D01*
X342013Y48228D02*
Y58858D01*
X328431D02*
X342013D01*
X328431Y48228D02*
X342013D01*
X294486D02*
Y58858D01*
X308069Y48228D02*
Y58858D01*
X294486D02*
X308069D01*
X294486Y48228D02*
X308069D01*
X294486Y96406D02*
Y107035D01*
X308069Y96406D02*
Y107035D01*
X294486D02*
X308069D01*
X294486Y96406D02*
X308069D01*
X236038Y65824D02*
X261628D01*
X236038Y135902D02*
X261628D01*
Y65824D02*
Y135902D01*
X236038Y65824D02*
Y135902D01*
X21850Y77362D02*
Y87205D01*
X30118Y77362D02*
Y87205D01*
X21850D02*
X30118D01*
X21850Y77362D02*
X30118D01*
X208386Y251575D02*
X228465D01*
X208386Y271260D02*
X228465D01*
X208386Y251575D02*
Y271260D01*
X228465Y251575D02*
Y271260D01*
X29646Y251575D02*
Y271260D01*
X9567Y251575D02*
Y271260D01*
X29646D01*
X9567Y251575D02*
X29646D01*
M02*
