M48
;Layer_Color=9474304
;FILE_FORMAT=2:4
INCH,LZ
;TYPE=PLATED
T1F00S00C0.0276
T2F00S00C0.0280
T3F00S00C0.0335
T4F00S00C0.0354
T5F00S00C0.0433
;TYPE=NON_PLATED
T6F00S00C0.0400
%
T01
X040236Y018224
Y021224
X032441Y021146
Y018146
X025358Y019882
X022358
X014882Y018539
X01096Y01439
Y01139
X00715Y01138
Y01438
X00244Y01521
Y01221
X002476Y020236
X005476
X014882Y021539
T02
X01314Y00509
X029Y00515
X0283Y00271
X02838Y00197
X0323Y00468
X03132Y0065
X03437Y00645
X03052Y009055
X028325Y007185
X032656Y012953
X01912Y01538
X01808Y01642
X01552Y01021
X01576Y00666
X01435Y00727
X01311Y00772
X01193Y00816
X00893Y00707
X00866Y00643
X00782Y00715
X00589Y0096
X00628Y01017
X00521Y00923
X00366Y00963
X00283Y0097
X00139Y00927
X00158Y00837
X00143Y00724
X00203Y00703
X00289Y00727
X00384Y0072
X0044Y00752
X00391Y00832
X00424Y01025
X00121Y01068
X00061Y01029
X00058Y00778
X00071Y00707
X00472Y02456
X003268Y027244
T03
X028325Y008618
Y011618
X027835Y018539
X035338Y012957
Y009957
X01446Y01138
X01264Y01139
Y01439
X01446Y01438
X00899Y01445
Y01145
X009173Y018854
X00472Y01619
Y01319
X001Y01441
Y01141
X009173Y021854
X009173Y02287
Y02587
X027835Y026185
Y023185
X027835Y021539
X035945Y023028
Y026028
T04
X039388Y005551
Y006551
Y007551
Y008551
Y009551
Y010551
X052126Y017677
Y018677
Y019677
Y020677
X014882Y026614
X013882
X052126Y022677
Y021677
T05
X036278Y00463
Y00663
T06
X001837Y001497
X004986Y001506
M30
