G04 Layer_Color=128*
%FSLAX25Y25*%
%MOIN*%
G70*
G01*
G75*
%ADD22C,0.00394*%
%ADD23C,0.00118*%
%ADD24R,0.43307X0.59055*%
%ADD25R,1.18110X1.18110*%
%ADD26R,0.98425X1.39764*%
%ADD27C,0.00197*%
%ADD62C,0.00200*%
D22*
X6778Y361D02*
X66766D01*
X249660Y130391D02*
G03*
X249660Y130391I-1969J0D01*
G01*
X215079Y262795D02*
G03*
X215079Y262795I-1969J0D01*
G01*
X16260Y262795D02*
G03*
X16260Y262795I-1969J0D01*
G01*
X332565Y49213D02*
Y57874D01*
X337880Y49213D02*
Y57874D01*
X332565D02*
X337880D01*
X332565Y49213D02*
X337880D01*
X298620D02*
Y57874D01*
X303935Y49213D02*
Y57874D01*
X298620D02*
X303935D01*
X298620Y49213D02*
X303935D01*
X298620Y97390D02*
Y106051D01*
X303935Y97390D02*
Y106051D01*
X298620D02*
X303935D01*
X298620Y97390D02*
X303935D01*
X244148Y67792D02*
X253518D01*
X244148Y133934D02*
X253518D01*
Y67792D02*
Y133934D01*
X244148Y67792D02*
Y133934D01*
X22913Y78425D02*
Y86142D01*
X29055Y78425D02*
Y86142D01*
X22913D02*
X29055D01*
X22913Y78425D02*
X29055D01*
X209370Y259055D02*
X227480D01*
X209370Y269291D02*
X227480D01*
X209370Y259055D02*
Y269291D01*
X227480Y259055D02*
Y269291D01*
X28661Y259055D02*
Y269291D01*
X10551Y259055D02*
Y269291D01*
X28661D01*
X10551Y259055D02*
X28661D01*
X333254Y53543D02*
X337191D01*
X335222Y51575D02*
Y55512D01*
X299309Y53543D02*
X303246D01*
X301277Y51575D02*
Y55512D01*
X299309Y101720D02*
X303246D01*
X301277Y99752D02*
Y103689D01*
X248833Y98895D02*
Y102832D01*
X246865Y100863D02*
X250802D01*
X24016Y82283D02*
X27953D01*
X25984Y80315D02*
Y84252D01*
X218425Y262205D02*
Y266142D01*
X216457Y264173D02*
X220394D01*
X17638D02*
X21575D01*
X19606Y262205D02*
Y266142D01*
D23*
X58366Y1061D02*
Y2045D01*
X58858D01*
X59022Y1881D01*
Y1553D01*
X58858Y1389D01*
X58366D01*
X60006Y1881D02*
X59842Y2045D01*
X59514D01*
X59350Y1881D01*
Y1225D01*
X59514Y1061D01*
X59842D01*
X60006Y1225D01*
X60334Y2045D02*
Y1061D01*
X60826D01*
X60990Y1225D01*
Y1389D01*
X60826Y1553D01*
X60334D01*
X60826D01*
X60990Y1717D01*
Y1881D01*
X60826Y2045D01*
X60334D01*
X62958D02*
X62302D01*
Y1061D01*
X62958D01*
X62302Y1553D02*
X62630D01*
X63942Y2045D02*
Y1061D01*
X63450D01*
X63286Y1225D01*
Y1553D01*
X63450Y1717D01*
X63942D01*
X64598Y733D02*
X64762D01*
X64926Y897D01*
Y1717D01*
X64434D01*
X64270Y1553D01*
Y1225D01*
X64434Y1061D01*
X64926D01*
X65746D02*
X65418D01*
X65254Y1225D01*
Y1553D01*
X65418Y1717D01*
X65746D01*
X65910Y1553D01*
Y1389D01*
X65254D01*
D24*
X28740Y30709D02*
D03*
D25*
X479921Y85433D02*
D03*
D26*
X212613Y79682D02*
D03*
D27*
X328431Y48228D02*
Y58858D01*
X342013Y48228D02*
Y58858D01*
X328431D02*
X342013D01*
X328431Y48228D02*
X342013D01*
X294486D02*
Y58858D01*
X308069Y48228D02*
Y58858D01*
X294486D02*
X308069D01*
X294486Y48228D02*
X308069D01*
X294486Y96406D02*
Y107035D01*
X308069Y96406D02*
Y107035D01*
X294486D02*
X308069D01*
X294486Y96406D02*
X308069D01*
X236038Y65824D02*
X261628D01*
X236038Y135902D02*
X261628D01*
Y65824D02*
Y135902D01*
X236038Y65824D02*
Y135902D01*
X21850Y77362D02*
Y87205D01*
X30118Y77362D02*
Y87205D01*
X21850D02*
X30118D01*
X21850Y77362D02*
X30118D01*
X208386Y251575D02*
X228465D01*
X208386Y271260D02*
X228465D01*
X208386Y251575D02*
Y271260D01*
X228465Y251575D02*
Y271260D01*
X29646Y251575D02*
Y271260D01*
X9567Y251575D02*
Y271260D01*
X29646D01*
X9567Y251575D02*
X29646D01*
D62*
X276673Y215394D02*
X280020D01*
X278347Y213721D02*
Y217067D01*
X276673Y185394D02*
X280020D01*
X278347Y183721D02*
Y187067D01*
X323032Y181457D02*
X325788D01*
X324410Y180079D02*
Y182835D01*
X323032Y211457D02*
X325788D01*
X324410Y210079D02*
Y212835D01*
X252205Y198819D02*
X254961D01*
X253583Y197441D02*
Y200197D01*
X222205Y198819D02*
X224961D01*
X223583Y197441D02*
Y200197D01*
X276673Y261850D02*
X280020D01*
X278346Y260177D02*
Y263524D01*
X276673Y231850D02*
X280020D01*
X278346Y230177D02*
Y233524D01*
X70122Y113800D02*
X72878D01*
X71500Y112422D02*
Y115178D01*
X70122Y143800D02*
X72878D01*
X71500Y142422D02*
Y145178D01*
X137047Y266142D02*
X140591D01*
X138819Y264370D02*
Y267913D01*
X147047Y266142D02*
X150591D01*
X148819Y264370D02*
Y267913D01*
X90059Y218543D02*
X93406D01*
X91732Y216870D02*
Y220216D01*
X90059Y188543D02*
X93406D01*
X91732Y186870D02*
Y190216D01*
X53386Y202362D02*
X56142D01*
X54764Y200984D02*
Y203740D01*
X23386Y202362D02*
X26142D01*
X24764Y200984D02*
Y203740D01*
X147441Y185394D02*
X150197D01*
X148819Y184016D02*
Y186772D01*
X147441Y215394D02*
X150197D01*
X148819Y214016D02*
Y216772D01*
X90059Y258701D02*
X93405D01*
X91732Y257028D02*
Y260374D01*
X90059Y228701D02*
X93405D01*
X91732Y227028D02*
Y230374D01*
X108222Y113900D02*
X110978D01*
X109600Y112522D02*
Y115278D01*
X108222Y143900D02*
X110978D01*
X109600Y142522D02*
Y145278D01*
X88227Y114500D02*
X91573D01*
X89900Y112827D02*
Y116173D01*
X88227Y144500D02*
X91573D01*
X89900Y142827D02*
Y146173D01*
X45527Y131900D02*
X48873D01*
X47200Y130227D02*
Y133573D01*
X45527Y161900D02*
X48873D01*
X47200Y160227D02*
Y163573D01*
X360616Y46299D02*
X364947D01*
X362781Y44134D02*
Y48465D01*
X360616Y66299D02*
X364947D01*
X362781Y64134D02*
Y68464D01*
X351706Y129567D02*
X355053D01*
X353379Y127894D02*
Y131240D01*
X351706Y99567D02*
X355053D01*
X353379Y97894D02*
Y101240D01*
X392112Y105512D02*
X395655D01*
X393883Y103740D02*
Y107283D01*
X392112Y95512D02*
X395655D01*
X393883Y93740D02*
Y97284D01*
X392112Y85512D02*
X395655D01*
X393883Y83740D02*
Y87283D01*
X392112Y75512D02*
X395655D01*
X393883Y73740D02*
Y77284D01*
X392112Y65512D02*
X395655D01*
X393883Y63740D02*
Y67283D01*
X392112Y55512D02*
X395655D01*
X393883Y53740D02*
Y57284D01*
X357776Y230276D02*
X361122D01*
X359449Y228602D02*
Y231949D01*
X357776Y260276D02*
X361122D01*
X359449Y258602D02*
Y261949D01*
X400984Y212244D02*
X403740D01*
X402362Y210866D02*
Y213622D01*
X400984Y182244D02*
X403740D01*
X402362Y180866D02*
Y183622D01*
X142927Y113800D02*
X146273D01*
X144600Y112127D02*
Y115473D01*
X142927Y143800D02*
X146273D01*
X144600Y142127D02*
Y145473D01*
X124727Y113900D02*
X128073D01*
X126400Y112227D02*
Y115573D01*
X124727Y143900D02*
X128073D01*
X126400Y142227D02*
Y145573D01*
X281580Y86181D02*
X284927D01*
X283254Y84508D02*
Y87854D01*
X281580Y116181D02*
X284927D01*
X283254Y114508D02*
Y117854D01*
X519488Y176772D02*
X523032D01*
X521260Y175000D02*
Y178543D01*
X519488Y186772D02*
X523032D01*
X521260Y185000D02*
Y188543D01*
X519488Y196772D02*
X523032D01*
X521260Y195000D02*
Y198543D01*
X519488Y206772D02*
X523032D01*
X521260Y205000D02*
Y208543D01*
X519488Y216772D02*
X523032D01*
X521260Y215000D02*
Y218543D01*
X519488Y226772D02*
X523032D01*
X521260Y225000D02*
Y228543D01*
X47862Y15061D02*
X51862D01*
X49862Y13061D02*
Y17061D01*
X16366Y14972D02*
X20366D01*
X18366Y12972D02*
Y16972D01*
X23022Y122100D02*
X25778D01*
X24400Y120722D02*
Y123478D01*
X23022Y152100D02*
X25778D01*
X24400Y150722D02*
Y153478D01*
X8327Y114100D02*
X11673D01*
X10000Y112427D02*
Y115773D01*
X8327Y144100D02*
X11673D01*
X10000Y142427D02*
Y145773D01*
X311800Y65000D02*
X314600D01*
X313200Y63600D02*
Y66400D01*
X342300Y64500D02*
X345100D01*
X343700Y63100D02*
Y65900D01*
X281600Y27100D02*
X284400D01*
X283000Y25700D02*
Y28500D01*
X282400Y19700D02*
X285200D01*
X283800Y18300D02*
Y21100D01*
X281854Y71846D02*
X284654D01*
X283254Y70446D02*
Y73246D01*
X321600Y46800D02*
X324400D01*
X323000Y45400D02*
Y48200D01*
X288600Y51500D02*
X291400D01*
X290000Y50100D02*
Y52900D01*
X130000Y50900D02*
X132800D01*
X131400Y49500D02*
Y52300D01*
X61400Y101700D02*
X64200D01*
X62800Y100300D02*
Y103100D01*
X45800Y245600D02*
X48600D01*
X47200Y244200D02*
Y247000D01*
X41000Y102500D02*
X43800D01*
X42400Y101100D02*
Y103900D01*
X85200Y64300D02*
X88000D01*
X86600Y62900D02*
Y65700D01*
X156200Y66600D02*
X159000D01*
X157600Y65200D02*
Y68000D01*
X142100Y72700D02*
X144900D01*
X143500Y71300D02*
Y74100D01*
X129700Y77200D02*
X132500D01*
X131100Y75800D02*
Y78600D01*
X117900Y81600D02*
X120700D01*
X119300Y80200D02*
Y83000D01*
X76800Y71500D02*
X79600D01*
X78200Y70100D02*
Y72900D01*
X87900Y70700D02*
X90700D01*
X89300Y69300D02*
Y72100D01*
X37000Y72000D02*
X39800D01*
X38400Y70600D02*
Y73400D01*
X27500Y72700D02*
X30300D01*
X28900Y71300D02*
Y74100D01*
X42600Y75200D02*
X45400D01*
X44000Y73800D02*
Y76600D01*
X50700Y92300D02*
X53500D01*
X52100Y90900D02*
Y93700D01*
X57500Y96000D02*
X60300D01*
X58900Y94600D02*
Y97400D01*
X37700Y83200D02*
X40500D01*
X39100Y81800D02*
Y84600D01*
X4400Y77800D02*
X7200D01*
X5800Y76400D02*
Y79200D01*
X12500Y92700D02*
X15300D01*
X13900Y91300D02*
Y94100D01*
X26900Y97000D02*
X29700D01*
X28300Y95600D02*
Y98400D01*
X4700Y102900D02*
X7500D01*
X6100Y101500D02*
Y104300D01*
X35200Y96300D02*
X38000D01*
X36600Y94900D02*
Y97700D01*
X10700Y106800D02*
X13500D01*
X12100Y105400D02*
Y108200D01*
X18900Y70300D02*
X21700D01*
X20300Y68900D02*
Y71700D01*
X12900Y72400D02*
X15700D01*
X14300Y71000D02*
Y73800D01*
X5700Y70700D02*
X8500D01*
X7100Y69300D02*
Y72100D01*
X303798Y90551D02*
X306598D01*
X305198Y89151D02*
Y91951D01*
X31277Y272441D02*
X34077D01*
X32677Y271041D02*
Y273841D01*
X325161Y129528D02*
X327961D01*
X326561Y128128D02*
Y130928D01*
X14400Y83700D02*
X17200D01*
X15800Y82300D02*
Y85100D01*
X179400Y164200D02*
X182200D01*
X180800Y162800D02*
Y165600D01*
X189800Y153800D02*
X192600D01*
X191200Y152400D02*
Y155200D01*
X153800Y102100D02*
X156600D01*
X155200Y100700D02*
Y103500D01*
M02*
