G04 Layer_Color=8388736*
%FSLAX25Y25*%
%MOIN*%
G70*
G01*
G75*
%ADD22C,0.00394*%
%ADD23C,0.00118*%
%ADD24R,0.43307X0.59055*%
%ADD25R,1.18110X1.18110*%
%ADD26R,0.98425X1.39764*%
%ADD27C,0.00197*%
%ADD42R,0.03950X0.02572*%
%ADD43R,0.12257X0.01666*%
%ADD44C,0.01391*%
%ADD45R,0.08674X0.10642*%
%ADD46R,0.03600X0.08800*%
%ADD47R,0.08674X0.09100*%
%ADD48R,0.08674X0.07500*%
%ADD49R,0.03162X0.10249*%
%ADD50R,0.03162X0.09658*%
%ADD51C,0.06312*%
%ADD52C,0.05524*%
%ADD53R,0.05524X0.05524*%
%ADD54R,0.05524X0.05524*%
%ADD55C,0.06706*%
%ADD56R,0.06706X0.06706*%
%ADD57C,0.07493*%
%ADD58R,0.07493X0.07493*%
%ADD59R,0.06706X0.06706*%
%ADD60C,0.03162*%
%ADD61C,0.05800*%
G36*
X16606Y270818D02*
X16606D01*
D01*
X17606Y270818D01*
X23347D01*
X23399Y270815D01*
X23450Y270805D01*
X23500Y270788D01*
X23547Y270764D01*
X23591Y270735D01*
X23630Y270701D01*
X23664Y270661D01*
X23694Y270618D01*
X23717Y270571D01*
X23734Y270521D01*
X23744Y270470D01*
X23747Y270417D01*
Y267717D01*
Y263976D01*
X23744Y263924D01*
X23734Y263873D01*
X23717Y263823D01*
X23694Y263776D01*
X23664Y263732D01*
X23630Y263693D01*
X21071Y261134D01*
X21031Y261099D01*
X20988Y261070D01*
X20941Y261047D01*
X20891Y261030D01*
X20840Y261020D01*
X20787Y261017D01*
X18425D01*
X18373Y261020D01*
X18322Y261030D01*
X18272Y261047D01*
X18225Y261070D01*
X18181Y261099D01*
X18142Y261134D01*
X15583Y263693D01*
X15548Y263732D01*
X15519Y263776D01*
X15496Y263823D01*
X15479Y263873D01*
X15469Y263924D01*
X15465Y263976D01*
Y267717D01*
Y269917D01*
Y269917D01*
Y269917D01*
X15465Y270417D01*
D01*
Y270417D01*
X15469Y270470D01*
X15471Y270480D01*
X15479Y270521D01*
X15487Y270546D01*
X15496Y270571D01*
X15519Y270618D01*
X15539Y270647D01*
X15548Y270662D01*
X15583Y270701D01*
X15583D01*
Y270701D01*
X15622Y270736D01*
X15637Y270745D01*
X15666Y270765D01*
X15713Y270788D01*
X15738Y270796D01*
X15763Y270805D01*
X15804Y270813D01*
X15814Y270815D01*
X15866Y270818D01*
X15866D01*
D01*
X16606Y270818D01*
D02*
G37*
G36*
X215425Y270818D02*
X215425D01*
D01*
X216425Y270818D01*
X222165D01*
X222218Y270815D01*
X222269Y270805D01*
X222319Y270788D01*
X222366Y270764D01*
X222409Y270735D01*
X222449Y270701D01*
X222483Y270661D01*
X222513Y270618D01*
X222536Y270571D01*
X222553Y270521D01*
X222563Y270470D01*
X222566Y270417D01*
Y267717D01*
Y263976D01*
X222563Y263924D01*
X222553Y263873D01*
X222536Y263823D01*
X222513Y263776D01*
X222483Y263732D01*
X222449Y263693D01*
X219890Y261134D01*
X219850Y261099D01*
X219807Y261070D01*
X219760Y261047D01*
X219710Y261030D01*
X219659Y261020D01*
X219606Y261017D01*
X217244D01*
X217192Y261020D01*
X217140Y261030D01*
X217091Y261047D01*
X217044Y261070D01*
X217000Y261099D01*
X216961Y261134D01*
X214402Y263693D01*
X214367Y263732D01*
X214338Y263776D01*
X214315Y263823D01*
X214298Y263873D01*
X214288Y263924D01*
X214284Y263976D01*
Y267717D01*
Y269917D01*
Y269917D01*
Y269917D01*
X214284Y270417D01*
D01*
Y270417D01*
X214288Y270470D01*
X214290Y270480D01*
X214298Y270521D01*
X214306Y270546D01*
X214315Y270571D01*
X214338Y270618D01*
X214357Y270647D01*
X214367Y270661D01*
X214402Y270701D01*
X214402D01*
Y270701D01*
X214441Y270736D01*
X214456Y270745D01*
X214485Y270765D01*
X214532Y270788D01*
X214557Y270796D01*
X214581Y270805D01*
X214623Y270813D01*
X214633Y270815D01*
X214685Y270818D01*
X214685D01*
D01*
X215425Y270818D01*
D02*
G37*
D22*
X6778Y361D02*
X66766D01*
X249660Y130391D02*
G03*
X249660Y130391I-1969J0D01*
G01*
X215079Y262795D02*
G03*
X215079Y262795I-1969J0D01*
G01*
X16260Y262795D02*
G03*
X16260Y262795I-1969J0D01*
G01*
X332565Y49213D02*
Y57874D01*
X337880Y49213D02*
Y57874D01*
X332565D02*
X337880D01*
X332565Y49213D02*
X337880D01*
X298620D02*
Y57874D01*
X303935Y49213D02*
Y57874D01*
X298620D02*
X303935D01*
X298620Y49213D02*
X303935D01*
X298620Y97390D02*
Y106051D01*
X303935Y97390D02*
Y106051D01*
X298620D02*
X303935D01*
X298620Y97390D02*
X303935D01*
X244148Y67792D02*
X253518D01*
X244148Y133934D02*
X253518D01*
Y67792D02*
Y133934D01*
X244148Y67792D02*
Y133934D01*
X22913Y78425D02*
Y86142D01*
X29055Y78425D02*
Y86142D01*
X22913D02*
X29055D01*
X22913Y78425D02*
X29055D01*
X209370Y259055D02*
X227480D01*
X209370Y269291D02*
X227480D01*
X209370Y259055D02*
Y269291D01*
X227480Y259055D02*
Y269291D01*
X28661Y259055D02*
Y269291D01*
X10551Y259055D02*
Y269291D01*
X28661D01*
X10551Y259055D02*
X28661D01*
X333254Y53543D02*
X337191D01*
X335222Y51575D02*
Y55512D01*
X299309Y53543D02*
X303246D01*
X301277Y51575D02*
Y55512D01*
X299309Y101720D02*
X303246D01*
X301277Y99752D02*
Y103689D01*
X248833Y98895D02*
Y102832D01*
X246865Y100863D02*
X250802D01*
X24016Y82283D02*
X27953D01*
X25984Y80315D02*
Y84252D01*
X218425Y262205D02*
Y266142D01*
X216457Y264173D02*
X220394D01*
X17638D02*
X21575D01*
X19606Y262205D02*
Y266142D01*
D23*
X58366Y1061D02*
Y2045D01*
X58858D01*
X59022Y1881D01*
Y1553D01*
X58858Y1389D01*
X58366D01*
X60006Y1881D02*
X59842Y2045D01*
X59514D01*
X59350Y1881D01*
Y1225D01*
X59514Y1061D01*
X59842D01*
X60006Y1225D01*
X60334Y2045D02*
Y1061D01*
X60826D01*
X60990Y1225D01*
Y1389D01*
X60826Y1553D01*
X60334D01*
X60826D01*
X60990Y1717D01*
Y1881D01*
X60826Y2045D01*
X60334D01*
X62958D02*
X62302D01*
Y1061D01*
X62958D01*
X62302Y1553D02*
X62630D01*
X63942Y2045D02*
Y1061D01*
X63450D01*
X63286Y1225D01*
Y1553D01*
X63450Y1717D01*
X63942D01*
X64598Y733D02*
X64762D01*
X64926Y897D01*
Y1717D01*
X64434D01*
X64270Y1553D01*
Y1225D01*
X64434Y1061D01*
X64926D01*
X65746D02*
X65418D01*
X65254Y1225D01*
Y1553D01*
X65418Y1717D01*
X65746D01*
X65910Y1553D01*
Y1389D01*
X65254D01*
D24*
X28740Y30709D02*
D03*
D25*
X479921Y85433D02*
D03*
D26*
X212613Y79682D02*
D03*
D27*
X328431Y48228D02*
Y58858D01*
X342013Y48228D02*
Y58858D01*
X328431D02*
X342013D01*
X328431Y48228D02*
X342013D01*
X294486D02*
Y58858D01*
X308069Y48228D02*
Y58858D01*
X294486D02*
X308069D01*
X294486Y48228D02*
X308069D01*
X294486Y96406D02*
Y107035D01*
X308069Y96406D02*
Y107035D01*
X294486D02*
X308069D01*
X294486Y96406D02*
X308069D01*
X236038Y65824D02*
X261628D01*
X236038Y135902D02*
X261628D01*
Y65824D02*
Y135902D01*
X236038Y65824D02*
Y135902D01*
X21850Y77362D02*
Y87205D01*
X30118Y77362D02*
Y87205D01*
X21850D02*
X30118D01*
X21850Y77362D02*
X30118D01*
X208386Y251575D02*
X228465D01*
X208386Y271260D02*
X228465D01*
X208386Y251575D02*
Y271260D01*
X228465Y251575D02*
Y271260D01*
X29646Y251575D02*
Y271260D01*
X9567Y251575D02*
Y271260D01*
X29646D01*
X9567Y251575D02*
X29646D01*
D42*
X330990Y56102D02*
D03*
Y53543D02*
D03*
Y50984D02*
D03*
X339454D02*
D03*
Y53543D02*
D03*
Y56102D02*
D03*
X297045D02*
D03*
Y53543D02*
D03*
Y50984D02*
D03*
X305509D02*
D03*
Y53543D02*
D03*
Y56102D02*
D03*
X297045Y104280D02*
D03*
Y101720D02*
D03*
Y99161D02*
D03*
X305509D02*
D03*
Y101720D02*
D03*
Y104280D02*
D03*
D43*
X255428Y72753D02*
D03*
Y74406D02*
D03*
Y76060D02*
D03*
Y77713D02*
D03*
Y79367D02*
D03*
Y81021D02*
D03*
Y82674D02*
D03*
Y84328D02*
D03*
Y85981D02*
D03*
Y87635D02*
D03*
Y89288D02*
D03*
Y90942D02*
D03*
Y92595D02*
D03*
Y94249D02*
D03*
Y95902D02*
D03*
Y97556D02*
D03*
Y99210D02*
D03*
Y100863D02*
D03*
Y102517D02*
D03*
Y104170D02*
D03*
Y105824D02*
D03*
Y107477D02*
D03*
Y109131D02*
D03*
Y110784D02*
D03*
Y112438D02*
D03*
Y114091D02*
D03*
Y115745D02*
D03*
Y117398D02*
D03*
Y119052D02*
D03*
Y120706D02*
D03*
Y122359D02*
D03*
Y124013D02*
D03*
Y125666D02*
D03*
Y127320D02*
D03*
Y128973D02*
D03*
X242239Y72753D02*
D03*
Y74406D02*
D03*
Y76060D02*
D03*
Y77713D02*
D03*
Y79367D02*
D03*
Y81021D02*
D03*
Y82674D02*
D03*
Y84328D02*
D03*
Y85981D02*
D03*
Y87635D02*
D03*
Y89288D02*
D03*
Y90942D02*
D03*
Y92595D02*
D03*
Y94249D02*
D03*
Y95902D02*
D03*
Y97556D02*
D03*
Y99210D02*
D03*
Y100863D02*
D03*
Y102517D02*
D03*
Y104170D02*
D03*
Y105824D02*
D03*
Y107477D02*
D03*
Y109131D02*
D03*
Y110784D02*
D03*
Y112438D02*
D03*
Y114091D02*
D03*
Y115745D02*
D03*
Y117398D02*
D03*
Y119052D02*
D03*
Y120706D02*
D03*
Y122359D02*
D03*
Y124013D02*
D03*
Y125666D02*
D03*
Y127320D02*
D03*
Y128973D02*
D03*
D44*
X23622Y85433D02*
D03*
X25197D02*
D03*
X26772D02*
D03*
X28346D02*
D03*
X23622Y83858D02*
D03*
X25197D02*
D03*
X26772D02*
D03*
X28346D02*
D03*
X23622Y82283D02*
D03*
X25197D02*
D03*
X26772D02*
D03*
X28346D02*
D03*
X23622Y80709D02*
D03*
X25197D02*
D03*
X26772D02*
D03*
X28346D02*
D03*
X23622Y79134D02*
D03*
X25197D02*
D03*
X26772D02*
D03*
X28346D02*
D03*
D45*
X4266Y16260D02*
D03*
X69366D02*
D03*
D46*
X11567Y58061D02*
D03*
X15898D02*
D03*
X20228D02*
D03*
X24559D02*
D03*
X28890D02*
D03*
X46213D02*
D03*
X41882D02*
D03*
X37551D02*
D03*
X33221D02*
D03*
D47*
X64846Y53661D02*
D03*
D48*
X4266D02*
D03*
D49*
X212520Y257283D02*
D03*
X224331D02*
D03*
X25512D02*
D03*
X13701D02*
D03*
D50*
X218425Y256890D02*
D03*
X19606D02*
D03*
D51*
X278347Y215394D02*
D03*
Y185394D02*
D03*
X278346Y261850D02*
D03*
Y231850D02*
D03*
X91732Y218543D02*
D03*
Y188543D02*
D03*
X91732Y258701D02*
D03*
Y228701D02*
D03*
X89900Y114500D02*
D03*
Y144500D02*
D03*
X47200Y131900D02*
D03*
Y161900D02*
D03*
X353379Y129567D02*
D03*
Y99567D02*
D03*
X359449Y230276D02*
D03*
Y260276D02*
D03*
X144600Y113800D02*
D03*
Y143800D02*
D03*
X126400Y113900D02*
D03*
Y143900D02*
D03*
X283254Y86181D02*
D03*
Y116181D02*
D03*
X10000Y114100D02*
D03*
Y144100D02*
D03*
D52*
X324410Y181457D02*
D03*
X253583Y198819D02*
D03*
X71500Y113800D02*
D03*
Y143800D02*
D03*
X54764Y202362D02*
D03*
X148819Y185394D02*
D03*
X109600Y113900D02*
D03*
Y143900D02*
D03*
X402362Y212244D02*
D03*
X24400Y122100D02*
D03*
Y152100D02*
D03*
D53*
X324410Y211457D02*
D03*
X148819Y215394D02*
D03*
X402362Y182244D02*
D03*
D54*
X223583Y198819D02*
D03*
X24764Y202362D02*
D03*
D55*
X138819Y266142D02*
D03*
X393883Y105512D02*
D03*
Y95512D02*
D03*
Y85512D02*
D03*
Y75512D02*
D03*
Y65512D02*
D03*
X521260Y176772D02*
D03*
Y186772D02*
D03*
Y196772D02*
D03*
Y206772D02*
D03*
Y216772D02*
D03*
D56*
X148819Y266142D02*
D03*
D57*
X362781Y46299D02*
D03*
D58*
Y66299D02*
D03*
D59*
X393883Y55512D02*
D03*
X521260Y226772D02*
D03*
D60*
X49862Y15061D02*
D03*
X18366Y14972D02*
D03*
D61*
X313200Y65000D02*
D03*
X343700Y64500D02*
D03*
X283000Y27100D02*
D03*
X283800Y19700D02*
D03*
X283254Y71846D02*
D03*
X323000Y46800D02*
D03*
X290000Y51500D02*
D03*
X131400Y50900D02*
D03*
X62800Y101700D02*
D03*
X47200Y245600D02*
D03*
X42400Y102500D02*
D03*
X86600Y64300D02*
D03*
X157600Y66600D02*
D03*
X143500Y72700D02*
D03*
X131100Y77200D02*
D03*
X119300Y81600D02*
D03*
X78200Y71500D02*
D03*
X89300Y70700D02*
D03*
X38400Y72000D02*
D03*
X28900Y72700D02*
D03*
X44000Y75200D02*
D03*
X52100Y92300D02*
D03*
X58900Y96000D02*
D03*
X39100Y83200D02*
D03*
X5800Y77800D02*
D03*
X13900Y92700D02*
D03*
X28300Y97000D02*
D03*
X6100Y102900D02*
D03*
X36600Y96300D02*
D03*
X12100Y106800D02*
D03*
X20300Y70300D02*
D03*
X14300Y72400D02*
D03*
X7100Y70700D02*
D03*
X305198Y90551D02*
D03*
X32677Y272441D02*
D03*
X326561Y129528D02*
D03*
X15800Y83700D02*
D03*
X180800Y164200D02*
D03*
X191200Y153800D02*
D03*
X155200Y102100D02*
D03*
M02*
