G04 Layer_Physical_Order=2*
G04 Layer_Color=16711680*
%FSLAX25Y25*%
%MOIN*%
G70*
G01*
G75*
%ADD20C,0.01000*%
%ADD21C,0.00300*%
%ADD22C,0.00394*%
%ADD23C,0.00118*%
%ADD24R,0.43307X0.59055*%
%ADD25R,1.18110X1.18110*%
%ADD26R,0.98425X1.39764*%
%ADD27C,0.00197*%
%ADD28C,0.05512*%
%ADD29C,0.04724*%
%ADD30R,0.04724X0.04724*%
%ADD31R,0.04724X0.04724*%
%ADD32C,0.05906*%
%ADD33R,0.05906X0.05906*%
%ADD34C,0.06693*%
%ADD35R,0.06693X0.06693*%
%ADD36R,0.05906X0.05906*%
%ADD37C,0.02362*%
%ADD38C,0.05000*%
D20*
X36900Y108000D02*
X42400Y102500D01*
X20700Y108000D02*
X36900D01*
X312943Y211457D02*
X324410D01*
X290100Y234300D02*
X312943Y211457D01*
X290100Y234300D02*
Y256800D01*
X285050Y261850D02*
X290100Y256800D01*
X278346Y261850D02*
X285050D01*
X313200Y65000D02*
X343200D01*
X387812Y85512D02*
X393883D01*
X368599Y66299D02*
X387812Y85512D01*
X362781Y66299D02*
X368599D01*
X283000Y27100D02*
Y61800D01*
X283300Y62100D01*
X283800Y19700D02*
X290000Y25900D01*
Y51500D01*
X325519Y176700D02*
X329500Y180681D01*
X285827Y176700D02*
X325519D01*
X285827Y143298D02*
Y176700D01*
X329500Y230327D02*
X359449Y260276D01*
X329500Y180681D02*
Y230327D01*
X508828Y176772D02*
X521260D01*
X503356Y182244D02*
X508828Y176772D01*
X402362Y182244D02*
X503356D01*
X353379Y129567D02*
X387435Y95512D01*
X393883D01*
X283300Y62100D02*
X291500Y70300D01*
X283300Y62100D02*
X284300Y63100D01*
X283254Y71846D02*
X283300Y71800D01*
X283254Y71846D02*
Y86181D01*
X291500Y70300D02*
X299500D01*
X323000Y46800D01*
X283254Y116181D02*
Y147646D01*
X81100Y50900D02*
X131400D01*
X109600Y143900D02*
X126400D01*
X314750Y90551D02*
Y114548D01*
X286000Y143298D02*
X314750Y114548D01*
X109000Y144500D02*
X109600Y143900D01*
X89900Y144500D02*
X109000D01*
X43200Y101700D02*
X62800D01*
X42400Y102500D02*
X43200Y101700D01*
X93200Y76000D02*
X102600Y66600D01*
X61500Y76000D02*
X93200D01*
X102600Y66600D02*
X157600D01*
X106100Y72700D02*
X143500D01*
X99950Y85050D02*
X107800Y77200D01*
X45750Y85050D02*
X99950D01*
X107800Y77200D02*
X131100D01*
X102300Y88400D02*
X109100Y81600D01*
X44200Y88400D02*
X102300D01*
X109100Y81600D02*
X119300D01*
X80000Y65800D02*
X84900Y70700D01*
X63300Y71500D02*
X78200D01*
X58700Y66900D02*
X63300Y71500D01*
X84900Y70700D02*
X89300D01*
X14600Y114100D02*
X20700Y108000D01*
X10000Y114100D02*
X14600D01*
X326561Y129528D02*
X353340D01*
X118504Y272441D02*
X124803Y266142D01*
X91732Y188543D02*
X145669D01*
X91732Y258701D02*
X105512D01*
X278347Y185394D02*
X300039D01*
X253583Y192480D02*
Y198819D01*
Y192480D02*
X260669Y185394D01*
X278347D01*
X449528Y196772D02*
X521260D01*
X386024Y260276D02*
X449528Y196772D01*
X359449Y260276D02*
X386024D01*
X305198Y90551D02*
X314750D01*
X278346Y231850D02*
X278347Y215394D01*
X91732Y228701D02*
X91732Y218543D01*
X353379Y75701D02*
Y99567D01*
Y75701D02*
X362781Y66299D01*
X303976Y181457D02*
X324410D01*
X300039Y185394D02*
X303976Y181457D01*
X105512Y258701D02*
X148819Y215394D01*
X145669Y188543D02*
X148819Y185394D01*
X54764Y202362D02*
X77913D01*
X91732Y188543D01*
X124803Y266142D02*
X138819D01*
X32677Y272441D02*
X118504D01*
X353340Y129528D02*
X353379Y129567D01*
X40100Y139000D02*
X47200Y131900D01*
X40100Y139000D02*
Y238500D01*
X47200Y245600D01*
Y161900D02*
X53400D01*
X64300Y172800D01*
X75000D01*
X83600Y164200D01*
X180800D01*
X98000Y80800D02*
X106100Y72700D01*
X47600Y80800D02*
X98000D01*
X126400Y143900D02*
X141200Y158700D01*
X272200D01*
X283254Y147646D01*
X164200Y153800D02*
X191200D01*
X155200Y144800D02*
X164200Y153800D01*
X155200Y102100D02*
Y144800D01*
X136200Y254999D02*
X140199D01*
X138199Y256998D02*
Y253000D01*
X148196Y254999D02*
X152195D01*
X389299Y15698D02*
X388299Y16698D01*
X386300D01*
X385300Y15698D01*
Y11700D01*
X386300Y10700D01*
X388299D01*
X389299Y11700D01*
Y13699D01*
X387299D01*
X391298Y10700D02*
Y16698D01*
X394297D01*
X395297Y15698D01*
Y13699D01*
X394297Y12699D01*
X391298D01*
X401295Y15698D02*
X400295Y16698D01*
X398296D01*
X397296Y15698D01*
Y14699D01*
X398296Y13699D01*
X400295D01*
X401295Y12699D01*
Y11700D01*
X400295Y10700D01*
X398296D01*
X397296Y11700D01*
X494800Y257398D02*
Y251400D01*
X498799D01*
X500798D02*
X502797D01*
X501798D01*
Y255399D01*
X500798D01*
X505796Y257398D02*
Y251400D01*
X508795D01*
X509795Y252400D01*
Y256398D01*
X508795Y257398D01*
X505796D01*
X511795Y251400D02*
Y255399D01*
X513794Y257398D01*
X515793Y255399D01*
Y251400D01*
Y254399D01*
X511795D01*
X517793Y251400D02*
Y257398D01*
X520792D01*
X521791Y256398D01*
Y254399D01*
X520792Y253399D01*
X517793D01*
X519792D02*
X521791Y251400D01*
D21*
X69000Y63000D02*
X81100Y50900D01*
X14800Y63000D02*
X69000D01*
X27800Y91100D02*
X41500D01*
X17500Y64200D02*
X86500D01*
X86600Y64300D01*
X13400Y68300D02*
X17500Y64200D01*
X9500Y68300D02*
X13400D01*
X11400Y66400D02*
X14800Y63000D01*
X18500Y65800D02*
X80000D01*
X14300Y70000D02*
X18500Y65800D01*
X23700Y66900D02*
X58700D01*
X54000Y68500D02*
X61500Y76000D01*
X27400Y68500D02*
X54000D01*
X37700Y72700D02*
X38400Y72000D01*
X28900Y72700D02*
X37700D01*
X39300Y83200D02*
X44000Y78500D01*
Y75200D02*
Y78500D01*
X34600Y92200D02*
X52000D01*
X52100Y92300D01*
X36600Y96300D02*
X58600D01*
X58900Y96000D01*
X41500Y91100D02*
X44200Y88400D01*
X39100Y83200D02*
X39300D01*
X14300Y70000D02*
Y72400D01*
X20300Y70300D02*
X23700Y66900D01*
X21600Y74300D02*
X27400Y68500D01*
X7100Y70700D02*
X9500Y68300D01*
X4800Y66400D02*
X11400D01*
X3300Y67900D02*
X4800Y66400D01*
X3300Y67900D02*
Y74200D01*
X5800Y76700D01*
Y77800D01*
X21400Y89300D02*
X39100D01*
X18000Y92700D02*
X21400Y89300D01*
X13900Y92700D02*
X18000D01*
X40700Y90100D02*
X45750Y85050D01*
X24800Y90100D02*
X40700D01*
X12000Y102900D02*
X24800Y90100D01*
X29800Y97000D02*
X34600Y92200D01*
X28300Y97000D02*
X29800D01*
X6100Y102900D02*
X12000D01*
X18600Y74300D02*
X21600D01*
X18600D02*
Y80900D01*
X15800Y83700D02*
X18600Y80900D01*
X15800Y83700D02*
X16000D01*
X12100Y106800D02*
X27800Y91100D01*
X39100Y89300D02*
X47600Y80800D01*
D22*
X6778Y361D02*
X66766D01*
X249660Y130391D02*
G03*
X249660Y130391I-1969J0D01*
G01*
X215079Y262795D02*
G03*
X215079Y262795I-1969J0D01*
G01*
X16260Y262795D02*
G03*
X16260Y262795I-1969J0D01*
G01*
X332565Y49213D02*
Y57874D01*
X337880Y49213D02*
Y57874D01*
X332565D02*
X337880D01*
X332565Y49213D02*
X337880D01*
X298620D02*
Y57874D01*
X303935Y49213D02*
Y57874D01*
X298620D02*
X303935D01*
X298620Y49213D02*
X303935D01*
X298620Y97390D02*
Y106051D01*
X303935Y97390D02*
Y106051D01*
X298620D02*
X303935D01*
X298620Y97390D02*
X303935D01*
X244148Y67792D02*
X253518D01*
X244148Y133934D02*
X253518D01*
Y67792D02*
Y133934D01*
X244148Y67792D02*
Y133934D01*
X22913Y78425D02*
Y86142D01*
X29055Y78425D02*
Y86142D01*
X22913D02*
X29055D01*
X22913Y78425D02*
X29055D01*
X209370Y259055D02*
X227480D01*
X209370Y269291D02*
X227480D01*
X209370Y259055D02*
Y269291D01*
X227480Y259055D02*
Y269291D01*
X28661Y259055D02*
Y269291D01*
X10551Y259055D02*
Y269291D01*
X28661D01*
X10551Y259055D02*
X28661D01*
X333254Y53543D02*
X337191D01*
X335222Y51575D02*
Y55512D01*
X299309Y53543D02*
X303246D01*
X301277Y51575D02*
Y55512D01*
X299309Y101720D02*
X303246D01*
X301277Y99752D02*
Y103689D01*
X248833Y98895D02*
Y102832D01*
X246865Y100863D02*
X250802D01*
X24016Y82283D02*
X27953D01*
X25984Y80315D02*
Y84252D01*
X218425Y262205D02*
Y266142D01*
X216457Y264173D02*
X220394D01*
X17638D02*
X21575D01*
X19606Y262205D02*
Y266142D01*
D23*
X58366Y1061D02*
Y2045D01*
X58858D01*
X59022Y1881D01*
Y1553D01*
X58858Y1389D01*
X58366D01*
X60006Y1881D02*
X59842Y2045D01*
X59514D01*
X59350Y1881D01*
Y1225D01*
X59514Y1061D01*
X59842D01*
X60006Y1225D01*
X60334Y2045D02*
Y1061D01*
X60826D01*
X60990Y1225D01*
Y1389D01*
X60826Y1553D01*
X60334D01*
X60826D01*
X60990Y1717D01*
Y1881D01*
X60826Y2045D01*
X60334D01*
X62958D02*
X62302D01*
Y1061D01*
X62958D01*
X62302Y1553D02*
X62630D01*
X63942Y2045D02*
Y1061D01*
X63450D01*
X63286Y1225D01*
Y1553D01*
X63450Y1717D01*
X63942D01*
X64598Y733D02*
X64762D01*
X64926Y897D01*
Y1717D01*
X64434D01*
X64270Y1553D01*
Y1225D01*
X64434Y1061D01*
X64926D01*
X65746D02*
X65418D01*
X65254Y1225D01*
Y1553D01*
X65418Y1717D01*
X65746D01*
X65910Y1553D01*
Y1389D01*
X65254D01*
D24*
X28740Y30709D02*
D03*
D25*
X479921Y85433D02*
D03*
D26*
X212613Y79682D02*
D03*
D27*
X328431Y48228D02*
Y58858D01*
X342013Y48228D02*
Y58858D01*
X328431D02*
X342013D01*
X328431Y48228D02*
X342013D01*
X294486D02*
Y58858D01*
X308069Y48228D02*
Y58858D01*
X294486D02*
X308069D01*
X294486Y48228D02*
X308069D01*
X294486Y96406D02*
Y107035D01*
X308069Y96406D02*
Y107035D01*
X294486D02*
X308069D01*
X294486Y96406D02*
X308069D01*
X236038Y65824D02*
X261628D01*
X236038Y135902D02*
X261628D01*
Y65824D02*
Y135902D01*
X236038Y65824D02*
Y135902D01*
X21850Y77362D02*
Y87205D01*
X30118Y77362D02*
Y87205D01*
X21850D02*
X30118D01*
X21850Y77362D02*
X30118D01*
X208386Y251575D02*
X228465D01*
X208386Y271260D02*
X228465D01*
X208386Y251575D02*
Y271260D01*
X228465Y251575D02*
Y271260D01*
X29646Y251575D02*
Y271260D01*
X9567Y251575D02*
Y271260D01*
X29646D01*
X9567Y251575D02*
X29646D01*
D28*
X278347Y215394D02*
D03*
Y185394D02*
D03*
X278346Y261850D02*
D03*
Y231850D02*
D03*
X91732Y218543D02*
D03*
Y188543D02*
D03*
X91732Y258701D02*
D03*
Y228701D02*
D03*
X89900Y114500D02*
D03*
Y144500D02*
D03*
X47200Y131900D02*
D03*
Y161900D02*
D03*
X353379Y129567D02*
D03*
Y99567D02*
D03*
X359449Y230276D02*
D03*
Y260276D02*
D03*
X144600Y113800D02*
D03*
Y143800D02*
D03*
X126400Y113900D02*
D03*
Y143900D02*
D03*
X283254Y86181D02*
D03*
Y116181D02*
D03*
X10000Y114100D02*
D03*
Y144100D02*
D03*
D29*
X324410Y181457D02*
D03*
X253583Y198819D02*
D03*
X71500Y113800D02*
D03*
Y143800D02*
D03*
X54764Y202362D02*
D03*
X148819Y185394D02*
D03*
X109600Y113900D02*
D03*
Y143900D02*
D03*
X402362Y212244D02*
D03*
X24400Y122100D02*
D03*
Y152100D02*
D03*
D30*
X324410Y211457D02*
D03*
X148819Y215394D02*
D03*
X402362Y182244D02*
D03*
D31*
X223583Y198819D02*
D03*
X24764Y202362D02*
D03*
D32*
X138819Y266142D02*
D03*
X393883Y105512D02*
D03*
Y95512D02*
D03*
Y85512D02*
D03*
Y75512D02*
D03*
Y65512D02*
D03*
X521260Y176772D02*
D03*
Y186772D02*
D03*
Y196772D02*
D03*
Y206772D02*
D03*
Y216772D02*
D03*
D33*
X148819Y266142D02*
D03*
D34*
X362781Y46299D02*
D03*
D35*
Y66299D02*
D03*
D36*
X393883Y55512D02*
D03*
X521260Y226772D02*
D03*
D37*
X49862Y15061D02*
D03*
X18366Y14972D02*
D03*
D38*
X313200Y65000D02*
D03*
X343700Y64500D02*
D03*
X283000Y27100D02*
D03*
X283800Y19700D02*
D03*
X283254Y71846D02*
D03*
X323000Y46800D02*
D03*
X290000Y51500D02*
D03*
X131400Y50900D02*
D03*
X62800Y101700D02*
D03*
X47200Y245600D02*
D03*
X42400Y102500D02*
D03*
X86600Y64300D02*
D03*
X157600Y66600D02*
D03*
X143500Y72700D02*
D03*
X131100Y77200D02*
D03*
X119300Y81600D02*
D03*
X78200Y71500D02*
D03*
X89300Y70700D02*
D03*
X38400Y72000D02*
D03*
X28900Y72700D02*
D03*
X44000Y75200D02*
D03*
X52100Y92300D02*
D03*
X58900Y96000D02*
D03*
X39100Y83200D02*
D03*
X5800Y77800D02*
D03*
X13900Y92700D02*
D03*
X28300Y97000D02*
D03*
X6100Y102900D02*
D03*
X36600Y96300D02*
D03*
X12100Y106800D02*
D03*
X20300Y70300D02*
D03*
X14300Y72400D02*
D03*
X7100Y70700D02*
D03*
X305198Y90551D02*
D03*
X32677Y272441D02*
D03*
X326561Y129528D02*
D03*
X15800Y83700D02*
D03*
X180800Y164200D02*
D03*
X191200Y153800D02*
D03*
X155200Y102100D02*
D03*
M02*
