M48
;Layer_Color=9474304
;FILE_FORMAT=2:4
INCH,LZ
;TYPE=PLATED
T1F00S00C0.0276
T2F00S00C0.0280
T3F00S00C0.0335
T4F00S00C0.0354
T5F00S00C0.0433
%
T01
X-02105Y-01021
Y-00721
X-01887Y01298
Y01598
X-01248Y01599
Y01299
X00123Y00898
X00423
T02
X-01736Y-00888
X-01867Y-0057
X-01412Y-00576
X-00716Y-0015
X-00765Y0011
X-00816Y00182
X-00713Y00183
X-00934Y00213
X-00983Y00276
X-00615Y00398
X-00453Y0032
X-00432Y00697
X-00967Y00789
X-02096Y00469
X-02209Y00419
X-02321Y00423
X-02275Y00231
X-02159Y00077
X-02194Y00544
X-02321Y-0057
X-02203Y01033
T03
X-01408Y-00991
X-01108
X-01204Y-01173
X-00904
X-00219Y-00907
Y-00607
X-0017Y00397
Y00697
X-0065Y00883
X-0095
X-02304Y0065
X-02392
Y0095
X-02304
X-02314Y01303
Y01603
X-01952Y0107
X-01652
X-00775Y01398
Y01698
T04
X-02407Y-01172
X-02307
X-02207
X-02107
X-02007
X-01907
X-01807
X-01707
X-01607
X-01507
X-01407
X-01307
X-00736Y-01066
Y-00966
Y-00866
Y-00766
Y-00666
X00819Y00399
Y00499
Y00599
Y00699
Y00799
X-00736Y-00566
X-00304Y0118
Y0128
X00819Y00899
T05
X-00525Y-01106
Y-00906
M30
