G04 Layer_Color=255*
%FSLAX25Y25*%
%MOIN*%
G70*
G01*
G75*
%ADD10R,0.08268X0.03543*%
%ADD11R,0.08268X0.12598*%
%ADD12R,0.03150X0.01772*%
%ADD13R,0.11457X0.00866*%
%ADD15C,0.00394*%
%ADD16C,0.00197*%
%ADD17C,0.05512*%
%ADD18C,0.04724*%
%ADD19R,0.04724X0.04724*%
%ADD20C,0.05906*%
%ADD21R,0.05906X0.05906*%
%ADD22R,0.05906X0.05906*%
%ADD23R,0.04724X0.04724*%
%ADD24C,0.06693*%
%ADD25R,0.06693X0.06693*%
D10*
X-52114Y169155D02*
D03*
Y160100D02*
D03*
Y151045D02*
D03*
D11*
X-28886Y160100D02*
D03*
D12*
X-61332Y3759D02*
D03*
Y1200D02*
D03*
Y-1359D02*
D03*
X-52868D02*
D03*
Y1200D02*
D03*
Y3759D02*
D03*
X-56132Y51659D02*
D03*
Y49100D02*
D03*
Y46541D02*
D03*
X-47668D02*
D03*
Y49100D02*
D03*
Y51659D02*
D03*
X-50832Y93359D02*
D03*
Y90800D02*
D03*
Y88241D02*
D03*
X-42368D02*
D03*
Y90800D02*
D03*
Y93359D02*
D03*
D13*
X-112172Y16453D02*
D03*
Y18106D02*
D03*
Y19760D02*
D03*
Y21413D02*
D03*
Y23067D02*
D03*
Y24721D02*
D03*
Y26374D02*
D03*
Y28028D02*
D03*
Y29681D02*
D03*
Y31335D02*
D03*
Y32988D02*
D03*
Y34642D02*
D03*
Y36295D02*
D03*
Y37949D02*
D03*
Y39602D02*
D03*
Y41256D02*
D03*
Y42909D02*
D03*
Y44563D02*
D03*
Y46216D02*
D03*
Y47870D02*
D03*
Y49524D02*
D03*
Y51177D02*
D03*
Y52831D02*
D03*
Y54484D02*
D03*
Y56138D02*
D03*
Y57791D02*
D03*
Y59445D02*
D03*
Y61098D02*
D03*
Y62752D02*
D03*
Y64406D02*
D03*
Y66059D02*
D03*
Y67713D02*
D03*
Y69366D02*
D03*
Y71020D02*
D03*
Y72673D02*
D03*
X-125361Y16453D02*
D03*
Y18106D02*
D03*
Y19760D02*
D03*
Y21413D02*
D03*
Y23067D02*
D03*
Y24721D02*
D03*
Y26374D02*
D03*
Y28028D02*
D03*
Y29681D02*
D03*
Y31335D02*
D03*
Y32988D02*
D03*
Y34642D02*
D03*
Y36295D02*
D03*
Y37949D02*
D03*
Y39602D02*
D03*
Y41256D02*
D03*
Y42909D02*
D03*
Y44563D02*
D03*
Y46216D02*
D03*
Y47870D02*
D03*
Y49524D02*
D03*
Y51177D02*
D03*
Y52831D02*
D03*
Y54484D02*
D03*
Y56138D02*
D03*
Y57791D02*
D03*
Y59445D02*
D03*
Y61098D02*
D03*
Y62752D02*
D03*
Y64406D02*
D03*
Y66059D02*
D03*
Y67713D02*
D03*
Y69366D02*
D03*
Y71020D02*
D03*
Y72673D02*
D03*
D15*
X-117940Y74090D02*
G03*
X-117940Y74090I-1969J0D01*
G01*
X-47783Y146911D02*
Y173289D01*
X-33217Y146911D02*
Y173289D01*
X-47783D02*
X-33217D01*
X-47783Y146911D02*
X-33217D01*
X-59758Y-3131D02*
Y5531D01*
X-54443Y-3131D02*
Y5531D01*
X-59758D02*
X-54443D01*
X-59758Y-3131D02*
X-54443D01*
X-54558Y44769D02*
Y53431D01*
X-49242Y44769D02*
Y53431D01*
X-54558D02*
X-49242D01*
X-54558Y44769D02*
X-49242D01*
X-123452Y11492D02*
X-114082D01*
X-123452Y77634D02*
X-114082D01*
Y11492D02*
Y77634D01*
X-123452Y11492D02*
Y77634D01*
X-49257Y86469D02*
Y95131D01*
X-43942Y86469D02*
Y95131D01*
X-49257D02*
X-43942D01*
X-49257Y86469D02*
X-43942D01*
X-42469Y160100D02*
X-38532D01*
X-40500Y158132D02*
Y162068D01*
X-59069Y1200D02*
X-55132D01*
X-57100Y-769D02*
Y3168D01*
X-53869Y49100D02*
X-49931D01*
X-51900Y47131D02*
Y51069D01*
X-118767Y42595D02*
Y46532D01*
X-120735Y44563D02*
X-116798D01*
X-48568Y90800D02*
X-44631D01*
X-46600Y88832D02*
Y92769D01*
D16*
X-57232Y145927D02*
Y174273D01*
X-23768Y145927D02*
Y174273D01*
X-57232D02*
X-23768D01*
X-57232Y145927D02*
X-23768D01*
X-63891Y-4115D02*
Y6515D01*
X-50309Y-4115D02*
Y6515D01*
X-63891D02*
X-50309D01*
X-63891Y-4115D02*
X-50309D01*
X-58691Y43785D02*
Y54415D01*
X-45109Y43785D02*
Y54415D01*
X-58691D02*
X-45109D01*
X-58691Y43785D02*
X-45109D01*
X-131562Y9524D02*
X-105972D01*
X-131562Y79602D02*
X-105972D01*
Y9524D02*
Y79602D01*
X-131562Y9524D02*
Y79602D01*
X-53391Y85485D02*
Y96115D01*
X-39809Y85485D02*
Y96115D01*
X-53391D02*
X-39809D01*
X-53391Y85485D02*
X-39809D01*
D17*
X-165200Y107000D02*
D03*
X-195200D02*
D03*
X-231400Y160300D02*
D03*
Y130300D02*
D03*
X-77500Y139800D02*
D03*
Y169800D02*
D03*
X-21900Y-60700D02*
D03*
Y-90700D02*
D03*
X-17000Y39700D02*
D03*
Y69700D02*
D03*
X-65000Y88300D02*
D03*
X-95000D02*
D03*
X-120400Y-117300D02*
D03*
X-90400D02*
D03*
X-140800Y-99100D02*
D03*
X-110800D02*
D03*
X-239200Y65000D02*
D03*
Y95000D02*
D03*
X-230400Y65000D02*
D03*
Y95000D02*
D03*
D18*
X12300Y89800D02*
D03*
X-210500Y-72100D02*
D03*
Y-102100D02*
D03*
X-188700Y129800D02*
D03*
X-124800Y129900D02*
D03*
D19*
X42300Y89800D02*
D03*
D20*
X-30400Y118000D02*
D03*
X-230700Y-117200D02*
D03*
X-220700D02*
D03*
X-210700D02*
D03*
X-200700D02*
D03*
X-190700D02*
D03*
X-180700D02*
D03*
X-170700D02*
D03*
X-160700D02*
D03*
X-150700D02*
D03*
X-140700D02*
D03*
X-130700D02*
D03*
X-73600Y-56600D02*
D03*
Y-66600D02*
D03*
Y-76600D02*
D03*
Y-86600D02*
D03*
Y-96600D02*
D03*
X81900Y89900D02*
D03*
Y79900D02*
D03*
Y69900D02*
D03*
Y59900D02*
D03*
Y49900D02*
D03*
D21*
X-30400Y128000D02*
D03*
X-73600Y-106600D02*
D03*
X81900Y39900D02*
D03*
D22*
X-240700Y-117200D02*
D03*
D23*
X-188700Y159800D02*
D03*
X-124800Y159900D02*
D03*
D24*
X-52500Y-110600D02*
D03*
D25*
Y-90600D02*
D03*
M02*
