G04 Layer_Color=128*
%FSLAX25Y25*%
%MOIN*%
G70*
G01*
G75*
%ADD15C,0.04724*%
%ADD43C,0.00200*%
D15*
X0Y0D02*
Y308000D01*
X376000D01*
Y304500D02*
Y308000D01*
Y0D02*
Y304500D01*
X0Y0D02*
X376000D01*
D43*
X191535Y32100D02*
X195865D01*
X193700Y29935D02*
Y34265D01*
X191535Y12100D02*
X195865D01*
X193700Y9935D02*
Y14265D01*
X120022Y282600D02*
X122778D01*
X121400Y281222D02*
Y283978D01*
X120022Y252600D02*
X122778D01*
X121400Y251222D02*
Y253978D01*
X56122Y282500D02*
X58878D01*
X57500Y281122D02*
Y283878D01*
X56122Y252500D02*
X58878D01*
X57500Y251122D02*
Y253878D01*
X14127Y217700D02*
X17473D01*
X15800Y216027D02*
Y219373D01*
X14127Y187700D02*
X17473D01*
X15800Y186027D02*
Y189373D01*
X5327Y217700D02*
X8673D01*
X7000Y216027D02*
Y219373D01*
X5327Y187700D02*
X8673D01*
X7000Y186027D02*
Y189373D01*
X133727Y23600D02*
X137073D01*
X135400Y21927D02*
Y25273D01*
X103727Y23600D02*
X107073D01*
X105400Y21927D02*
Y25273D01*
X154127Y5400D02*
X157473D01*
X155800Y3727D02*
Y7073D01*
X124127Y5400D02*
X127473D01*
X125800Y3727D02*
Y7073D01*
X326328Y162600D02*
X329872D01*
X328100Y160828D02*
Y164372D01*
X326328Y172600D02*
X329872D01*
X328100Y170828D02*
Y174372D01*
X326328Y182600D02*
X329872D01*
X328100Y180828D02*
Y184372D01*
X326328Y192600D02*
X329872D01*
X328100Y190828D02*
Y194372D01*
X326328Y202600D02*
X329872D01*
X328100Y200828D02*
Y204372D01*
X326328Y212600D02*
X329872D01*
X328100Y210828D02*
Y214372D01*
X149527Y211000D02*
X152873D01*
X151200Y209327D02*
Y212673D01*
X179527Y211000D02*
X182873D01*
X181200Y209327D02*
Y212673D01*
X227527Y192400D02*
X230873D01*
X229200Y190727D02*
Y194073D01*
X227527Y162400D02*
X230873D01*
X229200Y160727D02*
Y164073D01*
X170828Y16100D02*
X174372D01*
X172600Y14328D02*
Y17872D01*
X170828Y26100D02*
X174372D01*
X172600Y24328D02*
Y27872D01*
X170828Y36100D02*
X174372D01*
X172600Y34328D02*
Y37872D01*
X170828Y46100D02*
X174372D01*
X172600Y44328D02*
Y47872D01*
X170828Y56100D02*
X174372D01*
X172600Y54328D02*
Y57872D01*
X170828Y66100D02*
X174372D01*
X172600Y64328D02*
Y67872D01*
X222627Y32000D02*
X225973D01*
X224300Y30327D02*
Y33673D01*
X222627Y62000D02*
X225973D01*
X224300Y60327D02*
Y63673D01*
X34322Y20600D02*
X37078D01*
X35700Y19222D02*
Y21978D01*
X34322Y50600D02*
X37078D01*
X35700Y49222D02*
Y51978D01*
X113728Y5500D02*
X117272D01*
X115500Y3728D02*
Y7272D01*
X103728Y5500D02*
X107272D01*
X105500Y3728D02*
Y7272D01*
X93728Y5500D02*
X97272D01*
X95500Y3728D02*
Y7272D01*
X83728Y5500D02*
X87272D01*
X85500Y3728D02*
Y7272D01*
X73728Y5500D02*
X77272D01*
X75500Y3728D02*
Y7272D01*
X63728Y5500D02*
X67272D01*
X65500Y3728D02*
Y7272D01*
X53728Y5500D02*
X57272D01*
X55500Y3728D02*
Y7272D01*
X43728Y5500D02*
X47272D01*
X45500Y3728D02*
Y7272D01*
X33728Y5500D02*
X37272D01*
X35500Y3728D02*
Y7272D01*
X23728Y5500D02*
X27272D01*
X25500Y3728D02*
Y7272D01*
X13728Y5500D02*
X17272D01*
X15500Y3728D02*
Y7272D01*
X3728Y5500D02*
X7272D01*
X5500Y3728D02*
Y7272D01*
X167027Y292500D02*
X170373D01*
X168700Y290827D02*
Y294173D01*
X167027Y262500D02*
X170373D01*
X168700Y260827D02*
Y264173D01*
X13127Y253000D02*
X16473D01*
X14800Y251327D02*
Y254673D01*
X13127Y283000D02*
X16473D01*
X14800Y281327D02*
Y284673D01*
X214028Y250700D02*
X217572D01*
X215800Y248928D02*
Y252472D01*
X214028Y240700D02*
X217572D01*
X215800Y238928D02*
Y242472D01*
X287122Y212500D02*
X289878D01*
X288500Y211122D02*
Y213878D01*
X257122Y212500D02*
X259878D01*
X258500Y211122D02*
Y213878D01*
X49327Y229700D02*
X52673D01*
X51000Y228027D02*
Y231373D01*
X79327Y229700D02*
X82673D01*
X81000Y228027D02*
Y231373D01*
X163200Y140900D02*
X166000D01*
X164600Y139500D02*
Y142300D01*
X151400Y144000D02*
X154200D01*
X152800Y142600D02*
Y145400D01*
X201600Y192400D02*
X204400D01*
X203000Y191000D02*
Y193800D01*
X199500Y154700D02*
X202300D01*
X200900Y153300D02*
Y156100D01*
X173200Y107700D02*
X176000D01*
X174600Y106300D02*
Y109100D01*
X146500Y150300D02*
X149300D01*
X147900Y148900D02*
Y151700D01*
X148100Y201600D02*
X150900D01*
X149500Y200200D02*
Y203000D01*
X24500Y226000D02*
X27300D01*
X25900Y224600D02*
Y227400D01*
X71200Y33900D02*
X74000D01*
X72600Y32500D02*
Y35300D01*
X103600Y65100D02*
X106400D01*
X105000Y63700D02*
Y66500D01*
X12700Y165000D02*
X15500D01*
X14100Y163600D02*
Y166400D01*
X17300Y145800D02*
X20100D01*
X18700Y144400D02*
Y147200D01*
X12700Y65700D02*
X15500D01*
X14100Y64300D02*
Y67100D01*
X58100Y65700D02*
X60900D01*
X59500Y64300D02*
Y67100D01*
X35200Y169600D02*
X38000D01*
X36600Y168200D02*
Y171000D01*
X28900Y130400D02*
X31700D01*
X30300Y129000D02*
Y131800D01*
X23900Y164600D02*
X26700D01*
X25300Y163200D02*
Y166000D01*
X25400Y177100D02*
X28200D01*
X26800Y175700D02*
Y178500D01*
X168300Y133700D02*
X171100D01*
X169700Y132300D02*
Y135100D01*
X183300Y162500D02*
X186100D01*
X184700Y161100D02*
Y163900D01*
X173500Y141000D02*
X176300D01*
X174900Y139600D02*
Y142400D01*
M02*
