M48
;Layer_Color=9474304
;FILE_FORMAT=2:4
INCH,LZ
;TYPE=PLATED
T1F00S00C0.0276
T2F00S00C0.0280
T3F00S00C0.0335
T4F00S00C0.0354
T5F00S00C0.0433
%
T01
X00357Y00206
Y00506
X00575Y02525
Y02825
X01214Y02826
Y02526
X02585Y02125
X02885
T02
X00726Y00339
X00595Y00657
X0105Y00651
X01746Y01077
X01697Y01337
X01646Y01409
X01749Y0141
X01528Y0144
X01479Y01503
X01847Y01625
X02009Y01547
X0203Y01924
X01495Y02016
X00366Y01696
X00253Y01646
X00141Y0165
X00187Y01458
X00303Y01304
X00268Y01771
X00141Y00657
X00259Y0226
T03
X01054Y00236
X01354
X01258Y00054
X01558
X02243Y0032
Y0062
X02292Y01624
Y01924
X01812Y0211
X01512
X00158Y01877
X0007
Y02177
X00158
X00148Y0253
Y0283
X0051Y02297
X0081
X01687Y02625
Y02925
T04
X00055Y00055
X00155
X00255
X00355
X00455
X00555
X00655
X00755
X00855
X00955
X01055
X01155
X01726Y00161
Y00261
Y00361
Y00461
Y00561
X03281Y01626
Y01726
Y01826
Y01926
Y02026
X01726Y00661
X02158Y02407
Y02507
X03281Y02126
T05
X01937Y00121
Y00321
M30
