G04 Layer_Color=65535*
%FSLAX25Y25*%
%MOIN*%
G70*
G01*
G75*
%ADD14C,0.01000*%
%ADD15C,0.00394*%
%ADD16C,0.00197*%
%ADD27C,0.00787*%
%ADD28C,0.00984*%
%ADD29C,0.00591*%
D14*
X28099Y112998D02*
X27099Y113998D01*
X25100D01*
X24100Y112998D01*
Y109000D01*
X25100Y108000D01*
X27099D01*
X28099Y109000D01*
X30098Y108000D02*
X32097D01*
X31098D01*
Y113998D01*
X30098Y112998D01*
X-202901Y182198D02*
X-203901Y183198D01*
X-205900D01*
X-206900Y182198D01*
Y178200D01*
X-205900Y177200D01*
X-203901D01*
X-202901Y178200D01*
X-196903Y177200D02*
X-200902D01*
X-196903Y181199D01*
Y182198D01*
X-197903Y183198D01*
X-199902D01*
X-200902Y182198D01*
X-144601Y181398D02*
X-145601Y182398D01*
X-147600D01*
X-148600Y181398D01*
Y177400D01*
X-147600Y176400D01*
X-145601D01*
X-144601Y177400D01*
X-142602Y181398D02*
X-141602Y182398D01*
X-139603D01*
X-138603Y181398D01*
Y180399D01*
X-139603Y179399D01*
X-140603D01*
X-139603D01*
X-138603Y178399D01*
Y177400D01*
X-139603Y176400D01*
X-141602D01*
X-142602Y177400D01*
X-213401Y-56202D02*
X-214401Y-55202D01*
X-216400D01*
X-217400Y-56202D01*
Y-60200D01*
X-216400Y-61200D01*
X-214401D01*
X-213401Y-60200D01*
X-207403Y-55202D02*
X-209403Y-56202D01*
X-211402Y-58201D01*
Y-60200D01*
X-210402Y-61200D01*
X-208403D01*
X-207403Y-60200D01*
Y-59201D01*
X-208403Y-58201D01*
X-211402D01*
X-66800Y-69202D02*
Y-75200D01*
X-63801D01*
X-62801Y-74200D01*
Y-70202D01*
X-63801Y-69202D01*
X-66800D01*
X-60802Y-75200D02*
X-58803D01*
X-59802D01*
Y-69202D01*
X-60802Y-70202D01*
X-49806D02*
X-48806Y-69202D01*
X-46806D01*
X-45807Y-70202D01*
Y-71201D01*
X-46806Y-72201D01*
X-47806D01*
X-46806D01*
X-45807Y-73201D01*
Y-74200D01*
X-46806Y-75200D01*
X-48806D01*
X-49806Y-74200D01*
X-43807Y-75200D02*
Y-74200D01*
X-42808D01*
Y-75200D01*
X-43807D01*
X-38809Y-70202D02*
X-37809Y-69202D01*
X-35810D01*
X-34810Y-70202D01*
Y-71201D01*
X-35810Y-72201D01*
X-36810D01*
X-35810D01*
X-34810Y-73201D01*
Y-74200D01*
X-35810Y-75200D01*
X-37809D01*
X-38809Y-74200D01*
X-32811Y-69202D02*
Y-73201D01*
X-30812Y-75200D01*
X-28812Y-73201D01*
Y-69202D01*
X77550Y98250D02*
Y104248D01*
X80549D01*
X81549Y103248D01*
Y101249D01*
X80549Y100249D01*
X77550D01*
X83548Y98250D02*
X85547D01*
X84548D01*
Y104248D01*
X83548Y103248D01*
X-77950Y-48250D02*
Y-42252D01*
X-74951D01*
X-73951Y-43252D01*
Y-45251D01*
X-74951Y-46251D01*
X-77950D01*
X-67953Y-48250D02*
X-71952D01*
X-67953Y-44251D01*
Y-43252D01*
X-68953Y-42252D01*
X-70952D01*
X-71952Y-43252D01*
X-34800Y136400D02*
Y142398D01*
X-31801D01*
X-30801Y141398D01*
Y139399D01*
X-31801Y138399D01*
X-34800D01*
X-28802Y141398D02*
X-27802Y142398D01*
X-25803D01*
X-24803Y141398D01*
Y140399D01*
X-25803Y139399D01*
X-26803D01*
X-25803D01*
X-24803Y138399D01*
Y137400D01*
X-25803Y136400D01*
X-27802D01*
X-28802Y137400D01*
X-245100Y-108800D02*
Y-102802D01*
X-242101D01*
X-241101Y-103802D01*
Y-105801D01*
X-242101Y-106801D01*
X-245100D01*
X-236103Y-108800D02*
Y-102802D01*
X-239102Y-105801D01*
X-235103D01*
X-19350Y75850D02*
Y81848D01*
X-16351D01*
X-15351Y80848D01*
Y78849D01*
X-16351Y77849D01*
X-19350D01*
X-17351D02*
X-15351Y75850D01*
X-13352D02*
X-11353D01*
X-12352D01*
Y81848D01*
X-13352Y80848D01*
X-24300Y-54500D02*
Y-48502D01*
X-21301D01*
X-20301Y-49502D01*
Y-51501D01*
X-21301Y-52501D01*
X-24300D01*
X-22301D02*
X-20301Y-54500D01*
X-14303D02*
X-18302D01*
X-14303Y-50501D01*
Y-49502D01*
X-15303Y-48502D01*
X-17302D01*
X-18302Y-49502D01*
X-97200Y94700D02*
Y100698D01*
X-94201D01*
X-93201Y99698D01*
Y97699D01*
X-94201Y96699D01*
X-97200D01*
X-95201D02*
X-93201Y94700D01*
X-91202Y99698D02*
X-90202Y100698D01*
X-88203D01*
X-87203Y99698D01*
Y98699D01*
X-88203Y97699D01*
X-89203D01*
X-88203D01*
X-87203Y96699D01*
Y95700D01*
X-88203Y94700D01*
X-90202D01*
X-91202Y95700D01*
X-79850Y175950D02*
Y181948D01*
X-76851D01*
X-75851Y180948D01*
Y178949D01*
X-76851Y177949D01*
X-79850D01*
X-77851D02*
X-75851Y175950D01*
X-70853D02*
Y181948D01*
X-73852Y178949D01*
X-69853D01*
X-233800Y166500D02*
Y172498D01*
X-230801D01*
X-229801Y171498D01*
Y169499D01*
X-230801Y168499D01*
X-233800D01*
X-231801D02*
X-229801Y166500D01*
X-223803Y172498D02*
X-227802D01*
Y169499D01*
X-225803Y170499D01*
X-224803D01*
X-223803Y169499D01*
Y167500D01*
X-224803Y166500D01*
X-226802D01*
X-227802Y167500D01*
X-85600Y-121400D02*
Y-115402D01*
X-82601D01*
X-81601Y-116402D01*
Y-118401D01*
X-82601Y-119401D01*
X-85600D01*
X-83601D02*
X-81601Y-121400D01*
X-79602Y-116402D02*
X-78602Y-115402D01*
X-76603D01*
X-75603Y-116402D01*
Y-117401D01*
X-76603Y-118401D01*
X-75603Y-119401D01*
Y-120400D01*
X-76603Y-121400D01*
X-78602D01*
X-79602Y-120400D01*
Y-119401D01*
X-78602Y-118401D01*
X-79602Y-117401D01*
Y-116402D01*
X-78602Y-118401D02*
X-76603D01*
X-106000Y-102600D02*
Y-96602D01*
X-103001D01*
X-102001Y-97602D01*
Y-99601D01*
X-103001Y-100601D01*
X-106000D01*
X-104001D02*
X-102001Y-102600D01*
X-100002Y-101600D02*
X-99002Y-102600D01*
X-97003D01*
X-96003Y-101600D01*
Y-97602D01*
X-97003Y-96602D01*
X-99002D01*
X-100002Y-97602D01*
Y-98601D01*
X-99002Y-99601D01*
X-96003D01*
X-157400Y104000D02*
Y109998D01*
X-154401D01*
X-153401Y108998D01*
Y106999D01*
X-154401Y105999D01*
X-157400D01*
X-155401D02*
X-153401Y104000D01*
X-151402D02*
X-149403D01*
X-150402D01*
Y109998D01*
X-151402Y108998D01*
X-146404D02*
X-145404Y109998D01*
X-143404D01*
X-142405Y108998D01*
Y105000D01*
X-143404Y104000D01*
X-145404D01*
X-146404Y105000D01*
Y108998D01*
X-228000Y112200D02*
Y118198D01*
X-225001D01*
X-224001Y117198D01*
Y115199D01*
X-225001Y114199D01*
X-228000D01*
X-226001D02*
X-224001Y112200D01*
X-222002D02*
X-220003D01*
X-221002D01*
Y118198D01*
X-222002Y117198D01*
X-217004Y112200D02*
X-215004D01*
X-216004D01*
Y118198D01*
X-217004Y117198D01*
X-244800Y112400D02*
Y118398D01*
X-241801D01*
X-240801Y117398D01*
Y115399D01*
X-241801Y114399D01*
X-244800D01*
X-242801D02*
X-240801Y112400D01*
X-238802D02*
X-236803D01*
X-237802D01*
Y118398D01*
X-238802Y117398D01*
X-229805Y112400D02*
X-233804D01*
X-229805Y116399D01*
Y117398D01*
X-230804Y118398D01*
X-232804D01*
X-233804Y117398D01*
X-52450Y106348D02*
Y101350D01*
X-51450Y100350D01*
X-49451D01*
X-48451Y101350D01*
Y106348D01*
X-46452Y105348D02*
X-45452Y106348D01*
X-43453D01*
X-42453Y105348D01*
Y104349D01*
X-43453Y103349D01*
X-44453D01*
X-43453D01*
X-42453Y102349D01*
Y101350D01*
X-43453Y100350D01*
X-45452D01*
X-46452Y101350D01*
X-57750Y64648D02*
Y59650D01*
X-56750Y58650D01*
X-54751D01*
X-53751Y59650D01*
Y64648D01*
X-48753Y58650D02*
Y64648D01*
X-51752Y61649D01*
X-47753D01*
X-62950Y16748D02*
Y11750D01*
X-61950Y10750D01*
X-59951D01*
X-58951Y11750D01*
Y16748D01*
X-52953D02*
X-56952D01*
Y13749D01*
X-54953Y14749D01*
X-53953D01*
X-52953Y13749D01*
Y11750D01*
X-53953Y10750D01*
X-55952D01*
X-56952Y11750D01*
X-130700Y88698D02*
Y83700D01*
X-129700Y82700D01*
X-127701D01*
X-126701Y83700D01*
Y88698D01*
X-120703D02*
X-122703Y87698D01*
X-124702Y85699D01*
Y83700D01*
X-123702Y82700D01*
X-121703D01*
X-120703Y83700D01*
Y84699D01*
X-121703Y85699D01*
X-124702D01*
X-56350Y183348D02*
Y178350D01*
X-55350Y177350D01*
X-53351D01*
X-52351Y178350D01*
Y183348D01*
X-50352D02*
X-46353D01*
Y182348D01*
X-50352Y178350D01*
Y177350D01*
D15*
X-117940Y74090D02*
G03*
X-117940Y74090I-1969J0D01*
G01*
X-47783Y146911D02*
Y173289D01*
X-33217Y146911D02*
Y173289D01*
X-47783D02*
X-33217D01*
X-47783Y146911D02*
X-33217D01*
X-59758Y-3131D02*
Y5531D01*
X-54443Y-3131D02*
Y5531D01*
X-59758D02*
X-54443D01*
X-59758Y-3131D02*
X-54443D01*
X-54558Y44769D02*
Y53431D01*
X-49242Y44769D02*
Y53431D01*
X-54558D02*
X-49242D01*
X-54558Y44769D02*
X-49242D01*
X-123452Y11492D02*
X-114082D01*
X-123452Y77634D02*
X-114082D01*
Y11492D02*
Y77634D01*
X-123452Y11492D02*
Y77634D01*
X-49257Y86469D02*
Y95131D01*
X-43942Y86469D02*
Y95131D01*
X-49257D02*
X-43942D01*
X-49257Y86469D02*
X-43942D01*
X-42469Y160100D02*
X-38532D01*
X-40500Y158132D02*
Y162068D01*
X-59069Y1200D02*
X-55132D01*
X-57100Y-769D02*
Y3168D01*
X-53869Y49100D02*
X-49931D01*
X-51900Y47131D02*
Y51069D01*
X-118767Y42595D02*
Y46532D01*
X-120735Y44563D02*
X-116798D01*
X-48568Y90800D02*
X-44631D01*
X-46600Y88832D02*
Y92769D01*
D16*
X-57232Y145927D02*
Y174273D01*
X-23768Y145927D02*
Y174273D01*
X-57232D02*
X-23768D01*
X-57232Y145927D02*
X-23768D01*
X-63891Y-4115D02*
Y6515D01*
X-50309Y-4115D02*
Y6515D01*
X-63891D02*
X-50309D01*
X-63891Y-4115D02*
X-50309D01*
X-58691Y43785D02*
Y54415D01*
X-45109Y43785D02*
Y54415D01*
X-58691D02*
X-45109D01*
X-58691Y43785D02*
X-45109D01*
X-131562Y9524D02*
X-105972D01*
X-131562Y79602D02*
X-105972D01*
Y9524D02*
Y79602D01*
X-131562Y9524D02*
Y79602D01*
X-53391Y85485D02*
Y96115D01*
X-39809Y85485D02*
Y96115D01*
X-53391D02*
X-39809D01*
X-53391Y85485D02*
X-39809D01*
D27*
X57300Y89800D02*
G03*
X57300Y89800I-30000J0D01*
G01*
X-158700Y144800D02*
G03*
X-158700Y144800I-30000J0D01*
G01*
X-94800Y144900D02*
G03*
X-94800Y144900I-30000J0D01*
G01*
X-191100Y107000D02*
X-190200D01*
X-170200D02*
X-169300D01*
X-190200D02*
Y110000D01*
X-170200D01*
Y104000D02*
Y110000D01*
X-190200Y104000D02*
X-170200D01*
X-190200D02*
Y107000D01*
X-25400Y113000D02*
Y133000D01*
X-35400D02*
X-25400D01*
X-35400Y113000D02*
Y133000D01*
Y113000D02*
X-25400D01*
X-231400Y134400D02*
Y135300D01*
Y155300D02*
Y156200D01*
X-234400Y135300D02*
X-231400D01*
X-234400D02*
Y155300D01*
X-228400D01*
Y135300D02*
Y155300D01*
X-231400Y135300D02*
X-228400D01*
X-77500Y164800D02*
Y165700D01*
Y143900D02*
Y144800D01*
Y164800D02*
X-74500D01*
Y144800D02*
Y164800D01*
X-80500Y144800D02*
X-74500D01*
X-80500D02*
Y164800D01*
X-77500D01*
X-46799Y146911D02*
Y173289D01*
X-34201Y146911D02*
Y173289D01*
X-46799D02*
X-34201D01*
X-46799Y146911D02*
X-34201D01*
X-125700Y-122200D02*
Y-112200D01*
X-245700Y-122200D02*
X-125700D01*
X-245700D02*
Y-112200D01*
X-238200D01*
X-125700D01*
X-203000Y-109600D02*
Y-64600D01*
X-218000D02*
X-203000D01*
X-218000Y-109600D02*
Y-64600D01*
Y-109600D02*
X-203000D01*
X-58281Y5531D02*
X-55919D01*
X-58281Y-3131D02*
X-55919D01*
X-58281D02*
Y5531D01*
X-55919Y-3131D02*
Y5531D01*
X-21900Y-86600D02*
Y-85700D01*
Y-65700D02*
Y-64800D01*
X-24900Y-85700D02*
X-21900D01*
X-24900D02*
Y-65700D01*
X-18900D01*
Y-85700D02*
Y-65700D01*
X-21900Y-85700D02*
X-18900D01*
X-68600Y-111600D02*
Y-51600D01*
X-78600Y-111600D02*
Y-51600D01*
Y-111600D02*
X-68600D01*
X-78600Y-51600D02*
X-68600D01*
X-53081Y53431D02*
X-50719D01*
X-53081Y44769D02*
X-50719D01*
X-53081D02*
Y53431D01*
X-50719Y44769D02*
Y53431D01*
X-119554Y11492D02*
X-117980D01*
X-119554Y77634D02*
X-117980D01*
Y11492D02*
Y77634D01*
X-119554Y11492D02*
Y77634D01*
X-17000Y64700D02*
Y65600D01*
Y43800D02*
Y44700D01*
Y64700D02*
X-14000D01*
Y44700D02*
Y64700D01*
X-20000Y44700D02*
X-14000D01*
X-20000D02*
Y64700D01*
X-17000D01*
X-90900Y88300D02*
X-90000D01*
X-70000D02*
X-69100D01*
X-90000D02*
Y91300D01*
X-70000D01*
Y85300D02*
Y91300D01*
X-90000Y85300D02*
X-70000D01*
X-90000D02*
Y88300D01*
X-47781Y95131D02*
X-45419D01*
X-47781Y86469D02*
X-45419D01*
X-47781D02*
Y95131D01*
X-45419Y86469D02*
Y95131D01*
X86900Y34900D02*
Y94900D01*
X76900Y34900D02*
Y94900D01*
Y34900D02*
X86900D01*
X76900Y94900D02*
X86900D01*
X-95400Y-117300D02*
X-94500D01*
X-116300D02*
X-115400D01*
X-95400Y-120300D02*
Y-117300D01*
X-115400Y-120300D02*
X-95400D01*
X-115400D02*
Y-114300D01*
X-95400D01*
Y-117300D02*
Y-114300D01*
X-115800Y-99100D02*
X-114900D01*
X-136700D02*
X-135800D01*
X-115800Y-102100D02*
Y-99100D01*
X-135800Y-102100D02*
X-115800D01*
X-135800D02*
Y-96100D01*
X-115800D01*
Y-99100D02*
Y-96100D01*
X-239200Y90000D02*
Y90900D01*
Y69100D02*
Y70000D01*
Y90000D02*
X-236200D01*
Y70000D02*
Y90000D01*
X-242200Y70000D02*
X-236200D01*
X-242200D02*
Y90000D01*
X-239200D01*
X-230400D02*
Y90900D01*
Y69100D02*
Y70000D01*
Y90000D02*
X-227400D01*
Y70000D02*
Y90000D01*
X-233400Y70000D02*
X-227400D01*
X-233400D02*
Y90000D01*
X-230400D01*
X-58209Y-121466D02*
X-40098D01*
X-58209Y-79734D02*
X-40098D01*
X-58209Y-121466D02*
Y-79734D01*
X-40098Y-121466D02*
Y-79734D01*
X-42067Y-121466D02*
Y-79734D01*
D28*
X-51622Y173092D02*
G03*
X-51622Y173092I-492J0D01*
G01*
X-60840Y6810D02*
G03*
X-60840Y6810I-492J0D01*
G01*
X-55640Y54710D02*
G03*
X-55640Y54710I-492J0D01*
G01*
X-124869Y75272D02*
G03*
X-124869Y75272I-492J0D01*
G01*
X-50340Y96410D02*
G03*
X-50340Y96410I-492J0D01*
G01*
D29*
X59315Y89851D02*
X63251D01*
X61283Y91819D02*
Y87883D01*
X-188751Y176815D02*
Y180751D01*
X-190719Y178783D02*
X-186783D01*
X-124851Y176915D02*
Y180851D01*
X-126819Y178883D02*
X-122883D01*
X-61065Y-108632D02*
X-60081Y-109615D01*
Y-111583D01*
X-61065Y-112567D01*
X-62049D01*
X-63033Y-111583D01*
Y-110599D01*
Y-111583D01*
X-64016Y-112567D01*
X-65000D01*
X-65984Y-111583D01*
Y-109615D01*
X-65000Y-108632D01*
X-65984Y-89616D02*
Y-91584D01*
Y-90600D01*
X-60081D01*
X-61065Y-89616D01*
M02*
