G04 Layer_Color=16711935*
%FSLAX25Y25*%
%MOIN*%
G70*
G01*
G75*
%ADD15C,0.00394*%
%ADD16C,0.00197*%
%ADD34C,0.06312*%
%ADD35C,0.05524*%
%ADD36R,0.05524X0.05524*%
%ADD37C,0.06706*%
%ADD38R,0.06706X0.06706*%
%ADD39R,0.06706X0.06706*%
%ADD40R,0.05524X0.05524*%
%ADD41C,0.07493*%
%ADD42R,0.07493X0.07493*%
%ADD43C,0.05800*%
D15*
X-117940Y74090D02*
G03*
X-117940Y74090I-1969J0D01*
G01*
X-47783Y146911D02*
Y173289D01*
X-33217Y146911D02*
Y173289D01*
X-47783D02*
X-33217D01*
X-47783Y146911D02*
X-33217D01*
X-59758Y-3131D02*
Y5531D01*
X-54443Y-3131D02*
Y5531D01*
X-59758D02*
X-54443D01*
X-59758Y-3131D02*
X-54443D01*
X-54558Y44769D02*
Y53431D01*
X-49242Y44769D02*
Y53431D01*
X-54558D02*
X-49242D01*
X-54558Y44769D02*
X-49242D01*
X-123452Y11492D02*
X-114082D01*
X-123452Y77634D02*
X-114082D01*
Y11492D02*
Y77634D01*
X-123452Y11492D02*
Y77634D01*
X-49257Y86469D02*
Y95131D01*
X-43942Y86469D02*
Y95131D01*
X-49257D02*
X-43942D01*
X-49257Y86469D02*
X-43942D01*
X-42469Y160100D02*
X-38532D01*
X-40500Y158132D02*
Y162068D01*
X-59069Y1200D02*
X-55132D01*
X-57100Y-769D02*
Y3168D01*
X-53869Y49100D02*
X-49931D01*
X-51900Y47131D02*
Y51069D01*
X-118767Y42595D02*
Y46532D01*
X-120735Y44563D02*
X-116798D01*
X-48568Y90800D02*
X-44631D01*
X-46600Y88832D02*
Y92769D01*
D16*
X-57232Y145927D02*
Y174273D01*
X-23768Y145927D02*
Y174273D01*
X-57232D02*
X-23768D01*
X-57232Y145927D02*
X-23768D01*
X-63891Y-4115D02*
Y6515D01*
X-50309Y-4115D02*
Y6515D01*
X-63891D02*
X-50309D01*
X-63891Y-4115D02*
X-50309D01*
X-58691Y43785D02*
Y54415D01*
X-45109Y43785D02*
Y54415D01*
X-58691D02*
X-45109D01*
X-58691Y43785D02*
X-45109D01*
X-131562Y9524D02*
X-105972D01*
X-131562Y79602D02*
X-105972D01*
Y9524D02*
Y79602D01*
X-131562Y9524D02*
Y79602D01*
X-53391Y85485D02*
Y96115D01*
X-39809Y85485D02*
Y96115D01*
X-53391D02*
X-39809D01*
X-53391Y85485D02*
X-39809D01*
D34*
X-165200Y107000D02*
D03*
X-195200D02*
D03*
X-231400Y160300D02*
D03*
Y130300D02*
D03*
X-77500Y139800D02*
D03*
Y169800D02*
D03*
X-21900Y-60700D02*
D03*
Y-90700D02*
D03*
X-17000Y39700D02*
D03*
Y69700D02*
D03*
X-65000Y88300D02*
D03*
X-95000D02*
D03*
X-120400Y-117300D02*
D03*
X-90400D02*
D03*
X-140800Y-99100D02*
D03*
X-110800D02*
D03*
X-239200Y65000D02*
D03*
Y95000D02*
D03*
X-230400Y65000D02*
D03*
Y95000D02*
D03*
D35*
X12300Y89800D02*
D03*
X-210500Y-72100D02*
D03*
Y-102100D02*
D03*
X-188700Y129800D02*
D03*
X-124800Y129900D02*
D03*
D36*
X42300Y89800D02*
D03*
D37*
X-30400Y118000D02*
D03*
X-230700Y-117200D02*
D03*
X-220700D02*
D03*
X-210700D02*
D03*
X-200700D02*
D03*
X-190700D02*
D03*
X-180700D02*
D03*
X-170700D02*
D03*
X-160700D02*
D03*
X-150700D02*
D03*
X-140700D02*
D03*
X-130700D02*
D03*
X-73600Y-56600D02*
D03*
Y-66600D02*
D03*
Y-76600D02*
D03*
Y-86600D02*
D03*
Y-96600D02*
D03*
X81900Y89900D02*
D03*
Y79900D02*
D03*
Y69900D02*
D03*
Y59900D02*
D03*
Y49900D02*
D03*
D38*
X-30400Y128000D02*
D03*
X-73600Y-106600D02*
D03*
X81900Y39900D02*
D03*
D39*
X-240700Y-117200D02*
D03*
D40*
X-188700Y159800D02*
D03*
X-124800Y159900D02*
D03*
D41*
X-52500Y-110600D02*
D03*
D42*
Y-90600D02*
D03*
D43*
X-71300Y18300D02*
D03*
X-61500Y39800D02*
D03*
X-76500Y11000D02*
D03*
X-219400Y54400D02*
D03*
X-220900Y41900D02*
D03*
X-215900Y7700D02*
D03*
X-209600Y46900D02*
D03*
X-186700Y-57000D02*
D03*
X-232100D02*
D03*
X-227500Y23100D02*
D03*
X-232100Y42300D02*
D03*
X-141200Y-57600D02*
D03*
X-173600Y-88800D02*
D03*
X-220300Y103300D02*
D03*
X-96700Y78900D02*
D03*
X-98300Y27600D02*
D03*
X-71600Y-15000D02*
D03*
X-45300Y32000D02*
D03*
X-43200Y69700D02*
D03*
X-93400Y21300D02*
D03*
X-81600Y18200D02*
D03*
M02*
