G04 Layer_Color=2752767*
%FSLAX25Y25*%
%MOIN*%
G70*
G01*
G75*
%ADD15C,0.04724*%
%ADD43C,0.00200*%
%ADD44C,0.00267*%
D15*
X0Y0D02*
Y308000D01*
X376000D01*
Y304500D02*
Y308000D01*
Y0D02*
Y304500D01*
X0Y0D02*
X376000D01*
D43*
X192900Y31300D02*
Y32900D01*
X194500D01*
Y31300D01*
X192900D01*
Y11300D02*
Y12900D01*
X194500D01*
Y11300D01*
X192900D01*
X15800Y216900D02*
X15000Y218500D01*
X16600D01*
X15800Y216900D01*
Y186900D02*
X15000Y188500D01*
X16600D01*
X15800Y186900D01*
X7000Y216900D02*
X6200Y218500D01*
X7800D01*
X7000Y216900D01*
Y186900D02*
X6200Y188500D01*
X7800D01*
X7000Y186900D01*
X135400Y22800D02*
X134600Y24400D01*
X136200D01*
X135400Y22800D01*
X105400D02*
X104600Y24400D01*
X106200D01*
X105400Y22800D01*
X155800Y4600D02*
X155000Y6200D01*
X156600D01*
X155800Y4600D01*
X125800D02*
X125000Y6200D01*
X126600D01*
X125800Y4600D01*
X328100Y161800D02*
X328500Y162200D01*
X328900D01*
X328500Y162600D01*
X328900Y163000D01*
X328500D01*
X328100Y163400D01*
X327700Y163000D01*
X327300D01*
X327700Y162600D01*
X327300Y162200D01*
X327700D01*
X328100Y161800D01*
Y171800D02*
X328500Y172200D01*
X328900D01*
X328500Y172600D01*
X328900Y173000D01*
X328500D01*
X328100Y173400D01*
X327700Y173000D01*
X327300D01*
X327700Y172600D01*
X327300Y172200D01*
X327700D01*
X328100Y171800D01*
Y181800D02*
X328500Y182200D01*
X328900D01*
X328500Y182600D01*
X328900Y183000D01*
X328500D01*
X328100Y183400D01*
X327700Y183000D01*
X327300D01*
X327700Y182600D01*
X327300Y182200D01*
X327700D01*
X328100Y181800D01*
Y191800D02*
X328500Y192200D01*
X328900D01*
X328500Y192600D01*
X328900Y193000D01*
X328500D01*
X328100Y193400D01*
X327700Y193000D01*
X327300D01*
X327700Y192600D01*
X327300Y192200D01*
X327700D01*
X328100Y191800D01*
Y201800D02*
X328500Y202200D01*
X328900D01*
X328500Y202600D01*
X328900Y203000D01*
X328500D01*
X328100Y203400D01*
X327700Y203000D01*
X327300D01*
X327700Y202600D01*
X327300Y202200D01*
X327700D01*
X328100Y201800D01*
Y211800D02*
X328500Y212200D01*
X328900D01*
X328500Y212600D01*
X328900Y213000D01*
X328500D01*
X328100Y213400D01*
X327700Y213000D01*
X327300D01*
X327700Y212600D01*
X327300Y212200D01*
X327700D01*
X328100Y211800D01*
X151200Y210200D02*
X150400Y211800D01*
X152000D01*
X151200Y210200D01*
X181200D02*
X180400Y211800D01*
X182000D01*
X181200Y210200D01*
X229200Y191600D02*
X228400Y193200D01*
X230000D01*
X229200Y191600D01*
Y161600D02*
X228400Y163200D01*
X230000D01*
X229200Y161600D01*
X172600Y15300D02*
X173000Y15700D01*
X173400D01*
X173000Y16100D01*
X173400Y16500D01*
X173000D01*
X172600Y16900D01*
X172200Y16500D01*
X171800D01*
X172200Y16100D01*
X171800Y15700D01*
X172200D01*
X172600Y15300D01*
Y25300D02*
X173000Y25700D01*
X173400D01*
X173000Y26100D01*
X173400Y26500D01*
X173000D01*
X172600Y26900D01*
X172200Y26500D01*
X171800D01*
X172200Y26100D01*
X171800Y25700D01*
X172200D01*
X172600Y25300D01*
Y35300D02*
X173000Y35700D01*
X173400D01*
X173000Y36100D01*
X173400Y36500D01*
X173000D01*
X172600Y36900D01*
X172200Y36500D01*
X171800D01*
X172200Y36100D01*
X171800Y35700D01*
X172200D01*
X172600Y35300D01*
Y45300D02*
X173000Y45700D01*
X173400D01*
X173000Y46100D01*
X173400Y46500D01*
X173000D01*
X172600Y46900D01*
X172200Y46500D01*
X171800D01*
X172200Y46100D01*
X171800Y45700D01*
X172200D01*
X172600Y45300D01*
Y55300D02*
X173000Y55700D01*
X173400D01*
X173000Y56100D01*
X173400Y56500D01*
X173000D01*
X172600Y56900D01*
X172200Y56500D01*
X171800D01*
X172200Y56100D01*
X171800Y55700D01*
X172200D01*
X172600Y55300D01*
Y65300D02*
X173000Y65700D01*
X173400D01*
X173000Y66100D01*
X173400Y66500D01*
X173000D01*
X172600Y66900D01*
X172200Y66500D01*
X171800D01*
X172200Y66100D01*
X171800Y65700D01*
X172200D01*
X172600Y65300D01*
X224300Y31200D02*
X223500Y32800D01*
X225100D01*
X224300Y31200D01*
Y61200D02*
X223500Y62800D01*
X225100D01*
X224300Y61200D01*
X115500Y4700D02*
X115900Y5100D01*
X116300D01*
X115900Y5500D01*
X116300Y5900D01*
X115900D01*
X115500Y6300D01*
X115100Y5900D01*
X114700D01*
X115100Y5500D01*
X114700Y5100D01*
X115100D01*
X115500Y4700D01*
X105500D02*
X105900Y5100D01*
X106300D01*
X105900Y5500D01*
X106300Y5900D01*
X105900D01*
X105500Y6300D01*
X105100Y5900D01*
X104700D01*
X105100Y5500D01*
X104700Y5100D01*
X105100D01*
X105500Y4700D01*
X95500D02*
X95900Y5100D01*
X96300D01*
X95900Y5500D01*
X96300Y5900D01*
X95900D01*
X95500Y6300D01*
X95100Y5900D01*
X94700D01*
X95100Y5500D01*
X94700Y5100D01*
X95100D01*
X95500Y4700D01*
X85500D02*
X85900Y5100D01*
X86300D01*
X85900Y5500D01*
X86300Y5900D01*
X85900D01*
X85500Y6300D01*
X85100Y5900D01*
X84700D01*
X85100Y5500D01*
X84700Y5100D01*
X85100D01*
X85500Y4700D01*
X75500D02*
X75900Y5100D01*
X76300D01*
X75900Y5500D01*
X76300Y5900D01*
X75900D01*
X75500Y6300D01*
X75100Y5900D01*
X74700D01*
X75100Y5500D01*
X74700Y5100D01*
X75100D01*
X75500Y4700D01*
X65500D02*
X65900Y5100D01*
X66300D01*
X65900Y5500D01*
X66300Y5900D01*
X65900D01*
X65500Y6300D01*
X65100Y5900D01*
X64700D01*
X65100Y5500D01*
X64700Y5100D01*
X65100D01*
X65500Y4700D01*
X55500D02*
X55900Y5100D01*
X56300D01*
X55900Y5500D01*
X56300Y5900D01*
X55900D01*
X55500Y6300D01*
X55100Y5900D01*
X54700D01*
X55100Y5500D01*
X54700Y5100D01*
X55100D01*
X55500Y4700D01*
X45500D02*
X45900Y5100D01*
X46300D01*
X45900Y5500D01*
X46300Y5900D01*
X45900D01*
X45500Y6300D01*
X45100Y5900D01*
X44700D01*
X45100Y5500D01*
X44700Y5100D01*
X45100D01*
X45500Y4700D01*
X35500D02*
X35900Y5100D01*
X36300D01*
X35900Y5500D01*
X36300Y5900D01*
X35900D01*
X35500Y6300D01*
X35100Y5900D01*
X34700D01*
X35100Y5500D01*
X34700Y5100D01*
X35100D01*
X35500Y4700D01*
X25500D02*
X25900Y5100D01*
X26300D01*
X25900Y5500D01*
X26300Y5900D01*
X25900D01*
X25500Y6300D01*
X25100Y5900D01*
X24700D01*
X25100Y5500D01*
X24700Y5100D01*
X25100D01*
X25500Y4700D01*
X15500D02*
X15900Y5100D01*
X16300D01*
X15900Y5500D01*
X16300Y5900D01*
X15900D01*
X15500Y6300D01*
X15100Y5900D01*
X14700D01*
X15100Y5500D01*
X14700Y5100D01*
X15100D01*
X15500Y4700D01*
X5500D02*
X5900Y5100D01*
X6300D01*
X5900Y5500D01*
X6300Y5900D01*
X5900D01*
X5500Y6300D01*
X5100Y5900D01*
X4700D01*
X5100Y5500D01*
X4700Y5100D01*
X5100D01*
X5500Y4700D01*
X168700Y291700D02*
X167900Y293300D01*
X169500D01*
X168700Y291700D01*
Y261700D02*
X167900Y263300D01*
X169500D01*
X168700Y261700D01*
X14800Y252200D02*
X14000Y253800D01*
X15600D01*
X14800Y252200D01*
Y282200D02*
X14000Y283800D01*
X15600D01*
X14800Y282200D01*
X215800Y249900D02*
X216200Y250300D01*
X216600D01*
X216200Y250700D01*
X216600Y251100D01*
X216200D01*
X215800Y251500D01*
X215400Y251100D01*
X215000D01*
X215400Y250700D01*
X215000Y250300D01*
X215400D01*
X215800Y249900D01*
Y239900D02*
X216200Y240300D01*
X216600D01*
X216200Y240700D01*
X216600Y241100D01*
X216200D01*
X215800Y241500D01*
X215400Y241100D01*
X215000D01*
X215400Y240700D01*
X215000Y240300D01*
X215400D01*
X215800Y239900D01*
X51000Y228900D02*
X50200Y230500D01*
X51800D01*
X51000Y228900D01*
X81000D02*
X80200Y230500D01*
X81800D01*
X81000Y228900D01*
X163800Y140100D02*
X164200Y140900D01*
X163800Y141700D01*
X164600Y141300D01*
X165400Y141700D01*
X165000Y140900D01*
X165400Y140100D01*
X164600Y140500D01*
X163800Y140100D01*
X152000Y143200D02*
X152400Y144000D01*
X152000Y144800D01*
X152800Y144400D01*
X153600Y144800D01*
X153200Y144000D01*
X153600Y143200D01*
X152800Y143600D01*
X152000Y143200D01*
X202200Y191600D02*
X202600Y192400D01*
X202200Y193200D01*
X203000Y192800D01*
X203800Y193200D01*
X203400Y192400D01*
X203800Y191600D01*
X203000Y192000D01*
X202200Y191600D01*
X200100Y153900D02*
X200500Y154700D01*
X200100Y155500D01*
X200900Y155100D01*
X201700Y155500D01*
X201300Y154700D01*
X201700Y153900D01*
X200900Y154300D01*
X200100Y153900D01*
X173800Y106900D02*
X174200Y107700D01*
X173800Y108500D01*
X174600Y108100D01*
X175400Y108500D01*
X175000Y107700D01*
X175400Y106900D01*
X174600Y107300D01*
X173800Y106900D01*
X147100Y149500D02*
X147500Y150300D01*
X147100Y151100D01*
X147900Y150700D01*
X148700Y151100D01*
X148300Y150300D01*
X148700Y149500D01*
X147900Y149900D01*
X147100Y149500D01*
X148700Y200800D02*
X149100Y201600D01*
X148700Y202400D01*
X149500Y202000D01*
X150300Y202400D01*
X149900Y201600D01*
X150300Y200800D01*
X149500Y201200D01*
X148700Y200800D01*
X25100Y225200D02*
X25500Y226000D01*
X25100Y226800D01*
X25900Y226400D01*
X26700Y226800D01*
X26300Y226000D01*
X26700Y225200D01*
X25900Y225600D01*
X25100Y225200D01*
X71800Y33100D02*
X72200Y33900D01*
X71800Y34700D01*
X72600Y34300D01*
X73400Y34700D01*
X73000Y33900D01*
X73400Y33100D01*
X72600Y33500D01*
X71800Y33100D01*
X104200Y64300D02*
X104600Y65100D01*
X104200Y65900D01*
X105000Y65500D01*
X105800Y65900D01*
X105400Y65100D01*
X105800Y64300D01*
X105000Y64700D01*
X104200Y64300D01*
X13300Y164200D02*
X13700Y165000D01*
X13300Y165800D01*
X14100Y165400D01*
X14900Y165800D01*
X14500Y165000D01*
X14900Y164200D01*
X14100Y164600D01*
X13300Y164200D01*
X17900Y145000D02*
X18300Y145800D01*
X17900Y146600D01*
X18700Y146200D01*
X19500Y146600D01*
X19100Y145800D01*
X19500Y145000D01*
X18700Y145400D01*
X17900Y145000D01*
X13300Y64900D02*
X13700Y65700D01*
X13300Y66500D01*
X14100Y66100D01*
X14900Y66500D01*
X14500Y65700D01*
X14900Y64900D01*
X14100Y65300D01*
X13300Y64900D01*
X58700D02*
X59100Y65700D01*
X58700Y66500D01*
X59500Y66100D01*
X60300Y66500D01*
X59900Y65700D01*
X60300Y64900D01*
X59500Y65300D01*
X58700Y64900D01*
X35800Y168800D02*
X36200Y169600D01*
X35800Y170400D01*
X36600Y170000D01*
X37400Y170400D01*
X37000Y169600D01*
X37400Y168800D01*
X36600Y169200D01*
X35800Y168800D01*
X29500Y129600D02*
X29900Y130400D01*
X29500Y131200D01*
X30300Y130800D01*
X31100Y131200D01*
X30700Y130400D01*
X31100Y129600D01*
X30300Y130000D01*
X29500Y129600D01*
X24500Y163800D02*
X24900Y164600D01*
X24500Y165400D01*
X25300Y165000D01*
X26100Y165400D01*
X25700Y164600D01*
X26100Y163800D01*
X25300Y164200D01*
X24500Y163800D01*
X26000Y176300D02*
X26400Y177100D01*
X26000Y177900D01*
X26800Y177500D01*
X27600Y177900D01*
X27200Y177100D01*
X27600Y176300D01*
X26800Y176700D01*
X26000Y176300D01*
X168900Y132900D02*
X169300Y133700D01*
X168900Y134500D01*
X169700Y134100D01*
X170500Y134500D01*
X170100Y133700D01*
X170500Y132900D01*
X169700Y133300D01*
X168900Y132900D01*
X183900Y161700D02*
X184300Y162500D01*
X183900Y163300D01*
X184700Y162900D01*
X185500Y163300D01*
X185100Y162500D01*
X185500Y161700D01*
X184700Y162100D01*
X183900Y161700D01*
X174100Y140200D02*
X174500Y141000D01*
X174100Y141800D01*
X174900Y141400D01*
X175700Y141800D01*
X175300Y141000D01*
X175700Y140200D01*
X174900Y140600D01*
X174100Y140200D01*
D44*
X122200Y282600D02*
G03*
X122200Y282600I-800J0D01*
G01*
Y252600D02*
G03*
X122200Y252600I-800J0D01*
G01*
X58300Y282500D02*
G03*
X58300Y282500I-800J0D01*
G01*
Y252500D02*
G03*
X58300Y252500I-800J0D01*
G01*
X36500Y20600D02*
G03*
X36500Y20600I-800J0D01*
G01*
Y50600D02*
G03*
X36500Y50600I-800J0D01*
G01*
X289300Y212500D02*
G03*
X289300Y212500I-800J0D01*
G01*
X259300D02*
G03*
X259300Y212500I-800J0D01*
G01*
M02*
