G04 Layer_Color=8421504*
%FSLAX25Y25*%
%MOIN*%
G70*
G01*
G75*
%ADD10R,0.03150X0.01772*%
%ADD11R,0.11457X0.00866*%
%ADD12R,0.08268X0.12598*%
%ADD13R,0.08268X0.03543*%
%ADD15C,0.04724*%
D10*
X203832Y216059D02*
D03*
Y213500D02*
D03*
Y210941D02*
D03*
X195368D02*
D03*
Y213500D02*
D03*
Y216059D02*
D03*
X198532Y174359D02*
D03*
Y171800D02*
D03*
Y169241D02*
D03*
X190068D02*
D03*
Y171800D02*
D03*
Y174359D02*
D03*
X193332Y126459D02*
D03*
Y123900D02*
D03*
Y121341D02*
D03*
X184868D02*
D03*
Y123900D02*
D03*
Y126459D02*
D03*
D11*
X120839Y195373D02*
D03*
Y193720D02*
D03*
Y192066D02*
D03*
Y190413D02*
D03*
Y188759D02*
D03*
Y187106D02*
D03*
Y185452D02*
D03*
Y183798D02*
D03*
Y182145D02*
D03*
Y180491D02*
D03*
Y178838D02*
D03*
Y177184D02*
D03*
Y175531D02*
D03*
Y173877D02*
D03*
Y172224D02*
D03*
Y170570D02*
D03*
Y168916D02*
D03*
Y167263D02*
D03*
Y165609D02*
D03*
Y163956D02*
D03*
Y162302D02*
D03*
Y160649D02*
D03*
Y158995D02*
D03*
Y157342D02*
D03*
Y155688D02*
D03*
Y154035D02*
D03*
Y152381D02*
D03*
Y150728D02*
D03*
Y149074D02*
D03*
Y147421D02*
D03*
Y145767D02*
D03*
Y144113D02*
D03*
Y142460D02*
D03*
Y140806D02*
D03*
Y139153D02*
D03*
X134028Y195373D02*
D03*
Y193720D02*
D03*
Y192066D02*
D03*
Y190413D02*
D03*
Y188759D02*
D03*
Y187106D02*
D03*
Y185452D02*
D03*
Y183798D02*
D03*
Y182145D02*
D03*
Y180491D02*
D03*
Y178838D02*
D03*
Y177184D02*
D03*
Y175531D02*
D03*
Y173877D02*
D03*
Y172224D02*
D03*
Y170570D02*
D03*
Y168916D02*
D03*
Y167263D02*
D03*
Y165609D02*
D03*
Y163956D02*
D03*
Y162302D02*
D03*
Y160649D02*
D03*
Y158995D02*
D03*
Y157342D02*
D03*
Y155688D02*
D03*
Y154035D02*
D03*
Y152381D02*
D03*
Y150728D02*
D03*
Y149074D02*
D03*
Y147421D02*
D03*
Y145767D02*
D03*
Y144113D02*
D03*
Y142460D02*
D03*
Y140806D02*
D03*
Y139153D02*
D03*
D12*
X217314Y282800D02*
D03*
D13*
X194086Y273745D02*
D03*
Y282800D02*
D03*
Y291855D02*
D03*
D15*
X0Y0D02*
Y308000D01*
X376000D01*
Y304500D02*
Y308000D01*
Y0D02*
Y304500D01*
X0Y0D02*
X376000D01*
M02*
