G04 Layer_Physical_Order=1*
G04 Layer_Color=255*
%FSLAX25Y25*%
%MOIN*%
G70*
G01*
G75*
%ADD10R,0.03150X0.01772*%
%ADD11R,0.11457X0.00866*%
%ADD12R,0.08268X0.12598*%
%ADD13R,0.08268X0.03543*%
%ADD14C,0.01000*%
%ADD15C,0.04724*%
%ADD16R,0.06693X0.06693*%
%ADD17C,0.06693*%
%ADD18R,0.04724X0.04724*%
%ADD19C,0.04724*%
%ADD20C,0.05512*%
%ADD21R,0.05906X0.05906*%
%ADD22C,0.05906*%
%ADD23R,0.05906X0.05906*%
%ADD24R,0.04724X0.04724*%
%ADD25C,0.05000*%
G36*
X376000Y0D02*
X0D01*
Y308000D01*
X376000D01*
Y0D01*
D02*
G37*
%LPC*%
G36*
X168700Y295935D02*
X167811Y295818D01*
X166982Y295475D01*
X166271Y294929D01*
X165725Y294218D01*
X165382Y293389D01*
X165265Y292500D01*
X165382Y291611D01*
X165725Y290782D01*
X166271Y290071D01*
X166982Y289525D01*
X167811Y289182D01*
X168700Y289065D01*
X169589Y289182D01*
X170418Y289525D01*
X171129Y290071D01*
X171598Y290683D01*
X189302D01*
Y289434D01*
X198870D01*
Y294277D01*
X189302D01*
Y293028D01*
X172066D01*
X172018Y293389D01*
X171675Y294218D01*
X171129Y294929D01*
X170418Y295475D01*
X169589Y295818D01*
X168700Y295935D01*
D02*
G37*
G36*
X198870Y285222D02*
X189302D01*
Y283973D01*
X183900D01*
X183451Y283883D01*
X183071Y283629D01*
X179871Y280429D01*
X179617Y280049D01*
X179527Y279600D01*
Y273886D01*
X170813Y265172D01*
X170418Y265475D01*
X169589Y265818D01*
X168700Y265935D01*
X167811Y265818D01*
X166982Y265475D01*
X166271Y264929D01*
X165725Y264218D01*
X165382Y263389D01*
X165265Y262500D01*
X165382Y261611D01*
X165725Y260782D01*
X166271Y260071D01*
X166982Y259525D01*
X167811Y259182D01*
X168700Y259065D01*
X169589Y259182D01*
X170418Y259525D01*
X171129Y260071D01*
X171675Y260782D01*
X172018Y261611D01*
X172135Y262500D01*
X172056Y263098D01*
X181529Y272571D01*
X181783Y272951D01*
X181872Y273400D01*
Y279114D01*
X184386Y281627D01*
X189302D01*
Y280378D01*
X198870D01*
Y285222D01*
D02*
G37*
G36*
X124412Y285612D02*
X118388D01*
Y279588D01*
X124412D01*
Y285612D01*
D02*
G37*
G36*
X14800Y286435D02*
X13911Y286318D01*
X13082Y285975D01*
X12371Y285429D01*
X11825Y284718D01*
X11482Y283889D01*
X11365Y283000D01*
X11482Y282111D01*
X11825Y281282D01*
X12371Y280571D01*
X13082Y280025D01*
X13911Y279682D01*
X14800Y279565D01*
X15689Y279682D01*
X16518Y280025D01*
X17229Y280571D01*
X17775Y281282D01*
X18118Y282111D01*
X18235Y283000D01*
X18118Y283889D01*
X17775Y284718D01*
X17229Y285429D01*
X16518Y285975D01*
X15689Y286318D01*
X14800Y286435D01*
D02*
G37*
G36*
X222098Y289749D02*
X212530D01*
Y275851D01*
X222098D01*
Y289749D01*
D02*
G37*
G36*
X60512Y285512D02*
X54488D01*
Y279488D01*
X58854D01*
X71671Y266671D01*
X72051Y266417D01*
X72500Y266328D01*
X130914D01*
X147771Y249471D01*
X148151Y249217D01*
X148600Y249128D01*
X187514D01*
X213827Y222814D01*
Y126586D01*
X187514Y100273D01*
X163700D01*
X163251Y100183D01*
X162871Y99929D01*
X152271Y89329D01*
X152017Y88949D01*
X151927Y88500D01*
Y64400D01*
X152017Y63951D01*
X152271Y63571D01*
X160571Y55271D01*
X160951Y55017D01*
X161400Y54927D01*
X169186D01*
X169453Y54283D01*
X170030Y53531D01*
X170783Y52953D01*
X171660Y52590D01*
X172600Y52466D01*
X173540Y52590D01*
X174417Y52953D01*
X175170Y53531D01*
X175747Y54283D01*
X176110Y55159D01*
X176234Y56100D01*
X176110Y57041D01*
X175747Y57917D01*
X175170Y58670D01*
X174417Y59247D01*
X173540Y59610D01*
X172600Y59734D01*
X171660Y59610D01*
X170783Y59247D01*
X170030Y58670D01*
X169453Y57917D01*
X169186Y57272D01*
X161886D01*
X154272Y64886D01*
Y88014D01*
X164186Y97927D01*
X188000D01*
X188449Y98017D01*
X188829Y98271D01*
X215829Y125271D01*
X216083Y125651D01*
X216173Y126100D01*
Y222128D01*
X277214D01*
X285488Y213854D01*
Y209488D01*
X291512D01*
Y215512D01*
X287146D01*
X278529Y224129D01*
X278149Y224383D01*
X277700Y224472D01*
X215486D01*
X190893Y249065D01*
X191084Y249528D01*
X212197D01*
Y247097D01*
X219403D01*
Y254303D01*
X212197D01*
Y251872D01*
X188400D01*
X188138Y251820D01*
X179272Y260686D01*
Y264714D01*
X187131Y272572D01*
X189302D01*
Y271323D01*
X198870D01*
Y276167D01*
X189302D01*
Y274917D01*
X186645D01*
X186196Y274828D01*
X185816Y274574D01*
X177271Y266029D01*
X177017Y265649D01*
X176927Y265200D01*
Y260200D01*
X177017Y259751D01*
X177271Y259371D01*
X184707Y251935D01*
X184516Y251472D01*
X149086D01*
X132229Y268329D01*
X131849Y268583D01*
X131400Y268672D01*
X72986D01*
X60512Y281146D01*
Y285512D01*
D02*
G37*
G36*
X121400Y255638D02*
X120614Y255535D01*
X119881Y255231D01*
X119252Y254748D01*
X118769Y254119D01*
X118584Y253673D01*
X60275D01*
X60131Y254019D01*
X59648Y254648D01*
X59019Y255131D01*
X58286Y255435D01*
X57500Y255538D01*
X56714Y255435D01*
X55981Y255131D01*
X55352Y254648D01*
X54869Y254019D01*
X54565Y253286D01*
X54462Y252500D01*
X54565Y251714D01*
X54869Y250981D01*
X55352Y250352D01*
X55981Y249869D01*
X56714Y249565D01*
X57500Y249462D01*
X58286Y249565D01*
X59019Y249869D01*
X59648Y250352D01*
X60131Y250981D01*
X60275Y251327D01*
X118667D01*
X118769Y251081D01*
X119252Y250452D01*
X119881Y249969D01*
X120614Y249665D01*
X121400Y249562D01*
X122186Y249665D01*
X122919Y249969D01*
X123548Y250452D01*
X124031Y251081D01*
X124335Y251814D01*
X124438Y252600D01*
X124335Y253386D01*
X124031Y254119D01*
X123548Y254748D01*
X122919Y255231D01*
X122186Y255535D01*
X121400Y255638D01*
D02*
G37*
G36*
X14800Y256435D02*
X13911Y256318D01*
X13082Y255975D01*
X12371Y255429D01*
X11825Y254718D01*
X11482Y253889D01*
X11365Y253000D01*
X11482Y252111D01*
X11825Y251282D01*
X12371Y250571D01*
X13082Y250025D01*
X13911Y249682D01*
X14800Y249565D01*
X15689Y249682D01*
X16518Y250025D01*
X17229Y250571D01*
X17775Y251282D01*
X18118Y252111D01*
X18235Y253000D01*
X18118Y253889D01*
X17775Y254718D01*
X17229Y255429D01*
X16518Y255975D01*
X15689Y256318D01*
X14800Y256435D01*
D02*
G37*
G36*
X240845Y255548D02*
X221550D01*
Y246250D01*
X240845D01*
Y255548D01*
D02*
G37*
G36*
X216300Y244621D02*
Y241200D01*
X219721D01*
X219651Y241732D01*
X219253Y242693D01*
X218619Y243519D01*
X217793Y244153D01*
X216832Y244551D01*
X216300Y244621D01*
D02*
G37*
G36*
X215300D02*
X214768Y244551D01*
X213807Y244153D01*
X212981Y243519D01*
X212347Y242693D01*
X211949Y241732D01*
X211879Y241200D01*
X215300D01*
Y244621D01*
D02*
G37*
G36*
X219721Y240200D02*
X216300D01*
Y236779D01*
X216832Y236849D01*
X217793Y237247D01*
X218619Y237881D01*
X219253Y238707D01*
X219651Y239668D01*
X219721Y240200D01*
D02*
G37*
G36*
X215300D02*
X211879D01*
X211949Y239668D01*
X212347Y238707D01*
X212981Y237881D01*
X213807Y237247D01*
X214768Y236849D01*
X215300Y236779D01*
Y240200D01*
D02*
G37*
G36*
X241845Y244748D02*
X222550D01*
Y235450D01*
X241845D01*
Y244748D01*
D02*
G37*
G36*
X81000Y233135D02*
X80111Y233018D01*
X79282Y232675D01*
X78571Y232129D01*
X78025Y231418D01*
X77682Y230589D01*
X77565Y229700D01*
X77682Y228811D01*
X78025Y227982D01*
X78571Y227271D01*
X79282Y226725D01*
X80111Y226382D01*
X81000Y226265D01*
X81889Y226382D01*
X82718Y226725D01*
X83429Y227271D01*
X83975Y227982D01*
X84318Y228811D01*
X84435Y229700D01*
X84318Y230589D01*
X83975Y231418D01*
X83429Y232129D01*
X82718Y232675D01*
X81889Y233018D01*
X81000Y233135D01*
D02*
G37*
G36*
X51000D02*
X50111Y233018D01*
X49282Y232675D01*
X48571Y232129D01*
X48025Y231418D01*
X47682Y230589D01*
X47565Y229700D01*
X47682Y228811D01*
X48025Y227982D01*
X48415Y227474D01*
X36571Y215629D01*
X36317Y215249D01*
X36228Y214800D01*
Y206100D01*
X36317Y205651D01*
X36571Y205271D01*
X47298Y194544D01*
X47678Y194290D01*
X48127Y194201D01*
X114460D01*
Y189932D01*
X33959D01*
X33510Y189842D01*
X33130Y189588D01*
X32414Y188873D01*
X19001D01*
X18775Y189418D01*
X18229Y190129D01*
X17518Y190675D01*
X16689Y191018D01*
X15800Y191135D01*
X14911Y191018D01*
X14082Y190675D01*
X13371Y190129D01*
X12825Y189418D01*
X12482Y188589D01*
X12365Y187700D01*
X12482Y186811D01*
X12825Y185982D01*
X13371Y185271D01*
X14082Y184725D01*
X14911Y184382D01*
X15800Y184265D01*
X16689Y184382D01*
X17518Y184725D01*
X18229Y185271D01*
X18775Y185982D01*
X19001Y186528D01*
X32900D01*
X33349Y186617D01*
X33729Y186871D01*
X34445Y187586D01*
X35475D01*
X35666Y187125D01*
X32014Y183473D01*
X12886D01*
X10092Y186266D01*
X10318Y186811D01*
X10435Y187700D01*
X10318Y188589D01*
X9975Y189418D01*
X9429Y190129D01*
X8718Y190675D01*
X7889Y191018D01*
X7000Y191135D01*
X6111Y191018D01*
X5282Y190675D01*
X4571Y190129D01*
X4025Y189418D01*
X3682Y188589D01*
X3565Y187700D01*
X3682Y186811D01*
X4025Y185982D01*
X4571Y185271D01*
X5282Y184725D01*
X6111Y184382D01*
X7000Y184265D01*
X7889Y184382D01*
X8434Y184608D01*
X11571Y181471D01*
X11951Y181217D01*
X12400Y181128D01*
X32500D01*
X32578Y181143D01*
X32824Y180682D01*
X30414Y178272D01*
X29724D01*
X29552Y178689D01*
X29047Y179347D01*
X28389Y179851D01*
X27622Y180169D01*
X26800Y180277D01*
X25978Y180169D01*
X25211Y179851D01*
X24553Y179347D01*
X24048Y178689D01*
X23731Y177922D01*
X23623Y177100D01*
X23731Y176278D01*
X24048Y175511D01*
X24553Y174853D01*
X25211Y174348D01*
X25978Y174031D01*
X26800Y173923D01*
X27622Y174031D01*
X28389Y174348D01*
X29047Y174853D01*
X29552Y175511D01*
X29724Y175927D01*
X30900D01*
X31349Y176017D01*
X31729Y176271D01*
X39738Y184279D01*
X114460D01*
Y181062D01*
Y176101D01*
Y171141D01*
Y166180D01*
Y161821D01*
X46037D01*
X39497Y168362D01*
X39669Y168778D01*
X39777Y169600D01*
X39669Y170422D01*
X39351Y171189D01*
X38847Y171847D01*
X38189Y172352D01*
X37422Y172669D01*
X36600Y172777D01*
X35778Y172669D01*
X35011Y172352D01*
X34353Y171847D01*
X33849Y171189D01*
X33531Y170422D01*
X33423Y169600D01*
X33531Y168778D01*
X33849Y168011D01*
X34353Y167353D01*
X35011Y166849D01*
X35778Y166531D01*
X36600Y166423D01*
X37422Y166531D01*
X37838Y166703D01*
X44722Y159820D01*
X45103Y159565D01*
X45551Y159476D01*
X114460D01*
Y154605D01*
Y150247D01*
X41312D01*
X28197Y163362D01*
X28369Y163778D01*
X28477Y164600D01*
X28369Y165422D01*
X28051Y166189D01*
X27547Y166847D01*
X26889Y167351D01*
X26122Y167669D01*
X25300Y167777D01*
X24478Y167669D01*
X23711Y167351D01*
X23053Y166847D01*
X22548Y166189D01*
X22231Y165422D01*
X22123Y164600D01*
X22231Y163778D01*
X22548Y163011D01*
X23053Y162353D01*
X23711Y161848D01*
X24478Y161531D01*
X25300Y161423D01*
X26122Y161531D01*
X26538Y161703D01*
X39187Y149055D01*
X38996Y148593D01*
X32165D01*
X16997Y163762D01*
X17169Y164178D01*
X17277Y165000D01*
X17169Y165822D01*
X16851Y166589D01*
X16347Y167247D01*
X15689Y167752D01*
X14922Y168069D01*
X14100Y168177D01*
X13278Y168069D01*
X12511Y167752D01*
X11853Y167247D01*
X11349Y166589D01*
X11031Y165822D01*
X10923Y165000D01*
X11031Y164178D01*
X11349Y163411D01*
X11853Y162753D01*
X12511Y162249D01*
X13278Y161931D01*
X14100Y161823D01*
X14922Y161931D01*
X15338Y162103D01*
X30040Y147401D01*
X29849Y146940D01*
X21637D01*
X21452Y147389D01*
X20947Y148047D01*
X20289Y148551D01*
X19522Y148869D01*
X18700Y148977D01*
X17878Y148869D01*
X17111Y148551D01*
X16453Y148047D01*
X15948Y147389D01*
X15631Y146622D01*
X15523Y145800D01*
X15631Y144978D01*
X15948Y144211D01*
X16453Y143553D01*
X17111Y143049D01*
X17878Y142731D01*
X18700Y142623D01*
X19522Y142731D01*
X20289Y143049D01*
X20947Y143553D01*
X21452Y144211D01*
X21610Y144594D01*
X31383D01*
X31574Y144132D01*
X4671Y117229D01*
X4417Y116849D01*
X4327Y116400D01*
Y9103D01*
X1897D01*
Y1897D01*
X9103D01*
Y9103D01*
X6673D01*
Y115914D01*
X33699Y142941D01*
X40529D01*
X40721Y142479D01*
X31538Y133297D01*
X31122Y133469D01*
X30300Y133577D01*
X29478Y133469D01*
X28711Y133151D01*
X28053Y132647D01*
X27549Y131989D01*
X27231Y131222D01*
X27123Y130400D01*
X27231Y129578D01*
X27549Y128811D01*
X28053Y128153D01*
X28711Y127648D01*
X29478Y127331D01*
X30300Y127223D01*
X31122Y127331D01*
X31889Y127648D01*
X32547Y128153D01*
X33051Y128811D01*
X33369Y129578D01*
X33477Y130400D01*
X33369Y131222D01*
X33197Y131638D01*
X42845Y141287D01*
X52076D01*
X52267Y140825D01*
X8171Y96729D01*
X7917Y96349D01*
X7828Y95900D01*
Y12000D01*
X7917Y11551D01*
X8171Y11171D01*
X12257Y7085D01*
X11990Y6441D01*
X11866Y5500D01*
X11990Y4560D01*
X12353Y3683D01*
X12931Y2930D01*
X13683Y2353D01*
X14559Y1990D01*
X15500Y1866D01*
X16441Y1990D01*
X17317Y2353D01*
X18069Y2930D01*
X18647Y3683D01*
X19010Y4560D01*
X19134Y5500D01*
X19010Y6441D01*
X18647Y7317D01*
X18069Y8070D01*
X17317Y8647D01*
X16441Y9010D01*
X15500Y9134D01*
X14559Y9010D01*
X13915Y8743D01*
X10172Y12486D01*
Y95414D01*
X54392Y139634D01*
X81713D01*
X82127Y139153D01*
Y23786D01*
X67085Y8743D01*
X66440Y9010D01*
X65500Y9134D01*
X64560Y9010D01*
X63683Y8647D01*
X62931Y8070D01*
X62353Y7317D01*
X61990Y6441D01*
X61866Y5500D01*
X61990Y4560D01*
X62353Y3683D01*
X62931Y2930D01*
X63683Y2353D01*
X64560Y1990D01*
X65500Y1866D01*
X66440Y1990D01*
X67317Y2353D01*
X68069Y2930D01*
X68647Y3683D01*
X69010Y4560D01*
X69134Y5500D01*
X69010Y6441D01*
X68743Y7085D01*
X84129Y22471D01*
X84383Y22851D01*
X84473Y23300D01*
Y137980D01*
X120839D01*
X121287Y138069D01*
X121288Y138070D01*
X127149D01*
X127217Y138070D01*
X127649D01*
X127717Y138070D01*
X140406D01*
Y142870D01*
X149858D01*
X150048Y142411D01*
X150553Y141753D01*
X151211Y141249D01*
X151978Y140931D01*
X152800Y140823D01*
X153622Y140931D01*
X154389Y141249D01*
X155047Y141753D01*
X155552Y142411D01*
X155869Y143178D01*
X155977Y144000D01*
X155869Y144822D01*
X155552Y145589D01*
X155047Y146247D01*
X154389Y146751D01*
X153622Y147069D01*
X152800Y147177D01*
X151978Y147069D01*
X151211Y146751D01*
X150553Y146247D01*
X150048Y145589D01*
X149894Y145215D01*
X145127D01*
X144936Y145677D01*
X146662Y147403D01*
X147078Y147231D01*
X147900Y147123D01*
X148722Y147231D01*
X149489Y147548D01*
X150147Y148053D01*
X150652Y148711D01*
X150969Y149478D01*
X151077Y150300D01*
X150969Y151122D01*
X150652Y151889D01*
X150147Y152547D01*
X149489Y153051D01*
X148722Y153369D01*
X147900Y153477D01*
X147078Y153369D01*
X146311Y153051D01*
X145653Y152547D01*
X145149Y151889D01*
X144831Y151122D01*
X144723Y150300D01*
X144831Y149478D01*
X145003Y149062D01*
X142881Y146940D01*
X140406D01*
Y151298D01*
Y156169D01*
X148373D01*
X157228Y147314D01*
Y138100D01*
X157317Y137651D01*
X157571Y137271D01*
X161971Y132871D01*
X162351Y132617D01*
X162800Y132527D01*
X166776D01*
X166948Y132111D01*
X167453Y131453D01*
X168111Y130948D01*
X168878Y130631D01*
X169700Y130523D01*
X170522Y130631D01*
X171289Y130948D01*
X171947Y131453D01*
X172451Y132111D01*
X172769Y132878D01*
X172877Y133700D01*
X172769Y134522D01*
X172451Y135289D01*
X171947Y135947D01*
X171289Y136451D01*
X170872Y136624D01*
Y146200D01*
X170783Y146649D01*
X170529Y147029D01*
X156972Y160586D01*
X157157Y161057D01*
X157544Y161098D01*
X173728Y144914D01*
Y143924D01*
X173311Y143752D01*
X172653Y143247D01*
X172149Y142589D01*
X171831Y141822D01*
X171723Y141000D01*
X171831Y140178D01*
X172149Y139411D01*
X172653Y138753D01*
X173311Y138249D01*
X174078Y137931D01*
X174900Y137823D01*
X175722Y137931D01*
X176489Y138249D01*
X177147Y138753D01*
X177652Y139411D01*
X177969Y140178D01*
X178077Y141000D01*
X177969Y141822D01*
X177652Y142589D01*
X177147Y143247D01*
X176489Y143752D01*
X176073Y143924D01*
Y145400D01*
X175983Y145849D01*
X175729Y146229D01*
X158827Y163131D01*
X158446Y163386D01*
X157998Y163475D01*
X140406D01*
Y166091D01*
X146363D01*
X146812Y166180D01*
X147192Y166434D01*
X150329Y169571D01*
X150583Y169951D01*
X150672Y170400D01*
Y198676D01*
X151089Y198848D01*
X151747Y199353D01*
X152252Y200011D01*
X152569Y200778D01*
X152677Y201600D01*
X152569Y202422D01*
X152252Y203189D01*
X151747Y203847D01*
X151089Y204351D01*
X150322Y204669D01*
X149500Y204777D01*
X148678Y204669D01*
X147911Y204351D01*
X147253Y203847D01*
X146748Y203189D01*
X146431Y202422D01*
X146323Y201600D01*
X146431Y200778D01*
X146748Y200011D01*
X147253Y199353D01*
X147911Y198848D01*
X148328Y198676D01*
Y170886D01*
X145877Y168436D01*
X140406D01*
Y172794D01*
Y177755D01*
Y182365D01*
X140756D01*
Y183298D01*
X134028D01*
Y184298D01*
X140756D01*
Y184952D01*
X134028D01*
Y185952D01*
X140756D01*
Y186606D01*
X134028D01*
Y187606D01*
X140756D01*
Y188259D01*
X134028D01*
Y189259D01*
X140756D01*
Y190192D01*
X140756D01*
Y190633D01*
X140756D01*
Y191566D01*
X134028D01*
Y192566D01*
X140756D01*
Y193499D01*
X140756D01*
Y193940D01*
X140756D01*
Y194873D01*
X134028D01*
Y195373D01*
X133528D01*
Y196806D01*
X127572D01*
X127299Y196806D01*
X126944Y196456D01*
X126799Y196456D01*
X121288D01*
X121287Y196457D01*
X120839Y196546D01*
X48612D01*
X38572Y206586D01*
Y214314D01*
X50578Y226320D01*
X51000Y226265D01*
X51889Y226382D01*
X52718Y226725D01*
X53429Y227271D01*
X53975Y227982D01*
X54318Y228811D01*
X54435Y229700D01*
X54318Y230589D01*
X53975Y231418D01*
X53429Y232129D01*
X52718Y232675D01*
X51889Y233018D01*
X51000Y233135D01*
D02*
G37*
G36*
X187100Y246373D02*
X35400D01*
X34951Y246283D01*
X34571Y246029D01*
X14971Y226429D01*
X14717Y226049D01*
X14627Y225600D01*
Y220901D01*
X14082Y220675D01*
X13371Y220129D01*
X12825Y219418D01*
X12482Y218589D01*
X12365Y217700D01*
X12482Y216811D01*
X12825Y215982D01*
X13371Y215271D01*
X14082Y214725D01*
X14911Y214382D01*
X15800Y214265D01*
X16689Y214382D01*
X17518Y214725D01*
X18229Y215271D01*
X18775Y215982D01*
X19118Y216811D01*
X19235Y217700D01*
X19118Y218589D01*
X18775Y219418D01*
X18229Y220129D01*
X17518Y220675D01*
X16973Y220901D01*
Y225114D01*
X35886Y244027D01*
X186614D01*
X210227Y220414D01*
Y217232D01*
X206057D01*
Y217595D01*
X201607D01*
Y215386D01*
X201257D01*
Y214000D01*
X203832D01*
X206407D01*
Y214886D01*
X210227D01*
Y175532D01*
X200757D01*
Y175895D01*
X196308D01*
Y173686D01*
X195958D01*
Y172300D01*
X198532D01*
X201107D01*
Y173187D01*
X210227D01*
Y139586D01*
X198273Y127632D01*
X195557D01*
Y127995D01*
X191107D01*
Y125786D01*
X190758D01*
Y124400D01*
X193332D01*
X195907D01*
Y125286D01*
X198759D01*
X199208Y125376D01*
X199588Y125630D01*
X212229Y138271D01*
X212483Y138651D01*
X212573Y139100D01*
Y220900D01*
X212483Y221349D01*
X212229Y221729D01*
X187929Y246029D01*
X187549Y246283D01*
X187100Y246373D01*
D02*
G37*
G36*
X7000Y221135D02*
X6111Y221018D01*
X5282Y220675D01*
X4571Y220129D01*
X4025Y219418D01*
X3682Y218589D01*
X3565Y217700D01*
X3682Y216811D01*
X4025Y215982D01*
X4571Y215271D01*
X5282Y214725D01*
X6111Y214382D01*
X7000Y214265D01*
X7889Y214382D01*
X8718Y214725D01*
X9429Y215271D01*
X9975Y215982D01*
X10318Y216811D01*
X10435Y217700D01*
X10318Y218589D01*
X9975Y219418D01*
X9429Y220129D01*
X8718Y220675D01*
X7889Y221018D01*
X7000Y221135D01*
D02*
G37*
G36*
X162000Y241173D02*
X39900D01*
X39451Y241083D01*
X39071Y240829D01*
X27138Y228897D01*
X26722Y229069D01*
X25900Y229177D01*
X25078Y229069D01*
X24311Y228751D01*
X23653Y228247D01*
X23148Y227589D01*
X22831Y226822D01*
X22723Y226000D01*
X22831Y225178D01*
X23148Y224411D01*
X23653Y223753D01*
X24311Y223249D01*
X25078Y222931D01*
X25900Y222823D01*
X26722Y222931D01*
X27489Y223249D01*
X28147Y223753D01*
X28651Y224411D01*
X28969Y225178D01*
X29077Y226000D01*
X28969Y226822D01*
X28797Y227238D01*
X40386Y238827D01*
X158516D01*
X158707Y238366D01*
X150371Y230029D01*
X150117Y229649D01*
X150028Y229200D01*
Y214201D01*
X149482Y213975D01*
X148771Y213429D01*
X148225Y212718D01*
X147882Y211889D01*
X147765Y211000D01*
X147882Y210111D01*
X148225Y209282D01*
X148771Y208571D01*
X149482Y208025D01*
X150311Y207682D01*
X151200Y207565D01*
X151798Y207644D01*
X178828Y180614D01*
Y174845D01*
X170671Y166688D01*
X170417Y166308D01*
X170327Y165859D01*
Y158100D01*
X170417Y157651D01*
X170671Y157271D01*
X178828Y149114D01*
Y127499D01*
X178512Y127288D01*
X142371Y91147D01*
X142117Y90767D01*
X142027Y90318D01*
Y31886D01*
X136834Y26692D01*
X136289Y26918D01*
X135400Y27035D01*
X134511Y26918D01*
X133682Y26575D01*
X132971Y26029D01*
X132425Y25318D01*
X132082Y24489D01*
X131965Y23600D01*
X132082Y22711D01*
X132425Y21882D01*
X132971Y21171D01*
X133682Y20625D01*
X134511Y20282D01*
X135400Y20165D01*
X136289Y20282D01*
X137118Y20625D01*
X137829Y21171D01*
X138375Y21882D01*
X138718Y22711D01*
X138835Y23600D01*
X138718Y24489D01*
X138492Y25034D01*
X144029Y30571D01*
X144283Y30951D01*
X144372Y31400D01*
Y89832D01*
X179827Y125286D01*
X182293D01*
Y124400D01*
X184868D01*
X187443D01*
Y125786D01*
X187092D01*
Y127995D01*
X182643D01*
Y127632D01*
X181173D01*
Y149600D01*
X181083Y150049D01*
X180829Y150429D01*
X172672Y158586D01*
Y165373D01*
X180486Y173187D01*
X187493D01*
Y172300D01*
X190068D01*
X192642D01*
Y173686D01*
X192292D01*
Y175895D01*
X187843D01*
Y175532D01*
X181173D01*
Y181100D01*
X181083Y181549D01*
X180829Y181929D01*
X153872Y208887D01*
X154175Y209282D01*
X154518Y210111D01*
X154635Y211000D01*
X154518Y211889D01*
X154175Y212718D01*
X153629Y213429D01*
X152918Y213975D01*
X152373Y214201D01*
Y228714D01*
X162000Y238342D01*
X185112Y215230D01*
X185492Y214976D01*
X185941Y214886D01*
X192793D01*
Y214000D01*
X195368D01*
X197942D01*
Y215386D01*
X197592D01*
Y217595D01*
X193143D01*
Y217232D01*
X186427D01*
X162829Y240829D01*
X162829Y240829D01*
X162449Y241083D01*
X162000Y241173D01*
D02*
G37*
G36*
X259000Y215825D02*
Y213000D01*
X261825D01*
X261776Y213378D01*
X261437Y214196D01*
X260898Y214898D01*
X260196Y215437D01*
X259378Y215776D01*
X259000Y215825D01*
D02*
G37*
G36*
X258000D02*
X257622Y215776D01*
X256804Y215437D01*
X256102Y214898D01*
X255563Y214196D01*
X255224Y213378D01*
X255175Y213000D01*
X258000D01*
Y215825D01*
D02*
G37*
G36*
X181200Y214435D02*
X180311Y214318D01*
X179482Y213975D01*
X178771Y213429D01*
X178225Y212718D01*
X177882Y211889D01*
X177765Y211000D01*
X177882Y210111D01*
X178225Y209282D01*
X178771Y208571D01*
X179482Y208025D01*
X180311Y207682D01*
X181200Y207565D01*
X182089Y207682D01*
X182918Y208025D01*
X183629Y208571D01*
X184175Y209282D01*
X184401Y209827D01*
X193143D01*
Y209405D01*
X197592D01*
Y211614D01*
X197942D01*
Y213000D01*
X195368D01*
X192793D01*
Y212173D01*
X184401D01*
X184175Y212718D01*
X183629Y213429D01*
X182918Y213975D01*
X182089Y214318D01*
X181200Y214435D01*
D02*
G37*
G36*
X261825Y212000D02*
X259000D01*
Y209175D01*
X259378Y209224D01*
X260196Y209563D01*
X260898Y210102D01*
X261437Y210804D01*
X261776Y211622D01*
X261825Y212000D01*
D02*
G37*
G36*
X258000D02*
X255175D01*
X255224Y211622D01*
X255563Y210804D01*
X256102Y210102D01*
X256804Y209563D01*
X257622Y209224D01*
X258000Y209175D01*
Y212000D01*
D02*
G37*
G36*
X328100Y216234D02*
X327160Y216110D01*
X326283Y215747D01*
X325531Y215170D01*
X324953Y214417D01*
X324590Y213541D01*
X324466Y212600D01*
X324590Y211660D01*
X324953Y210783D01*
X325531Y210031D01*
X326283Y209453D01*
X327160Y209090D01*
X328100Y208966D01*
X329041Y209090D01*
X329917Y209453D01*
X330669Y210031D01*
X331247Y210783D01*
X331610Y211660D01*
X331734Y212600D01*
X331610Y213541D01*
X331247Y214417D01*
X330669Y215170D01*
X329917Y215747D01*
X329041Y216110D01*
X328100Y216234D01*
D02*
G37*
G36*
X140400Y217473D02*
X107600D01*
X107151Y217383D01*
X106771Y217129D01*
X106517Y216749D01*
X106428Y216300D01*
X106517Y215851D01*
X106771Y215471D01*
X107151Y215217D01*
X107600Y215127D01*
X139227D01*
Y208400D01*
X139317Y207951D01*
X139571Y207571D01*
X139951Y207317D01*
X140400Y207227D01*
X140849Y207317D01*
X141229Y207571D01*
X141483Y207951D01*
X141572Y208400D01*
Y216300D01*
X141483Y216749D01*
X141229Y217129D01*
X140849Y217383D01*
X140400Y217473D01*
D02*
G37*
G36*
X328100Y206234D02*
X327160Y206110D01*
X326283Y205747D01*
X325531Y205170D01*
X324953Y204417D01*
X324590Y203540D01*
X324466Y202600D01*
X324590Y201659D01*
X324953Y200783D01*
X325531Y200030D01*
X326283Y199453D01*
X327160Y199090D01*
X328100Y198966D01*
X329041Y199090D01*
X329917Y199453D01*
X330669Y200030D01*
X331247Y200783D01*
X331610Y201659D01*
X331734Y202600D01*
X331610Y203540D01*
X331247Y204417D01*
X330669Y205170D01*
X329917Y205747D01*
X329041Y206110D01*
X328100Y206234D01*
D02*
G37*
G36*
X134528Y196806D02*
Y195873D01*
X140756D01*
Y196806D01*
X134528D01*
D02*
G37*
G36*
X206407Y213000D02*
X203832D01*
X201257D01*
Y211614D01*
X201607D01*
Y209405D01*
X206057D01*
Y209768D01*
X207227D01*
Y198286D01*
X204238Y195297D01*
X203822Y195469D01*
X203000Y195577D01*
X202178Y195469D01*
X201411Y195151D01*
X200753Y194647D01*
X200249Y193989D01*
X199931Y193222D01*
X199823Y192400D01*
X199931Y191578D01*
X200249Y190811D01*
X200753Y190153D01*
X201411Y189648D01*
X202178Y189331D01*
X203000Y189223D01*
X203822Y189331D01*
X204589Y189648D01*
X205247Y190153D01*
X205751Y190811D01*
X206069Y191578D01*
X206177Y192400D01*
X206069Y193222D01*
X205897Y193638D01*
X209229Y196971D01*
X209483Y197351D01*
X209573Y197800D01*
Y210300D01*
X209483Y210749D01*
X209229Y211129D01*
X208588Y211770D01*
X208208Y212024D01*
X207759Y212113D01*
X206407D01*
Y213000D01*
D02*
G37*
G36*
X328100Y196234D02*
X327160Y196110D01*
X326283Y195747D01*
X325531Y195169D01*
X324953Y194417D01*
X324590Y193541D01*
X324466Y192600D01*
X324590Y191659D01*
X324953Y190783D01*
X325531Y190031D01*
X326283Y189453D01*
X327160Y189090D01*
X328100Y188966D01*
X329041Y189090D01*
X329917Y189453D01*
X330669Y190031D01*
X331247Y190783D01*
X331610Y191659D01*
X331734Y192600D01*
X331610Y193541D01*
X331247Y194417D01*
X330669Y195169D01*
X329917Y195747D01*
X329041Y196110D01*
X328100Y196234D01*
D02*
G37*
G36*
X229200Y195835D02*
X228311Y195718D01*
X227482Y195375D01*
X226771Y194829D01*
X226225Y194118D01*
X225882Y193289D01*
X225765Y192400D01*
X225882Y191511D01*
X226225Y190682D01*
X226771Y189971D01*
X227482Y189425D01*
X228311Y189082D01*
X229200Y188965D01*
X230089Y189082D01*
X230918Y189425D01*
X231629Y189971D01*
X232175Y190682D01*
X232518Y191511D01*
X232635Y192400D01*
X232518Y193289D01*
X232175Y194118D01*
X231629Y194829D01*
X230918Y195375D01*
X230089Y195718D01*
X229200Y195835D01*
D02*
G37*
G36*
X353645Y217648D02*
X334350D01*
Y208448D01*
X334350Y208350D01*
Y207948D01*
X334350Y207850D01*
Y198748D01*
X334350Y198650D01*
Y198248D01*
X334350Y198150D01*
Y188950D01*
X359643D01*
Y198150D01*
X359643Y198248D01*
X359880Y198650D01*
X371639D01*
Y207948D01*
X353882D01*
X353645Y208350D01*
X353645Y208448D01*
Y217648D01*
D02*
G37*
G36*
X328100Y186234D02*
X327160Y186110D01*
X326283Y185747D01*
X325531Y185169D01*
X324953Y184417D01*
X324590Y183540D01*
X324466Y182600D01*
X324590Y181659D01*
X324953Y180783D01*
X325531Y180031D01*
X326283Y179453D01*
X327160Y179090D01*
X328100Y178966D01*
X329041Y179090D01*
X329917Y179453D01*
X330669Y180031D01*
X331247Y180783D01*
X331610Y181659D01*
X331734Y182600D01*
X331610Y183540D01*
X331247Y184417D01*
X330669Y185169D01*
X329917Y185747D01*
X329041Y186110D01*
X328100Y186234D01*
D02*
G37*
G36*
X353645Y187548D02*
X334350D01*
Y178250D01*
X353645D01*
Y187548D01*
D02*
G37*
G36*
X328100Y176234D02*
X327160Y176110D01*
X326283Y175747D01*
X325531Y175170D01*
X324953Y174417D01*
X324590Y173540D01*
X324466Y172600D01*
X324590Y171660D01*
X324953Y170783D01*
X325531Y170030D01*
X326283Y169453D01*
X327160Y169090D01*
X328100Y168966D01*
X329041Y169090D01*
X329917Y169453D01*
X330669Y170030D01*
X331247Y170783D01*
X331610Y171660D01*
X331734Y172600D01*
X331610Y173540D01*
X331247Y174417D01*
X330669Y175170D01*
X329917Y175747D01*
X329041Y176110D01*
X328100Y176234D01*
D02*
G37*
G36*
X353645Y177348D02*
X334350D01*
Y168050D01*
X353645D01*
Y177348D01*
D02*
G37*
G36*
X192642Y171300D02*
X190068D01*
X187493D01*
Y170413D01*
X185641D01*
X185192Y170324D01*
X184812Y170070D01*
X183871Y169129D01*
X183617Y168749D01*
X183528Y168300D01*
Y165424D01*
X183111Y165252D01*
X182453Y164747D01*
X181948Y164089D01*
X181631Y163322D01*
X181523Y162500D01*
X181631Y161678D01*
X181948Y160911D01*
X182453Y160253D01*
X183111Y159748D01*
X183878Y159431D01*
X184700Y159323D01*
X185522Y159431D01*
X186289Y159748D01*
X186947Y160253D01*
X187452Y160911D01*
X187769Y161678D01*
X187877Y162500D01*
X187769Y163322D01*
X187452Y164089D01*
X186947Y164747D01*
X186289Y165252D01*
X185872Y165424D01*
Y167814D01*
X186127Y168068D01*
X187843D01*
Y167705D01*
X192292D01*
Y169914D01*
X192642D01*
Y171300D01*
D02*
G37*
G36*
X332053Y166553D02*
X328600D01*
Y163100D01*
X332053D01*
Y166553D01*
D02*
G37*
G36*
X327600D02*
X324147D01*
Y163100D01*
X327600D01*
Y166553D01*
D02*
G37*
G36*
X229200Y165835D02*
X228311Y165718D01*
X227482Y165375D01*
X226771Y164829D01*
X226225Y164118D01*
X225882Y163289D01*
X225765Y162400D01*
X225882Y161511D01*
X226225Y160682D01*
X226771Y159971D01*
X227482Y159425D01*
X228311Y159082D01*
X229200Y158965D01*
X230089Y159082D01*
X230918Y159425D01*
X231629Y159971D01*
X232175Y160682D01*
X232518Y161511D01*
X232635Y162400D01*
X232518Y163289D01*
X232175Y164118D01*
X231629Y164829D01*
X230918Y165375D01*
X230089Y165718D01*
X229200Y165835D01*
D02*
G37*
G36*
X332053Y162100D02*
X328600D01*
Y158647D01*
X332053D01*
Y162100D01*
D02*
G37*
G36*
X327600D02*
X324147D01*
Y158647D01*
X327600D01*
Y162100D01*
D02*
G37*
G36*
X353645Y167048D02*
X334350D01*
Y157750D01*
X353645D01*
Y167048D01*
D02*
G37*
G36*
X201107Y171300D02*
X198532D01*
X195958D01*
Y169914D01*
X196308D01*
Y167705D01*
X200757D01*
Y168068D01*
X202887D01*
Y158345D01*
X202138Y157597D01*
X201722Y157769D01*
X200900Y157877D01*
X200078Y157769D01*
X199311Y157451D01*
X198653Y156947D01*
X198149Y156289D01*
X197831Y155522D01*
X197723Y154700D01*
X197831Y153878D01*
X198149Y153111D01*
X198653Y152453D01*
X199311Y151948D01*
X200078Y151631D01*
X200900Y151523D01*
X201722Y151631D01*
X202489Y151948D01*
X203147Y152453D01*
X203651Y153111D01*
X203969Y153878D01*
X204077Y154700D01*
X203969Y155522D01*
X203797Y155938D01*
X204888Y157030D01*
X205142Y157410D01*
X205232Y157859D01*
Y169241D01*
X205142Y169690D01*
X204888Y170070D01*
X204508Y170324D01*
X204059Y170413D01*
X201107D01*
Y171300D01*
D02*
G37*
G36*
X195907Y123400D02*
X193332D01*
X190758D01*
Y122014D01*
X191107D01*
Y119805D01*
X195557D01*
Y120168D01*
X199073D01*
X199642Y119600D01*
X184314Y104272D01*
X175863D01*
X175764Y104772D01*
X176189Y104948D01*
X176847Y105453D01*
X177351Y106111D01*
X177669Y106878D01*
X177777Y107700D01*
X177669Y108522D01*
X177351Y109289D01*
X176847Y109947D01*
X176189Y110451D01*
X175773Y110624D01*
Y116414D01*
X179527Y120168D01*
X182643D01*
Y119805D01*
X187092D01*
Y122014D01*
X187443D01*
Y123400D01*
X184868D01*
X182293D01*
Y122513D01*
X179041D01*
X178592Y122424D01*
X178212Y122170D01*
X173771Y117729D01*
X173517Y117349D01*
X173427Y116900D01*
Y110624D01*
X173011Y110451D01*
X172353Y109947D01*
X171848Y109289D01*
X171531Y108522D01*
X171423Y107700D01*
X171531Y106878D01*
X171848Y106111D01*
X172353Y105453D01*
X173011Y104948D01*
X173436Y104772D01*
X173337Y104272D01*
X161400D01*
X160951Y104183D01*
X160571Y103929D01*
X146071Y89429D01*
X145817Y89049D01*
X145728Y88600D01*
Y44800D01*
X145817Y44351D01*
X146071Y43971D01*
X154771Y35271D01*
X155151Y35017D01*
X155600Y34927D01*
X169186D01*
X169453Y34283D01*
X170030Y33531D01*
X170783Y32953D01*
X171660Y32590D01*
X172600Y32466D01*
X173540Y32590D01*
X174417Y32953D01*
X175170Y33531D01*
X175747Y34283D01*
X176110Y35160D01*
X176234Y36100D01*
X176110Y37040D01*
X175747Y37917D01*
X175170Y38669D01*
X174417Y39247D01*
X173540Y39610D01*
X172600Y39734D01*
X171660Y39610D01*
X170783Y39247D01*
X170030Y38669D01*
X169453Y37917D01*
X169186Y37273D01*
X156086D01*
X148073Y45286D01*
Y88114D01*
X161886Y101927D01*
X184800D01*
X185249Y102017D01*
X185629Y102271D01*
X202129Y118771D01*
X202129Y118771D01*
X202383Y119151D01*
X202472Y119600D01*
X202383Y120049D01*
X202129Y120429D01*
X200388Y122170D01*
X200008Y122424D01*
X199559Y122513D01*
X195907D01*
Y123400D01*
D02*
G37*
G36*
X120543Y114548D02*
X96250D01*
Y103251D01*
X120543D01*
Y114548D01*
D02*
G37*
G36*
X278500Y123872D02*
X245700D01*
X245251Y123783D01*
X244871Y123529D01*
X244617Y123149D01*
X244528Y122700D01*
Y89900D01*
X244617Y89451D01*
X244871Y89071D01*
X245251Y88817D01*
X245700Y88727D01*
X246149Y88817D01*
X246529Y89071D01*
X246783Y89451D01*
X246872Y89900D01*
Y121528D01*
X278500D01*
X278949Y121617D01*
X279329Y121871D01*
X279583Y122251D01*
X279673Y122700D01*
X279583Y123149D01*
X279329Y123529D01*
X278949Y123783D01*
X278500Y123872D01*
D02*
G37*
G36*
X41900Y85273D02*
X41451Y85183D01*
X41071Y84929D01*
X40817Y84549D01*
X40727Y84100D01*
Y76200D01*
X40817Y75751D01*
X41071Y75371D01*
X41451Y75117D01*
X41900Y75028D01*
X74700D01*
X75149Y75117D01*
X75529Y75371D01*
X75783Y75751D01*
X75872Y76200D01*
X75783Y76649D01*
X75529Y77029D01*
X75149Y77283D01*
X74700Y77372D01*
X43073D01*
Y84100D01*
X42983Y84549D01*
X42729Y84929D01*
X42349Y85183D01*
X41900Y85273D01*
D02*
G37*
G36*
X59500Y68877D02*
X58678Y68769D01*
X57911Y68451D01*
X57253Y67947D01*
X56748Y67289D01*
X56576Y66873D01*
X17024D01*
X16851Y67289D01*
X16347Y67947D01*
X15689Y68451D01*
X14922Y68769D01*
X14100Y68877D01*
X13278Y68769D01*
X12511Y68451D01*
X11853Y67947D01*
X11349Y67289D01*
X11031Y66522D01*
X10923Y65700D01*
X11031Y64878D01*
X11349Y64111D01*
X11853Y63453D01*
X12511Y62949D01*
X13278Y62631D01*
X14100Y62523D01*
X14922Y62631D01*
X15689Y62949D01*
X16347Y63453D01*
X16851Y64111D01*
X17024Y64527D01*
X56576D01*
X56748Y64111D01*
X57253Y63453D01*
X57911Y62949D01*
X58678Y62631D01*
X59500Y62523D01*
X60322Y62631D01*
X61089Y62949D01*
X61747Y63453D01*
X62252Y64111D01*
X62569Y64878D01*
X62677Y65700D01*
X62569Y66522D01*
X62252Y67289D01*
X61747Y67947D01*
X61089Y68451D01*
X60322Y68769D01*
X59500Y68877D01*
D02*
G37*
G36*
X173100Y70021D02*
Y66600D01*
X176521D01*
X176451Y67132D01*
X176053Y68093D01*
X175419Y68919D01*
X174593Y69553D01*
X173632Y69951D01*
X173100Y70021D01*
D02*
G37*
G36*
X172100D02*
X171568Y69951D01*
X170607Y69553D01*
X169781Y68919D01*
X169147Y68093D01*
X168749Y67132D01*
X168679Y66600D01*
X172100D01*
Y70021D01*
D02*
G37*
G36*
X308745Y74148D02*
X289450D01*
Y64850D01*
X308745D01*
Y74148D01*
D02*
G37*
G36*
X176521Y65600D02*
X173100D01*
Y62179D01*
X173632Y62249D01*
X174593Y62647D01*
X175419Y63281D01*
X176053Y64107D01*
X176451Y65068D01*
X176521Y65600D01*
D02*
G37*
G36*
X172100D02*
X168679D01*
X168749Y65068D01*
X169147Y64107D01*
X169781Y63281D01*
X170607Y62647D01*
X171568Y62249D01*
X172100Y62179D01*
Y65600D01*
D02*
G37*
G36*
X224300Y65435D02*
X223411Y65318D01*
X222582Y64975D01*
X221871Y64429D01*
X221325Y63718D01*
X220982Y62889D01*
X220865Y62000D01*
X220982Y61111D01*
X221325Y60282D01*
X221871Y59571D01*
X222582Y59025D01*
X223411Y58682D01*
X224300Y58565D01*
X225189Y58682D01*
X226018Y59025D01*
X226729Y59571D01*
X227275Y60282D01*
X227618Y61111D01*
X227735Y62000D01*
X227618Y62889D01*
X227275Y63718D01*
X226729Y64429D01*
X226018Y64975D01*
X225189Y65318D01*
X224300Y65435D01*
D02*
G37*
G36*
X36200Y53925D02*
Y51100D01*
X39025D01*
X38976Y51478D01*
X38637Y52296D01*
X38098Y52998D01*
X37396Y53537D01*
X36578Y53876D01*
X36200Y53925D01*
D02*
G37*
G36*
X35200D02*
X34822Y53876D01*
X34004Y53537D01*
X33302Y52998D01*
X32763Y52296D01*
X32424Y51478D01*
X32375Y51100D01*
X35200D01*
Y53925D01*
D02*
G37*
G36*
X39025Y50100D02*
X36200D01*
Y47275D01*
X36578Y47324D01*
X37396Y47663D01*
X38098Y48202D01*
X38637Y48904D01*
X38976Y49722D01*
X39025Y50100D01*
D02*
G37*
G36*
X35200D02*
X32375D01*
X32424Y49722D01*
X32763Y48904D01*
X33302Y48202D01*
X34004Y47663D01*
X34822Y47324D01*
X35200Y47275D01*
Y50100D01*
D02*
G37*
G36*
X172600Y49734D02*
X171660Y49610D01*
X170783Y49247D01*
X170030Y48669D01*
X169453Y47917D01*
X169090Y47041D01*
X168966Y46100D01*
X169090Y45160D01*
X169453Y44283D01*
X170030Y43530D01*
X170783Y42953D01*
X171660Y42590D01*
X172600Y42466D01*
X173540Y42590D01*
X174417Y42953D01*
X175170Y43530D01*
X175747Y44283D01*
X176110Y45160D01*
X176234Y46100D01*
X176110Y47041D01*
X175747Y47917D01*
X175170Y48669D01*
X174417Y49247D01*
X173540Y49610D01*
X172600Y49734D01*
D02*
G37*
G36*
X72600Y37077D02*
X71778Y36969D01*
X71011Y36652D01*
X70353Y36147D01*
X69849Y35489D01*
X69676Y35072D01*
X49000D01*
X48551Y34983D01*
X48171Y34729D01*
X36833Y23391D01*
X36486Y23535D01*
X35700Y23638D01*
X34914Y23535D01*
X34181Y23231D01*
X33552Y22748D01*
X33069Y22119D01*
X32765Y21386D01*
X32662Y20600D01*
X32765Y19814D01*
X33069Y19081D01*
X33552Y18452D01*
X34181Y17969D01*
X34914Y17665D01*
X35700Y17562D01*
X36486Y17665D01*
X37219Y17969D01*
X37848Y18452D01*
X38331Y19081D01*
X38635Y19814D01*
X38738Y20600D01*
X38635Y21386D01*
X38491Y21733D01*
X49486Y32728D01*
X69676D01*
X69849Y32311D01*
X70353Y31653D01*
X71011Y31148D01*
X71778Y30831D01*
X72600Y30723D01*
X73422Y30831D01*
X74189Y31148D01*
X74847Y31653D01*
X75352Y32311D01*
X75669Y33078D01*
X75777Y33900D01*
X75669Y34722D01*
X75352Y35489D01*
X74847Y36147D01*
X74189Y36652D01*
X73422Y36969D01*
X72600Y37077D01*
D02*
G37*
G36*
X224300Y35435D02*
X223411Y35318D01*
X222582Y34975D01*
X221871Y34429D01*
X221325Y33718D01*
X220982Y32889D01*
X220865Y32000D01*
X220982Y31111D01*
X221325Y30282D01*
X221871Y29571D01*
X222582Y29025D01*
X223411Y28682D01*
X224300Y28565D01*
X225189Y28682D01*
X226018Y29025D01*
X226729Y29571D01*
X227275Y30282D01*
X227618Y31111D01*
X227735Y32000D01*
X227618Y32889D01*
X227275Y33718D01*
X226729Y34429D01*
X226018Y34975D01*
X225189Y35318D01*
X224300Y35435D01*
D02*
G37*
G36*
X197696Y36096D02*
X189704D01*
Y28104D01*
X197696D01*
Y36096D01*
D02*
G37*
G36*
X173100Y30021D02*
Y26600D01*
X176521D01*
X176451Y27132D01*
X176053Y28093D01*
X175419Y28919D01*
X174593Y29553D01*
X173632Y29951D01*
X173100Y30021D01*
D02*
G37*
G36*
X172100D02*
X171568Y29951D01*
X170607Y29553D01*
X169781Y28919D01*
X169147Y28093D01*
X168749Y27132D01*
X168679Y26600D01*
X172100D01*
Y30021D01*
D02*
G37*
G36*
X176521Y25600D02*
X173100D01*
Y22179D01*
X173632Y22249D01*
X174593Y22647D01*
X175419Y23281D01*
X176053Y24107D01*
X176451Y25068D01*
X176521Y25600D01*
D02*
G37*
G36*
X172100D02*
X168679D01*
X168749Y25068D01*
X169147Y24107D01*
X169781Y23281D01*
X170607Y22647D01*
X171568Y22249D01*
X172100Y22179D01*
Y25600D01*
D02*
G37*
G36*
X105400Y27035D02*
X104511Y26918D01*
X103682Y26575D01*
X102971Y26029D01*
X102425Y25318D01*
X102082Y24489D01*
X101965Y23600D01*
X102082Y22711D01*
X102425Y21882D01*
X102971Y21171D01*
X103682Y20625D01*
X104511Y20282D01*
X105400Y20165D01*
X106289Y20282D01*
X107118Y20625D01*
X107829Y21171D01*
X108375Y21882D01*
X108718Y22711D01*
X108835Y23600D01*
X108718Y24489D01*
X108375Y25318D01*
X107829Y26029D01*
X107118Y26575D01*
X106289Y26918D01*
X105400Y27035D01*
D02*
G37*
G36*
X194200Y16418D02*
Y12600D01*
X198018D01*
X197935Y13235D01*
X197497Y14292D01*
X196800Y15200D01*
X195892Y15897D01*
X194835Y16335D01*
X194200Y16418D01*
D02*
G37*
G36*
X193200D02*
X192565Y16335D01*
X191508Y15897D01*
X190600Y15200D01*
X189903Y14292D01*
X189465Y13235D01*
X189382Y12600D01*
X193200D01*
Y16418D01*
D02*
G37*
G36*
X176203Y19703D02*
X168997D01*
Y12497D01*
X176203D01*
Y19703D01*
D02*
G37*
G36*
X198018Y11600D02*
X194200D01*
Y7782D01*
X194835Y7865D01*
X195892Y8303D01*
X196800Y9000D01*
X197497Y9908D01*
X197935Y10965D01*
X198018Y11600D01*
D02*
G37*
G36*
X193200D02*
X189382D01*
X189465Y10965D01*
X189903Y9908D01*
X190600Y9000D01*
X191508Y8303D01*
X192565Y7865D01*
X193200Y7782D01*
Y11600D01*
D02*
G37*
G36*
X96000Y9421D02*
Y6000D01*
X99421D01*
X99351Y6532D01*
X98953Y7493D01*
X98319Y8319D01*
X97493Y8953D01*
X96532Y9351D01*
X96000Y9421D01*
D02*
G37*
G36*
X95000D02*
X94468Y9351D01*
X93507Y8953D01*
X92681Y8319D01*
X92047Y7493D01*
X91649Y6532D01*
X91579Y6000D01*
X95000D01*
Y9421D01*
D02*
G37*
G36*
X86000D02*
Y6000D01*
X89421D01*
X89351Y6532D01*
X88953Y7493D01*
X88319Y8319D01*
X87493Y8953D01*
X86532Y9351D01*
X86000Y9421D01*
D02*
G37*
G36*
X85000D02*
X84468Y9351D01*
X83507Y8953D01*
X82681Y8319D01*
X82047Y7493D01*
X81649Y6532D01*
X81579Y6000D01*
X85000D01*
Y9421D01*
D02*
G37*
G36*
X364300Y38572D02*
X363851Y38483D01*
X363471Y38229D01*
X363217Y37849D01*
X363127Y37400D01*
Y5773D01*
X331500D01*
X331051Y5683D01*
X330671Y5429D01*
X330417Y5049D01*
X330328Y4600D01*
X330417Y4151D01*
X330671Y3771D01*
X331051Y3517D01*
X331500Y3427D01*
X364300D01*
X364749Y3517D01*
X365129Y3771D01*
X365383Y4151D01*
X365473Y4600D01*
Y37400D01*
X365383Y37849D01*
X365129Y38229D01*
X364749Y38483D01*
X364300Y38572D01*
D02*
G37*
G36*
X155800Y8835D02*
X154911Y8718D01*
X154082Y8375D01*
X153371Y7829D01*
X152825Y7118D01*
X152482Y6289D01*
X152365Y5400D01*
X152482Y4511D01*
X152825Y3682D01*
X153371Y2971D01*
X154082Y2425D01*
X154911Y2082D01*
X155800Y1965D01*
X156689Y2082D01*
X157518Y2425D01*
X158229Y2971D01*
X158775Y3682D01*
X159118Y4511D01*
X159235Y5400D01*
X159118Y6289D01*
X158775Y7118D01*
X158229Y7829D01*
X157518Y8375D01*
X156689Y8718D01*
X155800Y8835D01*
D02*
G37*
G36*
X105000Y68277D02*
X104178Y68169D01*
X103411Y67852D01*
X102753Y67347D01*
X102249Y66689D01*
X101931Y65922D01*
X101823Y65100D01*
X101931Y64278D01*
X102249Y63511D01*
X102753Y62853D01*
X103411Y62349D01*
X103828Y62176D01*
Y39000D01*
X103917Y38551D01*
X104171Y38171D01*
X124627Y17714D01*
Y8601D01*
X124082Y8375D01*
X123371Y7829D01*
X122825Y7118D01*
X122482Y6289D01*
X122365Y5400D01*
X122482Y4511D01*
X122825Y3682D01*
X123371Y2971D01*
X124082Y2425D01*
X124911Y2082D01*
X125800Y1965D01*
X126689Y2082D01*
X127518Y2425D01*
X128229Y2971D01*
X128775Y3682D01*
X129118Y4511D01*
X129235Y5400D01*
X129118Y6289D01*
X128775Y7118D01*
X128229Y7829D01*
X127518Y8375D01*
X126972Y8601D01*
Y18200D01*
X126883Y18649D01*
X126629Y19029D01*
X106173Y39486D01*
Y62176D01*
X106589Y62349D01*
X107247Y62853D01*
X107752Y63511D01*
X108069Y64278D01*
X108177Y65100D01*
X108069Y65922D01*
X107752Y66689D01*
X107247Y67347D01*
X106589Y67852D01*
X105822Y68169D01*
X105000Y68277D01*
D02*
G37*
G36*
X115500Y9134D02*
X114559Y9010D01*
X113683Y8647D01*
X112931Y8070D01*
X112353Y7317D01*
X111990Y6441D01*
X111866Y5500D01*
X111990Y4560D01*
X112353Y3683D01*
X112931Y2930D01*
X113683Y2353D01*
X114559Y1990D01*
X115500Y1866D01*
X116440Y1990D01*
X117317Y2353D01*
X118070Y2930D01*
X118647Y3683D01*
X119010Y4560D01*
X119134Y5500D01*
X119010Y6441D01*
X118647Y7317D01*
X118070Y8070D01*
X117317Y8647D01*
X116440Y9010D01*
X115500Y9134D01*
D02*
G37*
G36*
X105500D02*
X104560Y9010D01*
X103683Y8647D01*
X102930Y8070D01*
X102353Y7317D01*
X101990Y6441D01*
X101866Y5500D01*
X101990Y4560D01*
X102353Y3683D01*
X102930Y2930D01*
X103683Y2353D01*
X104560Y1990D01*
X105500Y1866D01*
X106440Y1990D01*
X107317Y2353D01*
X108070Y2930D01*
X108647Y3683D01*
X109010Y4560D01*
X109134Y5500D01*
X109010Y6441D01*
X108647Y7317D01*
X108070Y8070D01*
X107317Y8647D01*
X106440Y9010D01*
X105500Y9134D01*
D02*
G37*
G36*
X75500D02*
X74559Y9010D01*
X73683Y8647D01*
X72931Y8070D01*
X72353Y7317D01*
X71990Y6441D01*
X71866Y5500D01*
X71990Y4560D01*
X72353Y3683D01*
X72931Y2930D01*
X73683Y2353D01*
X74559Y1990D01*
X75500Y1866D01*
X76441Y1990D01*
X77317Y2353D01*
X78070Y2930D01*
X78647Y3683D01*
X79010Y4560D01*
X79134Y5500D01*
X79010Y6441D01*
X78647Y7317D01*
X78070Y8070D01*
X77317Y8647D01*
X76441Y9010D01*
X75500Y9134D01*
D02*
G37*
G36*
X55500D02*
X54559Y9010D01*
X53683Y8647D01*
X52930Y8070D01*
X52353Y7317D01*
X51990Y6441D01*
X51866Y5500D01*
X51990Y4560D01*
X52353Y3683D01*
X52930Y2930D01*
X53683Y2353D01*
X54559Y1990D01*
X55500Y1866D01*
X56441Y1990D01*
X57317Y2353D01*
X58069Y2930D01*
X58647Y3683D01*
X59010Y4560D01*
X59134Y5500D01*
X59010Y6441D01*
X58647Y7317D01*
X58069Y8070D01*
X57317Y8647D01*
X56441Y9010D01*
X55500Y9134D01*
D02*
G37*
G36*
X45500D02*
X44559Y9010D01*
X43683Y8647D01*
X42930Y8070D01*
X42353Y7317D01*
X41990Y6441D01*
X41866Y5500D01*
X41990Y4560D01*
X42353Y3683D01*
X42930Y2930D01*
X43683Y2353D01*
X44559Y1990D01*
X45500Y1866D01*
X46441Y1990D01*
X47317Y2353D01*
X48070Y2930D01*
X48647Y3683D01*
X49010Y4560D01*
X49134Y5500D01*
X49010Y6441D01*
X48647Y7317D01*
X48070Y8070D01*
X47317Y8647D01*
X46441Y9010D01*
X45500Y9134D01*
D02*
G37*
G36*
X35500D02*
X34560Y9010D01*
X33683Y8647D01*
X32930Y8070D01*
X32353Y7317D01*
X31990Y6441D01*
X31866Y5500D01*
X31990Y4560D01*
X32353Y3683D01*
X32930Y2930D01*
X33683Y2353D01*
X34560Y1990D01*
X35500Y1866D01*
X36441Y1990D01*
X37317Y2353D01*
X38069Y2930D01*
X38647Y3683D01*
X39010Y4560D01*
X39134Y5500D01*
X39010Y6441D01*
X38647Y7317D01*
X38069Y8070D01*
X37317Y8647D01*
X36441Y9010D01*
X35500Y9134D01*
D02*
G37*
G36*
X25500D02*
X24559Y9010D01*
X23683Y8647D01*
X22930Y8070D01*
X22353Y7317D01*
X21990Y6441D01*
X21866Y5500D01*
X21990Y4560D01*
X22353Y3683D01*
X22930Y2930D01*
X23683Y2353D01*
X24559Y1990D01*
X25500Y1866D01*
X26441Y1990D01*
X27317Y2353D01*
X28069Y2930D01*
X28647Y3683D01*
X29010Y4560D01*
X29134Y5500D01*
X29010Y6441D01*
X28647Y7317D01*
X28069Y8070D01*
X27317Y8647D01*
X26441Y9010D01*
X25500Y9134D01*
D02*
G37*
G36*
X99421Y5000D02*
X96000D01*
Y1579D01*
X96532Y1649D01*
X97493Y2047D01*
X98319Y2681D01*
X98953Y3507D01*
X99351Y4468D01*
X99421Y5000D01*
D02*
G37*
G36*
X95000D02*
X91579D01*
X91649Y4468D01*
X92047Y3507D01*
X92681Y2681D01*
X93507Y2047D01*
X94468Y1649D01*
X95000Y1579D01*
Y5000D01*
D02*
G37*
G36*
X89421D02*
X86000D01*
Y1579D01*
X86532Y1649D01*
X87493Y2047D01*
X88319Y2681D01*
X88953Y3507D01*
X89351Y4468D01*
X89421Y5000D01*
D02*
G37*
G36*
X85000D02*
X81579D01*
X81649Y4468D01*
X82047Y3507D01*
X82681Y2681D01*
X83507Y2047D01*
X84468Y1649D01*
X85000Y1579D01*
Y5000D01*
D02*
G37*
%LPD*%
G36*
X168527Y145714D02*
Y136624D01*
X168111Y136451D01*
X167453Y135947D01*
X166948Y135289D01*
X166776Y134872D01*
X163286D01*
X159573Y138586D01*
Y147800D01*
X159483Y148249D01*
X159229Y148629D01*
X150497Y157361D01*
X150689Y157823D01*
X151519D01*
X163427Y145914D01*
Y143824D01*
X163011Y143651D01*
X162353Y143147D01*
X161848Y142489D01*
X161531Y141722D01*
X161423Y140900D01*
X161531Y140078D01*
X161848Y139311D01*
X162353Y138653D01*
X163011Y138148D01*
X163778Y137831D01*
X164600Y137723D01*
X165422Y137831D01*
X166189Y138148D01*
X166847Y138653D01*
X167351Y139311D01*
X167669Y140078D01*
X167777Y140900D01*
X167669Y141722D01*
X167351Y142489D01*
X166847Y143147D01*
X166189Y143651D01*
X165772Y143824D01*
Y146400D01*
X165683Y146849D01*
X165429Y147229D01*
X153644Y159014D01*
X153835Y159476D01*
X154765D01*
X168527Y145714D01*
D02*
G37*
D10*
X203832Y216059D02*
D03*
Y213500D02*
D03*
Y210941D02*
D03*
X195368D02*
D03*
Y213500D02*
D03*
Y216059D02*
D03*
X198532Y174359D02*
D03*
Y171800D02*
D03*
Y169241D02*
D03*
X190068D02*
D03*
Y171800D02*
D03*
Y174359D02*
D03*
X193332Y126459D02*
D03*
Y123900D02*
D03*
Y121341D02*
D03*
X184868D02*
D03*
Y123900D02*
D03*
Y126459D02*
D03*
D11*
X120839Y195373D02*
D03*
Y193720D02*
D03*
Y192066D02*
D03*
Y190413D02*
D03*
Y188759D02*
D03*
Y187106D02*
D03*
Y185452D02*
D03*
Y183798D02*
D03*
Y182145D02*
D03*
Y180491D02*
D03*
Y178838D02*
D03*
Y177184D02*
D03*
Y175531D02*
D03*
Y173877D02*
D03*
Y172224D02*
D03*
Y170570D02*
D03*
Y168916D02*
D03*
Y167263D02*
D03*
Y165609D02*
D03*
Y163956D02*
D03*
Y162302D02*
D03*
Y160649D02*
D03*
Y158995D02*
D03*
Y157342D02*
D03*
Y155688D02*
D03*
Y154035D02*
D03*
Y152381D02*
D03*
Y150728D02*
D03*
Y149074D02*
D03*
Y147421D02*
D03*
Y145767D02*
D03*
Y144113D02*
D03*
Y142460D02*
D03*
Y140806D02*
D03*
Y139153D02*
D03*
X134028Y195373D02*
D03*
Y193720D02*
D03*
Y192066D02*
D03*
Y190413D02*
D03*
Y188759D02*
D03*
Y187106D02*
D03*
Y185452D02*
D03*
Y183798D02*
D03*
Y182145D02*
D03*
Y180491D02*
D03*
Y178838D02*
D03*
Y177184D02*
D03*
Y175531D02*
D03*
Y173877D02*
D03*
Y172224D02*
D03*
Y170570D02*
D03*
Y168916D02*
D03*
Y167263D02*
D03*
Y165609D02*
D03*
Y163956D02*
D03*
Y162302D02*
D03*
Y160649D02*
D03*
Y158995D02*
D03*
Y157342D02*
D03*
Y155688D02*
D03*
Y154035D02*
D03*
Y152381D02*
D03*
Y150728D02*
D03*
Y149074D02*
D03*
Y147421D02*
D03*
Y145767D02*
D03*
Y144113D02*
D03*
Y142460D02*
D03*
Y140806D02*
D03*
Y139153D02*
D03*
D12*
X217314Y282800D02*
D03*
D13*
X194086Y273745D02*
D03*
Y282800D02*
D03*
Y291855D02*
D03*
D14*
X151200Y229200D02*
X162000Y240000D01*
X151200Y211000D02*
Y229200D01*
X41900Y76200D02*
X74700D01*
X41900D02*
Y84100D01*
X140400Y208400D02*
Y216300D01*
X107600D02*
X140400D01*
X364300Y4600D02*
Y37400D01*
X331500Y4600D02*
X364300D01*
X245700Y122700D02*
X278500D01*
X245700Y89900D02*
Y122700D01*
X178100Y260200D02*
Y265200D01*
X186645Y273745D01*
X194086D01*
X180700Y273400D02*
Y279600D01*
X169800Y262500D02*
X180700Y273400D01*
X168700Y262500D02*
X169800D01*
X164600Y140900D02*
Y146400D01*
X134098Y144043D02*
X152757D01*
X152800Y144000D01*
X134028Y144113D02*
X134098Y144043D01*
X203000Y192400D02*
X208400Y197800D01*
Y210300D01*
X207759Y210941D02*
X208400Y210300D01*
X203832Y210941D02*
X207759D01*
X211400Y139100D02*
Y220900D01*
X198759Y126459D02*
X211400Y139100D01*
X200900Y154700D02*
X204059Y157859D01*
Y169241D01*
X198532D02*
X204059D01*
X277700Y223300D02*
X288500Y212500D01*
X215000Y223300D02*
X277700D01*
X161400Y56100D02*
X172600D01*
X153100Y64400D02*
Y88500D01*
X163700Y99100D01*
X188000D01*
X215000Y126100D01*
Y223300D01*
X148600Y250300D02*
X188000D01*
X155600Y36100D02*
X172600D01*
X146900Y44800D02*
Y88600D01*
X161400Y103100D01*
X184800D01*
X201300Y119600D01*
X199559Y121341D02*
X201300Y119600D01*
X193332Y121341D02*
X199559D01*
X179041D02*
X184868D01*
X174600Y116900D02*
X179041Y121341D01*
X174600Y107700D02*
Y116900D01*
X143367Y145767D02*
X147900Y150300D01*
X134028Y145767D02*
X143367D01*
X135400Y23600D02*
X143200Y31400D01*
X134028Y167263D02*
X146363D01*
X149500Y170400D01*
Y201600D01*
X181200Y211000D02*
X195309D01*
X185941Y216059D02*
X195368D01*
X15800Y217700D02*
Y225600D01*
X203832Y216059D02*
X211300D01*
X198532Y174359D02*
X211400D01*
X193332Y126459D02*
X198759D01*
X57500Y252500D02*
X121300D01*
X57500Y282500D02*
X72500Y267500D01*
X131400D01*
X148600Y250300D01*
X180700Y279600D02*
X183900Y282800D01*
X194086D01*
X169345Y291855D02*
X194086D01*
X49000Y33900D02*
X72600D01*
X35700Y20600D02*
X49000Y33900D01*
X65500Y5500D02*
X83300Y23300D01*
X105000Y39000D02*
Y65100D01*
Y39000D02*
X125800Y18200D01*
Y5400D02*
Y18200D01*
X31580Y147421D02*
X120839D01*
X14100Y165000D02*
X31580Y147520D01*
X18733Y145767D02*
X120839D01*
X18700Y145800D02*
X18733Y145767D01*
X33213Y144113D02*
X120839D01*
X5500Y116400D02*
X33213Y144113D01*
X40826Y149074D02*
X120839D01*
X42360Y142460D02*
X120839D01*
X53906Y140806D02*
X120839D01*
X9000Y95900D02*
X53906Y140806D01*
X25300Y164600D02*
X40826Y149074D01*
X14100Y65700D02*
X59500D01*
X9000Y12000D02*
Y95900D01*
Y12000D02*
X15500Y5500D01*
X45551Y160649D02*
X120839D01*
X36600Y169600D02*
X45551Y160649D01*
X30300Y130400D02*
X42360Y142460D01*
X5500Y5500D02*
Y116400D01*
X26800Y177100D02*
X30900D01*
X39252Y185452D01*
X120839D01*
Y192066D02*
Y193720D01*
Y195373D01*
X48127D02*
X120839D01*
X37400Y206100D02*
X48127Y195373D01*
X37400Y206100D02*
Y214800D01*
X37306Y187106D02*
X120839D01*
X32500Y182300D02*
X37306Y187106D01*
X12400Y182300D02*
X32500D01*
X7000Y187700D02*
X12400Y182300D01*
X33959Y188759D02*
X120839D01*
X32900Y187700D02*
X33959Y188759D01*
X15800Y187700D02*
X32900D01*
X83300Y23300D02*
Y139153D01*
X120839D01*
X169700Y133700D02*
Y146200D01*
X180000Y126459D02*
X184868D01*
X174900Y141000D02*
Y145400D01*
X162800Y133700D02*
X169700D01*
X158400Y138100D02*
X162800Y133700D01*
X158400Y138100D02*
Y147800D01*
X157998Y162302D02*
X174900Y145400D01*
X155251Y160649D02*
X169700Y146200D01*
X152005Y158995D02*
X164600Y146400D01*
X134028Y162302D02*
X157998D01*
X134028Y160649D02*
X155251D01*
X134028Y158995D02*
X152005D01*
X134028Y157342D02*
X148858D01*
X158400Y147800D01*
X185641Y169241D02*
X190068D01*
X184700Y168300D02*
X185641Y169241D01*
X184700Y162500D02*
Y168300D01*
X153100Y64400D02*
X161400Y56100D01*
X146900Y44800D02*
X155600Y36100D01*
X15800Y225600D02*
X35400Y245200D01*
X187100D01*
X211400Y220900D01*
X25900Y226000D02*
X39900Y240000D01*
X162000D01*
X185941Y216059D01*
X37400Y214800D02*
X51000Y228400D01*
Y229700D01*
X188400Y250700D02*
X215800D01*
X178100Y260200D02*
X188000Y250300D01*
X215000Y223300D01*
X180000Y174359D02*
X190068D01*
X151200Y209900D02*
Y211000D01*
X180000Y174400D02*
Y181100D01*
X151200Y209900D02*
X180000Y181100D01*
X171500Y165859D02*
X180000Y174359D01*
X171500Y158100D02*
Y165859D01*
Y158100D02*
X180000Y149600D01*
Y126459D02*
Y149600D01*
X143200Y31400D02*
Y90318D01*
X179341Y126459D01*
X180000D01*
X101899Y111898D02*
X100899Y112898D01*
X98900D01*
X97900Y111898D01*
Y107900D01*
X98900Y106900D01*
X100899D01*
X101899Y107900D01*
X103898Y112898D02*
Y106900D01*
Y109899D01*
X104898Y110899D01*
X106897D01*
X107897Y109899D01*
Y106900D01*
X109896D02*
X111896D01*
X110896D01*
Y110899D01*
X109896D01*
X114894Y104901D02*
Y110899D01*
X117894D01*
X118893Y109899D01*
Y107900D01*
X117894Y106900D01*
X114894D01*
X295099Y71498D02*
X294099Y72498D01*
X292100D01*
X291100Y71498D01*
Y67500D01*
X292100Y66500D01*
X294099D01*
X295099Y67500D01*
Y69499D01*
X293099D01*
X297098Y66500D02*
Y72498D01*
X300097D01*
X301097Y71498D01*
Y69499D01*
X300097Y68499D01*
X297098D01*
X307095Y71498D02*
X306095Y72498D01*
X304096D01*
X303096Y71498D01*
Y70499D01*
X304096Y69499D01*
X306095D01*
X307095Y68499D01*
Y67500D01*
X306095Y66500D01*
X304096D01*
X303096Y67500D01*
X339999Y164398D02*
X338999Y165398D01*
X337000D01*
X336000Y164398D01*
Y160400D01*
X337000Y159400D01*
X338999D01*
X339999Y160400D01*
Y162399D01*
X337999D01*
X341998Y159400D02*
Y165398D01*
X345997Y159400D01*
Y165398D01*
X347996D02*
Y159400D01*
X350995D01*
X351995Y160400D01*
Y164398D01*
X350995Y165398D01*
X347996D01*
X339999Y174698D02*
X338999Y175698D01*
X337000D01*
X336000Y174698D01*
Y173699D01*
X337000Y172699D01*
X338999D01*
X339999Y171699D01*
Y170700D01*
X338999Y169700D01*
X337000D01*
X336000Y170700D01*
X341998Y175698D02*
Y169700D01*
X344997D01*
X345997Y170700D01*
Y174698D01*
X344997Y175698D01*
X341998D01*
X347996Y169700D02*
Y173699D01*
X349995Y175698D01*
X351995Y173699D01*
Y169700D01*
Y172699D01*
X347996D01*
X339999Y184898D02*
X338999Y185898D01*
X337000D01*
X336000Y184898D01*
Y183899D01*
X337000Y182899D01*
X338999D01*
X339999Y181899D01*
Y180900D01*
X338999Y179900D01*
X337000D01*
X336000Y180900D01*
X345997Y184898D02*
X344997Y185898D01*
X342998D01*
X341998Y184898D01*
Y180900D01*
X342998Y179900D01*
X344997D01*
X345997Y180900D01*
X347996Y185898D02*
Y179900D01*
X351995D01*
X336000Y190600D02*
Y196598D01*
X337999Y194599D01*
X339999Y196598D01*
Y190600D01*
X344997Y196598D02*
X342998D01*
X341998Y195598D01*
Y191600D01*
X342998Y190600D01*
X344997D01*
X345997Y191600D01*
Y195598D01*
X344997Y196598D01*
X347996D02*
Y190600D01*
X350995D01*
X351995Y191600D01*
Y195598D01*
X350995Y196598D01*
X347996D01*
X357993D02*
X353994D01*
Y190600D01*
X357993D01*
X353994Y193599D02*
X355994D01*
X336000Y200300D02*
Y206298D01*
X338999D01*
X339999Y205298D01*
Y203299D01*
X338999Y202299D01*
X336000D01*
X341998Y206298D02*
Y200300D01*
X343997Y202299D01*
X345997Y200300D01*
Y206298D01*
X347996Y200300D02*
Y206298D01*
X350995D01*
X351995Y205298D01*
Y203299D01*
X350995Y202299D01*
X347996D01*
X349995D02*
X351995Y200300D01*
X363991Y206298D02*
X359992D01*
Y200300D01*
X363991D01*
X359992Y203299D02*
X361992D01*
X365990Y200300D02*
Y206298D01*
X369989Y200300D01*
Y206298D01*
X338999Y210000D02*
Y215998D01*
X336000Y212999D01*
X339999D01*
X341998Y215998D02*
Y211999D01*
X343997Y210000D01*
X345997Y211999D01*
Y215998D01*
X347996Y214998D02*
X348996Y215998D01*
X350995D01*
X351995Y214998D01*
Y213999D01*
X350995Y212999D01*
X351995Y211999D01*
Y211000D01*
X350995Y210000D01*
X348996D01*
X347996Y211000D01*
Y211999D01*
X348996Y212999D01*
X347996Y213999D01*
Y214998D01*
X348996Y212999D02*
X350995D01*
X228199Y242098D02*
X227199Y243098D01*
X225200D01*
X224200Y242098D01*
Y238100D01*
X225200Y237100D01*
X227199D01*
X228199Y238100D01*
Y240099D01*
X226199D01*
X230198Y237100D02*
Y243098D01*
X234197Y237100D01*
Y243098D01*
X236196D02*
Y237100D01*
X239195D01*
X240195Y238100D01*
Y242098D01*
X239195Y243098D01*
X236196D01*
X226199Y247900D02*
Y253898D01*
X223200Y250899D01*
X227199D01*
X229198Y253898D02*
Y249899D01*
X231197Y247900D01*
X233197Y249899D01*
Y253898D01*
X235196Y252898D02*
X236196Y253898D01*
X238195D01*
X239195Y252898D01*
Y251899D01*
X238195Y250899D01*
X239195Y249899D01*
Y248900D01*
X238195Y247900D01*
X236196D01*
X235196Y248900D01*
Y249899D01*
X236196Y250899D01*
X235196Y251899D01*
Y252898D01*
X236196Y250899D02*
X238195D01*
D15*
X0Y0D02*
Y308000D01*
X376000D01*
Y304500D02*
Y308000D01*
Y0D02*
Y304500D01*
X0Y0D02*
X376000D01*
D16*
X193700Y32100D02*
D03*
D17*
Y12100D02*
D03*
D18*
X121400Y282600D02*
D03*
X57500Y282500D02*
D03*
D19*
X121400Y252600D02*
D03*
X57500Y252500D02*
D03*
X35700Y20600D02*
D03*
Y50600D02*
D03*
X258500Y212500D02*
D03*
D20*
X15800Y217700D02*
D03*
Y187700D02*
D03*
X7000Y217700D02*
D03*
Y187700D02*
D03*
X135400Y23600D02*
D03*
X105400D02*
D03*
X155800Y5400D02*
D03*
X125800D02*
D03*
X151200Y211000D02*
D03*
X181200D02*
D03*
X229200Y192400D02*
D03*
Y162400D02*
D03*
X224300Y32000D02*
D03*
Y62000D02*
D03*
X168700Y292500D02*
D03*
Y262500D02*
D03*
X14800Y253000D02*
D03*
Y283000D02*
D03*
X51000Y229700D02*
D03*
X81000D02*
D03*
D21*
X328100Y162600D02*
D03*
X172600Y16100D02*
D03*
X215800Y250700D02*
D03*
D22*
X328100Y172600D02*
D03*
Y182600D02*
D03*
Y192600D02*
D03*
Y202600D02*
D03*
Y212600D02*
D03*
X172600Y26100D02*
D03*
Y36100D02*
D03*
Y46100D02*
D03*
Y56100D02*
D03*
Y66100D02*
D03*
X115500Y5500D02*
D03*
X105500D02*
D03*
X95500D02*
D03*
X85500D02*
D03*
X75500D02*
D03*
X65500D02*
D03*
X55500D02*
D03*
X45500D02*
D03*
X35500D02*
D03*
X25500D02*
D03*
X15500D02*
D03*
X215800Y240700D02*
D03*
D23*
X5500Y5500D02*
D03*
D24*
X288500Y212500D02*
D03*
D25*
X164600Y140900D02*
D03*
X152800Y144000D02*
D03*
X203000Y192400D02*
D03*
X200900Y154700D02*
D03*
X174600Y107700D02*
D03*
X147900Y150300D02*
D03*
X149500Y201600D02*
D03*
X25900Y226000D02*
D03*
X72600Y33900D02*
D03*
X105000Y65100D02*
D03*
X14100Y165000D02*
D03*
X18700Y145800D02*
D03*
X14100Y65700D02*
D03*
X59500D02*
D03*
X36600Y169600D02*
D03*
X30300Y130400D02*
D03*
X25300Y164600D02*
D03*
X26800Y177100D02*
D03*
X169700Y133700D02*
D03*
X184700Y162500D02*
D03*
X174900Y141000D02*
D03*
M02*
