G04 Layer_Color=8388736*
%FSLAX25Y25*%
%MOIN*%
G70*
G01*
G75*
%ADD15C,0.04724*%
%ADD29R,0.03950X0.02572*%
%ADD30R,0.12257X0.01666*%
%ADD31R,0.09068X0.13398*%
%ADD32R,0.09068X0.04343*%
%ADD33R,0.07493X0.07493*%
%ADD34C,0.07493*%
%ADD35R,0.05524X0.05524*%
%ADD36C,0.05524*%
%ADD37C,0.06312*%
%ADD38R,0.06706X0.06706*%
%ADD39C,0.06706*%
%ADD40R,0.06706X0.06706*%
%ADD41R,0.05524X0.05524*%
%ADD42C,0.05800*%
D15*
X0Y0D02*
Y308000D01*
X376000D01*
Y304500D02*
Y308000D01*
Y0D02*
Y304500D01*
X0Y0D02*
X376000D01*
D29*
X203832Y216059D02*
D03*
Y213500D02*
D03*
Y210941D02*
D03*
X195368D02*
D03*
Y213500D02*
D03*
Y216059D02*
D03*
X198532Y174359D02*
D03*
Y171800D02*
D03*
Y169241D02*
D03*
X190068D02*
D03*
Y171800D02*
D03*
Y174359D02*
D03*
X193332Y126459D02*
D03*
Y123900D02*
D03*
Y121341D02*
D03*
X184868D02*
D03*
Y123900D02*
D03*
Y126459D02*
D03*
D30*
X120839Y195373D02*
D03*
Y193720D02*
D03*
Y192066D02*
D03*
Y190413D02*
D03*
Y188759D02*
D03*
Y187106D02*
D03*
Y185452D02*
D03*
Y183798D02*
D03*
Y182145D02*
D03*
Y180491D02*
D03*
Y178838D02*
D03*
Y177184D02*
D03*
Y175531D02*
D03*
Y173877D02*
D03*
Y172224D02*
D03*
Y170570D02*
D03*
Y168916D02*
D03*
Y167263D02*
D03*
Y165609D02*
D03*
Y163956D02*
D03*
Y162302D02*
D03*
Y160649D02*
D03*
Y158995D02*
D03*
Y157342D02*
D03*
Y155688D02*
D03*
Y154035D02*
D03*
Y152381D02*
D03*
Y150728D02*
D03*
Y149074D02*
D03*
Y147421D02*
D03*
Y145767D02*
D03*
Y144113D02*
D03*
Y142460D02*
D03*
Y140806D02*
D03*
Y139153D02*
D03*
X134028Y195373D02*
D03*
Y193720D02*
D03*
Y192066D02*
D03*
Y190413D02*
D03*
Y188759D02*
D03*
Y187106D02*
D03*
Y185452D02*
D03*
Y183798D02*
D03*
Y182145D02*
D03*
Y180491D02*
D03*
Y178838D02*
D03*
Y177184D02*
D03*
Y175531D02*
D03*
Y173877D02*
D03*
Y172224D02*
D03*
Y170570D02*
D03*
Y168916D02*
D03*
Y167263D02*
D03*
Y165609D02*
D03*
Y163956D02*
D03*
Y162302D02*
D03*
Y160649D02*
D03*
Y158995D02*
D03*
Y157342D02*
D03*
Y155688D02*
D03*
Y154035D02*
D03*
Y152381D02*
D03*
Y150728D02*
D03*
Y149074D02*
D03*
Y147421D02*
D03*
Y145767D02*
D03*
Y144113D02*
D03*
Y142460D02*
D03*
Y140806D02*
D03*
Y139153D02*
D03*
D31*
X217314Y282800D02*
D03*
D32*
X194086Y273745D02*
D03*
Y282800D02*
D03*
Y291855D02*
D03*
D33*
X193700Y32100D02*
D03*
D34*
Y12100D02*
D03*
D35*
X121400Y282600D02*
D03*
X57500Y282500D02*
D03*
D36*
X121400Y252600D02*
D03*
X57500Y252500D02*
D03*
X35700Y20600D02*
D03*
Y50600D02*
D03*
X258500Y212500D02*
D03*
D37*
X15800Y217700D02*
D03*
Y187700D02*
D03*
X7000Y217700D02*
D03*
Y187700D02*
D03*
X135400Y23600D02*
D03*
X105400D02*
D03*
X155800Y5400D02*
D03*
X125800D02*
D03*
X151200Y211000D02*
D03*
X181200D02*
D03*
X229200Y192400D02*
D03*
Y162400D02*
D03*
X224300Y32000D02*
D03*
Y62000D02*
D03*
X168700Y292500D02*
D03*
Y262500D02*
D03*
X14800Y253000D02*
D03*
Y283000D02*
D03*
X51000Y229700D02*
D03*
X81000D02*
D03*
D38*
X328100Y162600D02*
D03*
X172600Y16100D02*
D03*
X215800Y250700D02*
D03*
D39*
X328100Y172600D02*
D03*
Y182600D02*
D03*
Y192600D02*
D03*
Y202600D02*
D03*
Y212600D02*
D03*
X172600Y26100D02*
D03*
Y36100D02*
D03*
Y46100D02*
D03*
Y56100D02*
D03*
Y66100D02*
D03*
X115500Y5500D02*
D03*
X105500D02*
D03*
X95500D02*
D03*
X85500D02*
D03*
X75500D02*
D03*
X65500D02*
D03*
X55500D02*
D03*
X45500D02*
D03*
X35500D02*
D03*
X25500D02*
D03*
X15500D02*
D03*
X215800Y240700D02*
D03*
D40*
X5500Y5500D02*
D03*
D41*
X288500Y212500D02*
D03*
D42*
X164600Y140900D02*
D03*
X152800Y144000D02*
D03*
X203000Y192400D02*
D03*
X200900Y154700D02*
D03*
X174600Y107700D02*
D03*
X147900Y150300D02*
D03*
X149500Y201600D02*
D03*
X25900Y226000D02*
D03*
X72600Y33900D02*
D03*
X105000Y65100D02*
D03*
X14100Y165000D02*
D03*
X18700Y145800D02*
D03*
X14100Y65700D02*
D03*
X59500D02*
D03*
X36600Y169600D02*
D03*
X30300Y130400D02*
D03*
X25300Y164600D02*
D03*
X26800Y177100D02*
D03*
X169700Y133700D02*
D03*
X184700Y162500D02*
D03*
X174900Y141000D02*
D03*
M02*
