G04 Layer_Physical_Order=1*
G04 Layer_Color=255*
%FSLAX25Y25*%
%MOIN*%
G70*
G01*
G75*
%ADD10R,0.08268X0.03543*%
%ADD11R,0.08268X0.12598*%
%ADD12R,0.03150X0.01772*%
%ADD13R,0.11457X0.00866*%
%ADD14C,0.01000*%
%ADD15C,0.00394*%
%ADD16C,0.00197*%
%ADD17C,0.05512*%
%ADD18C,0.04724*%
%ADD19R,0.04724X0.04724*%
%ADD20C,0.05906*%
%ADD21R,0.05906X0.05906*%
%ADD22R,0.05906X0.05906*%
%ADD23R,0.04724X0.04724*%
%ADD24C,0.06693*%
%ADD25R,0.06693X0.06693*%
%ADD26C,0.05000*%
G36*
X129800Y-122700D02*
X-246200D01*
Y185300D01*
X129800D01*
Y-122700D01*
D02*
G37*
%LPC*%
G36*
X-77500Y173235D02*
X-78389Y173118D01*
X-79218Y172775D01*
X-79929Y172229D01*
X-80475Y171518D01*
X-80818Y170689D01*
X-80935Y169800D01*
X-80818Y168911D01*
X-80475Y168082D01*
X-79929Y167371D01*
X-79218Y166825D01*
X-78389Y166482D01*
X-77500Y166365D01*
X-76611Y166482D01*
X-75782Y166825D01*
X-75071Y167371D01*
X-74602Y167983D01*
X-56898D01*
Y166734D01*
X-47330D01*
Y171577D01*
X-56898D01*
Y170328D01*
X-74134D01*
X-74182Y170689D01*
X-74525Y171518D01*
X-75071Y172229D01*
X-75782Y172775D01*
X-76611Y173118D01*
X-77500Y173235D01*
D02*
G37*
G36*
X-47330Y162522D02*
X-56898D01*
Y161273D01*
X-62300D01*
X-62749Y161183D01*
X-63129Y160929D01*
X-66329Y157729D01*
X-66583Y157349D01*
X-66672Y156900D01*
Y151186D01*
X-75387Y142472D01*
X-75782Y142775D01*
X-76611Y143118D01*
X-77500Y143235D01*
X-78389Y143118D01*
X-79218Y142775D01*
X-79929Y142229D01*
X-80475Y141518D01*
X-80818Y140689D01*
X-80935Y139800D01*
X-80818Y138911D01*
X-80475Y138082D01*
X-79929Y137371D01*
X-79218Y136825D01*
X-78389Y136482D01*
X-77500Y136365D01*
X-76611Y136482D01*
X-75782Y136825D01*
X-75071Y137371D01*
X-74525Y138082D01*
X-74182Y138911D01*
X-74065Y139800D01*
X-74143Y140398D01*
X-64671Y149871D01*
X-64417Y150251D01*
X-64328Y150700D01*
Y156414D01*
X-61814Y158928D01*
X-56898D01*
Y157678D01*
X-47330D01*
Y162522D01*
D02*
G37*
G36*
X-121788Y162912D02*
X-127812D01*
Y156888D01*
X-121788D01*
Y162912D01*
D02*
G37*
G36*
X-231400Y163735D02*
X-232289Y163618D01*
X-233118Y163275D01*
X-233829Y162729D01*
X-234375Y162018D01*
X-234718Y161189D01*
X-234835Y160300D01*
X-234718Y159411D01*
X-234375Y158582D01*
X-233829Y157871D01*
X-233118Y157325D01*
X-232289Y156982D01*
X-231400Y156865D01*
X-230511Y156982D01*
X-229682Y157325D01*
X-228971Y157871D01*
X-228425Y158582D01*
X-228082Y159411D01*
X-227965Y160300D01*
X-228082Y161189D01*
X-228425Y162018D01*
X-228971Y162729D01*
X-229682Y163275D01*
X-230511Y163618D01*
X-231400Y163735D01*
D02*
G37*
G36*
X-24102Y167049D02*
X-33670D01*
Y153151D01*
X-24102D01*
Y167049D01*
D02*
G37*
G36*
X-185688Y162812D02*
X-191712D01*
Y156788D01*
X-187346D01*
X-174529Y143971D01*
X-174149Y143717D01*
X-173700Y143628D01*
X-115286D01*
X-98429Y126771D01*
X-98049Y126517D01*
X-97600Y126427D01*
X-58686D01*
X-32372Y100114D01*
Y3886D01*
X-58686Y-22427D01*
X-82500D01*
X-82949Y-22517D01*
X-83329Y-22771D01*
X-93929Y-33371D01*
X-94183Y-33751D01*
X-94273Y-34200D01*
Y-58300D01*
X-94183Y-58749D01*
X-93929Y-59129D01*
X-85629Y-67429D01*
X-85249Y-67683D01*
X-84800Y-67773D01*
X-77014D01*
X-76747Y-68417D01*
X-76170Y-69169D01*
X-75417Y-69747D01*
X-74541Y-70110D01*
X-73600Y-70234D01*
X-72659Y-70110D01*
X-71783Y-69747D01*
X-71030Y-69169D01*
X-70453Y-68417D01*
X-70090Y-67541D01*
X-69966Y-66600D01*
X-70090Y-65659D01*
X-70453Y-64783D01*
X-71030Y-64030D01*
X-71783Y-63453D01*
X-72659Y-63090D01*
X-73600Y-62966D01*
X-74541Y-63090D01*
X-75417Y-63453D01*
X-76170Y-64030D01*
X-76747Y-64783D01*
X-77014Y-65428D01*
X-84314D01*
X-91927Y-57814D01*
Y-34686D01*
X-82014Y-24772D01*
X-58200D01*
X-57751Y-24683D01*
X-57371Y-24429D01*
X-30371Y2571D01*
X-30117Y2951D01*
X-30027Y3400D01*
Y99427D01*
X31014D01*
X39288Y91154D01*
Y86788D01*
X45312D01*
Y92812D01*
X40946D01*
X32329Y101429D01*
X31949Y101683D01*
X31500Y101772D01*
X-30714D01*
X-55307Y126365D01*
X-55116Y126828D01*
X-34003D01*
Y124397D01*
X-26797D01*
Y131603D01*
X-34003D01*
Y129173D01*
X-57800D01*
X-58062Y129120D01*
X-66927Y137986D01*
Y142014D01*
X-59069Y149872D01*
X-56898D01*
Y148623D01*
X-47330D01*
Y153466D01*
X-56898D01*
Y152217D01*
X-59555D01*
X-60004Y152128D01*
X-60384Y151874D01*
X-68929Y143329D01*
X-69183Y142949D01*
X-69273Y142500D01*
Y137500D01*
X-69183Y137051D01*
X-68929Y136671D01*
X-61493Y129235D01*
X-61684Y128772D01*
X-97114D01*
X-113971Y145629D01*
X-114351Y145883D01*
X-114800Y145973D01*
X-173214D01*
X-185688Y158446D01*
Y162812D01*
D02*
G37*
G36*
X-124800Y132938D02*
X-125586Y132835D01*
X-126319Y132531D01*
X-126948Y132048D01*
X-127431Y131419D01*
X-127616Y130973D01*
X-185925D01*
X-186069Y131319D01*
X-186552Y131948D01*
X-187181Y132431D01*
X-187914Y132735D01*
X-188700Y132838D01*
X-189486Y132735D01*
X-190219Y132431D01*
X-190848Y131948D01*
X-191331Y131319D01*
X-191635Y130586D01*
X-191738Y129800D01*
X-191635Y129014D01*
X-191331Y128281D01*
X-190848Y127652D01*
X-190219Y127169D01*
X-189486Y126865D01*
X-188700Y126762D01*
X-187914Y126865D01*
X-187181Y127169D01*
X-186552Y127652D01*
X-186069Y128281D01*
X-185925Y128628D01*
X-127533D01*
X-127431Y128381D01*
X-126948Y127752D01*
X-126319Y127269D01*
X-125586Y126965D01*
X-124800Y126862D01*
X-124014Y126965D01*
X-123281Y127269D01*
X-122652Y127752D01*
X-122169Y128381D01*
X-121865Y129114D01*
X-121762Y129900D01*
X-121865Y130686D01*
X-122169Y131419D01*
X-122652Y132048D01*
X-123281Y132531D01*
X-124014Y132835D01*
X-124800Y132938D01*
D02*
G37*
G36*
X-231400Y133735D02*
X-232289Y133618D01*
X-233118Y133275D01*
X-233829Y132729D01*
X-234375Y132018D01*
X-234718Y131189D01*
X-234835Y130300D01*
X-234718Y129411D01*
X-234375Y128582D01*
X-233829Y127871D01*
X-233118Y127325D01*
X-232289Y126982D01*
X-231400Y126865D01*
X-230511Y126982D01*
X-229682Y127325D01*
X-228971Y127871D01*
X-228425Y128582D01*
X-228082Y129411D01*
X-227965Y130300D01*
X-228082Y131189D01*
X-228425Y132018D01*
X-228971Y132729D01*
X-229682Y133275D01*
X-230511Y133618D01*
X-231400Y133735D01*
D02*
G37*
G36*
X-5355Y132848D02*
X-24650D01*
Y123550D01*
X-5355D01*
Y132848D01*
D02*
G37*
G36*
X-29900Y121921D02*
Y118500D01*
X-26479D01*
X-26549Y119032D01*
X-26947Y119993D01*
X-27581Y120819D01*
X-28407Y121453D01*
X-29368Y121851D01*
X-29900Y121921D01*
D02*
G37*
G36*
X-30900D02*
X-31432Y121851D01*
X-32393Y121453D01*
X-33219Y120819D01*
X-33853Y119993D01*
X-34251Y119032D01*
X-34321Y118500D01*
X-30900D01*
Y121921D01*
D02*
G37*
G36*
X-26479Y117500D02*
X-29900D01*
Y114079D01*
X-29368Y114149D01*
X-28407Y114547D01*
X-27581Y115181D01*
X-26947Y116007D01*
X-26549Y116968D01*
X-26479Y117500D01*
D02*
G37*
G36*
X-30900D02*
X-34321D01*
X-34251Y116968D01*
X-33853Y116007D01*
X-33219Y115181D01*
X-32393Y114547D01*
X-31432Y114149D01*
X-30900Y114079D01*
Y117500D01*
D02*
G37*
G36*
X-4355Y122048D02*
X-23650D01*
Y112750D01*
X-4355D01*
Y122048D01*
D02*
G37*
G36*
X-165200Y110435D02*
X-166089Y110318D01*
X-166918Y109975D01*
X-167629Y109429D01*
X-168175Y108718D01*
X-168518Y107889D01*
X-168635Y107000D01*
X-168518Y106111D01*
X-168175Y105282D01*
X-167629Y104571D01*
X-166918Y104025D01*
X-166089Y103682D01*
X-165200Y103565D01*
X-164311Y103682D01*
X-163482Y104025D01*
X-162771Y104571D01*
X-162225Y105282D01*
X-161882Y106111D01*
X-161765Y107000D01*
X-161882Y107889D01*
X-162225Y108718D01*
X-162771Y109429D01*
X-163482Y109975D01*
X-164311Y110318D01*
X-165200Y110435D01*
D02*
G37*
G36*
X-195200D02*
X-196089Y110318D01*
X-196918Y109975D01*
X-197629Y109429D01*
X-198175Y108718D01*
X-198518Y107889D01*
X-198635Y107000D01*
X-198518Y106111D01*
X-198175Y105282D01*
X-197785Y104774D01*
X-209629Y92929D01*
X-209883Y92549D01*
X-209973Y92100D01*
Y83400D01*
X-209883Y82951D01*
X-209629Y82571D01*
X-198902Y71844D01*
X-198522Y71590D01*
X-198073Y71501D01*
X-131740D01*
Y67232D01*
X-212241D01*
X-212690Y67142D01*
X-213070Y66888D01*
X-213786Y66172D01*
X-227199D01*
X-227425Y66718D01*
X-227971Y67429D01*
X-228682Y67975D01*
X-229511Y68318D01*
X-230400Y68435D01*
X-231289Y68318D01*
X-232118Y67975D01*
X-232829Y67429D01*
X-233375Y66718D01*
X-233718Y65889D01*
X-233835Y65000D01*
X-233718Y64111D01*
X-233375Y63282D01*
X-232829Y62571D01*
X-232118Y62025D01*
X-231289Y61682D01*
X-230400Y61565D01*
X-229511Y61682D01*
X-228682Y62025D01*
X-227971Y62571D01*
X-227425Y63282D01*
X-227199Y63828D01*
X-213300D01*
X-212851Y63917D01*
X-212471Y64171D01*
X-211755Y64886D01*
X-210725D01*
X-210534Y64425D01*
X-214186Y60773D01*
X-233314D01*
X-236108Y63566D01*
X-235882Y64111D01*
X-235765Y65000D01*
X-235882Y65889D01*
X-236225Y66718D01*
X-236771Y67429D01*
X-237482Y67975D01*
X-238311Y68318D01*
X-239200Y68435D01*
X-240089Y68318D01*
X-240918Y67975D01*
X-241629Y67429D01*
X-242175Y66718D01*
X-242518Y65889D01*
X-242635Y65000D01*
X-242518Y64111D01*
X-242175Y63282D01*
X-241629Y62571D01*
X-240918Y62025D01*
X-240089Y61682D01*
X-239200Y61565D01*
X-238311Y61682D01*
X-237766Y61908D01*
X-234629Y58771D01*
X-234249Y58517D01*
X-233800Y58428D01*
X-213700D01*
X-213622Y58443D01*
X-213376Y57982D01*
X-215786Y55572D01*
X-216476D01*
X-216649Y55989D01*
X-217153Y56647D01*
X-217811Y57152D01*
X-218578Y57469D01*
X-219400Y57577D01*
X-220222Y57469D01*
X-220989Y57152D01*
X-221647Y56647D01*
X-222151Y55989D01*
X-222469Y55222D01*
X-222577Y54400D01*
X-222469Y53578D01*
X-222151Y52811D01*
X-221647Y52153D01*
X-220989Y51648D01*
X-220222Y51331D01*
X-219400Y51223D01*
X-218578Y51331D01*
X-217811Y51648D01*
X-217153Y52153D01*
X-216649Y52811D01*
X-216476Y53228D01*
X-215300D01*
X-214851Y53317D01*
X-214471Y53571D01*
X-206462Y61579D01*
X-131740D01*
Y58362D01*
Y53401D01*
Y48441D01*
Y43480D01*
Y39121D01*
X-200163D01*
X-206703Y45662D01*
X-206531Y46078D01*
X-206423Y46900D01*
X-206531Y47722D01*
X-206849Y48489D01*
X-207353Y49147D01*
X-208011Y49652D01*
X-208778Y49969D01*
X-209600Y50077D01*
X-210422Y49969D01*
X-211189Y49652D01*
X-211847Y49147D01*
X-212351Y48489D01*
X-212669Y47722D01*
X-212777Y46900D01*
X-212669Y46078D01*
X-212351Y45311D01*
X-211847Y44653D01*
X-211189Y44148D01*
X-210422Y43831D01*
X-209600Y43723D01*
X-208778Y43831D01*
X-208362Y44003D01*
X-201478Y37120D01*
X-201097Y36865D01*
X-200649Y36776D01*
X-131740D01*
Y31905D01*
Y27547D01*
X-204888D01*
X-218003Y40662D01*
X-217831Y41078D01*
X-217723Y41900D01*
X-217831Y42722D01*
X-218148Y43489D01*
X-218653Y44147D01*
X-219311Y44651D01*
X-220078Y44969D01*
X-220900Y45077D01*
X-221722Y44969D01*
X-222489Y44651D01*
X-223147Y44147D01*
X-223652Y43489D01*
X-223969Y42722D01*
X-224077Y41900D01*
X-223969Y41078D01*
X-223652Y40311D01*
X-223147Y39653D01*
X-222489Y39149D01*
X-221722Y38831D01*
X-220900Y38723D01*
X-220078Y38831D01*
X-219662Y39003D01*
X-207013Y26355D01*
X-207205Y25893D01*
X-214035D01*
X-229203Y41062D01*
X-229031Y41478D01*
X-228923Y42300D01*
X-229031Y43122D01*
X-229348Y43889D01*
X-229853Y44547D01*
X-230511Y45052D01*
X-231278Y45369D01*
X-232100Y45477D01*
X-232922Y45369D01*
X-233689Y45052D01*
X-234347Y44547D01*
X-234852Y43889D01*
X-235169Y43122D01*
X-235277Y42300D01*
X-235169Y41478D01*
X-234852Y40711D01*
X-234347Y40053D01*
X-233689Y39549D01*
X-232922Y39231D01*
X-232100Y39123D01*
X-231278Y39231D01*
X-230862Y39403D01*
X-216160Y24701D01*
X-216351Y24239D01*
X-224562D01*
X-224748Y24689D01*
X-225253Y25347D01*
X-225911Y25852D01*
X-226678Y26169D01*
X-227500Y26277D01*
X-228322Y26169D01*
X-229089Y25852D01*
X-229747Y25347D01*
X-230252Y24689D01*
X-230569Y23922D01*
X-230677Y23100D01*
X-230569Y22278D01*
X-230252Y21511D01*
X-229747Y20853D01*
X-229089Y20348D01*
X-228322Y20031D01*
X-227500Y19923D01*
X-226678Y20031D01*
X-225911Y20348D01*
X-225253Y20853D01*
X-224748Y21511D01*
X-224590Y21894D01*
X-214817D01*
X-214626Y21432D01*
X-241529Y-5471D01*
X-241783Y-5851D01*
X-241873Y-6300D01*
Y-113597D01*
X-244303D01*
Y-120803D01*
X-237097D01*
Y-113597D01*
X-239528D01*
Y-6786D01*
X-212501Y20241D01*
X-205671D01*
X-205479Y19779D01*
X-214662Y10597D01*
X-215078Y10769D01*
X-215900Y10877D01*
X-216722Y10769D01*
X-217489Y10452D01*
X-218147Y9947D01*
X-218652Y9289D01*
X-218969Y8522D01*
X-219077Y7700D01*
X-218969Y6878D01*
X-218652Y6111D01*
X-218147Y5453D01*
X-217489Y4949D01*
X-216722Y4631D01*
X-215900Y4523D01*
X-215078Y4631D01*
X-214311Y4949D01*
X-213653Y5453D01*
X-213148Y6111D01*
X-212831Y6878D01*
X-212723Y7700D01*
X-212831Y8522D01*
X-213003Y8938D01*
X-203355Y18587D01*
X-194124D01*
X-193933Y18125D01*
X-238029Y-25971D01*
X-238283Y-26351D01*
X-238372Y-26800D01*
Y-110700D01*
X-238283Y-111149D01*
X-238029Y-111529D01*
X-233943Y-115615D01*
X-234210Y-116260D01*
X-234334Y-117200D01*
X-234210Y-118140D01*
X-233847Y-119017D01*
X-233270Y-119770D01*
X-232517Y-120347D01*
X-231641Y-120710D01*
X-230700Y-120834D01*
X-229760Y-120710D01*
X-228883Y-120347D01*
X-228131Y-119770D01*
X-227553Y-119017D01*
X-227190Y-118140D01*
X-227066Y-117200D01*
X-227190Y-116260D01*
X-227553Y-115383D01*
X-228131Y-114630D01*
X-228883Y-114053D01*
X-229760Y-113690D01*
X-230700Y-113566D01*
X-231641Y-113690D01*
X-232285Y-113957D01*
X-236028Y-110214D01*
Y-27286D01*
X-191808Y16934D01*
X-164487D01*
X-164073Y16453D01*
Y-98914D01*
X-179115Y-113957D01*
X-179760Y-113690D01*
X-180700Y-113566D01*
X-181641Y-113690D01*
X-182517Y-114053D01*
X-183270Y-114630D01*
X-183847Y-115383D01*
X-184210Y-116260D01*
X-184334Y-117200D01*
X-184210Y-118140D01*
X-183847Y-119017D01*
X-183270Y-119770D01*
X-182517Y-120347D01*
X-181641Y-120710D01*
X-180700Y-120834D01*
X-179760Y-120710D01*
X-178883Y-120347D01*
X-178130Y-119770D01*
X-177553Y-119017D01*
X-177190Y-118140D01*
X-177066Y-117200D01*
X-177190Y-116260D01*
X-177457Y-115615D01*
X-162071Y-100229D01*
X-161817Y-99849D01*
X-161727Y-99400D01*
Y15280D01*
X-125361D01*
X-124913Y15370D01*
X-124912Y15370D01*
X-119051D01*
X-118983Y15370D01*
X-118551D01*
X-118483Y15370D01*
X-105794D01*
Y20170D01*
X-96342D01*
X-96152Y19711D01*
X-95647Y19053D01*
X-94989Y18549D01*
X-94222Y18231D01*
X-93400Y18123D01*
X-92578Y18231D01*
X-91811Y18549D01*
X-91153Y19053D01*
X-90649Y19711D01*
X-90331Y20478D01*
X-90223Y21300D01*
X-90331Y22122D01*
X-90649Y22889D01*
X-91153Y23547D01*
X-91811Y24051D01*
X-92578Y24369D01*
X-93400Y24477D01*
X-94222Y24369D01*
X-94989Y24051D01*
X-95647Y23547D01*
X-96152Y22889D01*
X-96306Y22515D01*
X-101073D01*
X-101264Y22977D01*
X-99538Y24703D01*
X-99122Y24531D01*
X-98300Y24423D01*
X-97478Y24531D01*
X-96711Y24848D01*
X-96053Y25353D01*
X-95548Y26011D01*
X-95231Y26778D01*
X-95123Y27600D01*
X-95231Y28422D01*
X-95548Y29189D01*
X-96053Y29847D01*
X-96711Y30351D01*
X-97478Y30669D01*
X-98300Y30777D01*
X-99122Y30669D01*
X-99889Y30351D01*
X-100547Y29847D01*
X-101051Y29189D01*
X-101369Y28422D01*
X-101477Y27600D01*
X-101369Y26778D01*
X-101197Y26362D01*
X-103319Y24239D01*
X-105794D01*
Y28598D01*
Y33469D01*
X-97827D01*
X-88973Y24614D01*
Y15400D01*
X-88883Y14951D01*
X-88629Y14571D01*
X-84229Y10171D01*
X-83849Y9917D01*
X-83400Y9827D01*
X-79424D01*
X-79251Y9411D01*
X-78747Y8753D01*
X-78089Y8248D01*
X-77322Y7931D01*
X-76500Y7823D01*
X-75678Y7931D01*
X-74911Y8248D01*
X-74253Y8753D01*
X-73748Y9411D01*
X-73431Y10178D01*
X-73323Y11000D01*
X-73431Y11822D01*
X-73748Y12589D01*
X-74253Y13247D01*
X-74911Y13751D01*
X-75327Y13924D01*
Y23500D01*
X-75417Y23949D01*
X-75671Y24329D01*
X-89228Y37886D01*
X-89043Y38357D01*
X-88656Y38398D01*
X-72473Y22214D01*
Y21224D01*
X-72889Y21052D01*
X-73547Y20547D01*
X-74051Y19889D01*
X-74369Y19122D01*
X-74477Y18300D01*
X-74369Y17478D01*
X-74051Y16711D01*
X-73547Y16053D01*
X-72889Y15549D01*
X-72122Y15231D01*
X-71300Y15123D01*
X-70478Y15231D01*
X-69711Y15549D01*
X-69053Y16053D01*
X-68549Y16711D01*
X-68231Y17478D01*
X-68123Y18300D01*
X-68231Y19122D01*
X-68549Y19889D01*
X-69053Y20547D01*
X-69711Y21052D01*
X-70127Y21224D01*
Y22700D01*
X-70217Y23149D01*
X-70471Y23529D01*
X-87373Y40431D01*
X-87754Y40686D01*
X-88202Y40775D01*
X-105794D01*
Y43391D01*
X-99837D01*
X-99388Y43480D01*
X-99008Y43734D01*
X-95871Y46871D01*
X-95617Y47251D01*
X-95527Y47700D01*
Y75976D01*
X-95111Y76148D01*
X-94453Y76653D01*
X-93949Y77311D01*
X-93631Y78078D01*
X-93523Y78900D01*
X-93631Y79722D01*
X-93949Y80489D01*
X-94453Y81147D01*
X-95111Y81652D01*
X-95878Y81969D01*
X-96700Y82077D01*
X-97522Y81969D01*
X-98289Y81652D01*
X-98947Y81147D01*
X-99452Y80489D01*
X-99769Y79722D01*
X-99877Y78900D01*
X-99769Y78078D01*
X-99452Y77311D01*
X-98947Y76653D01*
X-98289Y76148D01*
X-97873Y75976D01*
Y48186D01*
X-100323Y45735D01*
X-105794D01*
Y50094D01*
Y55055D01*
Y59665D01*
X-105444D01*
Y60598D01*
X-112172D01*
Y61598D01*
X-105444D01*
Y62252D01*
X-112172D01*
Y63252D01*
X-105444D01*
Y63906D01*
X-112172D01*
Y64906D01*
X-105444D01*
Y65559D01*
X-112172D01*
Y66559D01*
X-105444D01*
Y67492D01*
X-105444D01*
Y67933D01*
X-105444D01*
Y68866D01*
X-112172D01*
Y69866D01*
X-105444D01*
Y70799D01*
X-105444D01*
Y71240D01*
X-105444D01*
Y72173D01*
X-112172D01*
Y72673D01*
X-112672D01*
Y74106D01*
X-118628D01*
X-118901Y74106D01*
X-119256Y73756D01*
X-119401Y73756D01*
X-124912D01*
X-124913Y73756D01*
X-125361Y73846D01*
X-197588D01*
X-207628Y83886D01*
Y91614D01*
X-195622Y103620D01*
X-195200Y103565D01*
X-194311Y103682D01*
X-193482Y104025D01*
X-192771Y104571D01*
X-192225Y105282D01*
X-191882Y106111D01*
X-191765Y107000D01*
X-191882Y107889D01*
X-192225Y108718D01*
X-192771Y109429D01*
X-193482Y109975D01*
X-194311Y110318D01*
X-195200Y110435D01*
D02*
G37*
G36*
X-59100Y123672D02*
X-210800D01*
X-211249Y123583D01*
X-211629Y123329D01*
X-231229Y103729D01*
X-231483Y103349D01*
X-231573Y102900D01*
Y98201D01*
X-232118Y97975D01*
X-232829Y97429D01*
X-233375Y96718D01*
X-233718Y95889D01*
X-233835Y95000D01*
X-233718Y94111D01*
X-233375Y93282D01*
X-232829Y92571D01*
X-232118Y92025D01*
X-231289Y91682D01*
X-230400Y91565D01*
X-229511Y91682D01*
X-228682Y92025D01*
X-227971Y92571D01*
X-227425Y93282D01*
X-227082Y94111D01*
X-226965Y95000D01*
X-227082Y95889D01*
X-227425Y96718D01*
X-227971Y97429D01*
X-228682Y97975D01*
X-229227Y98201D01*
Y102414D01*
X-210314Y121327D01*
X-59586D01*
X-35972Y97714D01*
Y94532D01*
X-40143D01*
Y94895D01*
X-44592D01*
Y92686D01*
X-44943D01*
Y91300D01*
X-42368D01*
X-39793D01*
Y92186D01*
X-35972D01*
Y52832D01*
X-45443D01*
Y53195D01*
X-49893D01*
Y50986D01*
X-50243D01*
Y49600D01*
X-47668D01*
X-45093D01*
Y50486D01*
X-35972D01*
Y16886D01*
X-47927Y4932D01*
X-50643D01*
Y5295D01*
X-55093D01*
Y3086D01*
X-55443D01*
Y1700D01*
X-52868D01*
X-50293D01*
Y2586D01*
X-47441D01*
X-46992Y2676D01*
X-46612Y2930D01*
X-33971Y15571D01*
X-33717Y15951D01*
X-33628Y16400D01*
Y98200D01*
X-33717Y98649D01*
X-33971Y99029D01*
X-58271Y123329D01*
X-58651Y123583D01*
X-59100Y123672D01*
D02*
G37*
G36*
X-239200Y98435D02*
X-240089Y98318D01*
X-240918Y97975D01*
X-241629Y97429D01*
X-242175Y96718D01*
X-242518Y95889D01*
X-242635Y95000D01*
X-242518Y94111D01*
X-242175Y93282D01*
X-241629Y92571D01*
X-240918Y92025D01*
X-240089Y91682D01*
X-239200Y91565D01*
X-238311Y91682D01*
X-237482Y92025D01*
X-236771Y92571D01*
X-236225Y93282D01*
X-235882Y94111D01*
X-235765Y95000D01*
X-235882Y95889D01*
X-236225Y96718D01*
X-236771Y97429D01*
X-237482Y97975D01*
X-238311Y98318D01*
X-239200Y98435D01*
D02*
G37*
G36*
X-84200Y118473D02*
X-206300D01*
X-206749Y118383D01*
X-207129Y118129D01*
X-219062Y106197D01*
X-219478Y106369D01*
X-220300Y106477D01*
X-221122Y106369D01*
X-221889Y106052D01*
X-222547Y105547D01*
X-223052Y104889D01*
X-223369Y104122D01*
X-223477Y103300D01*
X-223369Y102478D01*
X-223052Y101711D01*
X-222547Y101053D01*
X-221889Y100549D01*
X-221122Y100231D01*
X-220300Y100123D01*
X-219478Y100231D01*
X-218711Y100549D01*
X-218053Y101053D01*
X-217548Y101711D01*
X-217231Y102478D01*
X-217123Y103300D01*
X-217231Y104122D01*
X-217403Y104538D01*
X-205814Y116128D01*
X-87684D01*
X-87493Y115665D01*
X-95829Y107329D01*
X-96083Y106949D01*
X-96172Y106500D01*
Y91501D01*
X-96718Y91275D01*
X-97429Y90729D01*
X-97975Y90018D01*
X-98318Y89189D01*
X-98435Y88300D01*
X-98318Y87411D01*
X-97975Y86582D01*
X-97429Y85871D01*
X-96718Y85325D01*
X-95889Y84982D01*
X-95000Y84865D01*
X-94402Y84943D01*
X-61117Y51659D01*
X-67029Y45747D01*
X-67283Y45367D01*
X-67373Y44918D01*
Y4799D01*
X-67688Y4588D01*
X-103829Y-31553D01*
X-104083Y-31933D01*
X-104173Y-32382D01*
Y-90814D01*
X-109366Y-96008D01*
X-109911Y-95782D01*
X-110800Y-95665D01*
X-111689Y-95782D01*
X-112518Y-96125D01*
X-113229Y-96671D01*
X-113775Y-97382D01*
X-114118Y-98211D01*
X-114235Y-99100D01*
X-114118Y-99989D01*
X-113775Y-100818D01*
X-113229Y-101529D01*
X-112518Y-102075D01*
X-111689Y-102418D01*
X-110800Y-102535D01*
X-109911Y-102418D01*
X-109082Y-102075D01*
X-108371Y-101529D01*
X-107825Y-100818D01*
X-107482Y-99989D01*
X-107365Y-99100D01*
X-107482Y-98211D01*
X-107708Y-97666D01*
X-102171Y-92129D01*
X-101917Y-91749D01*
X-101828Y-91300D01*
Y-32868D01*
X-66345Y2615D01*
X-66200Y2586D01*
X-63907D01*
Y1700D01*
X-61332D01*
X-58758D01*
Y3086D01*
X-59108D01*
Y5295D01*
X-63557D01*
Y4932D01*
X-65027D01*
Y38778D01*
X-64527Y38878D01*
X-64252Y38211D01*
X-63747Y37553D01*
X-63089Y37049D01*
X-62322Y36731D01*
X-61500Y36623D01*
X-60678Y36731D01*
X-59911Y37049D01*
X-59253Y37553D01*
X-58749Y38211D01*
X-58431Y38978D01*
X-58323Y39800D01*
X-58431Y40622D01*
X-58749Y41389D01*
X-59253Y42047D01*
X-59911Y42551D01*
X-60328Y42724D01*
Y45114D01*
X-60073Y45368D01*
X-58357D01*
Y45005D01*
X-53908D01*
Y47214D01*
X-53557D01*
Y48600D01*
X-56132D01*
Y49600D01*
X-53557D01*
Y50986D01*
X-53908D01*
Y53195D01*
X-58357D01*
Y52832D01*
X-58973D01*
X-92329Y86187D01*
X-92025Y86582D01*
X-91682Y87411D01*
X-91565Y88300D01*
X-91682Y89189D01*
X-92025Y90018D01*
X-92571Y90729D01*
X-93282Y91275D01*
X-93827Y91501D01*
Y106014D01*
X-84200Y115642D01*
X-61088Y92530D01*
X-60708Y92276D01*
X-60259Y92186D01*
X-53407D01*
Y91300D01*
X-50832D01*
X-48257D01*
Y92686D01*
X-48608D01*
Y94895D01*
X-53057D01*
Y94532D01*
X-59773D01*
X-83371Y118129D01*
X-83371Y118129D01*
X-83751Y118383D01*
X-84200Y118473D01*
D02*
G37*
G36*
X12800Y93125D02*
Y90300D01*
X15625D01*
X15576Y90678D01*
X15237Y91496D01*
X14698Y92198D01*
X13996Y92737D01*
X13178Y93076D01*
X12800Y93125D01*
D02*
G37*
G36*
X11800D02*
X11422Y93076D01*
X10604Y92737D01*
X9902Y92198D01*
X9363Y91496D01*
X9024Y90678D01*
X8975Y90300D01*
X11800D01*
Y93125D01*
D02*
G37*
G36*
X-65000Y91735D02*
X-65889Y91618D01*
X-66718Y91275D01*
X-67429Y90729D01*
X-67975Y90018D01*
X-68318Y89189D01*
X-68435Y88300D01*
X-68318Y87411D01*
X-67975Y86582D01*
X-67429Y85871D01*
X-66718Y85325D01*
X-65889Y84982D01*
X-65000Y84865D01*
X-64111Y84982D01*
X-63282Y85325D01*
X-62571Y85871D01*
X-62025Y86582D01*
X-61799Y87128D01*
X-53057D01*
Y86705D01*
X-48608D01*
Y88914D01*
X-48257D01*
Y90300D01*
X-50832D01*
X-53407D01*
Y89473D01*
X-61799D01*
X-62025Y90018D01*
X-62571Y90729D01*
X-63282Y91275D01*
X-64111Y91618D01*
X-65000Y91735D01*
D02*
G37*
G36*
X15625Y89300D02*
X12800D01*
Y86475D01*
X13178Y86524D01*
X13996Y86863D01*
X14698Y87402D01*
X15237Y88104D01*
X15576Y88922D01*
X15625Y89300D01*
D02*
G37*
G36*
X11800D02*
X8975D01*
X9024Y88922D01*
X9363Y88104D01*
X9902Y87402D01*
X10604Y86863D01*
X11422Y86524D01*
X11800Y86475D01*
Y89300D01*
D02*
G37*
G36*
X81900Y93534D02*
X80959Y93410D01*
X80083Y93047D01*
X79330Y92470D01*
X78753Y91717D01*
X78390Y90841D01*
X78266Y89900D01*
X78390Y88959D01*
X78753Y88083D01*
X79330Y87331D01*
X80083Y86753D01*
X80959Y86390D01*
X81900Y86266D01*
X82841Y86390D01*
X83717Y86753D01*
X84469Y87331D01*
X85047Y88083D01*
X85410Y88959D01*
X85534Y89900D01*
X85410Y90841D01*
X85047Y91717D01*
X84469Y92470D01*
X83717Y93047D01*
X82841Y93410D01*
X81900Y93534D01*
D02*
G37*
G36*
X-105800Y94772D02*
X-138600D01*
X-139049Y94683D01*
X-139429Y94429D01*
X-139683Y94049D01*
X-139772Y93600D01*
X-139683Y93151D01*
X-139429Y92771D01*
X-139049Y92517D01*
X-138600Y92427D01*
X-118556D01*
X-118507Y91927D01*
X-119162Y91797D01*
X-119222Y91772D01*
X-119286Y91759D01*
X-120361Y91314D01*
X-120415Y91278D01*
X-120476Y91253D01*
X-121443Y90607D01*
X-121489Y90561D01*
X-121543Y90524D01*
X-122366Y89702D01*
X-122402Y89647D01*
X-122448Y89601D01*
X-123095Y88634D01*
X-123120Y88574D01*
X-123156Y88519D01*
X-123601Y87445D01*
X-123614Y87381D01*
X-123639Y87320D01*
X-123866Y86179D01*
Y86114D01*
X-123879Y86050D01*
Y84887D01*
X-123866Y84823D01*
Y84758D01*
X-123639Y83617D01*
X-123614Y83556D01*
X-123601Y83492D01*
X-123156Y82418D01*
X-123120Y82363D01*
X-123095Y82303D01*
X-122448Y81336D01*
X-122402Y81290D01*
X-122366Y81235D01*
X-121543Y80413D01*
X-121489Y80376D01*
X-121443Y80330D01*
X-120476Y79684D01*
X-120415Y79659D01*
X-120361Y79623D01*
X-119286Y79178D01*
X-119222Y79165D01*
X-119162Y79140D01*
X-118021Y78913D01*
X-117956D01*
X-117892Y78900D01*
X-116729D01*
X-116665Y78913D01*
X-116599D01*
X-115458Y79140D01*
X-115398Y79165D01*
X-115334Y79178D01*
X-114259Y79623D01*
X-114205Y79659D01*
X-114145Y79684D01*
X-113178Y80330D01*
X-113131Y80376D01*
X-113077Y80413D01*
X-112255Y81235D01*
X-112218Y81290D01*
X-112172Y81336D01*
X-111526Y82303D01*
X-111501Y82363D01*
X-111465Y82418D01*
X-111019Y83492D01*
X-111007Y83556D01*
X-110982Y83617D01*
X-110755Y84758D01*
Y84823D01*
X-110742Y84887D01*
Y86050D01*
X-110755Y86114D01*
Y86179D01*
X-110982Y87320D01*
X-111007Y87381D01*
X-111019Y87445D01*
X-111465Y88519D01*
X-111501Y88574D01*
X-111526Y88634D01*
X-112172Y89601D01*
X-112218Y89647D01*
X-112255Y89702D01*
X-113077Y90524D01*
X-113131Y90561D01*
X-113178Y90607D01*
X-114145Y91253D01*
X-114205Y91278D01*
X-114259Y91314D01*
X-115334Y91759D01*
X-115398Y91772D01*
X-115458Y91797D01*
X-116114Y91927D01*
X-116065Y92427D01*
X-106973D01*
Y85700D01*
X-106883Y85251D01*
X-106629Y84871D01*
X-106249Y84617D01*
X-105800Y84527D01*
X-105351Y84617D01*
X-104971Y84871D01*
X-104717Y85251D01*
X-104628Y85700D01*
Y93600D01*
X-104717Y94049D01*
X-104971Y94429D01*
X-105351Y94683D01*
X-105800Y94772D01*
D02*
G37*
G36*
X81900Y83534D02*
X80959Y83410D01*
X80083Y83047D01*
X79330Y82469D01*
X78753Y81717D01*
X78390Y80840D01*
X78266Y79900D01*
X78390Y78960D01*
X78753Y78083D01*
X79330Y77330D01*
X80083Y76753D01*
X80959Y76390D01*
X81900Y76266D01*
X82841Y76390D01*
X83717Y76753D01*
X84469Y77330D01*
X85047Y78083D01*
X85410Y78960D01*
X85534Y79900D01*
X85410Y80840D01*
X85047Y81717D01*
X84469Y82469D01*
X83717Y83047D01*
X82841Y83410D01*
X81900Y83534D01*
D02*
G37*
G36*
X-111672Y74106D02*
Y73173D01*
X-105444D01*
Y74106D01*
X-111672D01*
D02*
G37*
G36*
X-39793Y90300D02*
X-42368D01*
X-44943D01*
Y88914D01*
X-44592D01*
Y86705D01*
X-40143D01*
Y87068D01*
X-38972D01*
Y75586D01*
X-41962Y72597D01*
X-42378Y72769D01*
X-43200Y72877D01*
X-44022Y72769D01*
X-44789Y72452D01*
X-45447Y71947D01*
X-45952Y71289D01*
X-46269Y70522D01*
X-46377Y69700D01*
X-46269Y68878D01*
X-45952Y68111D01*
X-45447Y67453D01*
X-44789Y66948D01*
X-44022Y66631D01*
X-43200Y66523D01*
X-42378Y66631D01*
X-41611Y66948D01*
X-40953Y67453D01*
X-40448Y68111D01*
X-40131Y68878D01*
X-40023Y69700D01*
X-40131Y70522D01*
X-40303Y70938D01*
X-36971Y74271D01*
X-36717Y74651D01*
X-36628Y75100D01*
Y87600D01*
X-36717Y88049D01*
X-36971Y88429D01*
X-37612Y89070D01*
X-37992Y89324D01*
X-38441Y89413D01*
X-39793D01*
Y90300D01*
D02*
G37*
G36*
X81900Y73534D02*
X80959Y73410D01*
X80083Y73047D01*
X79330Y72470D01*
X78753Y71717D01*
X78390Y70841D01*
X78266Y69900D01*
X78390Y68959D01*
X78753Y68083D01*
X79330Y67330D01*
X80083Y66753D01*
X80959Y66390D01*
X81900Y66266D01*
X82841Y66390D01*
X83717Y66753D01*
X84469Y67330D01*
X85047Y68083D01*
X85410Y68959D01*
X85534Y69900D01*
X85410Y70841D01*
X85047Y71717D01*
X84469Y72470D01*
X83717Y73047D01*
X82841Y73410D01*
X81900Y73534D01*
D02*
G37*
G36*
X-17000Y73135D02*
X-17889Y73018D01*
X-18718Y72675D01*
X-19429Y72129D01*
X-19975Y71418D01*
X-20318Y70589D01*
X-20435Y69700D01*
X-20318Y68811D01*
X-19975Y67982D01*
X-19429Y67271D01*
X-18718Y66725D01*
X-17889Y66382D01*
X-17000Y66265D01*
X-16111Y66382D01*
X-15282Y66725D01*
X-14571Y67271D01*
X-14025Y67982D01*
X-13682Y68811D01*
X-13565Y69700D01*
X-13682Y70589D01*
X-14025Y71418D01*
X-14571Y72129D01*
X-15282Y72675D01*
X-16111Y73018D01*
X-17000Y73135D01*
D02*
G37*
G36*
X107445Y94948D02*
X88150D01*
Y85748D01*
X88150Y85650D01*
Y85248D01*
X88150Y85150D01*
Y76048D01*
X88150Y75950D01*
Y75548D01*
X88150Y75450D01*
Y66250D01*
X113443D01*
Y75450D01*
X113443Y75548D01*
X113680Y75950D01*
X125439D01*
Y85248D01*
X107682D01*
X107445Y85650D01*
X107445Y85748D01*
Y94948D01*
D02*
G37*
G36*
X81900Y63534D02*
X80959Y63410D01*
X80083Y63047D01*
X79330Y62470D01*
X78753Y61717D01*
X78390Y60840D01*
X78266Y59900D01*
X78390Y58960D01*
X78753Y58083D01*
X79330Y57331D01*
X80083Y56753D01*
X80959Y56390D01*
X81900Y56266D01*
X82841Y56390D01*
X83717Y56753D01*
X84469Y57331D01*
X85047Y58083D01*
X85410Y58960D01*
X85534Y59900D01*
X85410Y60840D01*
X85047Y61717D01*
X84469Y62470D01*
X83717Y63047D01*
X82841Y63410D01*
X81900Y63534D01*
D02*
G37*
G36*
X107445Y64848D02*
X88150D01*
Y55550D01*
X107445D01*
Y64848D01*
D02*
G37*
G36*
X81900Y53534D02*
X80959Y53410D01*
X80083Y53047D01*
X79330Y52469D01*
X78753Y51717D01*
X78390Y50841D01*
X78266Y49900D01*
X78390Y48959D01*
X78753Y48083D01*
X79330Y47330D01*
X80083Y46753D01*
X80959Y46390D01*
X81900Y46266D01*
X82841Y46390D01*
X83717Y46753D01*
X84469Y47330D01*
X85047Y48083D01*
X85410Y48959D01*
X85534Y49900D01*
X85410Y50841D01*
X85047Y51717D01*
X84469Y52469D01*
X83717Y53047D01*
X82841Y53410D01*
X81900Y53534D01*
D02*
G37*
G36*
X107445Y54648D02*
X88150D01*
Y45350D01*
X107445D01*
Y54648D01*
D02*
G37*
G36*
X85853Y43853D02*
X82400D01*
Y40400D01*
X85853D01*
Y43853D01*
D02*
G37*
G36*
X81400D02*
X77947D01*
Y40400D01*
X81400D01*
Y43853D01*
D02*
G37*
G36*
X-17000Y43135D02*
X-17889Y43018D01*
X-18718Y42675D01*
X-19429Y42129D01*
X-19975Y41418D01*
X-20318Y40589D01*
X-20435Y39700D01*
X-20318Y38811D01*
X-19975Y37982D01*
X-19429Y37271D01*
X-18718Y36725D01*
X-17889Y36382D01*
X-17000Y36265D01*
X-16111Y36382D01*
X-15282Y36725D01*
X-14571Y37271D01*
X-14025Y37982D01*
X-13682Y38811D01*
X-13565Y39700D01*
X-13682Y40589D01*
X-14025Y41418D01*
X-14571Y42129D01*
X-15282Y42675D01*
X-16111Y43018D01*
X-17000Y43135D01*
D02*
G37*
G36*
X85853Y39400D02*
X82400D01*
Y35947D01*
X85853D01*
Y39400D01*
D02*
G37*
G36*
X81400D02*
X77947D01*
Y35947D01*
X81400D01*
Y39400D01*
D02*
G37*
G36*
X107445Y44348D02*
X88150D01*
Y35050D01*
X107445D01*
Y44348D01*
D02*
G37*
G36*
X-45093Y48600D02*
X-47668D01*
X-50243D01*
Y47214D01*
X-49893D01*
Y45005D01*
X-45443D01*
Y45368D01*
X-43314D01*
Y35645D01*
X-44062Y34897D01*
X-44478Y35069D01*
X-45300Y35177D01*
X-46122Y35069D01*
X-46889Y34751D01*
X-47547Y34247D01*
X-48052Y33589D01*
X-48369Y32822D01*
X-48477Y32000D01*
X-48369Y31178D01*
X-48052Y30411D01*
X-47547Y29753D01*
X-46889Y29248D01*
X-46122Y28931D01*
X-45300Y28823D01*
X-44478Y28931D01*
X-43711Y29248D01*
X-43053Y29753D01*
X-42548Y30411D01*
X-42231Y31178D01*
X-42123Y32000D01*
X-42231Y32822D01*
X-42403Y33238D01*
X-41312Y34330D01*
X-41058Y34710D01*
X-40968Y35159D01*
Y46541D01*
X-41058Y46990D01*
X-41312Y47370D01*
X-41692Y47624D01*
X-42141Y47714D01*
X-45093D01*
Y48600D01*
D02*
G37*
G36*
X-50293Y700D02*
X-52868D01*
X-55443D01*
Y-686D01*
X-55093D01*
Y-2895D01*
X-50643D01*
Y-2532D01*
X-47127D01*
X-46558Y-3100D01*
X-61886Y-18428D01*
X-70337D01*
X-70436Y-17928D01*
X-70011Y-17752D01*
X-69353Y-17247D01*
X-68849Y-16589D01*
X-68531Y-15822D01*
X-68423Y-15000D01*
X-68531Y-14178D01*
X-68849Y-13411D01*
X-69353Y-12753D01*
X-70011Y-12248D01*
X-70428Y-12076D01*
Y-6286D01*
X-66673Y-2532D01*
X-63557D01*
Y-2895D01*
X-59108D01*
Y-686D01*
X-58758D01*
Y700D01*
X-61332D01*
X-63907D01*
Y-186D01*
X-67159D01*
X-67608Y-276D01*
X-67988Y-530D01*
X-72429Y-4971D01*
X-72683Y-5351D01*
X-72773Y-5800D01*
Y-12076D01*
X-73189Y-12248D01*
X-73847Y-12753D01*
X-74352Y-13411D01*
X-74669Y-14178D01*
X-74777Y-15000D01*
X-74669Y-15822D01*
X-74352Y-16589D01*
X-73847Y-17247D01*
X-73189Y-17752D01*
X-72764Y-17928D01*
X-72863Y-18428D01*
X-84800D01*
X-85249Y-18517D01*
X-85629Y-18771D01*
X-100129Y-33271D01*
X-100383Y-33651D01*
X-100472Y-34100D01*
Y-77900D01*
X-100383Y-78349D01*
X-100129Y-78729D01*
X-91429Y-87429D01*
X-91049Y-87683D01*
X-90600Y-87773D01*
X-77014D01*
X-76747Y-88417D01*
X-76170Y-89170D01*
X-75417Y-89747D01*
X-74541Y-90110D01*
X-73600Y-90234D01*
X-72659Y-90110D01*
X-71783Y-89747D01*
X-71030Y-89170D01*
X-70453Y-88417D01*
X-70090Y-87541D01*
X-69966Y-86600D01*
X-70090Y-85659D01*
X-70453Y-84783D01*
X-71030Y-84030D01*
X-71783Y-83453D01*
X-72659Y-83090D01*
X-73600Y-82966D01*
X-74541Y-83090D01*
X-75417Y-83453D01*
X-76170Y-84030D01*
X-76747Y-84783D01*
X-77014Y-85427D01*
X-90114D01*
X-98128Y-77414D01*
Y-34586D01*
X-84314Y-20773D01*
X-61400D01*
X-60951Y-20683D01*
X-60571Y-20429D01*
X-44071Y-3929D01*
X-44071Y-3929D01*
X-43817Y-3549D01*
X-43727Y-3100D01*
X-43817Y-2651D01*
X-44071Y-2271D01*
X-45812Y-530D01*
X-46192Y-276D01*
X-46641Y-186D01*
X-50293D01*
Y700D01*
D02*
G37*
G36*
X-125657Y-8152D02*
X-149950D01*
Y-19449D01*
X-125657D01*
Y-8152D01*
D02*
G37*
G36*
X32300Y1173D02*
X-500D01*
X-949Y1083D01*
X-1329Y829D01*
X-1583Y449D01*
X-1672Y0D01*
Y-32800D01*
X-1583Y-33249D01*
X-1329Y-33629D01*
X-949Y-33883D01*
X-500Y-33972D01*
X-51Y-33883D01*
X329Y-33629D01*
X583Y-33249D01*
X673Y-32800D01*
Y-1173D01*
X32300D01*
X32749Y-1083D01*
X33129Y-829D01*
X33383Y-449D01*
X33472Y0D01*
X33383Y449D01*
X33129Y829D01*
X32749Y1083D01*
X32300Y1173D01*
D02*
G37*
G36*
X-197831Y-20916D02*
X-198994D01*
X-199058Y-20929D01*
X-199124D01*
X-200265Y-21156D01*
X-200325Y-21181D01*
X-200389Y-21193D01*
X-201464Y-21639D01*
X-201518Y-21675D01*
X-201578Y-21700D01*
X-202545Y-22346D01*
X-202591Y-22392D01*
X-202646Y-22429D01*
X-203468Y-23251D01*
X-203505Y-23305D01*
X-203551Y-23351D01*
X-204197Y-24319D01*
X-204222Y-24379D01*
X-204258Y-24433D01*
X-204703Y-25508D01*
X-204716Y-25572D01*
X-204741Y-25632D01*
X-204968Y-26773D01*
Y-26839D01*
X-204981Y-26903D01*
Y-28066D01*
X-204968Y-28130D01*
Y-28195D01*
X-204741Y-29336D01*
X-204716Y-29396D01*
X-204703Y-29460D01*
X-204258Y-30535D01*
X-204222Y-30589D01*
X-204197Y-30650D01*
X-203551Y-31617D01*
X-203505Y-31663D01*
X-203468Y-31717D01*
X-202646Y-32540D01*
X-202591Y-32576D01*
X-202545Y-32622D01*
X-201578Y-33269D01*
X-201518Y-33294D01*
X-201464Y-33330D01*
X-200389Y-33775D01*
X-200325Y-33788D01*
X-200265Y-33813D01*
X-199124Y-34040D01*
X-199058D01*
X-198994Y-34053D01*
X-197831D01*
X-197767Y-34040D01*
X-197702D01*
X-196561Y-33813D01*
X-196500Y-33788D01*
X-196436Y-33775D01*
X-195362Y-33330D01*
X-195307Y-33294D01*
X-195247Y-33269D01*
X-194280Y-32622D01*
X-194234Y-32576D01*
X-194179Y-32540D01*
X-193357Y-31717D01*
X-193321Y-31663D01*
X-193274Y-31617D01*
X-192628Y-30650D01*
X-192603Y-30589D01*
X-192567Y-30535D01*
X-192122Y-29460D01*
X-192109Y-29396D01*
X-192084Y-29336D01*
X-191857Y-28195D01*
Y-28130D01*
X-191844Y-28066D01*
Y-26903D01*
X-191857Y-26839D01*
Y-26773D01*
X-192084Y-25632D01*
X-192109Y-25572D01*
X-192122Y-25508D01*
X-192567Y-24433D01*
X-192603Y-24379D01*
X-192628Y-24319D01*
X-193274Y-23351D01*
X-193321Y-23305D01*
X-193357Y-23251D01*
X-194179Y-22429D01*
X-194234Y-22392D01*
X-194280Y-22346D01*
X-195247Y-21700D01*
X-195307Y-21675D01*
X-195362Y-21639D01*
X-196436Y-21193D01*
X-196500Y-21181D01*
X-196561Y-21156D01*
X-197702Y-20929D01*
X-197767D01*
X-197831Y-20916D01*
D02*
G37*
G36*
X-204300Y-37427D02*
X-204749Y-37517D01*
X-205129Y-37771D01*
X-205383Y-38151D01*
X-205472Y-38600D01*
Y-46500D01*
X-205383Y-46949D01*
X-205129Y-47329D01*
X-204749Y-47583D01*
X-204300Y-47673D01*
X-171500D01*
X-171051Y-47583D01*
X-170671Y-47329D01*
X-170417Y-46949D01*
X-170327Y-46500D01*
X-170417Y-46051D01*
X-170671Y-45671D01*
X-171051Y-45417D01*
X-171500Y-45327D01*
X-203128D01*
Y-38600D01*
X-203217Y-38151D01*
X-203471Y-37771D01*
X-203851Y-37517D01*
X-204300Y-37427D01*
D02*
G37*
G36*
X-186700Y-53823D02*
X-187522Y-53931D01*
X-188289Y-54248D01*
X-188947Y-54753D01*
X-189452Y-55411D01*
X-189624Y-55827D01*
X-229176D01*
X-229348Y-55411D01*
X-229853Y-54753D01*
X-230511Y-54248D01*
X-231278Y-53931D01*
X-232100Y-53823D01*
X-232922Y-53931D01*
X-233689Y-54248D01*
X-234347Y-54753D01*
X-234852Y-55411D01*
X-235169Y-56178D01*
X-235277Y-57000D01*
X-235169Y-57822D01*
X-234852Y-58589D01*
X-234347Y-59247D01*
X-233689Y-59751D01*
X-232922Y-60069D01*
X-232100Y-60177D01*
X-231278Y-60069D01*
X-230511Y-59751D01*
X-229853Y-59247D01*
X-229348Y-58589D01*
X-229176Y-58173D01*
X-189624D01*
X-189452Y-58589D01*
X-188947Y-59247D01*
X-188289Y-59751D01*
X-187522Y-60069D01*
X-186700Y-60177D01*
X-185878Y-60069D01*
X-185111Y-59751D01*
X-184453Y-59247D01*
X-183949Y-58589D01*
X-183631Y-57822D01*
X-183523Y-57000D01*
X-183631Y-56178D01*
X-183949Y-55411D01*
X-184453Y-54753D01*
X-185111Y-54248D01*
X-185878Y-53931D01*
X-186700Y-53823D01*
D02*
G37*
G36*
X-73100Y-52679D02*
Y-56100D01*
X-69679D01*
X-69749Y-55568D01*
X-70147Y-54607D01*
X-70781Y-53781D01*
X-71607Y-53147D01*
X-72568Y-52749D01*
X-73100Y-52679D01*
D02*
G37*
G36*
X-74100D02*
X-74632Y-52749D01*
X-75593Y-53147D01*
X-76419Y-53781D01*
X-77053Y-54607D01*
X-77451Y-55568D01*
X-77521Y-56100D01*
X-74100D01*
Y-52679D01*
D02*
G37*
G36*
X62545Y-48552D02*
X43250D01*
Y-57850D01*
X62545D01*
Y-48552D01*
D02*
G37*
G36*
X-69679Y-57100D02*
X-73100D01*
Y-60521D01*
X-72568Y-60451D01*
X-71607Y-60053D01*
X-70781Y-59419D01*
X-70147Y-58593D01*
X-69749Y-57632D01*
X-69679Y-57100D01*
D02*
G37*
G36*
X-74100D02*
X-77521D01*
X-77451Y-57632D01*
X-77053Y-58593D01*
X-76419Y-59419D01*
X-75593Y-60053D01*
X-74632Y-60451D01*
X-74100Y-60521D01*
Y-57100D01*
D02*
G37*
G36*
X-21900Y-57265D02*
X-22789Y-57382D01*
X-23618Y-57725D01*
X-24329Y-58271D01*
X-24875Y-58982D01*
X-25218Y-59811D01*
X-25335Y-60700D01*
X-25218Y-61589D01*
X-24875Y-62418D01*
X-24329Y-63129D01*
X-23618Y-63675D01*
X-22789Y-64018D01*
X-21900Y-64135D01*
X-21011Y-64018D01*
X-20182Y-63675D01*
X-19471Y-63129D01*
X-18925Y-62418D01*
X-18582Y-61589D01*
X-18465Y-60700D01*
X-18582Y-59811D01*
X-18925Y-58982D01*
X-19471Y-58271D01*
X-20182Y-57725D01*
X-21011Y-57382D01*
X-21900Y-57265D01*
D02*
G37*
G36*
X-210000Y-68775D02*
Y-71600D01*
X-207175D01*
X-207224Y-71222D01*
X-207563Y-70404D01*
X-208102Y-69702D01*
X-208804Y-69163D01*
X-209622Y-68824D01*
X-210000Y-68775D01*
D02*
G37*
G36*
X-211000D02*
X-211378Y-68824D01*
X-212196Y-69163D01*
X-212898Y-69702D01*
X-213437Y-70404D01*
X-213776Y-71222D01*
X-213825Y-71600D01*
X-211000D01*
Y-68775D01*
D02*
G37*
G36*
X-207175Y-72600D02*
X-210000D01*
Y-75425D01*
X-209622Y-75376D01*
X-208804Y-75037D01*
X-208102Y-74498D01*
X-207563Y-73796D01*
X-207224Y-72978D01*
X-207175Y-72600D01*
D02*
G37*
G36*
X-211000D02*
X-213825D01*
X-213776Y-72978D01*
X-213437Y-73796D01*
X-212898Y-74498D01*
X-212196Y-75037D01*
X-211378Y-75376D01*
X-211000Y-75425D01*
Y-72600D01*
D02*
G37*
G36*
X-73600Y-72966D02*
X-74541Y-73090D01*
X-75417Y-73453D01*
X-76170Y-74031D01*
X-76747Y-74783D01*
X-77110Y-75660D01*
X-77234Y-76600D01*
X-77110Y-77540D01*
X-76747Y-78417D01*
X-76170Y-79169D01*
X-75417Y-79747D01*
X-74541Y-80110D01*
X-73600Y-80234D01*
X-72659Y-80110D01*
X-71783Y-79747D01*
X-71030Y-79169D01*
X-70453Y-78417D01*
X-70090Y-77540D01*
X-69966Y-76600D01*
X-70090Y-75660D01*
X-70453Y-74783D01*
X-71030Y-74031D01*
X-71783Y-73453D01*
X-72659Y-73090D01*
X-73600Y-72966D01*
D02*
G37*
G36*
X-173600Y-85623D02*
X-174422Y-85731D01*
X-175189Y-86049D01*
X-175847Y-86553D01*
X-176351Y-87211D01*
X-176524Y-87628D01*
X-197200D01*
X-197649Y-87717D01*
X-198029Y-87971D01*
X-209367Y-99309D01*
X-209714Y-99165D01*
X-210500Y-99062D01*
X-211286Y-99165D01*
X-212019Y-99469D01*
X-212648Y-99952D01*
X-213131Y-100581D01*
X-213435Y-101314D01*
X-213538Y-102100D01*
X-213435Y-102886D01*
X-213131Y-103619D01*
X-212648Y-104248D01*
X-212019Y-104731D01*
X-211286Y-105035D01*
X-210500Y-105138D01*
X-209714Y-105035D01*
X-208981Y-104731D01*
X-208352Y-104248D01*
X-207869Y-103619D01*
X-207565Y-102886D01*
X-207462Y-102100D01*
X-207565Y-101314D01*
X-207709Y-100967D01*
X-196714Y-89973D01*
X-176524D01*
X-176351Y-90389D01*
X-175847Y-91047D01*
X-175189Y-91552D01*
X-174422Y-91869D01*
X-173600Y-91977D01*
X-172778Y-91869D01*
X-172011Y-91552D01*
X-171353Y-91047D01*
X-170849Y-90389D01*
X-170531Y-89622D01*
X-170423Y-88800D01*
X-170531Y-87978D01*
X-170849Y-87211D01*
X-171353Y-86553D01*
X-172011Y-86049D01*
X-172778Y-85731D01*
X-173600Y-85623D01*
D02*
G37*
G36*
X-21900Y-87265D02*
X-22789Y-87382D01*
X-23618Y-87725D01*
X-24329Y-88271D01*
X-24875Y-88982D01*
X-25218Y-89811D01*
X-25335Y-90700D01*
X-25218Y-91589D01*
X-24875Y-92418D01*
X-24329Y-93129D01*
X-23618Y-93675D01*
X-22789Y-94018D01*
X-21900Y-94135D01*
X-21011Y-94018D01*
X-20182Y-93675D01*
X-19471Y-93129D01*
X-18925Y-92418D01*
X-18582Y-91589D01*
X-18465Y-90700D01*
X-18582Y-89811D01*
X-18925Y-88982D01*
X-19471Y-88271D01*
X-20182Y-87725D01*
X-21011Y-87382D01*
X-21900Y-87265D01*
D02*
G37*
G36*
X-48504Y-86603D02*
X-56497D01*
Y-94596D01*
X-48504D01*
Y-86603D01*
D02*
G37*
G36*
X-73100Y-92679D02*
Y-96100D01*
X-69679D01*
X-69749Y-95568D01*
X-70147Y-94607D01*
X-70781Y-93781D01*
X-71607Y-93147D01*
X-72568Y-92749D01*
X-73100Y-92679D01*
D02*
G37*
G36*
X-74100D02*
X-74632Y-92749D01*
X-75593Y-93147D01*
X-76419Y-93781D01*
X-77053Y-94607D01*
X-77451Y-95568D01*
X-77521Y-96100D01*
X-74100D01*
Y-92679D01*
D02*
G37*
G36*
X-69679Y-97100D02*
X-73100D01*
Y-100521D01*
X-72568Y-100451D01*
X-71607Y-100053D01*
X-70781Y-99419D01*
X-70147Y-98593D01*
X-69749Y-97632D01*
X-69679Y-97100D01*
D02*
G37*
G36*
X-74100D02*
X-77521D01*
X-77451Y-97632D01*
X-77053Y-98593D01*
X-76419Y-99419D01*
X-75593Y-100053D01*
X-74632Y-100451D01*
X-74100Y-100521D01*
Y-97100D01*
D02*
G37*
G36*
X-140800Y-95665D02*
X-141689Y-95782D01*
X-142518Y-96125D01*
X-143229Y-96671D01*
X-143775Y-97382D01*
X-144118Y-98211D01*
X-144235Y-99100D01*
X-144118Y-99989D01*
X-143775Y-100818D01*
X-143229Y-101529D01*
X-142518Y-102075D01*
X-141689Y-102418D01*
X-140800Y-102535D01*
X-139911Y-102418D01*
X-139082Y-102075D01*
X-138371Y-101529D01*
X-137825Y-100818D01*
X-137482Y-99989D01*
X-137365Y-99100D01*
X-137482Y-98211D01*
X-137825Y-97382D01*
X-138371Y-96671D01*
X-139082Y-96125D01*
X-139911Y-95782D01*
X-140800Y-95665D01*
D02*
G37*
G36*
X-52000Y-106282D02*
Y-110100D01*
X-48182D01*
X-48265Y-109465D01*
X-48703Y-108408D01*
X-49400Y-107500D01*
X-50308Y-106803D01*
X-51365Y-106365D01*
X-52000Y-106282D01*
D02*
G37*
G36*
X-53000D02*
X-53635Y-106365D01*
X-54692Y-106803D01*
X-55600Y-107500D01*
X-56297Y-108408D01*
X-56735Y-109465D01*
X-56818Y-110100D01*
X-53000D01*
Y-106282D01*
D02*
G37*
G36*
X-69997Y-102997D02*
X-77203D01*
Y-110203D01*
X-69997D01*
Y-102997D01*
D02*
G37*
G36*
X-48182Y-111100D02*
X-52000D01*
Y-114918D01*
X-51365Y-114835D01*
X-50308Y-114397D01*
X-49400Y-113700D01*
X-48703Y-112792D01*
X-48265Y-111735D01*
X-48182Y-111100D01*
D02*
G37*
G36*
X-53000D02*
X-56818D01*
X-56735Y-111735D01*
X-56297Y-112792D01*
X-55600Y-113700D01*
X-54692Y-114397D01*
X-53635Y-114835D01*
X-53000Y-114918D01*
Y-111100D01*
D02*
G37*
G36*
X-150200Y-113279D02*
Y-116700D01*
X-146779D01*
X-146849Y-116168D01*
X-147247Y-115207D01*
X-147881Y-114381D01*
X-148707Y-113747D01*
X-149668Y-113349D01*
X-150200Y-113279D01*
D02*
G37*
G36*
X-151200D02*
X-151732Y-113349D01*
X-152693Y-113747D01*
X-153519Y-114381D01*
X-154153Y-115207D01*
X-154551Y-116168D01*
X-154621Y-116700D01*
X-151200D01*
Y-113279D01*
D02*
G37*
G36*
X-160200D02*
Y-116700D01*
X-156779D01*
X-156849Y-116168D01*
X-157247Y-115207D01*
X-157881Y-114381D01*
X-158707Y-113747D01*
X-159668Y-113349D01*
X-160200Y-113279D01*
D02*
G37*
G36*
X-161200D02*
X-161732Y-113349D01*
X-162693Y-113747D01*
X-163519Y-114381D01*
X-164153Y-115207D01*
X-164551Y-116168D01*
X-164621Y-116700D01*
X-161200D01*
Y-113279D01*
D02*
G37*
G36*
X118100Y-84127D02*
X117651Y-84217D01*
X117271Y-84471D01*
X117017Y-84851D01*
X116928Y-85300D01*
Y-116928D01*
X85300D01*
X84851Y-117017D01*
X84471Y-117271D01*
X84217Y-117651D01*
X84127Y-118100D01*
X84217Y-118549D01*
X84471Y-118929D01*
X84851Y-119183D01*
X85300Y-119272D01*
X118100D01*
X118549Y-119183D01*
X118929Y-118929D01*
X119183Y-118549D01*
X119272Y-118100D01*
Y-85300D01*
X119183Y-84851D01*
X118929Y-84471D01*
X118549Y-84217D01*
X118100Y-84127D01*
D02*
G37*
G36*
X-90400Y-113865D02*
X-91289Y-113982D01*
X-92118Y-114325D01*
X-92829Y-114871D01*
X-93375Y-115582D01*
X-93718Y-116411D01*
X-93835Y-117300D01*
X-93718Y-118189D01*
X-93375Y-119018D01*
X-92829Y-119729D01*
X-92118Y-120275D01*
X-91289Y-120618D01*
X-90400Y-120735D01*
X-89511Y-120618D01*
X-88682Y-120275D01*
X-87971Y-119729D01*
X-87425Y-119018D01*
X-87082Y-118189D01*
X-86965Y-117300D01*
X-87082Y-116411D01*
X-87425Y-115582D01*
X-87971Y-114871D01*
X-88682Y-114325D01*
X-89511Y-113982D01*
X-90400Y-113865D01*
D02*
G37*
G36*
X-141200Y-54423D02*
X-142022Y-54531D01*
X-142789Y-54848D01*
X-143447Y-55353D01*
X-143951Y-56011D01*
X-144269Y-56778D01*
X-144377Y-57600D01*
X-144269Y-58422D01*
X-143951Y-59189D01*
X-143447Y-59847D01*
X-142789Y-60352D01*
X-142373Y-60524D01*
Y-83700D01*
X-142283Y-84149D01*
X-142029Y-84529D01*
X-121572Y-104986D01*
Y-114099D01*
X-122118Y-114325D01*
X-122829Y-114871D01*
X-123375Y-115582D01*
X-123718Y-116411D01*
X-123835Y-117300D01*
X-123718Y-118189D01*
X-123375Y-119018D01*
X-122829Y-119729D01*
X-122118Y-120275D01*
X-121289Y-120618D01*
X-120400Y-120735D01*
X-119511Y-120618D01*
X-118682Y-120275D01*
X-117971Y-119729D01*
X-117425Y-119018D01*
X-117082Y-118189D01*
X-116965Y-117300D01*
X-117082Y-116411D01*
X-117425Y-115582D01*
X-117971Y-114871D01*
X-118682Y-114325D01*
X-119228Y-114099D01*
Y-104500D01*
X-119317Y-104051D01*
X-119571Y-103671D01*
X-140027Y-83214D01*
Y-60524D01*
X-139611Y-60352D01*
X-138953Y-59847D01*
X-138449Y-59189D01*
X-138131Y-58422D01*
X-138023Y-57600D01*
X-138131Y-56778D01*
X-138449Y-56011D01*
X-138953Y-55353D01*
X-139611Y-54848D01*
X-140378Y-54531D01*
X-141200Y-54423D01*
D02*
G37*
G36*
X-130700Y-113566D02*
X-131641Y-113690D01*
X-132517Y-114053D01*
X-133270Y-114630D01*
X-133847Y-115383D01*
X-134210Y-116260D01*
X-134334Y-117200D01*
X-134210Y-118140D01*
X-133847Y-119017D01*
X-133270Y-119770D01*
X-132517Y-120347D01*
X-131641Y-120710D01*
X-130700Y-120834D01*
X-129760Y-120710D01*
X-128883Y-120347D01*
X-128130Y-119770D01*
X-127553Y-119017D01*
X-127190Y-118140D01*
X-127066Y-117200D01*
X-127190Y-116260D01*
X-127553Y-115383D01*
X-128130Y-114630D01*
X-128883Y-114053D01*
X-129760Y-113690D01*
X-130700Y-113566D01*
D02*
G37*
G36*
X-140700D02*
X-141640Y-113690D01*
X-142517Y-114053D01*
X-143270Y-114630D01*
X-143847Y-115383D01*
X-144210Y-116260D01*
X-144334Y-117200D01*
X-144210Y-118140D01*
X-143847Y-119017D01*
X-143270Y-119770D01*
X-142517Y-120347D01*
X-141640Y-120710D01*
X-140700Y-120834D01*
X-139760Y-120710D01*
X-138883Y-120347D01*
X-138130Y-119770D01*
X-137553Y-119017D01*
X-137190Y-118140D01*
X-137066Y-117200D01*
X-137190Y-116260D01*
X-137553Y-115383D01*
X-138130Y-114630D01*
X-138883Y-114053D01*
X-139760Y-113690D01*
X-140700Y-113566D01*
D02*
G37*
G36*
X-170700D02*
X-171641Y-113690D01*
X-172517Y-114053D01*
X-173269Y-114630D01*
X-173847Y-115383D01*
X-174210Y-116260D01*
X-174334Y-117200D01*
X-174210Y-118140D01*
X-173847Y-119017D01*
X-173269Y-119770D01*
X-172517Y-120347D01*
X-171641Y-120710D01*
X-170700Y-120834D01*
X-169760Y-120710D01*
X-168883Y-120347D01*
X-168131Y-119770D01*
X-167553Y-119017D01*
X-167190Y-118140D01*
X-167066Y-117200D01*
X-167190Y-116260D01*
X-167553Y-115383D01*
X-168131Y-114630D01*
X-168883Y-114053D01*
X-169760Y-113690D01*
X-170700Y-113566D01*
D02*
G37*
G36*
X-190700D02*
X-191640Y-113690D01*
X-192517Y-114053D01*
X-193270Y-114630D01*
X-193847Y-115383D01*
X-194210Y-116260D01*
X-194334Y-117200D01*
X-194210Y-118140D01*
X-193847Y-119017D01*
X-193270Y-119770D01*
X-192517Y-120347D01*
X-191640Y-120710D01*
X-190700Y-120834D01*
X-189760Y-120710D01*
X-188883Y-120347D01*
X-188130Y-119770D01*
X-187553Y-119017D01*
X-187190Y-118140D01*
X-187066Y-117200D01*
X-187190Y-116260D01*
X-187553Y-115383D01*
X-188130Y-114630D01*
X-188883Y-114053D01*
X-189760Y-113690D01*
X-190700Y-113566D01*
D02*
G37*
G36*
X-200700D02*
X-201641Y-113690D01*
X-202517Y-114053D01*
X-203270Y-114630D01*
X-203847Y-115383D01*
X-204210Y-116260D01*
X-204334Y-117200D01*
X-204210Y-118140D01*
X-203847Y-119017D01*
X-203270Y-119770D01*
X-202517Y-120347D01*
X-201641Y-120710D01*
X-200700Y-120834D01*
X-199759Y-120710D01*
X-198883Y-120347D01*
X-198131Y-119770D01*
X-197553Y-119017D01*
X-197190Y-118140D01*
X-197066Y-117200D01*
X-197190Y-116260D01*
X-197553Y-115383D01*
X-198131Y-114630D01*
X-198883Y-114053D01*
X-199759Y-113690D01*
X-200700Y-113566D01*
D02*
G37*
G36*
X-210700D02*
X-211641Y-113690D01*
X-212517Y-114053D01*
X-213269Y-114630D01*
X-213847Y-115383D01*
X-214210Y-116260D01*
X-214334Y-117200D01*
X-214210Y-118140D01*
X-213847Y-119017D01*
X-213269Y-119770D01*
X-212517Y-120347D01*
X-211641Y-120710D01*
X-210700Y-120834D01*
X-209759Y-120710D01*
X-208883Y-120347D01*
X-208131Y-119770D01*
X-207553Y-119017D01*
X-207190Y-118140D01*
X-207066Y-117200D01*
X-207190Y-116260D01*
X-207553Y-115383D01*
X-208131Y-114630D01*
X-208883Y-114053D01*
X-209759Y-113690D01*
X-210700Y-113566D01*
D02*
G37*
G36*
X-220700D02*
X-221640Y-113690D01*
X-222517Y-114053D01*
X-223270Y-114630D01*
X-223847Y-115383D01*
X-224210Y-116260D01*
X-224334Y-117200D01*
X-224210Y-118140D01*
X-223847Y-119017D01*
X-223270Y-119770D01*
X-222517Y-120347D01*
X-221640Y-120710D01*
X-220700Y-120834D01*
X-219759Y-120710D01*
X-218883Y-120347D01*
X-218130Y-119770D01*
X-217553Y-119017D01*
X-217190Y-118140D01*
X-217066Y-117200D01*
X-217190Y-116260D01*
X-217553Y-115383D01*
X-218130Y-114630D01*
X-218883Y-114053D01*
X-219759Y-113690D01*
X-220700Y-113566D01*
D02*
G37*
G36*
X-146779Y-117700D02*
X-150200D01*
Y-121121D01*
X-149668Y-121051D01*
X-148707Y-120653D01*
X-147881Y-120019D01*
X-147247Y-119193D01*
X-146849Y-118232D01*
X-146779Y-117700D01*
D02*
G37*
G36*
X-151200D02*
X-154621D01*
X-154551Y-118232D01*
X-154153Y-119193D01*
X-153519Y-120019D01*
X-152693Y-120653D01*
X-151732Y-121051D01*
X-151200Y-121121D01*
Y-117700D01*
D02*
G37*
G36*
X-156779D02*
X-160200D01*
Y-121121D01*
X-159668Y-121051D01*
X-158707Y-120653D01*
X-157881Y-120019D01*
X-157247Y-119193D01*
X-156849Y-118232D01*
X-156779Y-117700D01*
D02*
G37*
G36*
X-161200D02*
X-164621D01*
X-164551Y-118232D01*
X-164153Y-119193D01*
X-163519Y-120019D01*
X-162693Y-120653D01*
X-161732Y-121051D01*
X-161200Y-121121D01*
Y-117700D01*
D02*
G37*
%LPD*%
G36*
X-77672Y23014D02*
Y13924D01*
X-78089Y13751D01*
X-78747Y13247D01*
X-79251Y12589D01*
X-79424Y12173D01*
X-82914D01*
X-86628Y15886D01*
Y25100D01*
X-86717Y25549D01*
X-86971Y25929D01*
X-95703Y34661D01*
X-95511Y35123D01*
X-94681D01*
X-82772Y23214D01*
Y21124D01*
X-83189Y20952D01*
X-83847Y20447D01*
X-84351Y19789D01*
X-84669Y19022D01*
X-84777Y18200D01*
X-84669Y17378D01*
X-84351Y16611D01*
X-83847Y15953D01*
X-83189Y15449D01*
X-82422Y15131D01*
X-81600Y15023D01*
X-80778Y15131D01*
X-80011Y15449D01*
X-79353Y15953D01*
X-78848Y16611D01*
X-78531Y17378D01*
X-78423Y18200D01*
X-78531Y19022D01*
X-78848Y19789D01*
X-79353Y20447D01*
X-80011Y20952D01*
X-80427Y21124D01*
Y23700D01*
X-80517Y24149D01*
X-80771Y24529D01*
X-92556Y36314D01*
X-92365Y36776D01*
X-91435D01*
X-77672Y23014D01*
D02*
G37*
D10*
X-52114Y169155D02*
D03*
Y160100D02*
D03*
Y151045D02*
D03*
D11*
X-28886Y160100D02*
D03*
D12*
X-61332Y3759D02*
D03*
Y1200D02*
D03*
Y-1359D02*
D03*
X-52868D02*
D03*
Y1200D02*
D03*
Y3759D02*
D03*
X-56132Y51659D02*
D03*
Y49100D02*
D03*
Y46541D02*
D03*
X-47668D02*
D03*
Y49100D02*
D03*
Y51659D02*
D03*
X-50832Y93359D02*
D03*
Y90800D02*
D03*
Y88241D02*
D03*
X-42368D02*
D03*
Y90800D02*
D03*
Y93359D02*
D03*
D13*
X-112172Y16453D02*
D03*
Y18106D02*
D03*
Y19760D02*
D03*
Y21413D02*
D03*
Y23067D02*
D03*
Y24721D02*
D03*
Y26374D02*
D03*
Y28028D02*
D03*
Y29681D02*
D03*
Y31335D02*
D03*
Y32988D02*
D03*
Y34642D02*
D03*
Y36295D02*
D03*
Y37949D02*
D03*
Y39602D02*
D03*
Y41256D02*
D03*
Y42909D02*
D03*
Y44563D02*
D03*
Y46216D02*
D03*
Y47870D02*
D03*
Y49524D02*
D03*
Y51177D02*
D03*
Y52831D02*
D03*
Y54484D02*
D03*
Y56138D02*
D03*
Y57791D02*
D03*
Y59445D02*
D03*
Y61098D02*
D03*
Y62752D02*
D03*
Y64406D02*
D03*
Y66059D02*
D03*
Y67713D02*
D03*
Y69366D02*
D03*
Y71020D02*
D03*
Y72673D02*
D03*
X-125361Y16453D02*
D03*
Y18106D02*
D03*
Y19760D02*
D03*
Y21413D02*
D03*
Y23067D02*
D03*
Y24721D02*
D03*
Y26374D02*
D03*
Y28028D02*
D03*
Y29681D02*
D03*
Y31335D02*
D03*
Y32988D02*
D03*
Y34642D02*
D03*
Y36295D02*
D03*
Y37949D02*
D03*
Y39602D02*
D03*
Y41256D02*
D03*
Y42909D02*
D03*
Y44563D02*
D03*
Y46216D02*
D03*
Y47870D02*
D03*
Y49524D02*
D03*
Y51177D02*
D03*
Y52831D02*
D03*
Y54484D02*
D03*
Y56138D02*
D03*
Y57791D02*
D03*
Y59445D02*
D03*
Y61098D02*
D03*
Y62752D02*
D03*
Y64406D02*
D03*
Y66059D02*
D03*
Y67713D02*
D03*
Y69366D02*
D03*
Y71020D02*
D03*
Y72673D02*
D03*
D14*
X-58200Y127600D02*
X-31200Y100600D01*
X-68100Y137500D02*
X-58200Y127600D01*
X-57800Y128000D02*
X-30400D01*
X-195200Y105700D02*
Y107000D01*
X-208800Y92100D02*
X-195200Y105700D01*
X-84200Y117300D02*
X-60259Y93359D01*
X-206300Y117300D02*
X-84200D01*
X-220300Y103300D02*
X-206300Y117300D01*
X-59100Y122500D02*
X-34800Y98200D01*
X-210800Y122500D02*
X-59100D01*
X-230400Y102900D02*
X-210800Y122500D01*
X-99300Y-77900D02*
X-90600Y-86600D01*
X-93100Y-58300D02*
X-84800Y-66600D01*
X-61500Y39800D02*
Y45600D01*
X-60559Y46541D01*
X-56132D01*
X-97342Y34642D02*
X-87800Y25100D01*
X-112172Y34642D02*
X-97342D01*
X-112172Y36295D02*
X-94195D01*
X-112172Y37949D02*
X-90949D01*
X-112172Y39602D02*
X-88202D01*
X-94195Y36295D02*
X-81600Y23700D01*
X-90949Y37949D02*
X-76500Y23500D01*
X-88202Y39602D02*
X-71300Y22700D01*
X-87800Y15400D02*
Y25100D01*
Y15400D02*
X-83400Y11000D01*
X-76500D01*
X-71300Y18300D02*
Y22700D01*
X-66200Y44918D02*
X-59459Y51659D01*
X-66200Y3759D02*
Y44918D01*
Y3759D02*
X-61332D01*
X-76500Y11000D02*
Y23500D01*
X-162900Y16453D02*
X-125361D01*
X-162900Y-99400D02*
Y16453D01*
X-230400Y65000D02*
X-213300D01*
X-212241Y66059D01*
X-125361D01*
X-239200Y65000D02*
X-233800Y59600D01*
X-213700D01*
X-208894Y64406D01*
X-125361D01*
X-208800Y83400D02*
Y92100D01*
Y83400D02*
X-198073Y72673D01*
X-125361D01*
Y71020D02*
Y72673D01*
Y69366D02*
Y71020D01*
X-206948Y62752D02*
X-125361D01*
X-215300Y54400D02*
X-206948Y62752D01*
X-219400Y54400D02*
X-215300D01*
X-240700Y-117200D02*
Y-6300D01*
X-215900Y7700D02*
X-203840Y19760D01*
X-209600Y46900D02*
X-200649Y37949D01*
X-125361D01*
X-237200Y-110700D02*
X-230700Y-117200D01*
X-237200Y-110700D02*
Y-26800D01*
X-232100Y-57000D02*
X-186700D01*
X-220900Y41900D02*
X-205374Y26374D01*
X-237200Y-26800D02*
X-192294Y18106D01*
X-125361D01*
X-203840Y19760D02*
X-125361D01*
X-205374Y26374D02*
X-125361D01*
X-240700Y-6300D02*
X-212987Y21413D01*
X-125361D01*
X-227500Y23100D02*
X-227467Y23067D01*
X-125361D01*
X-232100Y42300D02*
X-214620Y24821D01*
Y24721D02*
X-125361D01*
X-120400Y-117300D02*
Y-104500D01*
X-141200Y-83700D02*
X-120400Y-104500D01*
X-141200Y-83700D02*
Y-57600D01*
X-180700Y-117200D02*
X-162900Y-99400D01*
X-210500Y-102100D02*
X-197200Y-88800D01*
X-173600D01*
X-76855Y169155D02*
X-52114D01*
X-62300Y160100D02*
X-52114D01*
X-65500Y156900D02*
X-62300Y160100D01*
X-114800Y144800D02*
X-97600Y127600D01*
X-173700Y144800D02*
X-114800D01*
X-188700Y159800D02*
X-173700Y144800D01*
X-188700Y129800D02*
X-124900D01*
X-52868Y3759D02*
X-47441D01*
X-47668Y51659D02*
X-34800D01*
X-42368Y93359D02*
X-34900D01*
X-230400Y95000D02*
Y102900D01*
X-60259Y93359D02*
X-50832D01*
X-65000Y88300D02*
X-50891D01*
X-95000Y87200D02*
Y88300D01*
Y87200D02*
X-59459Y51659D01*
X-56132D01*
X-96700Y47700D02*
Y78900D01*
X-99837Y44563D02*
X-96700Y47700D01*
X-112172Y44563D02*
X-99837D01*
X-110800Y-99100D02*
X-103000Y-91300D01*
Y-32382D01*
X-66859Y3759D01*
X-112172Y23067D02*
X-102833D01*
X-98300Y27600D01*
X-71600Y-15000D02*
Y-5800D01*
X-67159Y-1359D01*
X-61332D01*
X-52868D02*
X-46641D01*
X-44900Y-3100D01*
X-61400Y-19600D02*
X-44900Y-3100D01*
X-84800Y-19600D02*
X-61400D01*
X-99300Y-34100D02*
X-84800Y-19600D01*
X-99300Y-77900D02*
Y-34100D01*
X-90600Y-86600D02*
X-73600D01*
X-97600Y127600D02*
X-58200D01*
X-31200Y3400D02*
Y100600D01*
X-58200Y-23600D02*
X-31200Y3400D01*
X-82500Y-23600D02*
X-58200D01*
X-93100Y-34200D02*
X-82500Y-23600D01*
X-93100Y-58300D02*
Y-34200D01*
X-84800Y-66600D02*
X-73600D01*
X-31200Y100600D02*
X31500D01*
X42300Y89800D01*
X-47668Y46541D02*
X-42141D01*
Y35159D02*
Y46541D01*
X-45300Y32000D02*
X-42141Y35159D01*
X-47441Y3759D02*
X-34800Y16400D01*
Y98200D01*
X-42368Y88241D02*
X-38441D01*
X-37800Y87600D01*
Y75100D02*
Y87600D01*
X-43200Y69700D02*
X-37800Y75100D01*
X-112172Y21413D02*
X-112102Y21343D01*
X-93443D02*
X-93400Y21300D01*
X-112102Y21343D02*
X-93443D01*
X-81600Y18200D02*
Y23700D01*
X-77500Y139800D02*
X-76400D01*
X-65500Y150700D01*
Y156900D01*
X-59555Y151045D02*
X-52114D01*
X-68100Y142500D02*
X-59555Y151045D01*
X-68100Y137500D02*
Y142500D01*
X-500Y-32800D02*
Y0D01*
X32300D01*
X85300Y-118100D02*
X118100D01*
Y-85300D01*
X-138600Y93600D02*
X-105800D01*
Y85700D02*
Y93600D01*
X-204300Y-46500D02*
Y-38600D01*
Y-46500D02*
X-171500D01*
X-95000Y88300D02*
Y106500D01*
X-84200Y117300D01*
X-20001Y125200D02*
Y131198D01*
X-23000Y128199D01*
X-19001D01*
X-17002Y131198D02*
Y127199D01*
X-15003Y125200D01*
X-13003Y127199D01*
Y131198D01*
X-11004Y130198D02*
X-10004Y131198D01*
X-8005D01*
X-7005Y130198D01*
Y129199D01*
X-8005Y128199D01*
X-7005Y127199D01*
Y126200D01*
X-8005Y125200D01*
X-10004D01*
X-11004Y126200D01*
Y127199D01*
X-10004Y128199D01*
X-11004Y129199D01*
Y130198D01*
X-10004Y128199D02*
X-8005D01*
X-18001Y119398D02*
X-19001Y120398D01*
X-21000D01*
X-22000Y119398D01*
Y115400D01*
X-21000Y114400D01*
X-19001D01*
X-18001Y115400D01*
Y117399D01*
X-20001D01*
X-16002Y114400D02*
Y120398D01*
X-12003Y114400D01*
Y120398D01*
X-10004D02*
Y114400D01*
X-7005D01*
X-6005Y115400D01*
Y119398D01*
X-7005Y120398D01*
X-10004D01*
X92799Y87300D02*
Y93298D01*
X89800Y90299D01*
X93799D01*
X95798Y93298D02*
Y89299D01*
X97797Y87300D01*
X99797Y89299D01*
Y93298D01*
X101796Y92298D02*
X102796Y93298D01*
X104795D01*
X105795Y92298D01*
Y91299D01*
X104795Y90299D01*
X105795Y89299D01*
Y88300D01*
X104795Y87300D01*
X102796D01*
X101796Y88300D01*
Y89299D01*
X102796Y90299D01*
X101796Y91299D01*
Y92298D01*
X102796Y90299D02*
X104795D01*
X89800Y77600D02*
Y83598D01*
X92799D01*
X93799Y82598D01*
Y80599D01*
X92799Y79599D01*
X89800D01*
X95798Y83598D02*
Y77600D01*
X97797Y79599D01*
X99797Y77600D01*
Y83598D01*
X101796Y77600D02*
Y83598D01*
X104795D01*
X105795Y82598D01*
Y80599D01*
X104795Y79599D01*
X101796D01*
X103796D02*
X105795Y77600D01*
X117791Y83598D02*
X113792D01*
Y77600D01*
X117791D01*
X113792Y80599D02*
X115792D01*
X119790Y77600D02*
Y83598D01*
X123789Y77600D01*
Y83598D01*
X89800Y67900D02*
Y73898D01*
X91799Y71899D01*
X93799Y73898D01*
Y67900D01*
X98797Y73898D02*
X96798D01*
X95798Y72898D01*
Y68900D01*
X96798Y67900D01*
X98797D01*
X99797Y68900D01*
Y72898D01*
X98797Y73898D01*
X101796D02*
Y67900D01*
X104795D01*
X105795Y68900D01*
Y72898D01*
X104795Y73898D01*
X101796D01*
X111793D02*
X107794D01*
Y67900D01*
X111793D01*
X107794Y70899D02*
X109793D01*
X93799Y62198D02*
X92799Y63198D01*
X90800D01*
X89800Y62198D01*
Y61199D01*
X90800Y60199D01*
X92799D01*
X93799Y59199D01*
Y58200D01*
X92799Y57200D01*
X90800D01*
X89800Y58200D01*
X99797Y62198D02*
X98797Y63198D01*
X96798D01*
X95798Y62198D01*
Y58200D01*
X96798Y57200D01*
X98797D01*
X99797Y58200D01*
X101796Y63198D02*
Y57200D01*
X105795D01*
X93799Y51998D02*
X92799Y52998D01*
X90800D01*
X89800Y51998D01*
Y50999D01*
X90800Y49999D01*
X92799D01*
X93799Y48999D01*
Y48000D01*
X92799Y47000D01*
X90800D01*
X89800Y48000D01*
X95798Y52998D02*
Y47000D01*
X98797D01*
X99797Y48000D01*
Y51998D01*
X98797Y52998D01*
X95798D01*
X101796Y47000D02*
Y50999D01*
X103796Y52998D01*
X105795Y50999D01*
Y47000D01*
Y49999D01*
X101796D01*
X93799Y41698D02*
X92799Y42698D01*
X90800D01*
X89800Y41698D01*
Y37700D01*
X90800Y36700D01*
X92799D01*
X93799Y37700D01*
Y39699D01*
X91799D01*
X95798Y36700D02*
Y42698D01*
X99797Y36700D01*
Y42698D01*
X101796D02*
Y36700D01*
X104795D01*
X105795Y37700D01*
Y41698D01*
X104795Y42698D01*
X101796D01*
X48899Y-51202D02*
X47899Y-50202D01*
X45900D01*
X44900Y-51202D01*
Y-55200D01*
X45900Y-56200D01*
X47899D01*
X48899Y-55200D01*
Y-53201D01*
X46899D01*
X50898Y-56200D02*
Y-50202D01*
X53897D01*
X54897Y-51202D01*
Y-53201D01*
X53897Y-54201D01*
X50898D01*
X60895Y-51202D02*
X59895Y-50202D01*
X57896D01*
X56896Y-51202D01*
Y-52201D01*
X57896Y-53201D01*
X59895D01*
X60895Y-54201D01*
Y-55200D01*
X59895Y-56200D01*
X57896D01*
X56896Y-55200D01*
X-144301Y-10802D02*
X-145301Y-9802D01*
X-147300D01*
X-148300Y-10802D01*
Y-14800D01*
X-147300Y-15800D01*
X-145301D01*
X-144301Y-14800D01*
X-142302Y-9802D02*
Y-15800D01*
Y-12801D01*
X-141302Y-11801D01*
X-139303D01*
X-138303Y-12801D01*
Y-15800D01*
X-136304D02*
X-134304D01*
X-135304D01*
Y-11801D01*
X-136304D01*
X-131306Y-17799D02*
Y-11801D01*
X-128306D01*
X-127307Y-12801D01*
Y-14800D01*
X-128306Y-15800D01*
X-131306D01*
D15*
X-117940Y74090D02*
G03*
X-117940Y74090I-1969J0D01*
G01*
X-47783Y146911D02*
Y173289D01*
X-33217Y146911D02*
Y173289D01*
X-47783D02*
X-33217D01*
X-47783Y146911D02*
X-33217D01*
X-59758Y-3131D02*
Y5531D01*
X-54443Y-3131D02*
Y5531D01*
X-59758D02*
X-54443D01*
X-59758Y-3131D02*
X-54443D01*
X-54558Y44769D02*
Y53431D01*
X-49242Y44769D02*
Y53431D01*
X-54558D02*
X-49242D01*
X-54558Y44769D02*
X-49242D01*
X-123452Y11492D02*
X-114082D01*
X-123452Y77634D02*
X-114082D01*
Y11492D02*
Y77634D01*
X-123452Y11492D02*
Y77634D01*
X-49257Y86469D02*
Y95131D01*
X-43942Y86469D02*
Y95131D01*
X-49257D02*
X-43942D01*
X-49257Y86469D02*
X-43942D01*
X-42469Y160100D02*
X-38532D01*
X-40500Y158132D02*
Y162068D01*
X-59069Y1200D02*
X-55132D01*
X-57100Y-769D02*
Y3168D01*
X-53869Y49100D02*
X-49931D01*
X-51900Y47131D02*
Y51069D01*
X-118767Y42595D02*
Y46532D01*
X-120735Y44563D02*
X-116798D01*
X-48568Y90800D02*
X-44631D01*
X-46600Y88832D02*
Y92769D01*
D16*
X-57232Y145927D02*
Y174273D01*
X-23768Y145927D02*
Y174273D01*
X-57232D02*
X-23768D01*
X-57232Y145927D02*
X-23768D01*
X-63891Y-4115D02*
Y6515D01*
X-50309Y-4115D02*
Y6515D01*
X-63891D02*
X-50309D01*
X-63891Y-4115D02*
X-50309D01*
X-58691Y43785D02*
Y54415D01*
X-45109Y43785D02*
Y54415D01*
X-58691D02*
X-45109D01*
X-58691Y43785D02*
X-45109D01*
X-131562Y9524D02*
X-105972D01*
X-131562Y79602D02*
X-105972D01*
Y9524D02*
Y79602D01*
X-131562Y9524D02*
Y79602D01*
X-53391Y85485D02*
Y96115D01*
X-39809Y85485D02*
Y96115D01*
X-53391D02*
X-39809D01*
X-53391Y85485D02*
X-39809D01*
D17*
X-165200Y107000D02*
D03*
X-195200D02*
D03*
X-231400Y160300D02*
D03*
Y130300D02*
D03*
X-77500Y139800D02*
D03*
Y169800D02*
D03*
X-21900Y-60700D02*
D03*
Y-90700D02*
D03*
X-17000Y39700D02*
D03*
Y69700D02*
D03*
X-65000Y88300D02*
D03*
X-95000D02*
D03*
X-120400Y-117300D02*
D03*
X-90400D02*
D03*
X-140800Y-99100D02*
D03*
X-110800D02*
D03*
X-239200Y65000D02*
D03*
Y95000D02*
D03*
X-230400Y65000D02*
D03*
Y95000D02*
D03*
D18*
X12300Y89800D02*
D03*
X-210500Y-72100D02*
D03*
Y-102100D02*
D03*
X-188700Y129800D02*
D03*
X-124800Y129900D02*
D03*
D19*
X42300Y89800D02*
D03*
D20*
X-30400Y118000D02*
D03*
X-230700Y-117200D02*
D03*
X-220700D02*
D03*
X-210700D02*
D03*
X-200700D02*
D03*
X-190700D02*
D03*
X-180700D02*
D03*
X-170700D02*
D03*
X-160700D02*
D03*
X-150700D02*
D03*
X-140700D02*
D03*
X-130700D02*
D03*
X-73600Y-56600D02*
D03*
Y-66600D02*
D03*
Y-76600D02*
D03*
Y-86600D02*
D03*
Y-96600D02*
D03*
X81900Y89900D02*
D03*
Y79900D02*
D03*
Y69900D02*
D03*
Y59900D02*
D03*
Y49900D02*
D03*
D21*
X-30400Y128000D02*
D03*
X-73600Y-106600D02*
D03*
X81900Y39900D02*
D03*
D22*
X-240700Y-117200D02*
D03*
D23*
X-188700Y159800D02*
D03*
X-124800Y159900D02*
D03*
D24*
X-52500Y-110600D02*
D03*
D25*
Y-90600D02*
D03*
D26*
X-71300Y18300D02*
D03*
X-61500Y39800D02*
D03*
X-76500Y11000D02*
D03*
X-219400Y54400D02*
D03*
X-220900Y41900D02*
D03*
X-215900Y7700D02*
D03*
X-209600Y46900D02*
D03*
X-186700Y-57000D02*
D03*
X-232100D02*
D03*
X-227500Y23100D02*
D03*
X-232100Y42300D02*
D03*
X-141200Y-57600D02*
D03*
X-173600Y-88800D02*
D03*
X-220300Y103300D02*
D03*
X-96700Y78900D02*
D03*
X-98300Y27600D02*
D03*
X-71600Y-15000D02*
D03*
X-45300Y32000D02*
D03*
X-43200Y69700D02*
D03*
X-93400Y21300D02*
D03*
X-81600Y18200D02*
D03*
M02*
