G04 Layer_Color=128*
%FSLAX25Y25*%
%MOIN*%
G70*
G01*
G75*
%ADD15C,0.00394*%
%ADD16C,0.00197*%
%ADD44C,0.00200*%
D15*
X-117940Y74090D02*
G03*
X-117940Y74090I-1969J0D01*
G01*
X-47783Y146911D02*
Y173289D01*
X-33217Y146911D02*
Y173289D01*
X-47783D02*
X-33217D01*
X-47783Y146911D02*
X-33217D01*
X-59758Y-3131D02*
Y5531D01*
X-54443Y-3131D02*
Y5531D01*
X-59758D02*
X-54443D01*
X-59758Y-3131D02*
X-54443D01*
X-54558Y44769D02*
Y53431D01*
X-49242Y44769D02*
Y53431D01*
X-54558D02*
X-49242D01*
X-54558Y44769D02*
X-49242D01*
X-123452Y11492D02*
X-114082D01*
X-123452Y77634D02*
X-114082D01*
Y11492D02*
Y77634D01*
X-123452Y11492D02*
Y77634D01*
X-49257Y86469D02*
Y95131D01*
X-43942Y86469D02*
Y95131D01*
X-49257D02*
X-43942D01*
X-49257Y86469D02*
X-43942D01*
X-42469Y160100D02*
X-38532D01*
X-40500Y158132D02*
Y162068D01*
X-59069Y1200D02*
X-55132D01*
X-57100Y-769D02*
Y3168D01*
X-53869Y49100D02*
X-49931D01*
X-51900Y47131D02*
Y51069D01*
X-118767Y42595D02*
Y46532D01*
X-120735Y44563D02*
X-116798D01*
X-48568Y90800D02*
X-44631D01*
X-46600Y88832D02*
Y92769D01*
D16*
X-57232Y145927D02*
Y174273D01*
X-23768Y145927D02*
Y174273D01*
X-57232D02*
X-23768D01*
X-57232Y145927D02*
X-23768D01*
X-63891Y-4115D02*
Y6515D01*
X-50309Y-4115D02*
Y6515D01*
X-63891D02*
X-50309D01*
X-63891Y-4115D02*
X-50309D01*
X-58691Y43785D02*
Y54415D01*
X-45109Y43785D02*
Y54415D01*
X-58691D02*
X-45109D01*
X-58691Y43785D02*
X-45109D01*
X-131562Y9524D02*
X-105972D01*
X-131562Y79602D02*
X-105972D01*
Y9524D02*
Y79602D01*
X-131562Y9524D02*
Y79602D01*
X-53391Y85485D02*
Y96115D01*
X-39809Y85485D02*
Y96115D01*
X-53391D02*
X-39809D01*
X-53391Y85485D02*
X-39809D01*
D44*
X-166873Y107000D02*
X-163527D01*
X-165200Y105327D02*
Y108673D01*
X-196873Y107000D02*
X-193527D01*
X-195200Y105327D02*
Y108673D01*
X10922Y89800D02*
X13678D01*
X12300Y88422D02*
Y91178D01*
X40922Y89800D02*
X43678D01*
X42300Y88422D02*
Y91178D01*
X-32172Y118000D02*
X-28628D01*
X-30400Y116228D02*
Y119772D01*
X-32172Y128000D02*
X-28628D01*
X-30400Y126228D02*
Y129772D01*
X-233073Y160300D02*
X-229727D01*
X-231400Y158627D02*
Y161973D01*
X-233073Y130300D02*
X-229727D01*
X-231400Y128627D02*
Y131973D01*
X-79173Y139800D02*
X-75827D01*
X-77500Y138127D02*
Y141473D01*
X-79173Y169800D02*
X-75827D01*
X-77500Y168127D02*
Y171473D01*
X-242472Y-117200D02*
X-238928D01*
X-240700Y-118972D02*
Y-115428D01*
X-232472Y-117200D02*
X-228928D01*
X-230700Y-118972D02*
Y-115428D01*
X-222472Y-117200D02*
X-218928D01*
X-220700Y-118972D02*
Y-115428D01*
X-212472Y-117200D02*
X-208928D01*
X-210700Y-118972D02*
Y-115428D01*
X-202472Y-117200D02*
X-198928D01*
X-200700Y-118972D02*
Y-115428D01*
X-192472Y-117200D02*
X-188928D01*
X-190700Y-118972D02*
Y-115428D01*
X-182472Y-117200D02*
X-178928D01*
X-180700Y-118972D02*
Y-115428D01*
X-172472Y-117200D02*
X-168928D01*
X-170700Y-118972D02*
Y-115428D01*
X-162472Y-117200D02*
X-158928D01*
X-160700Y-118972D02*
Y-115428D01*
X-152472Y-117200D02*
X-148928D01*
X-150700Y-118972D02*
Y-115428D01*
X-142472Y-117200D02*
X-138928D01*
X-140700Y-118972D02*
Y-115428D01*
X-132472Y-117200D02*
X-128928D01*
X-130700Y-118972D02*
Y-115428D01*
X-211878Y-72100D02*
X-209122D01*
X-210500Y-73478D02*
Y-70722D01*
X-211878Y-102100D02*
X-209122D01*
X-210500Y-103478D02*
Y-100722D01*
X-23573Y-60700D02*
X-20227D01*
X-21900Y-62373D02*
Y-59027D01*
X-23573Y-90700D02*
X-20227D01*
X-21900Y-92373D02*
Y-89027D01*
X-75372Y-56600D02*
X-71828D01*
X-73600Y-58372D02*
Y-54828D01*
X-75372Y-66600D02*
X-71828D01*
X-73600Y-68372D02*
Y-64828D01*
X-75372Y-76600D02*
X-71828D01*
X-73600Y-78372D02*
Y-74828D01*
X-75372Y-86600D02*
X-71828D01*
X-73600Y-88372D02*
Y-84828D01*
X-75372Y-96600D02*
X-71828D01*
X-73600Y-98372D02*
Y-94828D01*
X-75372Y-106600D02*
X-71828D01*
X-73600Y-108372D02*
Y-104828D01*
X-18673Y39700D02*
X-15327D01*
X-17000Y38027D02*
Y41373D01*
X-18673Y69700D02*
X-15327D01*
X-17000Y68027D02*
Y71373D01*
X-66673Y88300D02*
X-63327D01*
X-65000Y86627D02*
Y89973D01*
X-96673Y88300D02*
X-93327D01*
X-95000Y86627D02*
Y89973D01*
X80128Y89900D02*
X83672D01*
X81900Y88128D02*
Y91672D01*
X80128Y79900D02*
X83672D01*
X81900Y78128D02*
Y81672D01*
X80128Y69900D02*
X83672D01*
X81900Y68128D02*
Y71672D01*
X80128Y59900D02*
X83672D01*
X81900Y58128D02*
Y61672D01*
X80128Y49900D02*
X83672D01*
X81900Y48128D02*
Y51672D01*
X80128Y39900D02*
X83672D01*
X81900Y38128D02*
Y41672D01*
X-122073Y-117300D02*
X-118727D01*
X-120400Y-118973D02*
Y-115627D01*
X-92073Y-117300D02*
X-88727D01*
X-90400Y-118973D02*
Y-115627D01*
X-142473Y-99100D02*
X-139127D01*
X-140800Y-100773D02*
Y-97427D01*
X-112473Y-99100D02*
X-109127D01*
X-110800Y-100773D02*
Y-97427D01*
X-240873Y65000D02*
X-237527D01*
X-239200Y63327D02*
Y66673D01*
X-240873Y95000D02*
X-237527D01*
X-239200Y93327D02*
Y96673D01*
X-232073Y65000D02*
X-228727D01*
X-230400Y63327D02*
Y66673D01*
X-232073Y95000D02*
X-228727D01*
X-230400Y93327D02*
Y96673D01*
X-190078Y129800D02*
X-187322D01*
X-188700Y128422D02*
Y131178D01*
X-190078Y159800D02*
X-187322D01*
X-188700Y158422D02*
Y161178D01*
X-126178Y129900D02*
X-123422D01*
X-124800Y128522D02*
Y131278D01*
X-126178Y159900D02*
X-123422D01*
X-124800Y158522D02*
Y161278D01*
X-54665Y-110600D02*
X-50335D01*
X-52500Y-112765D02*
Y-108435D01*
X-54665Y-90600D02*
X-50335D01*
X-52500Y-92765D02*
Y-88435D01*
X-72700Y18300D02*
X-69900D01*
X-71300Y16900D02*
Y19700D01*
X-62900Y39800D02*
X-60100D01*
X-61500Y38400D02*
Y41200D01*
X-77900Y11000D02*
X-75100D01*
X-76500Y9600D02*
Y12400D01*
X-220800Y54400D02*
X-218000D01*
X-219400Y53000D02*
Y55800D01*
X-222300Y41900D02*
X-219500D01*
X-220900Y40500D02*
Y43300D01*
X-217300Y7700D02*
X-214500D01*
X-215900Y6300D02*
Y9100D01*
X-211000Y46900D02*
X-208200D01*
X-209600Y45500D02*
Y48300D01*
X-188100Y-57000D02*
X-185300D01*
X-186700Y-58400D02*
Y-55600D01*
X-233500Y-57000D02*
X-230700D01*
X-232100Y-58400D02*
Y-55600D01*
X-228900Y23100D02*
X-226100D01*
X-227500Y21700D02*
Y24500D01*
X-233500Y42300D02*
X-230700D01*
X-232100Y40900D02*
Y43700D01*
X-142600Y-57600D02*
X-139800D01*
X-141200Y-59000D02*
Y-56200D01*
X-175000Y-88800D02*
X-172200D01*
X-173600Y-90200D02*
Y-87400D01*
X-221700Y103300D02*
X-218900D01*
X-220300Y101900D02*
Y104700D01*
X-98100Y78900D02*
X-95300D01*
X-96700Y77500D02*
Y80300D01*
X-99700Y27600D02*
X-96900D01*
X-98300Y26200D02*
Y29000D01*
X-73000Y-15000D02*
X-70200D01*
X-71600Y-16400D02*
Y-13600D01*
X-46700Y32000D02*
X-43900D01*
X-45300Y30600D02*
Y33400D01*
X-44600Y69700D02*
X-41800D01*
X-43200Y68300D02*
Y71100D01*
X-94800Y21300D02*
X-92000D01*
X-93400Y19900D02*
Y22700D01*
X-83000Y18200D02*
X-80200D01*
X-81600Y16800D02*
Y19600D01*
M02*
