G04 Layer_Color=65535*
%FSLAX25Y25*%
%MOIN*%
G70*
G01*
G75*
%ADD14C,0.01000*%
%ADD15C,0.04724*%
%ADD26C,0.00787*%
%ADD27C,0.00984*%
%ADD28C,0.00591*%
D14*
X189850Y306048D02*
Y301050D01*
X190850Y300050D01*
X192849D01*
X193849Y301050D01*
Y306048D01*
X195848D02*
X199847D01*
Y305048D01*
X195848Y301050D01*
Y300050D01*
X115500Y211398D02*
Y206400D01*
X116500Y205400D01*
X118499D01*
X119499Y206400D01*
Y211398D01*
X125497D02*
X123497Y210398D01*
X121498Y208399D01*
Y206400D01*
X122498Y205400D01*
X124497D01*
X125497Y206400D01*
Y207399D01*
X124497Y208399D01*
X121498D01*
X183250Y139448D02*
Y134450D01*
X184250Y133450D01*
X186249D01*
X187249Y134450D01*
Y139448D01*
X193247D02*
X189248D01*
Y136449D01*
X191247Y137449D01*
X192247D01*
X193247Y136449D01*
Y134450D01*
X192247Y133450D01*
X190248D01*
X189248Y134450D01*
X188450Y187348D02*
Y182350D01*
X189450Y181350D01*
X191449D01*
X192449Y182350D01*
Y187348D01*
X197447Y181350D02*
Y187348D01*
X194448Y184349D01*
X198447D01*
X193750Y229048D02*
Y224050D01*
X194750Y223050D01*
X196749D01*
X197749Y224050D01*
Y229048D01*
X199748Y228048D02*
X200748Y229048D01*
X202747D01*
X203747Y228048D01*
Y227049D01*
X202747Y226049D01*
X201747D01*
X202747D01*
X203747Y225049D01*
Y224050D01*
X202747Y223050D01*
X200748D01*
X199748Y224050D01*
X1400Y235100D02*
Y241098D01*
X4399D01*
X5399Y240098D01*
Y238099D01*
X4399Y237099D01*
X1400D01*
X3399D02*
X5399Y235100D01*
X7398D02*
X9397D01*
X8398D01*
Y241098D01*
X7398Y240098D01*
X16395Y235100D02*
X12396D01*
X16395Y239099D01*
Y240098D01*
X15395Y241098D01*
X13396D01*
X12396Y240098D01*
X18200Y234900D02*
Y240898D01*
X21199D01*
X22199Y239898D01*
Y237899D01*
X21199Y236899D01*
X18200D01*
X20199D02*
X22199Y234900D01*
X24198D02*
X26197D01*
X25198D01*
Y240898D01*
X24198Y239898D01*
X29196Y234900D02*
X31196D01*
X30196D01*
Y240898D01*
X29196Y239898D01*
X88800Y226700D02*
Y232698D01*
X91799D01*
X92799Y231698D01*
Y229699D01*
X91799Y228699D01*
X88800D01*
X90799D02*
X92799Y226700D01*
X94798D02*
X96797D01*
X95798D01*
Y232698D01*
X94798Y231698D01*
X99796D02*
X100796Y232698D01*
X102796D01*
X103795Y231698D01*
Y227700D01*
X102796Y226700D01*
X100796D01*
X99796Y227700D01*
Y231698D01*
X140200Y20100D02*
Y26098D01*
X143199D01*
X144199Y25098D01*
Y23099D01*
X143199Y22099D01*
X140200D01*
X142199D02*
X144199Y20100D01*
X146198Y21100D02*
X147198Y20100D01*
X149197D01*
X150197Y21100D01*
Y25098D01*
X149197Y26098D01*
X147198D01*
X146198Y25098D01*
Y24099D01*
X147198Y23099D01*
X150197D01*
X160600Y1300D02*
Y7298D01*
X163599D01*
X164599Y6298D01*
Y4299D01*
X163599Y3299D01*
X160600D01*
X162599D02*
X164599Y1300D01*
X166598Y6298D02*
X167598Y7298D01*
X169597D01*
X170597Y6298D01*
Y5299D01*
X169597Y4299D01*
X170597Y3299D01*
Y2300D01*
X169597Y1300D01*
X167598D01*
X166598Y2300D01*
Y3299D01*
X167598Y4299D01*
X166598Y5299D01*
Y6298D01*
X167598Y4299D02*
X169597D01*
X12400Y289200D02*
Y295198D01*
X15399D01*
X16399Y294198D01*
Y292199D01*
X15399Y291199D01*
X12400D01*
X14399D02*
X16399Y289200D01*
X22397Y295198D02*
X18398D01*
Y292199D01*
X20397Y293199D01*
X21397D01*
X22397Y292199D01*
Y290200D01*
X21397Y289200D01*
X19398D01*
X18398Y290200D01*
X166350Y298650D02*
Y304648D01*
X169349D01*
X170349Y303648D01*
Y301649D01*
X169349Y300649D01*
X166350D01*
X168349D02*
X170349Y298650D01*
X175347D02*
Y304648D01*
X172348Y301649D01*
X176347D01*
X149000Y217400D02*
Y223398D01*
X151999D01*
X152999Y222398D01*
Y220399D01*
X151999Y219399D01*
X149000D01*
X150999D02*
X152999Y217400D01*
X154998Y222398D02*
X155998Y223398D01*
X157997D01*
X158997Y222398D01*
Y221399D01*
X157997Y220399D01*
X156997D01*
X157997D01*
X158997Y219399D01*
Y218400D01*
X157997Y217400D01*
X155998D01*
X154998Y218400D01*
X221900Y68200D02*
Y74198D01*
X224899D01*
X225899Y73198D01*
Y71199D01*
X224899Y70199D01*
X221900D01*
X223899D02*
X225899Y68200D01*
X231897D02*
X227898D01*
X231897Y72199D01*
Y73198D01*
X230897Y74198D01*
X228898D01*
X227898Y73198D01*
X226850Y198550D02*
Y204548D01*
X229849D01*
X230849Y203548D01*
Y201549D01*
X229849Y200549D01*
X226850D01*
X228849D02*
X230849Y198550D01*
X232848D02*
X234847D01*
X233848D01*
Y204548D01*
X232848Y203548D01*
X1100Y13900D02*
Y19898D01*
X4099D01*
X5099Y18898D01*
Y16899D01*
X4099Y15899D01*
X1100D01*
X10097Y13900D02*
Y19898D01*
X7098Y16899D01*
X11097D01*
X211400Y259100D02*
Y265098D01*
X214399D01*
X215399Y264098D01*
Y262099D01*
X214399Y261099D01*
X211400D01*
X217398Y264098D02*
X218398Y265098D01*
X220397D01*
X221397Y264098D01*
Y263099D01*
X220397Y262099D01*
X219397D01*
X220397D01*
X221397Y261099D01*
Y260100D01*
X220397Y259100D01*
X218398D01*
X217398Y260100D01*
X168250Y74450D02*
Y80448D01*
X171249D01*
X172249Y79448D01*
Y77449D01*
X171249Y76449D01*
X168250D01*
X178247Y74450D02*
X174248D01*
X178247Y78449D01*
Y79448D01*
X177247Y80448D01*
X175248D01*
X174248Y79448D01*
X323750Y220950D02*
Y226948D01*
X326749D01*
X327749Y225948D01*
Y223949D01*
X326749Y222949D01*
X323750D01*
X329748Y220950D02*
X331747D01*
X330748D01*
Y226948D01*
X329748Y225948D01*
X179400Y53498D02*
Y47500D01*
X182399D01*
X183399Y48500D01*
Y52498D01*
X182399Y53498D01*
X179400D01*
X185398Y47500D02*
X187397D01*
X186398D01*
Y53498D01*
X185398Y52498D01*
X196395D02*
X197394Y53498D01*
X199393D01*
X200393Y52498D01*
Y51499D01*
X199393Y50499D01*
X198394D01*
X199393D01*
X200393Y49499D01*
Y48500D01*
X199393Y47500D01*
X197394D01*
X196395Y48500D01*
X202393Y47500D02*
Y48500D01*
X203392D01*
Y47500D01*
X202393D01*
X207391Y52498D02*
X208391Y53498D01*
X210390D01*
X211390Y52498D01*
Y51499D01*
X210390Y50499D01*
X209390D01*
X210390D01*
X211390Y49499D01*
Y48500D01*
X210390Y47500D01*
X208391D01*
X207391Y48500D01*
X213389Y53498D02*
Y49499D01*
X215388Y47500D01*
X217388Y49499D01*
Y53498D01*
X32799Y66498D02*
X31799Y67498D01*
X29800D01*
X28800Y66498D01*
Y62500D01*
X29800Y61500D01*
X31799D01*
X32799Y62500D01*
X38797Y67498D02*
X36797Y66498D01*
X34798Y64499D01*
Y62500D01*
X35798Y61500D01*
X37797D01*
X38797Y62500D01*
Y63499D01*
X37797Y64499D01*
X34798D01*
X101599Y304098D02*
X100599Y305098D01*
X98600D01*
X97600Y304098D01*
Y300100D01*
X98600Y299100D01*
X100599D01*
X101599Y300100D01*
X103598Y304098D02*
X104598Y305098D01*
X106597D01*
X107597Y304098D01*
Y303099D01*
X106597Y302099D01*
X105597D01*
X106597D01*
X107597Y301099D01*
Y300100D01*
X106597Y299100D01*
X104598D01*
X103598Y300100D01*
X43299Y304898D02*
X42299Y305898D01*
X40300D01*
X39300Y304898D01*
Y300900D01*
X40300Y299900D01*
X42299D01*
X43299Y300900D01*
X49297Y299900D02*
X45298D01*
X49297Y303899D01*
Y304898D01*
X48297Y305898D01*
X46298D01*
X45298Y304898D01*
X274299Y235698D02*
X273299Y236698D01*
X271300D01*
X270300Y235698D01*
Y231700D01*
X271300Y230700D01*
X273299D01*
X274299Y231700D01*
X276298Y230700D02*
X278297D01*
X277298D01*
Y236698D01*
X276298Y235698D01*
D15*
X0Y0D02*
Y308000D01*
X376000D01*
Y304500D02*
Y308000D01*
Y0D02*
Y304500D01*
X0Y0D02*
X376000D01*
D26*
X151400Y267600D02*
G03*
X151400Y267600I-30000J0D01*
G01*
X87500Y267500D02*
G03*
X87500Y267500I-30000J0D01*
G01*
X303500Y212500D02*
G03*
X303500Y212500I-30000J0D01*
G01*
X204133Y1234D02*
Y42966D01*
X206102Y1234D02*
Y42966D01*
X187991Y1234D02*
Y42966D01*
X206102D01*
X187991Y1234D02*
X206102D01*
X12800Y212700D02*
X15800D01*
X12800Y192700D02*
Y212700D01*
Y192700D02*
X18800D01*
Y212700D01*
X15800D02*
X18800D01*
X15800Y191800D02*
Y192700D01*
Y212700D02*
Y213600D01*
X4000Y212700D02*
X7000D01*
X4000Y192700D02*
Y212700D01*
Y192700D02*
X10000D01*
Y212700D01*
X7000D02*
X10000D01*
X7000Y191800D02*
Y192700D01*
Y212700D02*
Y213600D01*
X130400Y23600D02*
Y26600D01*
X110400D02*
X130400D01*
X110400Y20600D02*
Y26600D01*
Y20600D02*
X130400D01*
Y23600D01*
X109500D02*
X110400D01*
X130400D02*
X131300D01*
X150800Y5400D02*
Y8400D01*
X130800D02*
X150800D01*
X130800Y2400D02*
Y8400D01*
Y2400D02*
X150800D01*
Y5400D01*
X129900D02*
X130800D01*
X150800D02*
X151700D01*
X323100Y217600D02*
X333100D01*
X323100Y157600D02*
X333100D01*
X323100D02*
Y217600D01*
X333100Y157600D02*
Y217600D01*
X200781Y209169D02*
Y217831D01*
X198419Y209169D02*
Y217831D01*
Y209169D02*
X200781D01*
X198419Y217831D02*
X200781D01*
X156200Y208000D02*
Y211000D01*
Y208000D02*
X176200D01*
Y214000D01*
X156200D02*
X176200D01*
X156200Y211000D02*
Y214000D01*
X176200Y211000D02*
X177100D01*
X155300D02*
X156200D01*
X226200Y187400D02*
X229200D01*
X226200Y167400D02*
Y187400D01*
Y167400D02*
X232200D01*
Y187400D01*
X229200D02*
X232200D01*
X229200Y166500D02*
Y167400D01*
Y187400D02*
Y188300D01*
X126646Y134192D02*
Y200334D01*
X128220Y134192D02*
Y200334D01*
X126646D02*
X128220D01*
X126646Y134192D02*
X128220D01*
X195481Y167469D02*
Y176131D01*
X193119Y167469D02*
Y176131D01*
Y167469D02*
X195481D01*
X193119Y176131D02*
X195481D01*
X167600Y71100D02*
X177600D01*
X167600Y11100D02*
X177600D01*
X167600D02*
Y71100D01*
X177600Y11100D02*
Y71100D01*
X224300Y37000D02*
X227300D01*
Y57000D01*
X221300D02*
X227300D01*
X221300Y37000D02*
Y57000D01*
Y37000D02*
X224300D01*
Y57000D02*
Y57900D01*
Y36100D02*
Y37000D01*
X190281Y119569D02*
Y128231D01*
X187919Y119569D02*
Y128231D01*
Y119569D02*
X190281D01*
X187919Y128231D02*
X190281D01*
X28200Y13100D02*
X43200D01*
X28200D02*
Y58100D01*
X43200D01*
Y13100D02*
Y58100D01*
X8000Y10500D02*
X120500D01*
X500D02*
X8000D01*
X500Y500D02*
Y10500D01*
Y500D02*
X120500D01*
Y10500D01*
X199401Y269611D02*
X211999D01*
X199401Y295989D02*
X211999D01*
Y269611D02*
Y295989D01*
X199401Y269611D02*
Y295989D01*
X165700Y287500D02*
X168700D01*
X165700Y267500D02*
Y287500D01*
Y267500D02*
X171700D01*
Y287500D01*
X168700D02*
X171700D01*
X168700Y266600D02*
Y267500D01*
Y287500D02*
Y288400D01*
X14800Y258000D02*
X17800D01*
Y278000D01*
X11800D02*
X17800D01*
X11800Y258000D02*
Y278000D01*
Y258000D02*
X14800D01*
Y278000D02*
Y278900D01*
Y257100D02*
Y258000D01*
X210800Y235700D02*
X220800D01*
X210800D02*
Y255700D01*
X220800D01*
Y235700D02*
Y255700D01*
X56000Y226700D02*
Y229700D01*
Y226700D02*
X76000D01*
Y232700D01*
X56000D02*
X76000D01*
X56000Y229700D02*
Y232700D01*
X76000Y229700D02*
X76900D01*
X55100D02*
X56000D01*
D27*
X195860Y219110D02*
G03*
X195860Y219110I-492J0D01*
G01*
X121331Y197972D02*
G03*
X121331Y197972I-492J0D01*
G01*
X190560Y177410D02*
G03*
X190560Y177410I-492J0D01*
G01*
X185360Y129510D02*
G03*
X185360Y129510I-492J0D01*
G01*
X194578Y295792D02*
G03*
X194578Y295792I-492J0D01*
G01*
D28*
X180216Y33084D02*
Y31116D01*
Y32100D01*
X186119D01*
X185135Y33084D01*
Y14069D02*
X186119Y13085D01*
Y11117D01*
X185135Y10133D01*
X184151D01*
X183168Y11117D01*
Y12101D01*
Y11117D01*
X182184Y10133D01*
X181200D01*
X180216Y11117D01*
Y13085D01*
X181200Y14069D01*
X121349Y299615D02*
Y303551D01*
X119381Y301583D02*
X123317D01*
X57449Y299515D02*
Y303451D01*
X55481Y301483D02*
X59417D01*
X305515Y212551D02*
X309451D01*
X307483Y214519D02*
Y210583D01*
M02*
